<?xml version="1.0" encoding="UTF-8"?>
<svg id="Layer_2" data-name="Layer 2" xmlns="http://www.w3.org/2000/svg" viewBox="0 0 283.83 145.83">
  <defs>
    <style>
      .cls-1 {
        fill: none;
        stroke: #000;
        stroke-linecap: round;
        stroke-linejoin: round;
        stroke-width: .5px;
      }
    </style>
  </defs>
  <g id="Layer_1-2" data-name="Layer 1">
    <g>
      <path class="cls-1" d="M119.69,78.32c.87.73.19,1.25-.24,1.8.4.8.11,1.99-.46,2.66-.37.44-1.13.45-1.23,1.18-.23,1.86-.03,3,.72,4.08.59.86,1,1.8.96,2.88-.03.75.52,1.45.34,2.15-.33,1.27.17,2.49.01,3.72-.07.53.14,1.07.41,1.28.8.62.86,1.66,1.52,2.33.02.02.1.14.11.23.24,2.22,1.75,3.82,2.79,5.63,1.13,1.97,2.36,3.92,3.86,5.61,1.37,1.53,2.37,3.35,3.91,4.73.43.39,1,.56,1.34,1.06.89,1.34,2.16,2.38,2.87,3.84.21.42.7.24.96.48,1.62,1.5,3.38,2.86,4.69,4.67.46.64.89,1.3,1.54,1.82.54.44,1.27.86,1.1,1.78-.05.29.24.28.37.35,1.24.7,1.85,1.84,2.28,3.13.15.46.58.69.95.96.12.41-.35.6-.36.96"/>
      <path class="cls-1" d="M76.14,44.49c-.63.09-.62.75-.45.93.49.49.27.82.14,1.37-.19.84-.17,1.79.54,2.51.14.14.52.16.36.47-.77,1.48.72,2.7.45,4.22-.16.94.56,2.01,1.23,2.87.26.34.45.32.74,0,.24-.26.42-.59.56-.87.56-1.18,2.17-1.06,2.64-2.18.2-.65-.5-.73-.55-1.03-.02-.27-.04-.42.11-.49.54-.26.63-.56.26-1.09-.45-.65-.43-1.41-.14-2.15-1.08-1.24-1.2-3.13-.23-4.67.38-.61-.25-1.21.1-1.81.14-.23-.07-.55.12-.84.85-1.33,1.27-2.85,1.89-4.28.66-1.52,1.28-3.04,1.84-4.59.52-1.42,1.69-2.46,2.31-3.76.45-.94,1.29-1.72,1.41-2.84.06-.59.57-.98.87-1.41.92-1.31,1.65-2.76,2.84-3.87.35-.33.62-.67.76-1.19.16-.62.9-.95,1.21-1.38.98-1.39,2.28-2.47,3.31-3.79,1.69-2.15,3.78-3.89,5.74-5.78,1.89-1.82,4.31-2.97,6.04-5,.68-.8,1.84-1,2.74-1.58.42-.27,1.13-.4.81-1.07-.3-.62-1.02-.66-1.65-.61-1.54.14-3.07.16-4.6-.34-1.01.61-1.99,1.35-2.84,2.25-.24.25-.47.39-.84.37-.7-.03-.59.51-.6.95"/>
      <path class="cls-1" d="M15.31,21.81c-.43,1.11-.5,2.41-1.68,3.12-.26,1.87-1.67,3.16-2.45,4.77-.79,1.63-1.45,3.31-2.2,4.95-.56,1.21-.75,2.55-1.08,3.84-.25.99-.58,2.02-.68,3-.18,1.75-.59,3.44-.92,5.15-.09.48.37.67.38,1.08.03.88.71,1.71.04,2.67-.19.27-.22.94.18,1.42.51.6.59,1.41.59,2.15-.01,1.28.23,2.37.88,3.54.36.65.56,1.58.95,2.34.42.81.82,1.62.93,2.53.06.5.23.67.74.74.87.11.69.65.32,1.27.82.11,1.43.75,2.33.65.69-.08.59.5.6.94.01.61-.19,1.25.27,1.78.23-.16.61-.21.8-.08,1.04.69,2.15.41,3.25.35,1.27-.07,2.33.67,3.18,1.38.68.56-.24,1.11-.79,1.49"/>
      <path class="cls-1" d="M58.02,72.92c.82-.45,1.66-1.02,2.4.12.14.21.29.14.48.13,1.22-.05.84.67.6,1.31,1.06.68,1.01,1.12.76,2.41-.42,2.16-1.51,4.12-1.88,6.24-.15.89-.7,1.87-.22,2.87.21.44-.43.68-.37,1.2.17,1.4-.26,2.85.48,4.21.12.22.11.62-.08.95-.52.88-.57,1.81-.13,2.76.06.14.03-.03,0,.12-.53,2.11-.15,4.24-.11,6.36.02.76.19,1.57.34,2.26.28,1.28.38,2.6.69,3.87.11.45.35.84.45,1.3.32,1.49.35,3.08,1.08,4.43.59,1.09.57,2.41,1.4,3.38.2.24.1.55.13.84.1.92.16,1.83.93,2.54.25.23.52.73.47,1.05-.24,1.42.6,2.54,1.31,3.43.99,1.25,1.48,2.84,2.7,3.88.53.45.69,1.01,1,1.55.35.59,1.14.86,1.68,1.42.82.85,1.89,1.52,3.05,2.01.61.25,1.04.86,1.66,1.23.97.59,1.97.79,3.02,1.08,1.13.31,2.24.77,3.37,1.16.78.27,1.71.31,2.29,1.05"/>
      <path class="cls-1" d="M144.11,36.69c.24,1.07.44,2.03,1.6,2.68,1.87,1.05,3.62,2.32,5.31,3.67,1.4,1.12,2.97,1.9,4.8,2.04.24.02.55,0,.58.25.14.99.8,1.05,1.58.96.16-.02.4-.1.47.12.3.97,1.41,1.07,1.92,1.8.23.33.56.17.84.25.25.07.51.19.72.35,1.46,1.17,3.15,1.34,4.92,1.19.08,0,.2-.04.23,0,1.01,1.17,2.56.38,3.74,1.05,1.2.68,2.63.34,3.95.48.32.04.57.14.84.27,1.07.52,2.26.2,3.36.47.5.12.82-.25,1.2-.51.73.7,1.65.58,2.52.63,1,.06,2-.08,3-.15.71-.05,1.2.52,1.93.42.87-.12,1.68-.4,2.52-.59.65-.15,1.19-.96,2.06-.31.37.28.54-.54,1.01-.71.55.49,1.41.46,1.98,1.1.39.44.69-.24,1.07-.22,1.03.05,2,.05,2.79-.82.13-.14.79-.32.9-.23.79.56,1.04-.18,1.47-.52.61.17,1.35.9,1.67-.36"/>
      <path class="cls-1" d="M103.49,4.06c-1-.3-1.76-.24-2.19.95-.25.67-1.02,1.09-1.07,1.93,0,.15-.25.43-.58.37-.15-.03-.44-.05-.46,0-.49,1.24-1.95,1.55-2.56,2.46-.56.84-1.26,1.5-1.93,2.18-.53.54-1.07,1.03-1.41,1.71-.56,1.15-1.6,1.99-2.21,3.04-.85,1.47-2.28,2.55-2.74,4.27-.08.28-.47.48-.69.73-.38.42-.5.9-.24,1.44"/>
      <path class="cls-1" d="M142.37,37.89c.62.78.04,1.41-.38,1.9-1.05,1.2-1.53,2.64-2.02,4.1-.38,1.13-1.11,2.11-1.21,3.36-.08,1.05-.71,1.97-.96,3-.24,1.02-1.23,1.47-1.9,2.17-1.46,1.5-3.38,2.6-4.37,4.47-.36.67-.89,1.07-1.27,1.64-.35.52-.84.58-1.44.5-.49-.06-.32-.37-.36-.62"/>
      <path class="cls-1" d="M138.77,128.58c-.12.08-.16.16-.12.24.81,1.39,2.02,2.52,2.76,3.96,1.29.15,1.64,1.25,2.16,2.16.48.85.27,1.3-.72,1.56-.83.22-1.67.29-2.52.38-1.04.1-1.99.88-3.13.35-.4-.18-.55.32-.84.45-.4.18-.82.39-1.32.14-1.18-.59-2.17-.24-3,.71"/>
      <path class="cls-1" d="M236.31,12.82c0,1.39-.3,1.87-1.68,2-.99.09-1.92.08-2.77.74-.57.44-1.31.39-2.03.39-.74,0-1.53-.27-2.11.66-.16.25-1.08.39-1.72.45-1.94.15-3.9.32-5.53,1.62-.63.5-1.53.46-2.28.56-1.33.18-2.47.84-3.67,1.25-.46.16-1.49.61-1.56,1.8-.06.94-2.05,1.46-3.14.95-1.02-.48-1.76-.48-2.68.34-1.19,1.07-1.71.86-2.61-.56-.1-.16-.31-.12-.48-.12"/>
      <path class="cls-1" d="M126.77,52.88c-.48-.54-1.04-.08-1.48-.25-.41.57-.2,1.11-.26,1.58-.14,1.05-.9,1.47-1.63,1.74-.75.28-.98.65-.95,1.37.02.49.11,1.03-.71.97-.72-.05-.46.75-.79,1.11-.77.85-1.51,1.77-1.89,2.94-.21.64-.45,1.38-1.14,1.83-.74.48-1.09,1.25-1.08,2.14,0,.52-.04.94-.47,1.34-.44.41-.73.9-.56,1.67.1.48-.59,1.01-.69,1.66-.05.35-.25.71-.2,1.08.15,1.13-.68,2.01-.8,3.11-.09.79-.26,1.59-.28,2.41-.02.76-.19,1.51-.22,2.27-.11,2.4-.28,4.82-.06,7.2.11,1.22-.17,2.72,1.01,3.72.17.15.18.4.1.47-1.13,1.22.07,2.37.36,3.34.47,1.58.75,3.32,1.8,4.72.18.24.31.49.61.59"/>
      <path class="cls-1" d="M117.65,99.91c-.54.48-.83.83-.03,1.48.65.53.62,1.58.99,2.36.05.1-.04.32.01.35,1.24.7,1.49,2.12,2.31,3.1.65.79,1.17,1.61,1.53,2.54.27.69.94,1.03,1.28,1.76.54,1.17,1.36,2.28,2.51,3.11.32.23,1.1.96.67,1.86-.19.4.19.72.58.82.79.19,1.13.66.89,1.63.98-.22,1.55.03,1.76.9.06.23.34.49.58.59,1,.4,1.72.95,1.43,2.17-.07.32.18.48.37.59,1.25.77,2.1,2.01,3.26,2.85.85.62,1.79,1.04,2.27,2.07.13.27.55.42.94.37"/>
      <path class="cls-1" d="M7.27,63.92c-.46.48-.23.73.22,1.1.69.57,1.09,1.45,1.65,2.08.88.99,1.38,2.38,3.02,2.8.95.24,1.59,1.61,2.67,2.04,1.11.44,1.95,1.28,2.97,1.86.72.41,1.55-.19,2.23.51.28.29.93.41,1.25.78.33.38.7.33,1.1.34.46.02.85-.02,1.24.44.32.38,1.09.88,1.4-.2"/>
      <path class="cls-1" d="M155.08,7.78c.11.48.52.36.71.22.42-.3.98-.9.69-1.27-.85-1.08-.41-2.3-.47-3.4-.06-1.08-.47-1.75-1.18-2.55-.63.98-1.54.73-2.38.76-1.04.04-1.59.65-1.17,1.54.72,1.51.21,2.85-.29,4.21-.16.44-.21.93-.28,1.34-.19,1.25-.92,2.06-1.74,2.87-.29.28-.45.51-.27.97.13.33-.1.78-.46.93-1.44.62-2.09,2.08-3.21,3.04-.48.41-.8.99-.94,1.76-.14.76-.99,1.4-1.73,1.78-.86.43-1.2,1.15-.44,1.67.89.61.74,1.58,1.17,2.32"/>
      <path class="cls-1" d="M132.41,139.02c-.61-.86-1.45-.66-2.28-.48-1.3.29-2.63.4-3.96.34-.32-.01-.53.14-.71.28-.3.22-.58.37-.84.09-.59-.61-1.26-.38-1.79-.09-.89.49-1.55.32-2.2-.52-.73,1.19-1.75.25-2.63.38-.4.06-.83-.16-1.32.21-.48.37-.99-.03-1.42-.34-.36.09-.48.51-.87.61-.81-.73-1.81-.05-2.73-.34-.72-.23-1.51.06-2.3-.32-.52-.25-1.43-.31-1.99.2-.63.56-1.08.56-1.84.16-.57-.3-1.37-.66-2.14-.07-.65.49-1.52.14-2.13-.04-1.53-.47-3.06-.17-4.58-.29-1.16-.1-2.36.3-3.49-.35-.38-.22-.67.3-1.07.37-1.02.17-1.9-.38-2.87-.48-.45-.04-.76-.46-1.23.07-.18.2-.37-.26-.58-.33-.66-.2-1.37-.62-1.92.23"/>
      <path class="cls-1" d="M281.06,15.1c.27-.68,1.06-1.15.85-2.04-.04-.16-.02-.29.23-.38.36-.12.87-.25.72-.82-.16-.61-.67-.66-1.19-.59-.16.02-.21-.19-.38-.12-.21-1.18-.97-1.86-2.02-2.29-1.2-.49-2.07-1.46-3.11-2.18-.35-.25-.63-.45-1.09-.49-.57-.04-1.13-.22-1.57-.69-.57-.61-1.36-.82-2.15-.83-1.48-.03-2.98-.09-4.43-.32-.7-.11-1.44-.38-2.17-.55-.8-.19-1.54-.32-2.16.38-.18.21-.42.15-.6.1-.89-.24-2.84-.48-3.72-.32-.27.05-.46.09-.73,0-1.18-.42-2.27-.36-3.25.57-.4.38-1.14.29-1.52.09-.87-.44-1.47.2-2.18.26-1.66.15-3.04,1.46-4.8,1.1-.24-.05-.45.02-.6.24-.44.64-1.26.52-1.65.31-.9-.5-1.49-.28-2.2.28-.4.31-.89.56-1.55.53-.32-.48-.77-.89-1.57-.41-.37.22-.78.31-1.33.07-.93-.4-1.95.13-2.84.39-.54.16-1.05.2-1.58.28-.28.05-.65-.18-.83.12-.56.95-1.45.71-2.29.72-.33,0-.7-.15-.96.23-.39.55-1.06.31-1.54.52-1.03.45-2.22.72-2.88,1.77-.09.15-.49.64.22.59"/>
      <path class="cls-1" d="M201.64,6.22c.29-.44.15-.83-.24-1.07-1.74-1.08-3.64-1.84-5.51-2.65-1.1.73-1.99-.38-3-.35-.76.02-1.51-.32-2.29.09-.41.21-.55-.5-.9-.6-.75.38-1.35.63-2.24.21-.71-.33-1.59.22-2.25.77"/>
      <path class="cls-1" d="M32.47,8.74c-.8.9-1.86,1.33-3,1.54-.32.06-.55.16-.71.39-.82,1.14-2.04,1.7-3.25,2.27-.99.47-1.84,1.17-2.82,1.68-.53.27-.9,1-1.73,1.14-.31.05-.85.48-.84,1.03.01.9-.8,1.22-1.24,1.77-.37.46-1.99,2.17-2.12,2.67-.25.92-.49.97-1.32.24"/>
      <path class="cls-1" d="M185.32,2.98c-.48-.62-.98-1.16-1.68-.24-1.3-.57-2.37.53-3.6.47-.57-.03-1.16.29-1.27.62-.36,1.09-1.31.93-1.96.87-.56-.05-.95.1-1.05.44-.33,1.09-1.1,1.05-1.95.95-.7-.08-1.39.06-2.03.26-1.27.39-2.46,1.02-3.85.96-.56-.02-1.02.3-1.32.82-.8,1.4-2.11,1.93-3.56,2.49-.87.34-1.82.67-2.66,1.14-.36.21-.65.49-1.1.45-.62-.05-.76.32-.72.84"/>
      <path class="cls-1" d="M260.18,29.61c-.88.06-1.83.49-2.46-.58-.7.58-1.36.75-2.22.62-.96-.14-1.82.3-2.25,1.34-1.02-.46-2.02-.68-3.02-.07-.09.05-.24-.01-.35.01-.76.17-1.31-.47-1.93-.54-.65-.07-1.36.49-1.91-.3-.16-.23-.45-.18-.59-.11-1.21.61-2.17.05-3.13-.61-1.13-.77-2.43-.71-3.72-.73-.48,0-.91.16-1.17-.68-.21-.68-1.39-.64-2.19-.75"/>
      <path class="cls-1" d="M87.66,23.13c-2.1,1.32-3.17,3.32-3.87,5.63-.35,1.17-.72,2.35-1.49,3.4-.39.53-1.37,1.02-.77,2.01.09.16-.14.25-.23.35-1.08,1.2-.82,3.01-1.91,4.21-.06.07.02.27-.13.35"/>
      <path class="cls-1" d="M64.62,17.13c.96-.73,2.07-.32,2.49,1.09.26.88.84,1.05,1.57,1.36.72.32,1.31.91,2.18.93.16,0,.48.32.46.45-.27,1.66,1.3,1.92,2.08,2.74.67.7.76,1.9,1.93,2.1-.15.99-.55,1.98.92,2.28.41.08.73.62.37,1.16"/>
      <path class="cls-1" d="M132.53,142.98c-.23-.06-.26.32-.48.24-1.58-.63-3.05.05-4.56.35-.25.05-.58.14-.84-.1-.54-.49-1.25-.35-1.79-.21-1.82.48-3.66.8-5.52,1.09-.62.1-1.22-.03-1.81,0-.75.02-1.39.14-1.99.49-.84-.21-.87-1.13-1.48-1.49"/>
      <path class="cls-1" d="M199,9.46c-.29.51-.34.99.22,1.47-.94.62-1.05,1.73-1.7,2.55-.6.76-1.48,1.29-1.89,2.21-.77,1.73-2.82,2.33-3.64,4.06-.16.35-.92.43-1.38.65-.9.45-2.28.55-1.93,2.18-.78.22-2.04-.37-1.8,1.15-1.27.31-1.97,1.37-2.9,2.13-.32.26-.81.56-1.44.2-.42-.24-.91.35-1.29.68-.61.54-1.54.83-1.95,1.28-.72.77-2.02.71-2.37,1.83"/>
      <path class="cls-1" d="M37.63,10.06c.43.65,1.18.75,1.8.8,1.65.15,3.22.89,4.88.61.45,1.07,1.17,1.41,2.2,1.25.36-.06.79-.2,1.1.33.28.48.83.66,1.42.62.54-.04,1.18.36,1.26.61.37,1.18,1.47.93,2.23,1.26.21.09.49.08.71.27.85.76,1.73,1.27,3,1.28.78,0,1.29,1.22,2.17,1.45.51.13,1.25-.17,1.52.41.41.89,1.17,1.08,1.95,1.31"/>
      <path class="cls-1" d="M151.01,37.29c-.01-1.36-.9-1.77-1.99-2.37-1.04-.57-2.15-1.08-3.15-1.73-.14-.09-.29-.36-.35-.57-.43-.06-.75.39-1.23.14-.29-.15-.71-.03-1.13-.03-.24-.57-.57-1.12-.82-1.66-.48-.12-.48.29-.67.46-.78.71-.88.7-1.32-.36-.18-.44-.51-.65-.96-.59-.45.07-.51.43-.49.83.05.94-.59,1.58-1.08,2.28-.66.94-1.42,1.84-1.07,3.12.14.53-.07.9-.48,1.2-.35.25-.77.41-.99.83.1.51.47.7.87.85"/>
      <path class="cls-1" d="M191.92,8.02c-.26.26-.42.61-.76.86-.75-.24-1.43-1.09-2.39-.29-.29.24-.84-.17-1.3-.09-.56.1-1.2-.25-1.6.58-.24.5-.69-.09-1.11-.27-.72.85-1.66.72-2.69.7-1.76-.05-3.42.36-5.08,1.18-1.11.55-2.59,1.59-3.97.28-.83.73-1.74,1.23-2.45,1.98-.35.36-.7.25-1.08.12"/>
      <path class="cls-1" d="M60.3,117.9c-.48.11-.29.55-.22.71.48,1.1.66,2.28,1.49,3.29.95,1.14.85,2.76,1.24,4.16.04.16-.09.43.12.47,1.55.31,1.15,1.73,1.38,2.67.23.93,1.31.24,1.35.95.03.56-.34,1.2.39,1.55.74.35,1.32.78,1.31,1.69,0,.19.16.34.25.35,1.2.1,1.56.95,1.95,1.92.26.64.99,1.02,1.65,1.19.96.25,1.65.71,2.17,1.57.47.78,1.34,1.17,2.15,1.41.93.27,1.77.71,2.48,1.28.62.5,1.2.73,1.95.69.2,0,.44-.16.63.21.18.36.53.77,1.06.27.24-.22.47.15.7.23,1.65.6,3.2,1.54,5.04,1.43.57-.04.49.83,1.21.7.91-1.54,2.01-.4,2.98.06.85.4,1.6.54,2.54.37.8-.14,1.7-.27,2.52.18.21.12.39.37.71.26.97-.33,2.03.07,3.02-.45.63-.33,1.46-.64,2.04.31.18.29.73.28.92,0,.52-.79,1.1-.44,1.73-.18.4-.38.86-.67,1.35-1.03.59.32,1.17.76,1.9,1,.25-.25.66-.38.67-.86"/>
      <path class="cls-1" d="M213.75,33.45c-.83-.65-1.13.01-1.3.61-.21.74-.31,1.51.07,2.29.14.3.18.76-.44.98-.68.24-1.28.7-2.05.69-.16,0-.44-.05-.46,0-.42,1.04-1.78.92-2.29,2.11-.38.89-1.5,1.82-2.89,1.61-.98-.15-1.78.08-1.99,1.23-.74-.09-1.58-1.22-2.04.11-.2.56.51.7,1.03.7"/>
      <path class="cls-1" d="M277.94,13.54c-.42,1.04.31,1.8.88,2.36.8.78.64,1.53.59,2.44-.09,1.55-1.05,2.54-1.96,3.59-.37.43-.63.81,0,1.21"/>
      <path class="cls-1" d="M197.08,45.69c-.67-.7-1.45-.88-2.27-.34-.5.33-.83.58-1.47.14-.7-.49-1.5.09-2.12.38-.92.42-1.63.74-2.44-.15-.34-.38-.8-.17-1.05.23-.28.44-.48.93-.86,1.34-.61-.12-1.2-.33-1.79-.5"/>
      <path class="cls-1" d="M164.56,15.22c-.2.73-.78.84-1.39,1.17-1.08.57-2.63.21-3.3,1.58-.05.11-.16.28-.35.24-1.78-.37-2.6,1.28-3.78,2.01-1.34.83-2.87,1.15-4.15,2.05-.2.14-.49.16-.71.37-.61.6-1.37.75-2.14.35-.29-.15-.54-.24-.85-.22"/>
      <path class="cls-1" d="M277.7,13.84c-.59-.2-1.38-.74-1.66-.68-1.38.25-1.78-.52-2.2-1.52-.13-.31-.61-.1-.93-.12-.2-.01-.38.14-.6.11-2.18-.3-2.16-.23-3.85.2-.54.14-1.34.35-1.77-.22-.78-1.04-1.52-.55-2.33-.15-.54-.43-1.04-.67-1.8-.11-.51.38-1.32.4-1.76-.33-.38-.62-1.1-.48-1.28-.21-.63.94-1.64.68-2.32.61-1.1-.11-2.18.38-3.25-.03-.14-.05-.37-.08-.47,0-1.25,1.03-2.64.7-4.09.68-.88-.01-1.87.24-2.75.1-1.09-.18-1.74.62-2.62.87-.78.21-1.42-.25-2.22.05-.7.27-1.59.44-2.34.66-1.05.31-2.02.2-3.02.15"/>
      <path class="cls-1" d="M194.8,27.81c-.88.76-1.7,1.62-3,1.55-.19-.01-.31.14-.48.13.2,1.18-.86,1.04-1.45,1.29-.63.26-1.31.36-2.04.17-.47-.12-1.15-.21-1.08.69,0,.14.11,0,0,.12-.07.09-.17.24-.24.23-1.07-.2-1.68,1.06-2.76.87-.4-.07-.63-.36-.97-.5-.23,0-.28.28-.47.36-1.05.46-1.27,1.48-1.7,2.39-.52,1.1-1.6,1.78-2.64,2.08-.75.22-1.38,1.38-2.37.57-1,.75-1.3-.31-1.78-.74-.62-.55-1.23-1.18-1.1-2.14"/>
      <path class="cls-1" d="M142.49,22.89c-.52.52-.73-.51-1.34-.09-.52.54-.71,1.54-.2,2.24.38.53.75,1.05.97,1.68.16.47.63.76,1.04.35.76-.76,1.91-1.23,2.06-2.5"/>
      <path class="cls-1" d="M16.99,10.66c-.68.54-1.16,1.34-2.28,1.24-.66-.06-.78.9-1.22,1.24-1.23.94-1.25,2.19-1.17,3.51"/>
      <path class="cls-1" d="M227.67,31.53c-1.11-1.18-1.09-1.12-2.41-.38-.7.39-1.47.29-1.93-.64-1.08.57-2.56.22-3.19,1.44-.74.26-.81-.62-1.45-.53-.67,1.03-.9,2.31-1.26,3.49-.16.53.17,1.29.12,2.02-.07,1.14-.4,2.22-.45,3.35-.04.95-1.05,1.4-1.54,1.36-1.32-.12-2.01.88-3.01,1.28"/>
      <path class="cls-1" d="M12.07,16.89c-1.22-.44-1.25-.39-1.69.71-.35.87-1.15,1.1-1.98.95-.37.76-.24,1.55.12,1.89.69.66.41,1.28.32,1.96"/>
      <path class="cls-1" d="M49.14,7.06c-.27-.23.01-.59-.23-.84-.6-.62-.79-.54-1.34.63-.51-.11-.99-.33-1.55-.28-1.05.1-1.71-.4-1.91-1.43-.07-.38-.41-.64-.38-1.08.03-.45-.35-.69-.71-.83-.81-.31-3.22.38-3.84,1.07"/>
      <path class="cls-1" d="M204.51,23.73c-.29.09-.67.22-.7.48-.13,1.09-.64,1.31-1.59.85-.12-.06-.35-.08-.48.11-.86,1.28-2.28,1.35-3.58,1.74-.46.14-.95.66-1.47.87-.6.24-1.32.44-1.79-.33"/>
      <path class="cls-1" d="M1.99,40.41c-.28-.04-.36.08-.37.36-.02,1.04-.51,2.02-.26,3.13.17.77-.14,1.48-.8,2.05-.74.64.03,1.39.29,1.74.63.83.72,1.31.3,2.37-.33.83-.31,2.24.49,3.18.42.49.93.84.37,1.59-.21.28.03.66.45.83.69.28,1.03.76.74,1.55-.14.39-.03.94.14,1.17.61.77.57,1.72.88,2.56.53,1.44,1.34,2.48,2.8,2.98"/>
      <path class="cls-1" d="M223.71,11.62c-1.37-.02-2.78-.57-4.09.34-.11.08-.45-.12-.7-.1-.51.03-.95-.09-1.12.72-.2.96-.95,1.24-1.87.83-1.37-.59-2.73-.11-4.08-.06-.28,0-1.07.26-.51,1.06.32.46-.64.51-.59,1.06.07.71-.13,1.47.75,1.97-1.49.85-2.87,1.31-4.22,1.85-.36.14-.8.03-1.07-.34"/>
      <path class="cls-1" d="M69.42,26.25c-.82.6-.84,1.03.01,1.28.43.13.88.19.93.64.14,1.42,1.61,2.24,1.61,3.72,0,.16.28.36.33.6"/>
      <path class="cls-1" d="M138.29,38.73c.03.43-.31.55-.57.73-.26-.09-.39-.32-.7-.39-.38.46-1.3.63-1.11,1.45.24,1.01-.36,1.44-.86,1.89-.54.15-.52-.29-.72-.45-.58-.47-.78-.23-1.11.35-.63,1.09-.16,2.03.15,3.02"/>
      <path class="cls-1" d="M227.43,31.89c.72-.75,1.55-.25,2.27-.08.68.16,1.25.19,1.94,0,.97-.27,2-.33,2.99.07.42.17.91.36,1.31-.11"/>
      <path class="cls-1" d="M62.7,15.46q.45-.45.34-1.48c-.74.37-1.32-.39-2.16-.13-.52.16-.49-.52-.46-.91.1-1.06,0-1.19-.96-.82-.83.32-1.25-.31-1.8-.62-.98-.55-1.88-1.35-3.12-.71"/>
      <path class="cls-1" d="M258.86,34.53c-.49.57-1,.59-1.7.28-.45-.21-1.16-.57-1.46.43-.13.44-.57.51-1.06.15-.92-.67-2.65-.51-3.45.21-.58.18-.66-.52-1.06-.59-1.77.88-2.89-.31-4.11-1.19"/>
      <path class="cls-1" d="M227.31,27.21c.19-.4.29-.91-.02-1.17-.42-.35-.63-.94-1.18-1.1-.92-.27-1.07.48-1.28,1.28-1.51-.92-2.97.21-4.49-.12-.33-.07-1.82-.17-1.68,1.23.03.3-.29.6-.69.6-1.4-.02-2.31.66-2.89,1.92-.34.74-1.19.81-1.79,1.2"/>
      <path class="cls-1" d="M227.55,26.13c.13-.24.48-.22.57-.48.42-.07.53.29.74.48,1.11,1.05,1.3,1.03,2.17-.26,1.38.48,2.63,1.4,4.19,1.33"/>
      <path class="cls-1" d="M155.2,8.26c.09.91-.46,1.69-.7,2.49-.41,1.41-.05,2.76-.3,4.03.08.16.05.29-.08.31-.39.06-.51.8-1.09.38-.24-.18-.33-.46-.21-.59.32-.37.6-.85,1.18-.85.94,0,1.92-.14,2.76.48"/>
      <path class="cls-1" d="M129.17,59.24c.18,1.05-.91,1.37-1.37,1.58-.64.29-.68.87-.63,1.05.46,1.42-.63,2.08-1.41,2.73-.57.48-1.09.76-1.2,1.6-.08.68-1.24,1.1-2.26.96-.89,1.08-1.17,2.19-.64,3.62.31.83.13,1.89-.66,2.62"/>
      <path class="cls-1" d="M40.99,4.78c-1.1-.06-2.31-.01-2.74-1.33-.32-.97-1.05-.57-1.58-.56-.78.02-1.54.29-2.28.57"/>
      <path class="cls-1" d="M114.65,144.42c-.25.21-.4.57-.84.48-1.32-.25-2.64-.4-3.96,0-.35.1-.52-.15-.72-.36"/>
      <path class="cls-1" d="M147.17,135.54c1.72.29,2,.79,1.32,2.4-.06.15.04-.04,0,.12-.1.44.51,1.05-.25,1.3-.4.13-.9-.05-1.31.15-.92.44-1.93.27-2.88.47"/>
      <path class="cls-1" d="M235.95,32.13c1.39,1.45,3.09,1.18,4.83.85.5.24.88.67,1.28,1.07.79.8,1.49.88,2.38.1.48-.42,1.34.15,1.58-.7"/>
      <path class="cls-1" d="M162.04,43.05c.95-.73,2.11-.75,2.73.14.6.86,1.22,1.13,2.19.83.35-.11.72-.03.96.35.73,1.14,2.12.94,3.12,1.55.19.12.4-.12.59-.22.79-.41,1.54-1.18,2.52-.37.11.09.03.08.1,0,1.38-1.51,2.39.5,3.61.37"/>
      <path class="cls-1" d="M55.14,73.64c-.59-.01-1.11.07-1.6-.57-.64-.84-2.06-.92-2.94-.24-.62.47-1.14.02-1.56-.09-.99-.24-2.1-.42-3.02-.06-.53.21-.95.18-1.46-.21-.48-.36-1.14-.86-1.69.19-.35.66-.88.05-1.28-.29-.68.36-.37,1.76-1.56,1.45"/>
      <path class="cls-1" d="M73.26,32.49c-.59.03-1.47-.15-1.38.71.07.68.23,1.73,1.54,1.48-.12.59.25,1.28-.75,1.3-.37,0-.45.39-.35.7.21.61.84,1.04.74,1.81-.03.2.41.36.56.22.64-.58,1.13.15,1.69.14"/>
      <path class="cls-1" d="M209.79,45.45c.65-.32.77.3,1.09.5-.03.78-.53.74-.97.7-1.5-.15-2.76.24-3.59,1.57-.26.42-.54.29-.85.12"/>
      <path class="cls-1" d="M56.7,104.23c-.81.73-.12,1.41.14,2.03.41.98.74,1.9-.05,2.97,1.16.24.92,1.18.94,1.84.02.66-.21,1.28.4,1.81.45.39-.44.81-.01,1.33.42.51.36,1.34,1.1,1.67.37.16.24.54.24.83-.01.52.06.97.61,1.2"/>
      <path class="cls-1" d="M76.5,30.81c.16.32.32.64.49.99.54-.2,1.17-.51,1.53.22.27.55.83,1,.18,1.83-.65.84.06,1.67.68,2.35-.38.69-.67,1.37,0,2.05"/>
      <path class="cls-1" d="M264.02,27.57c-.54-.12-.97.22-1.45.34-.8.19-1.39,1.03-2.41.68-.3-.1-.35.58-.34.97"/>
      <path class="cls-1" d="M26.59,4.18c-.76.17-1.53.2-2.29.45-1.03.33-1.67,1.02-1.4,2.07.15.59,0,.96-.39,1.33"/>
      <path class="cls-1" d="M25.15,71c.41.39.92.37,1.44.36.59,0,1.26-.19,1.57.59.04.11.15.26.35.25,2.43-.21,4.75,1,7.2.61.53-.08,1-.05,1.34.58.53.95,1.17.87,1.65-.11.47-.95,1.1-1.1,2.4-.6"/>
      <path class="cls-1" d="M159.04,42.33c0-.2-.02-.4,0-.6.05-.45.38-1.18-.13-1.25-.63-.09-1.09-.92-1.93-.34-.77.53-1.74-.19-2.62.03"/>
      <path class="cls-1" d="M176.8,29.61c-.55-.21-1.17-.31-1.17.48,0,1.03-.66,1.09-1.35,1.19-.39.06-.78-.04-1.09.36-.41.52-1.64.75-.47,1.69-.3.36-.23.79-.24,1.2"/>
      <path class="cls-1" d="M49.14,6.22c.69-.58,1.01-.15,1.19.48.16.59.24,1.2.03,1.74.45,1.04,1.44.54,2.15.72,1.16.29,1.51,1.04,1.78,1.98"/>
      <path class="cls-1" d="M152.44,38.49c.03-.61.38-.91.81-.46.55.58.98.73,1.72.37.43-.21.71.17.72.69,0,.36-.41.49-.37.84"/>
      <path class="cls-1" d="M276.98,23.13c-.86.74-1.76,1.36-3,1.09-.46-.1-.68.22-.84.59"/>
      <path class="cls-1" d="M201.4,6.34c1,.26,2.06.42,2.65,1.27.01.71-.98.92-.49,1.61"/>
      <path class="cls-1" d="M169.48,12.82c-.36.94-1.27,1.16-2.04,1.55-.69.35-1.48.5-1.98,1.17-.5-.36-.99-.49-1.5-.56"/>
      <path class="cls-1" d="M202.12,13.06c.62.34.51.99.1,1.15-.72.29-.92.7-.82,1.37.08.53-1.09.34-.6,1.08.27.41-.03.8,0,1.2"/>
      <path class="cls-1" d="M52.62,78.8c-.89.12.09.7-.24.96.34.12.3.7.97.54.65-.15,1.4-.25,2.16.03,1.36.52,1.57.94.58,1.94-.69.7-.96,1.42-.75,2.42.09.45.46,1.12-.2,1.55.69.87-.07,2.01.32,2.71.52.94.24,1.35-.3,1.98-.21.25-.48.55-.53,1.02.79.88,1.04,1.91.79,3.17-.16.81-.24,1.75.33,2.5.35.46-.42.69-.03,1.21.16,0,.45,0,.73,0"/>
      <path class="cls-1" d="M38.83,77.84c-.44-.75-1.16-.48-1.8-.48-.91,0-2.38.46-3.12.96-.56.37-1.08.09-1.32-.72"/>
      <path class="cls-1" d="M22.03,7.9c-1.18-1.08-2.24-.79-2.64.72-.05.2.1.44-.12.6-.29.21-.24.67-.61.84-.49.09-.77-1.05-1.44-.25-.33.39-.3.62.13.85"/>
      <path class="cls-1" d="M279.38,26.25c-.09.3.24.5.22.72-.05.57.96,1.25,0,1.63-.55.22-.77.84-1.54.83-.92-.02-1.8.26-2.78,0-.49-.12-1.25.32-1.66.89"/>
      <path class="cls-1" d="M271.34,30.33c-.71-.16-1.14.2-1.18.84-.04.69-.39.68-.86.6"/>
      <path class="cls-1" d="M269.78,32.01c.2.46.24,1.12-.24,1.14-.7.03-1.5,1.08-2.16-.06"/>
      <path class="cls-1" d="M216.15,25.65c.44-.05,1.01.21,1.2-.48.08-.32-.22-.57-.36-.57-.49.02-1.2-.33-1.32.57"/>
      <path class="cls-1" d="M76.62,41.25c-.62.36-1.28-.11-1.93.1-.36.12-.68-.2-.57-.57.23-.77.76-.51,1.19-.28.58,1.26.36,2.38-.53,3.31.21.53.59.63,1.01.68"/>
      <path class="cls-1" d="M159.28,41.37h.24q1.71,0,2.52,1.44"/>
      <path class="cls-1" d="M22.39,8.32c.01.54-.58.7-.72,1.15-.69-.29-1.49.07-2.16-.37"/>
      <path class="cls-1" d="M121.37,72.08c-.39-.04-.75.03-1.07.25-.07.28-.04.7.13.8,1.11.7.88,1.63.45,2.53-.4.84-1.24.77-2.02.73"/>
      <path class="cls-1" d="M273.14,25.05c-.8-1.15-1.69-.11-2.38.07-1.29.34-2.43,1.15-3.85,1.29-.92.09-1.72.78-2.64,1.05-.21.06-.18.31,0,.47"/>
      <path class="cls-1" d="M133.97,46.89c-.11-.52.34-1.31-.6-1.43-1.17-.14-1.49.14-1.68,1.31"/>
      <path class="cls-1" d="M131.45,48.69c-.55.37-1.05.67-1.81.39-1.29-.47-2.44.48-2.38,1.89.02.63-.54,1.06-.49,1.68"/>
      <path class="cls-1" d="M182.32,45.21c.25.3.65.15.99.3.5.23,1.28-.08,1.63.55.3.54-.5.96-.34,1.55"/>
      <path class="cls-1" d="M9.67,23.37c-.45-.1-.44-.6-.71-.83-.44-.12-.48.51-.85.47-.35-.04-.53.15-.72.38-.12.43.44.65.36,1.07-.41.74-1.1,1.15-1.82,1.51.19,1,.57,1.9-.28,2.86-.36.4.09,1.36-.18,2.1-.76-.17-1.2.47-1.78.76-.41.21-.37.65-.03,1.07.22.28.87.09.74.7"/>
      <path class="cls-1" d="M29.11,6.22c-1.35-.52-1.11-1.49-.72-2.52.16-.43.33-.99-.24-1.17-.49-.15-1.12-.16-1.42.45-.22.44-.28.91.11,1.32.3.31.61.59,1.08.6"/>
      <path class="cls-1" d="M215.07,26.37c.44.03.86,0,1.06-.6-.43-1.43-1.3-.14-1.89-.06-.56.08-.59.72-.26,1.26.25.41.21.87.01,1.31"/>
      <path class="cls-1" d="M62.34,20.01c-.47.19-.67.5-.36.96.63.91,1.21,1.74,2.36,2.25.76.33,1.19.75,1.87-.1.58.86.84,1.94,2.13,1.97.56.01.35.85.72,1.17"/>
      <path class="cls-1" d="M143.81,139.86c.24.48.19,1-.36,1.04-.65.05-.78.62-1.13.81-1.38-.11-2.69-.7-4.02-.04-.44.22-.94-.06-1.31.14-.71.38-1.52.53-2.09,1.27-.57.74-1.96.24-2.24-.69"/>
      <path class="cls-1" d="M41.83,77.36c.76-.04,1.4-.04,1.22,1.08-.14.88.87.78,1.31,1.32.81-1,1.83-.92,2.87-.73,1.34.24,1.37.22,1.68-1.08"/>
      <path class="cls-1" d="M21.79,70.4c.96.22,1.87.62,2.88.6"/>
      <path class="cls-1" d="M266.9,33.81c-.61.86-1.7.57-2.4.59-.8.02-1.32.27-1.92.61"/>
      <path class="cls-1" d="M203.31,9.7c.03-.71.34-.44.73-.26.37.17.48.51.33.72-.33.46-.35,1.18-1.06,1.34"/>
      <path class="cls-1" d="M196.06,8.14c.67,1.18,1.85,1.05,2.94,1.14v-.3"/>
      <path class="cls-1" d="M204.15,48.45c.09.45-.1.88-.13,1.32-.04.6-.42.74-.95.48"/>
      <path class="cls-1" d="M282.62,21.45c.25.22.47.52.35.83-.31.78-.29,1.8-.67,2.34-.63.91-1.17,2.24-2.67,2.22"/>
      <path class="cls-1" d="M3.91,34.77c-.91.84-1.15,2.03-1.26,3.12-.08.91-.56,1.26-1.14,1.67"/>
      <path class="cls-1" d="M55.38,99.07c-.5.4-.48.77,0,1.21.45.42.6,1.17.32,1.52-.63.77.14,1.25.23,1.82.08.49.83.52,1.37.43"/>
      <path class="cls-1" d="M181.72,45.57c-.91-.75-1.99-.42-3-.46-.49-.02-.7.4-.84.82"/>
      <path class="cls-1" d="M258.98,34.17c1.2,1.07,1.25,1.08,2.52.24"/>
      <path class="cls-1" d="M263.06,32.49c-.73.23-1.32.57-1.45,1.44-.11.76.39,1.16.86,1.55.44.37.74.11.83-.71"/>
      <path class="cls-1" d="M271.82,27.93c.05.76-.09,1.53.12,2.28"/>
      <path class="cls-1" d="M200.32,17.97c1.2,0,2.4.01,3.6-.12.55-.06.95.1,1.09.72.11.5.55.58.94.46.34-.1.49-.55.34-.81-.32-.55-.78-.51-1.18-.01"/>
      <path class="cls-1" d="M148.73,23.13c-.24.2-.42.75-.59.68-.96-.4-1.17,1.08-2.06.76-.35-.13-.81.26-1.08-.24"/>
      <path class="cls-1" d="M41.47,76.4c-.06.35.08.66.24.96-.32.32-.49.79-.99.98-.51-.08-1.02-.45-1.59-.14"/>
      <path class="cls-1" d="M37.51,8.74v1.11c-.58.29-1.32.03-1.6.81-.41-.35-.76-.56-.92-.96"/>
      <path class="cls-1" d="M211.83,42.69c-1.13.52-2,1.2-1.56,2.64"/>
      <path class="cls-1" d="M70.02,23.25c-.51-.11-.58.19-.61.6-.03.57.03,1.2-.59,1.56"/>
      <path class="cls-1" d="M202.96,10.9c.24.23.22.57.35.85.38.82-.05,1.22-.83,1.37"/>
      <path class="cls-1" d="M24.79,76.4c.44.84,1.09.8,1.93.63.89-.18,1.79.26,2.78-.21.8-.37,1.78.38,2.72.49.61.08,1.45-.39,1.93.4"/>
      <path class="cls-1" d="M200.32,43.65c-.44.45-1.24.41-1.46,1.19-.09.33-.52.38-.81.12-.58-.5-.75-.03-.96.37"/>
      <path class="cls-1" d="M63.18,15.46c.9.06,1.1.82,1.44,1.44"/>
      <path class="cls-1" d="M169.96,45.33c.03-.38.04-.78-.37-.95-.41-.17-.58.26-.83.47"/>
      <path class="cls-1" d="M32.59,3.1c-.65-.22-1.04-.79-1.91-.84-.75-.05-1,.04-1.2.61-.16.47-.5.14-.73.24"/>
      <path class="cls-1" d="M281.9,14.2c.21.04.37.2.6.19.4-.02.94-.13,1.04.36.07.33-.17.75-.44.85.34,1.4.62,2.71.11,4.06"/>
      <path class="cls-1" d="M281.78,19.65c.24,0,.48,0,.72,0,.5.02,1.19-.16,1.07.72-.09.63-.59.92-1.19.95-.19,0-.43-.06-.6-.22"/>
      <path class="cls-1" d="M212.91,31.05c.91.19.73,1.31,1.57,1.61-.4.56-.74,1.02-.67,1.63"/>
      <path class="cls-1" d="M196,8.44c-.47.27-.8.55-1.48.12-.6-.38-1.56.17-2.3-.61-.27-.29-.51-.63-.62-.91-.15-.39-.37-.14-.52-.22"/>
      <path class="cls-1" d="M76.38,29.37q1.41,1.02,1.44,2.04"/>
      <path class="cls-1" d="M139.01,37.29c.09-1-.53-.74-1.08-.6"/>
      <path class="cls-1" d="M76.2,36.93c.03.59-.66.93-.54,1.56"/>
      <path class="cls-1" d="M119.81,76.64c.31.73.01,1.33-.5,1.78-.25.22-.19.4-.22.62"/>
      <path class="cls-1" d="M3.79,33.09c-.72.86-.71.93.36,1.56"/>
      <path class="cls-1" d="M34.51,4.54q-.33-1.07-1.57-1.69c-.4.14-.49.46-.47.85"/>
      <path class="cls-1" d="M158.92,13.3q-1.8.12-2.28.96"/>
      <path class="cls-1" d="M182.2,44.97c-.45.6-.53,1.2-.01,1.78-.38.59-.98.5-1.55.5"/>
      <path class="cls-1" d="M75.9,38.49c-.46.07-.64.25-.37.72.26.44.15.86-.23,1.2"/>
      <path class="cls-1" d="M143.81,36.93c-.38-.03-.72-.01-.96.36-.4.61-1.04.61-1.68.6"/>
      <path class="cls-1" d="M47.7,6.82c.76.9,1.58.45,2.4.12"/>
      <path class="cls-1" d="M203.55,24.21c-.4-.01-.88.13-1.18-.14-.48-.41-.79-.22-1.09.14-.41.49.15.67.35.96"/>
      <path class="cls-1" d="M32.47,9.1c.77.61,1.61.83,2.52.35.68-.35,1.23-.46,1.44.49"/>
      <path class="cls-1" d="M48.3,77.36c.27.55.78.31,1.36.38-.39.82.07,1.43.56,2.02"/>
      <path class="cls-1" d="M25.87,7.54c.11-1.14-.8-.96-1.3-.79-.49.17-.94.33-1.46.31"/>
      <path class="cls-1" d="M51.54,72.68c-.03,1.12.59,1.38,1.56,1.2"/>
      <path class="cls-1" d="M39.91,9.7c.6.34-.08.82.12,1.2"/>
      <path class="cls-1" d="M50.22,79.4c.52-.57,1.2-.67,1.92-.6"/>
      <path class="cls-1" d="M247.59,5.68c-.69-.85-.85-.83-1.32.18"/>
      <path class="cls-1" d="M61.38,74.48c-.95-.34-1.59.08-2.1.84"/>
      <path class="cls-1" d="M22.99,8.62c.49.4,1.07-.26,1.56.12"/>
      <path class="cls-1" d="M67.14,24.21c.25-.04.38-.28.62-.35.22.28.04.63.1.95"/>
      <path class="cls-1" d="M255.62,34.41c-.03.45-.61.24-.72.6"/>
    </g>
  </g>
</svg>