<?xml version="1.0" encoding="UTF-8"?>
<svg id="Layer_2" data-name="Layer 2" xmlns="http://www.w3.org/2000/svg" viewBox="0 0 265 143.85">
  <defs>
    <style>
      .cls-1 {
        fill: none;
        stroke: #000;
        stroke-linecap: round;
        stroke-linejoin: round;
        stroke-width: .75px;
      }
    </style>
  </defs>
  <g id="Layer_1-2" data-name="Layer 1">
    <g>
      <path class="cls-1" d="M254.62,91.42c-.48-.12-.97-.21-1.48-.43-.79.67-1,1.73-1.84,2.39-1.2.94-2.21,2.4-3.55,2.84-1.56.51-2.39,2.24-4.16,2.18-.08,0-.33.07-.34.11-.57,1.52-2.29,1.21-3.23,2.06-.93.83-1.93,1.28-3.14,1.43-.51.06-.8.59-1.24.86-2.09,1.3-4.34,2.31-6.34,3.78-.91.67-2.16.43-3.22.74-.07.02-.19-.03-.23,0-.83.71-1.78.56-2.77.51-.69-.03-.93.65-.95,1.28-.03,1.14.28,2.25.52,3.35.16.72.92,1.15,1.75,1.21"/>
      <path class="cls-1" d="M173.28,104.85c-1.25.72-2.5,1.44-3.24,2.76-.28.5-.57,1.02-.97,1.43-.68.72-1.39,1.37-1.71,2.39-.26.82-1.25,1.09-1.8,1.78-.79.98-1.78,1.87-2.6,2.78-.8.89-2.07,1.56-2.4,2.89,0,.04,0,.11,0,.11-1.4.29-1.49,1.91-2.53,2.5-1.17.66-1.91,1.77-3.06,2.49-1.71,1.08-3.49,2.23-4.79,3.81-.5.61-1.57,0-1.62,1.03-1.84,1.16-3.14,3.18-5.52,3.48-.15.02-.04-.12-.11,0-.49.81-1.1,1.37-2.03,1.73-.56.21-.97.8-1.7.68-.16-.03-.37-.09-.48.11-.49.95-1.48.88-2.29,1.04-.79.16-1.68-.07-1.81,1.12-.01.12-.21.37-.46.36-1.12-.05-1.83,1.16-3,.96-.39-.06-.5.3-.72.48-1.04.89-1.61.94-2.83.19-1.82,1.62-3.89,2.54-6.44,1.86-1.37.95-3.65,1.4-4.92.87-.61.9-1.47.87-2.39.21-.49,1.35-1.72.86-2.62,1.18-.29.1-.77-.24-.84.36"/>
      <path class="cls-1" d="M181.32,90.1c.79-1.09.63-1.54-.6-1.67-.44-.05-.78-.04-.99-.6-.19-.52-2.09-.97-2.46-.59-.49.49-.74,1.12-.78,1.9-.06,1.15.07,2.39-.8,3.36-.51.57-.23,1.19-.08,1.85-.58.74-1.23,1.41-1.7,2.3-.48.91-1.14,1.96-2.41,2.38-.93.32-1.61,1.27-1.91,2.23-.4,1.27-1.39,1.85-2.45,2.21-.56.2-.75.52-1.08.88-.53.59-.69,1.53-1.66,1.71-.29.05-.26.45-.36.7-.24.58-.23,1.4-1.2,1.32-.62,1.36-2.3,1.71-2.95,2.91-.92,1.71-2.48,2.75-3.64,4.18-.39.49-.73.08-1.15.1-.72,1.38-2.37,2.14-2.71,3.84-.03.15,0,.1-.11.11-1.86.03-1.96,2.52-3.72,2.64-.45.03-.73.38-.79.62-.09.35-.4.44-.51.77-1.14-.83-1.75.23-2.53.66-1.22.68-1.92,1.92-2.97,2.79-.55.45-1.1.77-1.71.77-.97,0-1.8.31-2.38,1.01-.71.85-2.08.92-2.26,2.12-.48.06-.74-.16-1.13-.01-1.52.59-3.11,1.03-4.44,2.06-.33.25-.75.38-1.19.37-.28,0-.62-.1-.83.12-1.16,1.23-2.77.99-4.21,1.31-1.04.24-2.21.09-3.01,1.07-.28.34-.84.22-1.18.1-1.2-.4-2.29-.36-3.24.52-.44.4-1.07.46-1.43.3-.76-.34-1.47-.33-2.18-.06-1.18.45-2.33,0-3.48-.03-.44,0-.8.18-1.2.25-.9.16-1.76.27-2.53-.46-.44-.42-.96-.42-1.43.1-.63.69-1.32.43-2.16.38-.99-.05-1.93-.65-3-.29-.92.31-1.94-.08-2.85-.27-1.17-.24-2.32-.1-3.35.15-1.04.25-1.77-.05-2.4-.59-.99-.85-1.97-.91-3.01-.31-.39.23-.78.09-.95-.05-.74-.59-1.44-.37-2.3-.08-.96-.95-1.27-2.86-3.37-2.48.37-1.5.78-2.74,1.53-3.91.83-1.28,1.78-2.25,3.28-2.61.07-.02.17,0,.24-.13.68-1.33,2.36-1.23,3.24-2.28.02-.02.08,0,.12,0,1.79.07,3.12-1.32,4.8-1.54.9-.11,1.11-.58,1.08-1.34"/>
      <path class="cls-1" d="M2.79,93.09c-.78.14-1.36.47-1.57,1.32-.42,1.74-1.25,3.4-.63,5.29.2.6.33,1.15.73,1.69.64.85.42,2,.74,2.98.06.18-.08.5.02.58,1.01.86,1.38,2.06,1.8,3.25.05.15.21.38.46.36,1.23-.11,1.57.66,1.69,1.68.03.25.07.66.35.7,1.03.13,1.04,1.24,1.69,1.68.82.55,1.45,1.28,2.15,1.94,1.38-.74,1.4-.73,1.92.6.42,1.08,2.13,1.63,3,.96"/>
      <path class="cls-1" d="M171.84,106.17c.61,1-.13,2.22.55,3.27.21.32-.41.86-.67,1.28.57,1.02,1.02,2.09,1.73,3.05.32.43.86,1.2.43,2-.15.27,0,.69.13.81.86.78,1.12,2,2.12,2.69.4.28.66.78.93,1.25.44.77,1.14,1.6,2.33,1.5.69-.06.95.5,1.07,1.07.15.67.35,1.2,1.21,1.09.5-.07.7.27.85.71.6,1.74.61,1.73,2.5,1.42.34.62.55,1.55,1.7,1.14.28-.1.64.31.47.8-.39,1.15.18,1.21,1.08.97.35-.1.8-.04.93.3.22.55.66.52,1.09.68.66.25,1.43.32,1.74,1.27.25.74,1.09.67,1.99.02"/>
      <path class="cls-1" d="M191.04,6.36c.29-.21.56-.52.58-.84.05-.81.4-1.08,1.22-1.11,1.05-.03.84-1.01.66-1.51-.19-.54-.26-.87.18-1.22.39-.32.89-.16,1.18.03.5.32.95.6,1.58.58.58-.02.7.5.84.94.18.61.48,1.15,1.08,1.43.6.28.74.94,1.18,1.34.11.1.15.32.25.47,1.12,1.61,1.8,1.69,3.26.22.76,1.12,2.35,1.36,2.76,2.89.13.49.64,1.08,1.05,1.02.59-.08.61.33.84.55.39.35.67.82,1.34.5.16-.08.54.07.71.33.92,1.47,2.12,2.63,3.72,3.37.17.08.26.24.25.47-.03.87.58.86,1.19.84.83-.03,1.14.25,1.57,1.13.4.81.38,2.39,1.91,2.46.3,1.32,1.21,1.48,2.4,1.5.53.01.94.85,1.45,1.24.57.43.58,1.55,1.67,1.36.09-.02.25.28.23.46-.16,1.58,1.37,2.31,1.82,3.59.13.36.58.39.94.5.74.23,1.83.07,1.73,1.43-.02.26.47.67.81.81.69.3.95.76.82,1.46-.08.44.24.76.49.81,1.75.34,2.54,2.01,3.86,2.72-.12,1.74.14,3.33,1.44,4.48.74.66,1.21-.17,1.77-.7.48.38,1.14.65,1.12,1.57-.01.37.34.61.81.61.55,0,1.07.2,1.55.46.11.31-.04.6-.14.84-.09.22-.15.54-.08.59.91.71.69,2.01,1.36,2.72.37.39.51.67.55,1.13.09,1.13.25,2.29.56,3.33.23.76.78,1.56,1.25,2.29.32.5.4,1.05.62,1.56.49,1.15.38,2.61,1.6,3.37-.21.68-.47,1.36.28,1.93.11.08.25.16.25.35-.07,1.93,1.57,1.91,2.76,2.42.26,1.13.49,2.28.59,3.46.08.85.8,1.53.53,2.53-.13.46.57.53,1.03.46,1.47-.22,1.55-.17,1.55,1.2,0,1.42.21,2.78,1.11,3.94.08.1.11.2.09.25-.61,1.83.35,3.52.49,5.28.01.18-.06.33.22.51.67.41.68,1.2.73,1.89.07.9-.07,1.78.45,2.66.37.63.34,1.46-.56,1.9-.62.3-.96.89-1.31,1.42.35.33.21.85.58,1.21-.63.76-1.38,1.45-.83,2.52"/>
      <path class="cls-1" d="M224.03,113.97c-.07.39.25.7.25,1.07q-1.14,1.06.03,2.69c-.25.64-.93,1.15-.77,2,.05.28-.3.43-.52.6-.88.68-.9.93-.19,1.91-.27.52-.59,1.1-1.09,1.28-.52.19-.56.45-.6.88-.04.47-.33.79-.83.71-.87-.14-1.2.95-2.04.85-.56,1.52-2.15,1.77-3.24,2.64-1.06.84-2.22,1.01-3.48.48-.23-.1-.47-.19-.72-.12-1.55.46-2.8-.57-4.19-.87-.2-.04-.46-.15-.6-.08-1.25.65-2.01-.28-2.9-.84-.24-.15-.45-.57-.82-.37-1.01.56-1.45.09-1.83-.84-.2-.49-.79-.62-1.16-.12-.46.62-.99.52-1.57.35-.17-.34-.3-.75-.33-1.08-.06-.85-.4-.89-1.12-.74-.92.19-1.77-.29-2.11-1.08-.31-.75-.79-.99-1.35-.78-.62.23-.83-.22-1.21-.4"/>
      <path class="cls-1" d="M41.07,80.74c-.7.39-1.35.71-2.18.15-.51-.35-1.28-.03-1.76.16-.74.28-1.18-.01-1.7-.31-.49.43-.78,1.06-1.73.43-.57-.38-1.74-.06-2.31.35-.85.62-1.41.33-1.87.01-1.77.49-3.3,1.17-5.02.75-.4-.1-.79-.27-1.08.13-.91,1.3-2.16,1.85-3.7,2.25-1.01.26-2.11,1.01-2.87,1.85-.98,1.07-2.34,1.6-3.29,2.71-1.15,1.34-2.4,2.52-2.69,4.45-.11.73-.21,1.57-.55,2.28-.14.3-.12.58-.09.85.23,1.89.4,3.85,1.05,5.6.32.85.97,1.89,1.82,2.55.54.42.54,1.48,1.55,1.33"/>
      <path class="cls-1" d="M207.59,3.84c1.03-.79,1.99-.32,2.86.26.43.29.78.63,1.34.57.98-.1,1.43.38,1.44,1.32,0,.58.01,1.1.84,1.11.29,0,.53.25.63.69.17.73.71,1.14,1.52.85.94-.33,2.48.58,2.47,1.56,0,.46.21.7.41.69.69-.05.95.28,1.1.87.03.11.05.42.34.37,1.63-.29,1.78,1.21,2.36,2.07.38.56,1.01.88,1.19,1.61.46-.05.8-.51,1.26-.2.47.32.33.78.36,1.32,1.19,0,1.52,1.07,2.15,1.81.49.56.76,1.39,1.68,1.43.19,0,.33.15.35.25.21,1.48,1.64,1.73,2.54,2.51.55.47.65,1.2,1.15,1.73.55.58.73,1.46,1.71,1.67.58.13.44.83.61,1.29,1.41.03,1.5,1.38,2.14,2.17.49.61,1,1.26,1.01,2.14,0,.18.22.47.55.63,1.13.55,1.15.73.73,2.02.36.48.91.54,1.42.77,1.31.58,2.44,1.48,3.16,2.82.53,1,1.01,2.01,1.75,2.91.77.93,1.46,1.99,1.82,3.33.47-.21.97-.2,1.33.24.22.26.2.56,0,.84"/>
      <path class="cls-1" d="M95.3,66.82c.28.27.47.58.61.95.26.69.67,1.29,1.55,1.2.91-.09.68.92,1.26,1.23.84-.5,1.59.02,2.2.48.73.56,1.53,1.01,2.14,1.83.58.77,1.86.98,2.82,1.45.32.16.67.26.94.53.56.57,1.09,1.18,2.04.97.3-.06.59.11.84.34.81.74,1.67,1.42,2.87,1.19.32-.06.44.23.72.28.68.14,1.2.89,2.07.37.18-.11.78.27.81.8"/>
      <path class="cls-1" d="M246.23,103.17c-.62,1.34-1.15,1.8-3,2.5-.23.09-.52-.01-.72.25-.69.92-1.57,1.55-2.6,2.11-.6.32-1.14.71-1.83.77-1.72.14-2.81,1.37-4.07,2.3-.29.21-.64.39-.88.75.57,1.06-.09,2.02-.48,2.94-.45,1.06-.93,2.08-.68,3.25.27,1.24-.66,1.51-1.47,1.86.63,1.57.39,1.83-.65,3.1-.74.91-1.89,1.14-2.56,2.01-.38.5-1.27.62-1.13,1.56.03.17-.37.47-.8.49-1.33.07-2.01.92-2.27,2.14-.14.67-.58,1.07-1.03,1.46-1.64-.48-2.38.2-1.97,1.78.16.61-.1,1.06-.5,1.43-.42.39-.74-.04-1.07-.23-.54-.33-1.08.4-1.71-.09-.61-.48-1.15-.05-1.55.56-.16.25-.61.23-.81.11-.68-.41-1.48-.27-2.17-.58"/>
      <path class="cls-1" d="M249.59,45.59c.49-.09.79.43.8.6.05,1.06.56,1.73,1.48,2.16.3.14.26.44.24.72-.02.35.04.67.24.96.55.8.94,1.65.96,2.64,0,.15.05.32.24.36,1.63.37,1.07,2.12,1.89,3.03.2.23-.16.75-.46.94.02.47.57.51.5.95-.26,1.45.89,2.16,1.7,2.97.58.58,1.1.98.33,1.7-.49.46.17.71.13,1.09-.06.65.2,1.27.23,1.92"/>
      <path class="cls-1" d="M257.62,65.86c.16-.18.36-.21.6-.25,1.38-.2,1.35-.2,1.69,1.09.14.55-.1,1.28.7,1.58.29.11.2.56.11.69-.77,1.1-.24,2.05.27,3.01.19.36.22.67.14,1.09-.21,1.13.41,2.21.35,3.36,0,.07.14.21.23.23.87.23,1.33.78,1.32,1.69,1.17.37.66,1.55,1.07,2.29.09.15-.07.48.03.58,1.13,1.12.11,1.6-.61,2.17,1.15,1.46.68,3.29-1.08,4.2"/>
      <path class="cls-1" d="M18.03,109.41c.33-.97,1.04-.7,1.41-.21.68.9,1.43,1.47,2.53,1.85.67.23,1.16.85,2.05.97.75.1,1.27,1.22,2.17,1.33,1.16.15,2.09,1.08,3.36.91.3-.04.85-.1,1.23.4.47.63,1.27.63,2,.38.69-.23,1.15.02,1.7.46,1.06.84,2.2,1.46,3.71,1.03.7-.2,1.57.11,2.25.37,1.13.42,2.11.82,3.4.5.68-.17,1.58.2,2.37.34.62.11,1.2.21,1.81.07.72-.16,1.44-.37,2.15,0,.11.06.16.14.25.11,1.85-.52,3.8.41,5.64-.37.4-.17.89-.25,1.19-.09.92.51,1.76.19,2.66,0,.9-.2,1.82.13,2.76-.11,1.28-.33,2.49-.93,3.83-.98.19,0,.32-.18.48-.13,2.62.78,5.05-.41,7.56-.72.24-.03.51-.07.71,0,1.31.51,2.56-.13,3.84-.13.8,0,1.56-.56,2.41-.14.42.21.5-.48.95-.49.8-.02,1.55-.23,2.41-.02,1.39.33,2.79-.27,4.18-.47.64-.09,1.34.18,1.93-.31.52-.43.79.25,1.26.37.38-.46.9-.72,1.48-.36.42.26.64-.15.97-.14,1.35.03,2.67-.22,3.95-.61.27-.08.47-.15.73.01.79.49,1.41.56,1.96-.45.27-.49.83.16,1.32.26.25-.76.95-.61,1.51-.76,1.5-.4,2.85-.38,4.12.8.47.43,1.23.54,1.8,1.08.75.7.81,1.48.91,2.33.09.78-.12,1.31-1.07,1.21-.57-.06-1.15.23-1.29.72-.32,1.15-1.28,1.02-2.08,1.17-1.36.26-2.73.41-4.08.73-.11.03-.31-.05-.35.01-.88,1.26-1.64.57-2.44-.2-.75.61-1.47,1.55-2.49.31-.54,1.02-1.36,1.09-2.27.84"/>
      <path class="cls-1" d="M78.62,125.49c.23-.52.05-1.04.15-1.64-.87.04-1.43.09-2,.77-.67.8-.95,1.57-.79,2.56.24,1.46.07,1.75-1.44,2.02-.61.11-.75.44-.99.96-.8,1.74-.54,3.51-.45,5.3.01.2.02.4,0,.6-.15,1.47-.09,1.55,1.32,1.56"/>
      <path class="cls-1" d="M118.21,53.75c-.53-1.64-1.42-1.94-2.64-1.8-.72.08-1.43.31-2.16,0-.34-.14-.6.09-.84.35-.36.4-.76.77-1.18,1.19-1.06-.67-1.85-.08-2.8.31-.96.4-2.16.5-2.57,1.52-.48,1.21-1.32,2.06-2.23,2.83-.65.55-1.18,1.15-1.64,1.84-1.05-.82-2.6-.8-3.76-.29-1.03.45-2.21.74-3.34.6-1.03-.13-1.55.24-1.79,1.13-.1.37-.23.66-.61.58-.82-.17-1.4.62-2.29.43-.76-.16-1.17.62-.81,1.37.26.53.05.85-.09,1.34-.4,1.42-1.2,2.72-1.34,4.19-.09.89.7,1.32,1.42,1.52.42.11.58.37.7.64.65,1.47.64,1.47,2.17,1.97.08.88.2,1.7,1.44,1.51.7-.11.88.67,1.14,1,.55.7.95,1.08,1.87.7.37-.15.88-.11,1.31.08.13.4.27.8.35,1.21.07.39.24.68.61.58.8-.21,1.29.64,2.05.5.24-.04.44.18.46.35.13,1,.94.82,1.57.96"/>
      <path class="cls-1" d="M99.73,89.62c-.41.48-.84.56-1.45.26-.77-.38-1.69-.85-2.39-.87-.99-.02-1.95-.25-2.88-.26-1.39-.02-2.67.06-3.85-.8-.13-.09-.5-.15-.71.1-.44.52-.98.29-1.43.11-1.28-.53-2.68-.25-3.97-.7-1.48-.51-3.04-.35-4.55-.52-1.12-.12-2.44.16-3.25-1.04-.2-.29-.65-.21-.82-.1-.8.51-1.54-.08-2.3-.03-.27.02-.56.05-.72-.24-.5-.94-1.23-.9-2.1-.38-.65-.97-1.47-1.38-2.59-.83-.33.16-.61-.08-.84-.35-.46-.53-.96-.95-1.69-.37-.1.08-.38.08-.46,0-.71-.75-1.54-.33-2.28-.2-.6.11-1.05-.18-1.57-.24-1.94-.24-3.83-.7-5.76-.97-.54-.07-.71-.41-.96-.74"/>
      <path class="cls-1" d="M188.4,9.6c-.03-.48-.17-.92-.6-1.2-.36-.24-.81-.18-1.06.02-.45.37-.46.91-.14,1.41-.23.35-.62.48-.97.59-.4.13-.73.31-.7.74.1,1.66-1,1.98-2.29,2.17-1.38.2-1.38.22-1.2,1.67-.25.31-.63.34-.96.48-.43.18-.69.46-.6.96.13.78-.26,1.36-.72,1.92"/>
      <path class="cls-1" d="M136.81,27.11c.1-.73-.53-.82-1-1.11-.29.31-.6.55-.83.97-.5.95-1.13,1.72-2.5,1.52-.56-.08-1.23.24-1.91.24-.68,0-.65.83-.57,1.38.04.27.49.38.59.72-.35.33-.72.56-1.21.48-.18-.03-.41,0-.47.13-.76,1.51-2.69,2.24-2.78,4.19-.01.23-.08.51-.47.49-1.08-.05-1.07.77-.92,1.42.13.55.23.93-.12,1.47-.36.56.13,1.25.13,1.9,0,.36.11.73-.05,1.08-.21.45-.38.82-.04,1.35.16.25.26.98-.1,1.14-1.35.64-.62,1.71-.53,2.54.06.54.09,1.16.5,1.72.43.58-.42,1.27-.24,2.02.06.25-.11.63-.08.95.08.74-.23,1.05-.97.96-.44-.05-.88-.05-1.08.48-.09.23-.25.27-.48.25-.78-.07-1.24.21-1.21,1.07,0,.19-.39.49-.83.72"/>
      <path class="cls-1" d="M130.33,47.99c.76.7.8,1.09.23,2.53.6.47,1.04,1.09,1.78,1.48.78.42.74,2.01.01,2.56-.52.39-.84.88-1.04,1.41-.4,1.06-.93.88-1.58.29"/>
      <path class="cls-1" d="M43.11,75.1c.46-.78,1.05-1.15,1.91-.59.13.08.3.17.36.1.9-1.1,2.09.45,3.01-.35.9.77,2.28.02,3.11.97.44.5.93.48,1.44.23,1.53-.73,3.12-.21,4.68-.24.23,0,.25.31.48.25.21,1.85,2.13.76,2.88,1.68,2.14-.85,3.32.89,4.79,1.81.13.08.23.12.37.11,1.11-1.46,2.63-1.74,4.09-.67.54-.7,1.13-1.03,2.06-.45.5.31,1.23-.23,1.9.02.73.27,1.57.33,1.33,1.46-.02.09.22.24.34.36.73-.22,1.37-.23,2.19.03.93.29,2.07-.14,3.09-.4.66-.17,1.12-.18,1.59.47.48.66,1.09,1.51,2.14.64.17-.14.52-.04.7.11,1.29,1.1,2.84.87,4.33.81.8-.03,1.15.7,1.94.95.51-.93,1.33-.88,2.13-.42.32.18.5.31.73-.02.15-.22.5-.36.58-.23.69,1.12,1.9-.29,2.51.49.63.8,1.24.89,2.07.47.16-.08.45-.09.59,0,1.29.84,2.61.09,3.83-.1.99-.15,1.95-.65,3.01-.64"/>
      <path class="cls-1" d="M16.59,80.5c-.86-.28-1.76-.3-2.64-.22-.64.06-1.4.02-1.57.94-.04.24-.2.4-.47.49-1.05.34-1.01,1.17-.84,2.03"/>
      <path class="cls-1" d="M41.07,79.9c.34,1.28,1.4,1.53,3.03.7.44.67.76,1.2,1.81.56.76-.46,1.84.18,2.7.47.59.21,1.02.35,1.58.06.64-.33,1.35-.21,2.04-.26.3-.02.77.25.84-.35"/>
      <path class="cls-1" d="M180.6,23.28c-.31.28-.58.53-1.07.64-1.15.27-2.3.32-3.44,1.04-1.03.65-2.64.73-4.01.79-.88.04-1.71.35-2.65.25-.74-.08-1.54.55-2.39.66-1.05.14-2.16,0-3.12.58-.85-.91-1.84-.26-2.76-.22-.9.04-1.74.06-2.66-.17-.74-.19-1.69.36-2.1,1.05-.67.26-.73-.59-1.29-.34-.51.11-.83.76-1.39.85-.47.07-.99-.17-1.07-.8"/>
      <path class="cls-1" d="M189.6,17.28c.19.85-.14,1.68-.19,2.52-.04.86-1.04.75-1.73.85-.24.03-.37-.24-.37-.24-1.29,1.31-2.57,2.1-4.19,2.27-.2.02-.35.01-.49.24-.57.86-1.19.48-1.79,0"/>
      <path class="cls-1" d="M118.21,79.54c.7.9,1.69.25,2.53.45.26.06.5-.27.59-.57.1-.35-.15-.68-.36-.69-.78-.03-.82-.94-1.48-1.12-1.33.15-1.33,1.53-1.97,2.32-.51.64-.86,1.44-.54,2.38.14.41.02.8-.55,1.11-1.12.61-1.37,1.7-.86,2.84.29.64.03,1.22-.15,1.8-.1.31-.57.57-.8.35-1.2-1.15-2.22-.09-2.97.45-.92.67-1.56.77-2.46.18-.41-.27-.82-.19-1.2.22-.77.82-1.75.75-2.75.5-.76-.19-1.5-.2-2.29.09-.93.35-1.95.67-2.75-.34"/>
      <path class="cls-1" d="M110.29,143.12c-1.38-.49-2.73.03-4.07.18-.44.05-.79.18-1.21-.05-.38-.21-.8-.19-1.19,0-.33.15-.68.21-.95-.01-.86-.68-1.68-.42-2.54-.01-.15.07-.41.27-.58.13-1.23-1-2.64.03-3.99-.39-.95-.29-2.14.2-3.21-.09-1.11-.29-2.3-.5-3.37-.6-2.11-.21-4.01-1.21-6.11-1.31-.08,0-.18-.03-.24,0-1.65,1.01-2.55-.08-3.5-1.19-.23-.27-.7-.56-1.05-.47-1.02.24-1.83-.5-2.77-.49-.83,0-.81-.68-.92-1.11-.11-.42.29-.73.8-.71"/>
      <path class="cls-1" d="M139.69,33.71c-.43.36-.68.93-1.44.87-.46-.04-.59.57-.84.92-.29.4-.67.66-1.2.6-.78-.09-.98.08-.83.84.18.95.42,1.82-1.09,1.83-.6,0-.73.84-1.25,1.2-.56-.29-1.27-.19-1.83-.53-.68.5-.43,1.42-.98,1.97-.14.14-.08.61.22.69,1.11.27,1.3,1.12,1.46,2.05.03.18.22.46.45.6-.88.88-.72,2.36-1.8,3.12"/>
      <path class="cls-1" d="M208.55,3.24c-.05-.59-.23-1.1-.84-1.32-.61-.22-1.26-.3-1.37-1.2-.03-.29-.56-.55-1.05-.14-.61.51-1.11,1.18-1.93,1.46-.24-.12-.33-.36-.49-.58-.33-.46-.78-.55-1.3-.04-1.1,1.08-1.85,2.37-2.51,3.73"/>
      <path class="cls-1" d="M78.5,123.81c-.04-.46-.17-.89-.35-1.32-.25-.62-.63-.82-1.33-.87-1.44-.11-2.66.35-4,.75-1.3.39-2.77.56-4.17.83-.22.04-.49.11-.72-.1-.64-.58-1.11-.28-1.69.21-.68.57-1.54.75-2.38.26-.61-.35-1.14-.45-1.69.12-.64.66-1.32.67-2.28.56-2.02-.23-4.1-.43-6.11.28-.97.34-2.1-.16-3.02.58-.08.06-.54-.17-.7-.45"/>
      <path class="cls-1" d="M187.2,118.29c.36-.14.63-.42.91-.66.57.36,1.26.5,1.14,1.38-.08.58.41.52.82.62,1.21.3,1.76,1.49,1.2,2.5"/>
      <path class="cls-1" d="M194.16,130.52c-.13.85.17,1.81.86,1.96.97.21,2.19.48,3-.85.73,1.21,2.02,1.32,3.03,1.78.57.25,1.58.41,2.34.3.68-.1,1.16.04,1.43.54.71,1.37,1.93,1.27,3.14,1.18.96-.08,1.37-.54,1.56-1.55"/>
      <path class="cls-1" d="M38.79,75.1c.02-.58.08-1.19-.8-1.35-.5.4-1.05.83-1.73.98-.3.07-.58.43-.97.03-.36-.38-.81-.09-1.18.11-.57.3-1.85.64-2.64.58-.61-.04-.72.63-1.2.74-.66-.43-1.54-.06-2.16-.6-.26-.22-.6-.24-.87-.57-.69-.87-1.31-.66-1.63.46-.04.13-.2.2-.12.37-1.29.24-2.53.71-3.85.83-2.15.21-2.5.12-2.4,2.51"/>
      <path class="cls-1" d="M18.63,118.65c.28.35.64.46,1.08.49,1.09.08,2.11.4,3.14.79.67.26,1.61.62,2.04-.55.18-.5.84-.3.91-.11.38,1.1,1.79,1.01,2.08,1.86.9.26,1.11-.56,1.68-.8"/>
      <path class="cls-1" d="M139.69,33.35c.63.82,1.05.1,1.43-.26.41-.39.03-.83-.25-1.04-.33-.24-.7-.72-1.17-.49-.44.22-.26.68-.13,1.06"/>
      <path class="cls-1" d="M168.96,21c-.46-.47-1.1-.69-1.58-1.18-.68-.7-1.5.02-2.26,0-1.02-.02-1.2.84-1.31,1.67.35.22.71.09,1.07-.02"/>
      <path class="cls-1" d="M129.37,54.95c-.03,1.81-.02,1.88-1.81,2.24-.58.12-.68.76-1.19.75-.89-.02-1.98.05-2.59-.41-1.21-.91-2.12-.45-3.03.21-.59.42-1.01.96-1.71.23-.08-.08-.38.03-.59.08-.71.17-1.38.64-2.21-.02-.25-.2-1.45-.27-1.83.2-1.35,1.65-3.05,1.86-4.96,1.53"/>
      <path class="cls-1" d="M180.72,90.1c1.08.38,1.55,1.42,2.23,2.2.28.32.51.67.89.78.93.28.55,1,.21,1.17-.79.39-.41,1.01-.3,1.35.46,1.3.51,1.28-.88,1.57"/>
      <path class="cls-1" d="M182.64,95.97c-.03,1.01.61,2.19-.78,2.79.52.76,1.03,1.42-.05,2.02-.44.24-.29.73-.22,1.07.22,1.2.41,2.41.63,3.65-.35.53-.87,1.01-1.37,1.51"/>
      <path class="cls-1" d="M179.4,19.2c-.6-1.53-1.06-1.72-2.52-1.21-.67.23-1.3-.33-2.05-.19-.3.06-.96-.06-1.43-.26-.82-.36-1.37-.07-1.55.83"/>
      <path class="cls-1" d="M43.23,75.34c-.3-.62-.7-.3-1.08-.12-.72.35-1.32.7-2.21.06-.52-.37-1.49-.07-2.23.18"/>
      <path class="cls-1" d="M15.27,116.49c.19,1.2,1.13,1.74,2.04,2.27.56.32.87.11,1.19-.71"/>
      <path class="cls-1" d="M148.32,27.35c.25,1.55-.05,1.99-1.56,2.01-.42,0-.68.28-1.08.3-.31.02-.69.38-.95.07-.64-.77-1.65-.34-1.87-.06-.7.91-1.89.85-2.59,1.63"/>
      <path class="cls-1" d="M182.76,112.05c.35-.05.64.09.83.36.33.48.59,1.02,1.33.99.08,0,.47.16.5.56.06.72.34,1.26,1.15,1.61.84.35.59,1.07.02,1.63"/>
      <path class="cls-1" d="M101.05,66.7c-.02-.73-.79-.36-.81-.34-.52.64-.93.43-1.5.01-.26-.2-.78-.01-1.18.18-.58.28-1.19.49-1.79.74"/>
      <path class="cls-1" d="M19.11,78.22c-1.55-.29-2.15.07-2.34,1.69-.04.33-.37.7-.12,1.07"/>
      <path class="cls-1" d="M120.97,53.39c-.09-.53-.13-1.13-.84-1.19-.63-.05-.89.33-.98.95-.08.56-1.06.36-1.06,1.08"/>
      <path class="cls-1" d="M262.54,87.7c.01.44.37.67.61.95.83,1,.51,2.15.44,3.24-.05.74-.64,1.35-1.3,1.52-.62.16-1.02-.41-1.19-1.03"/>
      <path class="cls-1" d="M200.75,7.68c-.23,1.51-1.75,1.54-2.68,2.23-.32.24-.68.34-.81.77-.1.35-.33.53-.72.48-.74-.09-1.07.35-1.33.95-.28.65-.02,1.08.49,1.44.14.1.13.23.12.36q-.73.93-1.68.72c-.75-.17-.94-.01-.69.71.09.26.08.49.09.73.01,1.16-.2,1.28-1.43.84-.53.93-1.05,1.88-2.4,1.32"/>
      <path class="cls-1" d="M10.83,83.26c-.68.1-1.29.25-1.85.79-.22.22-.75.84-1.41.31-.33-.26-.73.14-.93.46-.27.44-.46.93-.96,1.21-.23.13-.28.48-.12.7.71.95.05,2.14.57,3.14.16.3-.03.67-.46.7-.65.05-1.01.46-1.32.97-.35-.04-.53-.39-.84-.47-.26-.07-.5-.01-.73.22-.23.23-.34.52-.21.72.69,1.07.27,2.39.82,3.49.1.21-.29.25-.23.48"/>
      <path class="cls-1" d="M260.98,92.85c-.15.44-.43.82-.51,1.31-.09.54-.44,1.17-1.16.71-.8-.51-.92.58-1.57.53-.78-.06-.61.55-.48,1.05.04.18-2.1,2.97-2.27,2.99-.12.02-.24-.01-.36,0-.51.07-.93-.74-1.42-.22-.32.34-.64.79-.82,1.2-.38.86-1.04.79-1.72.82"/>
      <path class="cls-1" d="M107.65,63.58c.14.31.33.6.37.96.05.64-.29,1.06-.83.81-1.01-.49-1.64-.19-2.46.45-.41.32-1.27.55-2,.19-.61-.3-1.19-.12-1.67.35"/>
      <path class="cls-1" d="M147.25,24.24c-.18-.26-.67-.42-.57-.71.29-.89-.13-1.36-.87-1.55-.94-.24-.79.79-1.23,1.21-.8-.32-1.83-.44-2.31.25-.63.89-1.96.31-2.22,1.41-.53-.04-.8-.41-1.2-.55-.96.5-1.25,1.6-2.09,2.16"/>
      <path class="cls-1" d="M164.16,20.16c-.3-.31-.59-.63-1.15-.6-.39.23-.64.64-.91,1.07-.2.32-.58.76-.93.58-.96-.5-1.53-.09-1.97.68-.37-.16-.6-.34-.68-.65-.21-.88-.78-.71-1.45-.62-1.89.26-3.59,1.02-5.27,1.84-.26.13-.64.17-.71.08-.6-.73-1.57-.3-2.15-.64-1.16-.68-1.67.02-2.31.66"/>
      <path class="cls-1" d="M29.55,119.97c.17.51.71.82.41,1.58-.25.64.66,1.33,1.23.9.94-.71,1.59-.05,1.89.44.37.61.78.51,1.26.56.77.08,1.59-.26,2.28.35.13.11.32.09.47,0,1.38-.75,2.8-.16,4.2-.14.43,0,.58.29.84.5.21.16.62.33.69.22.68-.91,1.38-.23,1.92.06.54.29.97.21,1.46.08"/>
      <path class="cls-1" d="M152.52,27.83c-.89.17-1.29,1.21-2.4,1.15-.65-.04-1.12-.12-1.56-.55"/>
      <path class="cls-1" d="M110.41,59.98c-.12.96-.74,1.85-.04,2.91.37.56-.35,1.05-.77.77-1.16-.75-2.19,0-3.27.04"/>
      <path class="cls-1" d="M181.68,106.41c.99.84,1.21,1.71.7,2.93.39.53.97.93,1.31,1.39.16.64-.5.84-.45,1.32"/>
      <path class="cls-1" d="M152.28,22.08c-.23-.44-.34-.99-.99-1.11-.48.15-.76.47-.81.99"/>
      <path class="cls-1" d="M49.82,123.57c0,.25-.04.5.16.77-.82.55-1.79.48-2.68.67-.56.12-.86-.18-.96-.71"/>
      <path class="cls-1" d="M250.55,101.01c-.32.88-.53,1.87-1.8,1.8-.25-.01-.36.22-.47.36-.82,1.04-.81,1.05-1.93.23"/>
      <path class="cls-1" d="M211.67,132.68c-.1.59.83.88.28,1.71-.87,1.32-1.26,1.47-2.44.33"/>
      <path class="cls-1" d="M171.84,18.72c-.67-.97-1.56-.37-2.27-.19-.66.16-.5.84-.27,1.4.07.17.22.37.14.59"/>
      <path class="cls-1" d="M256.42,83.74c-.19.08-.31-.13-.48-.12-.49.03-1.09-.18-1.3.49-.1.3-.04.58.32.86.61.48,1.03.42,1.46-.15"/>
      <path class="cls-1" d="M191.04,6.96c.02-.37-.22-.65-.34-.97-.22-.6-.74-.6-1.08-.44-.49.22-.52.89-.33,1.27.18.36.37.66.47,1.09.28,1.27.34,1.26-.99,1.32-.08,0-.16,0-.24.13"/>
      <path class="cls-1" d="M118.33,78.22c-.72-.94-1.44-.61-2.16,0"/>
      <path class="cls-1" d="M137.65,31.67c.18.93-.43.96-1.08.96"/>
      <path class="cls-1" d="M80.18,120.69c-.02.41.17.87-.6.88-.43,0-.81.42-1.2.68"/>
      <path class="cls-1" d="M190.56,10.56c-1.14.26-2.02,1.09-3.12,1.44"/>
    </g>
  </g>
</svg>