<?xml version="1.0" encoding="UTF-8"?>
<svg id="Layer_2" data-name="Layer 2" xmlns="http://www.w3.org/2000/svg" viewBox="0 0 141.81 172.86">
  <defs>
    <style>
      .cls-1 {
        fill: none;
        stroke: #000;
        stroke-linecap: round;
        stroke-linejoin: round;
        stroke-width: .5px;
      }
    </style>
  </defs>
  <g id="Layer_1-2" data-name="Layer 1">
    <g>
      <path class="cls-1" d="M53.72,97.11c.76.12,1.29-.38,1.27-.96-.04-.82.41-1.42.71-2.01.37-.73.56-1.4.56-2.19,0-.59,1.09-1,1.79-.72,1.67.67,3.58.26,5.29.11,2.02-.18,3.47-1.52,5.37-1.88,1-.19,1.83-1.26,2.89-1.73,1.76-.78,3.21-2.1,4.92-3,1.52-.8,2.6-2.2,3.81-3.38,1.41-1.38,2.66-2.94,3.97-4.42,1.58-1.78,3.16-3.58,4.66-5.44,1.19-1.47,2.58-2.84,3.89-4.26.81-.87,1.56-1.79,2.5-2.54.61-.49.98-1.28,1.19-2.03.29-1.05.84-1.91,1.47-2.75,1.1-1.46,1.63-3.15,1.91-4.92.13-.84.83-1.39,1.03-2.27.34-1.51,1.03-2.93,1.96-4.23.69-.96.48-1.7-.58-2.75-.84-.83-1.73-.97-2.63-.35-.5.34-.61.98-.92,1.46-.54.86-1.26,1.56-1.86,2.36-2.02,2.75-4.5,5.1-6.73,7.67-.36.42-.85.79-1.45.94-.5-.67-.54-1.58.16-2.47,1.25-1.61,1.88-3.57,2.74-5.35.89-1.84,2.07-3.41,3.14-5.09.21-.33.23-.65.36-.97.5-1.25,1.31-2.36,2.17-3.34,1.14-1.28,1.69-2.85,2.6-4.23,1.3-1.96,2.25-4.13,3.53-6.09,1.4-2.14,2.83-4.25,4.03-6.51.2-.37.45-.78.84-.82,1.51-.14,1.71-1.51,2.4-2.42.47-.61.79-1.37,1.67-1.58.58-.14.31-.83.6-1.19-.4-.4-.8-.8-1.2-1.2-.92-.9-1.29-1.04-2.13-.21-.9.89-2.18,1.47-2.56,2.85-.19.69-.85,1.2-1.26,1.61-1.78,1.78-2.41,4.19-3.74,6.21-2.56,3.9-4.79,8.01-7.28,11.95-.8,1.26-1.63,2.54-2.38,3.8-1.03,1.73-2.33,3.33-3.09,5.23-.47,1.17-1.47,2-2.04,3.12-1.13,2.23-2.33,4.47-2.55,6.97-.08.9-.15,2.22,1.21,2.92,1.24.64,2.28.52,3.38-.06,1.64-.87,2.72-2.4,4.1-3.58.92-.79,1.68-1.65,2.16-2.77.19-.44.7-.5,1.07-.72"/>
      <path class="cls-1" d="M55.58,125.79c.49-2.08,1.32-4.05,1.87-6.12.13-.5.61-.83.84-1.32.72-1.5,1.23-3.11,2.06-4.54.48-.82,1.27-1.56.89-2.53-.64-1.65-.16-2.94.7-4.36.67-1.11-.1-3.87-.91-4.41-.59-.39-2.08-.34-2.64.12-.92.76-2.08,1.22-2.57,2.5-.23.61-.18,1.23-.38,1.84-.32.99-.82,1.78-1.5,2.5-1.96,2.07-3.71,4.34-5.32,6.65-1.68,2.42-3.57,4.59-5.73,6.53-1.31,1.17-2.73,2.26-3.89,3.55-.74.82-1.44,1.18-2.45,1.15"/>
      <path class="cls-1" d="M122,92.07c.06.4-.16.82.2,1.22.67.15,1.37.42,1.96.94,1.32,1.19,2.88,1.12,4.44.71,1.67-.44,2.87-1.54,3.99-2.84,1.06-1.24,1.71-2.74,2.74-3.98.14-.17.12-.32.11-.49-.11-2.32.3-4.67-.34-6.96-.09-.32-.17-.5-.46-.76-.85-.77-1.5-1.69-1.63-2.96-.16-1.6-.59-3.14-1.64-4.45-.51-.64-.91-1.39-.85-2.27.02-.24-.12-.42-.24-.6-.97-1.47-1.35-3.17-1.93-4.8-.3-.85-.15-1.08.72-1.21,2.56-.39,5.16-.72,7.53-1.74,1.17-.5,2.35-1.06,3.49-1.65.58-.3.89-.99,1.18-1.73.82-2.09-.3-3.64-1.05-5.3-.56-1.24-.94-2.57-1.88-3.63-.16-.18-.02-.62-.02-.94,0-.54.02-1-.46-1.46-.88-.86-.71-2.24-1.45-3.23-1.65-2.19-3.46-4.13-6.26-4.77-.29-.07-.68-.17-.95.11-.23.23-.53.17-.72.1-1.85-.65-3.68.24-5.53.04-.69-.07-1.07-.24-1.08-.98-.02-1.45.12-2.9-.33-4.33-.21-.67.38-1.29.38-2.03,0-1.57,1.04-2.9,1.29-4.44.1-.64.91-.62,1.22-1.19,1.01-1.85,1.55-3.84,1.72-5.9.05-.64.51-.92.67-1.43.43-1.45.91-2.88,1.66-4.21.08-.14.02.02,0-.12-.3-1.34.48-2.54.49-3.84.01-.93.22-1.86.29-2.77.19-2.59-.3-5.1-2.22-7.07-1.16-1.18-2.19-1.12-3.36-.02-1.06,1.01-1.65,2.39-2.58,3.43-1.26,1.42-2.63,2.82-4.25,3.91-1.1.74-1.35,2.19-2.28,3.12-.18.18-.32.49-.51.69-1.6,1.73-1.57,2.36.46,4.02,3.63-3.74,7.43-7.33,10.84-11.33"/>
      <path class="cls-1" d="M121.88,24.51c-.79.98-1.3,2.1-1.81,3.24-.33.74-.55,1.53-.79,2.3-.25.82-.55,1.64-.24,2.65.26.84-.32,1.88-.28,2.86.03.56-.07,1.12.2,1.7.21.46-.15,1.01-.45,1.42-1.05,1.44-.76,3.12.73,4.09.42.28.97.4,1.31.2,1.49-.84,3.18-.48,4.67-.9,1.71-.48,3.22.13,4.83.11.84,0,1.78.26,2.25.96.92,1.38,2.19,2.43,2.68,4.26.49,1.83,1.12,3.75,2.18,5.49.57.93.98,2.2,1.04,3.43.04.86-.41,1.62-1.09,1.88-1.68.65-3.36,1.33-5.11,1.85-1.92.57-3.84.13-5.68.69-1.11.34-1.88,1.77-1.57,2.9.57,2.1,1.58,4.01,2.36,6.02.64,1.66,1.49,3.23,2.08,4.91.35,1,.61,2.04.8,3.1.21,1.19-.18,2.79,1.5,3.37.17,1.15,1.73,1.89.88,3.38-.27.49-.05,1.26-.04,1.9,0,.93-.32,1.72-.96,2.4-1.24,1.32-2.37,2.73-4.19,3.4-.81.3-1.52.26-2.03-.2-.75-.67-1.61-1.26-2.2-2.12-.85-1.26-2.21-1.64-3.6-1.78-1.3-.13-2.16,1.19-1.41,2.23,1.59,2.21,1.14,4.7,1.12,7.1-.01.9-.83,1.71-.69,2.76.07.54.1.95.61,1.34,2.15,1.66,2.06,1.89,1.38,4.55-.65,2.51-1.77,4.83-2.99,7.03-1.14,2.05-2.34,4.13-4.09,5.83-1.35,1.31-2.58,2.73-4.23,3.68-.52.3-1.06.58-1.68.6-.44.02-.82-.06-1,.59-.15.57-1.03.38-1.4.85"/>
      <path class="cls-1" d="M67.22,87.63c-.9-.67-1.69.02-2.31.41-.93.58-1.81.99-2.91.92-.92-.05-1.84-.03-2.76,0-.99.03-1.86-.14-2.66-.83-.58-.5-1.49-.28-2.09-.79-1.47.5-1.41,1.68-1.37,2.81.03.79-.02,1.58-.38,2.27-.51.97-.14,2.33-1.31,3.01.26.82-.32,1.5-.38,2.28-.11,1.43-.66,2.65-2.02,3.36-1.16.61-1.45,1.9-1.98,2.91-.72,1.37-1.24,2.87-2.14,4.14-.26.36-.45.71-.56,1.11-.18.65-.41,1.25-.97,1.68-.34.26-.44.69-.64,1.06-1.13,2.07-2.59,3.92-3.71,6-1.09,2.02-2.69,3.71-3.63,5.87-.58,1.34-1.66,2.48-2.5,3.72-.99,1.47-1.58,3.24-3.09,4.34-1.3,3.12-3.91,5.17-6.1,7.58-1.72,1.89-3.43,3.8-5,5.79-1.28,1.61-2.9,2.91-4,4.64-.33.52-.89.86-1.29,1.23-1.09,1.02-1.02,2.64-2.1,3.54-1.31,1.09-2.15,2.59-3.39,3.69-.74.65-.86,1.55-1.46,2.26-1.29,1.51-2.68,2.97-3.74,4.65-.68,1.08-1.6,2.05-1.75,3.46-.09.81-.96,1.43-.7,2.41.11.41.03.72.59,1,1.37.69,1.85.55,3.29-.11,1.61-.74,2.64-2.1,3.46-3.37.69-1.07,1.53-1.97,2.32-2.89.93-1.09,1.8-2.28,2.52-3.44,2-3.26,4.49-6.19,6.32-9.55"/>
      <path class="cls-1" d="M91.52,107.43c-.31-.4-.2-.87-.24-1.32-.23-2.46-.53-4.9-1.53-7.21-.31-.72-.46-1.52-.72-2.28-.59-1.73-1.86-2.56-3.51-2.99-1.06-.28-1.75.5-2.51.98-.64.41-1.07,1.08-1.57,1.66-.76.87-1.42,1.88-2.64,2.15-.77.17-.39.94-.8,1.37-.66.68-1.47,1.29-1.85,2.24-.34.86-.62,1.76-1.17,2.54-.15.21-.07.64.1.94"/>
      <path class="cls-1" d="M66.44,135.99c0,.08,0,.16,0,.24.06,1.12-1.59,1.19-1.45,2.4.12,1.12-.78,1.84-1.37,2.59-.2.26-.24.54-.39.78-1.22,1.87-2.41,3.77-3.99,5.38-.49.49-.83,1.02-1.1,1.67-.69,1.64-1.94,2.9-3.59,3.44-1.96.65-4,.01-5.05-1.98-.59-1.11-.43-2.24-.45-3.37-.01-1.16.25-2.3.03-3.49-.09-.52.58-1,.45-1.67-.3-1.63.61-3.08.8-4.67.17-1.43.62-2.86.76-4.33.05-.49.64-.77.59-1.32-.16-.18-.36-.27-.6-.24"/>
      <path class="cls-1" d="M54.2,97.35c-.07.36.15.75-.12,1.08-.97,1.19-1.03,2.72-1.55,4.09-.43,1.13-.46,2.44-2.05,2.79-.88.19-.81,1.26-1.17,1.91-.34.62-.59,1.26-1.11,1.79-.57.58-1.06,1.26-1.32,2.03-.67,1.95-2.29,3.25-3.4,4.9-.81,1.2-1.41,2.59-2.61,3.5.17,1.34-1.1,1.9-1.53,2.89-.46,1.08-1.17,1.91-1.92,2.78-.34.39-.69.95-.74,1.53-.05.67-.61.96-.91,1.44"/>
      <path class="cls-1" d="M89.72,112.71c-.69.65-.24,1.32.15,1.77.4.44.51.87.43,1.35-.16.95.68,1.47.94,2.26.22.68.75,1.37,1.11,2.07.45.87.87,1.75,1.93,2.04.37,1.47,1.81,1.88,2.77,2.75,2.1,1.89,4.64,2.57,7.43,2.39.13,0,.32-.11.48-.09,1.34.21,2.45-.21,3.36-1.21"/>
      <path class="cls-1" d="M97.4,52.95c-.36.32-.77.68-.59,1.2.41,1.18-.27,2.14-.78,2.98-1.47,2.44-2.85,4.94-4.75,7.12-1.73,1.99-3.59,3.87-5.25,5.91-.82,1.01-1.71,2-2.43,3.09-.49.75-1.08,1.4-1.7,2.03-.62.63-1.24,1.18-1.49,2.15-.25.98-1.39,1.33-2.15,1.89-.88.65-1.7,1.36-2.47,2.1-1.64,1.58-3.55,2.61-5.61,3.56-1.08.5-2.47,1.07-3.05,2.42"/>
      <path class="cls-1" d="M89.96,110.79c-.91.12-1.2-.39-1.33-1.2-.42-2.72-.62-5.48-1.26-8.14-.32-1.32-.42-2.74-1.11-3.99-.47-.85-.7-.96-1.35-.23-1.02,1.15-2.03,2.28-2.42,3.84-.09.36-.37.71-.7.97-.67.53-.94.27-.96-.48"/>
      <path class="cls-1" d="M120.68,94.11c.81-.1,1.24.22,1.2,1.08-.04.92.18,1.81.07,2.77-.11.97.63,1.88,1.16,2.74.27.45.3.86.34,1.34.21,2.37-.06,4.75-.82,6.93-.53,1.51-1.07,3.09-2.01,4.51-1.13,1.71-2.34,3.39-3.36,5.16-1.17,2.02-3.16,3.22-4.4,5.11-.18.28-.64.27-.97.45-.9.49-1.44,1.53-2.5,1.69-.36.06-.93.52-1.2-.21"/>
      <path class="cls-1" d="M55.76,112.83c-1.04,1.18-1.94,2.56-2.99,3.61-1.17,1.17-1.82,2.91-3.49,3.6-.46.19-.67.61-.87,1.06-.09.2.02.45-.21.62-1.81,1.31-3.11,3.16-4.93,4.51-.84.62-1.75,1.37-2.42,2.31-.37.51-.84,1-1.52,1.26-.37.14-.94.39-.86,1.04.03.24-.19.46-.36.46-1.61.07-2.8,1.08-3.93,1.97-2.11,1.67-4.15,3.47-5.64,5.74-.88,1.35-2,2.51-2.85,3.9-.64,1.05-1.25,2.22-2.24,3.01-.53.42-.44,1-.71,1.46-.96,1.68-2.18,3.19-3.22,4.81-.33.51-.7.6-1.21.3"/>
      <path class="cls-1" d="M77.84,107.91c-.88.42-.68,1.45-.85,2.07-.35,1.32-.75,2.68-.94,4.05-.05.4-.18.72-.34,1.09-.63,1.42-.76,3-1.4,4.43-.7,1.58-1.21,3.25-2.24,4.67"/>
      <path class="cls-1" d="M65.72,132.87c-1.34.78-1.43,2.38-2.28,3.48-1,1.31-1.64,2.82-2.67,4.15-1.15,1.48-2.1,3.18-3.2,4.74-.17.25.21.4.35.59"/>
      <path class="cls-1" d="M55.16,127.59c-.17,1.16-.25,2.27-.83,3.42-.42.83-.57,2.18-.44,3.29.06.57.05,1.13-.19,1.55-.51.88-.39,1.88-.73,2.81-.32.84-.6,1.76-.74,2.72-.37,2.48-.63,4.94-.55,7.45.02.61.45.99.85,1.03.57.06,1.28-.07,1.66-.57,1-1.32,2.17-2.48,3.26-3.71"/>
      <path class="cls-1" d="M125.48,3.99c0,.16-.07.37,0,.47,1.36,1.8.67,3.75.36,5.64-.05.31.05.57-.01.85-.36,1.61-.1,3.37-1.19,4.81-.3.4.05,1.03-.16,1.42-.83,1.49-.98,3.24-1.88,4.7-.11.17-.01.47-.01.71"/>
      <path class="cls-1" d="M91.88,107.43c-.73-.01-.77.72-.57.93.94.96.35,2.21.72,3.3.63,1.85.79,3.82,1.96,5.52.39.57.14,1.62.78,2.1,1.31.97,1.79,2.66,3.21,3.52.42.25-.18.37-.23.58"/>
      <path class="cls-1" d="M70.04,123.87c.58.39,1.41.07,1.87.64-.13,1.37-.61,2.62-1.28,3.79-.12.2-.08.49-.35.61-1.31.54-1.16,1.81-1.45,2.88-.4,1.48-.96,2.9-2.16,3.95-.16.14-.47.31-.71.01"/>
      <path class="cls-1" d="M76.28,104.79c.03.32-.23.7-.36.69-1.03-.09-1.14.55-1.35,1.34-.41,1.55-1,3.04-.81,4.69.04.38-.06.71-.36.96"/>
      <path class="cls-1" d="M98.24,123.03c1.7,1.17,3.61,1.6,5.64,1.43.95-.08,1.37.27,1.32,1.21"/>
      <path class="cls-1" d="M72.2,117.87c-.03,1.11-1.01,1.77-1.38,2.74-.17.44-.31.87-.45,1.33-.27.9-.44,1.84-1.02,2.67-.86,1.25-1.07,2.86-2.06,4.06-.29.35-.06.8-.13,1.2"/>
      <path class="cls-1" d="M56.24,112.83c.14.53.19.96-.04,1.59-.35.95-.7,1.97-.87,2.98-.08.52-.62.97-.3,1.55"/>
      <path class="cls-1" d="M80.84,102.27c-1.26.73-2.08,1.74-2.32,3.23-.06.4-.45.8-.67,1.22-.23.44-.32.95.34,1.19"/>
      <path class="cls-1" d="M73.16,112.47c.39.96-.08,1.87-.29,2.75-.1.43-.23.95-.63,1.37-.35.36-.33,1.01.44,1.16"/>
      <path class="cls-1" d="M55.28,119.01c-1.26.74-1.28,2.16-1.62,3.32-.26.87-.6,1.72-.78,2.62-.17.84-.47,1.63-.52,2.52-.05,1.02-.59,1.98-.82,3-.08.33-.03.65-.09.97"/>
      <path class="cls-1" d="M68.96,130.11c-2.09-.33-2.51-.04-3.13,2.04-.2.67.11.73.61.72"/>
      <path class="cls-1" d="M123.32,22.71c-1.53.06-1.82.76-.96,2.28"/>
      <path class="cls-1" d="M55.16,125.67c.64.64.41,1.44-.48,1.68"/>
      <path class="cls-1" d="M52.88,125.67c.42.16.85.3,1.32.24"/>
      <path class="cls-1" d="M11.48,161.19q-.66.93.12,1.8"/>
      <path class="cls-1" d="M54.08,121.59c.82.1,1.42.68,2.16.96"/>
    </g>
  </g>
</svg>