<?xml version="1.0" encoding="UTF-8"?>
<svg id="Layer_2" data-name="Layer 2" xmlns="http://www.w3.org/2000/svg" viewBox="0 0 287.03 125.64">
  <defs>
    <style>
      .cls-1 {
        fill: none;
        stroke: #000;
        stroke-linecap: round;
        stroke-linejoin: round;
        stroke-width: .75px;
      }
    </style>
  </defs>
  <g id="Layer_1-2" data-name="Layer 1">
    <g>
      <path class="cls-1" d="M146.24,42.19c-.62-.25-1.24.1-1.66.34-2.13,1.26-4.59,1.65-6.75,2.82-2.96,1.6-5.65,3.51-8.19,5.73-2.21,1.92-3.95,4.21-5.96,6.28-.69.72-1.14,1.61-1.64,2.43-1.5,2.46-3.05,4.97-3.9,7.68-.91,2.89-2.59,5.26-4.12,7.73-1.28,2.07-3.41,3.53-5.09,5.32-2.11.17-3.12,2.55-5.28,2.63-.19,0-.29.14-.35.25-.43.78-1.09.99-1.93.86-.07-.01-.34.19-.48.33"/>
      <path class="cls-1" d="M144.32,46.21c0,.36-.05.73.15,1.1.66.33,1.25-.04,1.76-.4,1.04-.74,2.13-.74,3.37-.79,1.98-.09,3.79.33,5.64.81.74.19,1.42.45,2.05.94,1.2.92,2.58,1.6,3.88,2.33,3.1,1.74,5.25,4.41,7.46,6.97,2.1,2.43,4.11,5,5.46,7.99.73,1.62,1.18,3.37,1.32,5.05.11,1.34-.86,2.71-2.18,3.46-1.22.69-2.5,1.24-3.82,1.72-1.69.61-3.3,1.43-5.05,1.87-.26.07-.58.2-.69.3-1.38,1.24-3.17,1.31-4.83,1.77-2.36.65-4.84.9-6.97,2.26-.16.1-.44.23-.71.14-1.67-.57-2.99.61-4.41,1.04-1.6.48-1.91,3.2-.74,4.47.37.4.92.49,1.43.48,1.38-.03,2.7.48,4.08.39.35-.02.65.27.96.46,1.37.84,2.62,1.88,4.18,2.44.61.22,1.2.66,1.69,1.16,1.45,1.47,3.23,2.55,4.74,3.91,1.17,1.07,2.41,2.17,3.4,3.43,1.63,2.09,3.32,4.16,4.79,6.36.89,1.34,2,2.51,2.84,3.91,1.04,1.74,2.51,3.21,4.03,4.59.2.18.44.28.72.24"/>
      <path class="cls-1" d="M137.01,50.05c.04.58.07,1.15-.6,1.44-1.61.71-2.74,2.08-4.13,3.05-1.28.9-2.12,2.21-3.5,3.03-.86.51-1.47,1.68-1.94,2.69-.66,1.42-1.77,2.5-2.6,3.79-1.11,1.74-1.85,3.67-2.71,5.48-1.35,2.85-2.89,5.56-4.53,8.24-.24.4-.55.65-.86.95-.6.61-1.21,1.18-1.62,2.01-.5,1-1.42,1.76-2.36,2.42-.73.51-1.28,1.2-1.92,1.8-.37.35-.68.86-1.32.48"/>
      <path class="cls-1" d="M268.62,56.77c.16.66.32,1.35.85,1.79,2.76,2.33,4.39,5.47,6.08,8.54,1.25,2.27,2.63,4.48,3.71,6.84.53,1.16.99,2.37,1.42,3.58"/>
      <path class="cls-1" d="M220.51,79.56c-.59-.83-1.29-.49-1.91-.11-1.23.74-2.25,1.68-3.2,2.81-.82.97-1.55,2.08-2.65,2.88-.56.4-.79,1.33-1.19,2.01-.89,1.52-1.63,3.14-2.38,4.75-.97,2.09-1.87,4.29-3.47,5.98-.98,1.04-1.5,2.45-2.72,3.28-.27.18-.52.44-.49.83"/>
      <path class="cls-1" d="M244.51,76.08c1.05-.62,1.94.11,2.87.38.33.09.53.57.96.45,1.21-.32,2.08.59,3.1.91.58.18,1.12.45,1.69.28.95-.28,1.66.23,2.4.63.68.37,1.04,1.06.82,1.78-.35,1.14-.52,2.26-1.44,3.32-1.4,1.61-2.75,3.38-3.57,5.44-.5,1.25-.35,1.65.97,2.03,2.44.71,4.89,1.43,7.29,2.24,1.04.35,2.23.32,3.13,1.03.29.22.44.03.61-.03.48-.17.87-.17,1.08.37"/>
      <path class="cls-1" d="M11.27,60.12c-.29.44-.11.61.36.73,2.79.71,5.61,1.32,8.41,1.97,1.88.44,3.74,1.11,5.63,1.32,1.99.22,3.86.84,5.73,1.35,2.54.68,5.08,1.45,7.6,2.25,2.06.66,4.19,1.21,6.32,1.69,1.74.38,3.43,1.05,5.16,1.53,2,.55,4.12.91,5.96,1.74,2.13.96,4.46,1.21,6.53,2.28.71.36,1.55.59,2.29.78,1.55.4,2.93,1.15,4.41,1.67,2.73.98,5.67,1.49,8.05,3.33,2.69.18,4.7,2.17,7.3,2.74,1.15.26,2.52.65,3.56,1.63.47.44,1.47.51,2.23.76,2.2.73,4.35,1.6,6.59,2.19,1.64.43,3.28.9,4.91,1.35.5.14.87.09,1.2-.16,1.71-1.29,3.76-2.13,5.17-3.82.03-.04.15,0,.23,0"/>
      <path class="cls-1" d="M123.81,28.69c.16-.02,0,.07.11,0,.84-.66,1.11.59,1.81.51.61-.08,1.3-.18,1.69.57.12.23.32.44.71.38,1.28-.21,2.12.53,3,1.43.48-.1,1.08-.4,1.68-.22.82.24,1.68,1.61,1.41,2.49-.35,1.14-.66,2.33-1.86,3.04-.77.45-1.63.78-2.23,1.61-.48.66-1.52.49-2.35.52-2.1.09-4.15-.42-6.24-.49-1.14-.04-1.41.22-1.07,1.32.19.59.1,1.06-.24,1.57-.7,1.02-1.12,2.3-2.41,2.73-.96.32-2,.44-3,.59-1.66.24-3.33.58-5.04.3-.33-.05-.64.45-1.08.33"/>
      <path class="cls-1" d="M174.44,59.64c.89-.09,1.66.42,1.78,1.32.16,1.14.7,2.04,1.44,2.89.98,1.12,1.02,2.54,1.25,3.94.23,1.44.24,2.89.43,4.33.03.22.16.54-.11.71-.94.59-.93,1.7-1.42,2.53-.54.93-1.22,1.63-2.16,2.18-.68.39-1.32.91-1.97,1.36-.95.67-2.13,1.17-3.23,1.4-1.13.24-2.36.62-2.9,1.34-1.18,1.57-2.85,1.57-4.4,1.95-.98.24-1.98.32-2.89.84-.36.21-.99.19-1.3.17-.79-.06-1.27.47-1.93.58"/>
      <path class="cls-1" d="M204.43,8.36c.69.07.31.6.22.77-.7,1.23-1.47,2.43-2.22,3.63-.31.5-.75.15-1,.46"/>
      <path class="cls-1" d="M200.23,14.3c.01.95-.49,1.62-1.33,1.89-.54.17-.67.35-.6.87.08.67-.71.72-.95,1.19-.97,1.95-2.68,3.38-3.65,5.38-.67,1.38-2.16,2.21-3.09,3.49-.28.39-.6.73-.7,1.21"/>
      <path class="cls-1" d="M244.27,79.44c1.63.78,3.28,1.5,5.14,1.38.14-.1.11.01.15.05,1.16,1.02.6,2.04-.15,2.87-1.31,1.45-1.82,3.34-2.8,4.97-.81,1.34-1.21,3.01-.87,4.64.23,1.11,1.34,1.32,2.26,1.53.63.15,1.23.28,1.8.62.87.51,1.92.3,2.88.58,1.77.52,3.48,1.31,5.39,1.23.08,0,.2-.04.23,0,1.05,1.16,2.59.66,3.84,1.13"/>
      <path class="cls-1" d="M274.02,59.4c-.05-.54.75-1.15.21-1.52-.87-.6-.7-2.07-2.01-2.2,0-.82-.59-1.43-.83-2.16-.14-.44-.44-.37-.73-.35-.46.03-.83-.08-1.08-.49"/>
      <path class="cls-1" d="M192.44,112.55c-.57-.62-.86-.3-1.34.22-1.58,1.71-3.15,3.42-4.54,5.3-.29.39-.68.5-1.07.23-.75-.5-1.67-.72-2.28-1.43"/>
      <path class="cls-1" d="M266.82,25.57c.28-.04.45.09.35.36-.65,1.75-1.2,3.57-2.76,4.79-.19.15-.25.31-.37.48-.83,1.19-1.95,2.12-2.9,3.22-.73.85-3.92,1.71-5.12,1.85-.88.1-1.74.32-2.64.24-.51-.05-.57.54-.84.82.32.83,1.03,1.17,1.8,1.44.07.02.2-.03.23,0,.95,1.28,2.42,1.9,3.59,2.9.26.23.53.61.5,1.06"/>
      <path class="cls-1" d="M2.15,54.13c.02.73-.61,1.1-.99,1.53-1.08,1.24-1.07,2.24.14,3.27,1.1.93,2.43.92,3.73,1.06,1.93.21,3.88.31,5.76.84.1.03.22-.14.36-.11"/>
      <path class="cls-1" d="M244.15,2.54c1.56.32,3.28-.19,4.69.95.22.18.46.33.85.16.33-.14.84-.04,1.05.33.46.8,1.19.78,1.93.7.65-.07.98.66,1.56.59,1.38-.17,2.35.91,3.6,1.1.15.02.05-.12.11,0,.84,1.65,2.79.94,3.99,1.88.84.65,1.91,1,2.37,2.07.46,1.08,1.76,1.65,1.81,3,.04.99.8,1.68,1.22,2.51.28.54.34,1,.23,1.58-.08.47-.23.99.21,1.44.63.67.25,1.01-.47,1.19"/>
      <path class="cls-1" d="M160.64,46.45c.67-1.28,1.35-1.43,2.39-.47.83.77,1.54,1.68,2.43,2.36.68.52,1.75.55,2.12,1.47.49,1.22,1.8,1.54,2.61,2.45.79.89,1.17,1.73,1.24,2.83"/>
      <path class="cls-1" d="M192.56,115.43c-.33,1.76-1.36,2.97-2.7,4.15-.81.71-1.28,1.94-1.56,3.16-.19.83-.28,1.96-1.27,2.39-1.27.55-3.19-.63-3.19-2.02,0-.72-.25-1.05-.75-1.45-1.03-.83-1.14-1.47-.61-2.63"/>
      <path class="cls-1" d="M65.86,24.68c.25-.17.37-.01.48.18,1.03,1.92,2.89,2.29,4.8,2.51,2.67.31,5.36.47,8.04.73.04,0,.09.12.12.11,2.97-.71,5.84.43,8.76.48,2.01.03,4.01.19,6,.48.24.04.5.05.72-.11"/>
      <path class="cls-1" d="M83.98,43.09c-1.67.06-3.21.74-4.81,1.01-1.74.29-3.21,1-4.66,1.88-.19.12-.44.26-.6.22-1.65-.46-2.55.72-3.6,1.59-.13.1-.17.15-.25,0"/>
      <path class="cls-1" d="M280.26,77.64c.16-.24.45-.08.46,0,.12.99.62,1.89.85,2.79.22.87.3,1.92.54,2.83.39,1.49.04,2.89-.05,4.33-.07,1.18-.99,1.78-1.81,2.39-.92.69-2.11.99-2.88,1.92-.07.08-.31.01-.47.01"/>
      <path class="cls-1" d="M221.95,79.92c.24.24.48.48.78.75-.59,1.02-1.17,1.85-2.56,2.09-.86.14-1.44,1.21-2.06,1.95-.22.27-.33.76-.6.82-1.94.41-1.87,2.22-2.5,3.51-.44.9-.99,1.84-1.64,2.44-1.04.96-1.3,2.09-1.63,3.3-.16.6-.33,1.29-1.18,1.32"/>
      <path class="cls-1" d="M122.13,32.89c-.56-.69-1.35-.84-2.15-1.12-3.28-1.13-6.67-1.58-10.09-1.73-3.04-.13-6.08-.3-9.12-.48-.82-.05-1.72-.73-2.52.09-.16-.27-.68-.25-.6-.72"/>
      <path class="cls-1" d="M85.18,24.62c.55-.8,1.33-.25,1.91-.19,1.8.2,3.57.68,5.4.67.35,0,.4.2.36.48"/>
      <path class="cls-1" d="M27.11,53.53c-.84-.79-1.53.52-2.41.15-1.26-.54-1.51-.47-2.27-.27-.81.21-1.59.49-2.41-.09-.51-.36-1.19-.14-1.78-.13-1.43.02-2.89-.21-4.22.68-.33.22-.95.09-1.42.02-.64-.1-1.17-.06-1.83.16-.75.25-1.74-.09-2.61-.29-.35-.08-.71-.24-.95.03-.83.92-1.9.66-2.89.57-.71-.07-1.31.71-2.04.2"/>
      <path class="cls-1" d="M146.36,42.61c.58-1.2,2.97-2.64,4.2-2.51.24.02.47-.07.73.1,1.86,1.27,4.07,1.71,6.11,2.54,1.5.61,3,1.22,4.08,2.51"/>
      <path class="cls-1" d="M157.28,85.32c.41.93,1.18,1.57,1.94,2.13.88.65,1.67,1.4,2.53,2.02,1.74,1.26,3.4,2.6,4.86,4.15,1.19,1.26,2.23,2.66,3.25,4.07.46.63.89,1.05,1.7.83"/>
      <path class="cls-1" d="M184.52,30.73c.95,1.34,2.4,1.87,3.8,2.59,1.38.71,2.74,1.37,4.24,1.44,1.75.08,3.52.45,5.28-.05.63-.18,1.36.07,2.03-.15"/>
      <path class="cls-1" d="M95.49,84c-.23-.29-.54-.49-.73-.83-.6-1.07-1.6-1.36-2.75-1.2-.83.11-1.17-.74-1.91-.9-.45-.09-.83-.23-1.33-.23-1.13,0-1.96-.91-2.99-1.3-1.39-.52-2.71-1.23-4.21-1.42-.12-.01-.3.05-.35,0-.9-1.03-2.5-.82-3.39-1.96-.81.36-1.61.52-2.27-.31-.21-.26-.65-.46-.83-.44-1.33.1-2.3-.82-3.47-1.17-.74-.22-1.4-.78-2.17-1.04-.59-.2-3.04-.85-3.36-.83"/>
      <path class="cls-1" d="M76.54,19.34c-1.47-.26-2.85-.14-4.08.83-1.06.84-2.41.49-3.6.82-1.79.49-2.73,1.58-2.75,3.51"/>
      <path class="cls-1" d="M180.32,112.91c-1.3,1.04-2.03,2.31-1.39,3.07,1.01,1.2,1.54,2.89,3.19,3.52"/>
      <path class="cls-1" d="M97.53,20.3c-.63-.36-1.18-.25-1.81.09-.56.31-1.19.63-1.93.18-.23-.15-.72-.14-1.08.19-.26.24-.62.5-1.06.38"/>
      <path class="cls-1" d="M207.79,100.91c-.53,1.11-1.18,2.12-2.28,2.76-.59.34-.99.86-1.32,1.44"/>
      <path class="cls-1" d="M210.19,94.67c.41,1.77-.5,3.19-1.19,4.68-.49,1.05-1.24,1.61-2.54,1.4.27.3.3.52.49.63"/>
      <path class="cls-1" d="M198.55,106.43c-1.16.04-2.04.69-2.61,1.58-.6.94-1.01,1.86-2.29,2.21-.74.2-1.16,1.21-1.58,1.97"/>
      <path class="cls-1" d="M275.7,60.6c.36-.29.8-.12.94.13.56,1.03,1.63,1.74,1.82,2.99.06.41.23.69.57.99.39.34.92.9.15,1.47"/>
      <path class="cls-1" d="M176.84,108.71c1.61.09,2.13.81,2.83,2.25.52,1.07.71,2.34,1.79,3.22.54.44.78,1.39,1.49,1.85"/>
      <path class="cls-1" d="M117.33,27.97c.61.05.47-.65.86-.85,1.83.47,3.83.43,5.5,1.56.03.32-.09.59-.24.85"/>
      <path class="cls-1" d="M265.38,51.01c-.61,1.82-.36,2.72,1.21,3.94.38.29.69.56.96.97.64.98,1.36.99,2.38.13"/>
      <path class="cls-1" d="M282.42,71.64c1.35,1.22,1.8,2.9,2.28,4.56"/>
      <path class="cls-1" d="M144.32,47.41c-.17.35-.59.53-.85.56-1.82.28-3.2,1.45-4.79,2.21-.51.24-.95.63-1.57.59"/>
      <path class="cls-1" d="M284.34,76.2c.91.43,1.13,1.4,1.26,2.17.21,1.27.84,2.41.92,3.71.05.86.23,1.7-.14,2.52"/>
      <path class="cls-1" d="M126.21,14.3c.01-.73-.72-.77-.93-.57-1.3,1.26-2.84.48-4.23.51-1.68.04-3.28.44-4.92.65-.44.06-.83.21-1.34-.07-.62-.35-2.36.51-2.74,1.16"/>
      <path class="cls-1" d="M280.98,93.71c-.95,1.2-2.49,1.34-3.72,2.04"/>
      <path class="cls-1" d="M274.62,96.23c-.61.06-1.14.34-1.68.59-1.33.6-2.65,1.28-4.2.97-.15-.03-.43-.06-.46,0-.76,1.36-2.21.58-3.28,1-.86.33-1.96-.02-2.85-.54-.06-.04,0-.15.12-.23"/>
      <path class="cls-1" d="M260.82,43.57c-.43.69-.39,1.05.37,1.42.77.38,1.38,1.02,2.26,1.24.79.2.53,1.11.81,1.67.22.45-.42.84-.69.89-.59.12-.81.58-1.19.89"/>
      <path class="cls-1" d="M152.6,10.82c1.14-.27,2.3-.37,3.48-.36.97,0,1.92-.05,2.89-.32,1.15-.32,2.4-.28,3.58-.12.92.13,1.77-.19,2.64-.14,2.41.16,4.8-.2,7.2-.21,2.88,0,5.76.21,8.64.08.6-.03,1.19-.16,1.8-.13.64.03,1.13-.41,1.28-.85.29-.88.85-1.64,1.1-2.51.39-1.35,1.14-2.31,2.28-3.14,1.28-.94,2.68-1.62,4.12-2.21.65-.27,1.38-.58,2.14-.52"/>
      <path class="cls-1" d="M117.93,27.25c-.41-.69-1.11-.35-1.68-.49-1.42-.36-2.79-1.09-4.33-.48-.33.13-.64-.11-.96-.22-.74-.25-1.37-.32-2.21.14-.58.32-1.66.49-2.45.06-.3-.17-.57-.24-.86-.2-1.33.18-2.48-.13-3.77-.61-1-.37-2.46.1-3.67.48-.16.05-.3.2-.48.23"/>
      <path class="cls-1" d="M286.02,84.6c.75.17.76.7.46,1.19-.5.83-.98,1.86-.97,2.65.04,1.7-1.13,2.15-2.14,2.88"/>
      <path class="cls-1" d="M170.96,55.39c1.37-.39,2.27.66,2.66,1.49.42.89,1.25,1.54,1.42,2.53"/>
      <path class="cls-1" d="M120.45,33.37c-.81.12-1.63-.03-2.39-.17-1.54-.28-2.64.41-3.72,1.26-.48.38-.76,2.71-.34,3.21.35.43.1,1.27.94,1.34"/>
      <path class="cls-1" d="M173.36,107.51c.55-.38.83-.86.73-1.56-.11-.74.2-.98.95-.73,1.57.52,1.92,1.59.84,2.71"/>
      <path class="cls-1" d="M198.43,108.35c.04.2,0,.39.1.61.62,1.39-.31,2.95-1.9,3.23"/>
      <path class="cls-1" d="M280.74,66.6c-.74.74-.25,1.33.24,1.92.73.87,1.48,1.73,1.33,3-.03.21-.2.07-.25.18"/>
      <path class="cls-1" d="M189.32,28.21c.98.11,1.58.95,2.51,1.24,1.86.58,3.79.32,5.65.68.12.02.29.06.35,0,1.1-1.14,2.32-.2,3.49-.23"/>
      <path class="cls-1" d="M172.52,100.43c.03.96.52,1.69,1.21,2.27.74.62,1.05,1.35.95,2.29"/>
      <path class="cls-1" d="M105.33,18.86c-.05.07.11.21-.12.25-1.21.22-2.4.59-3.61.8-1.47.26-1.66-.02-1.55-1.53"/>
      <path class="cls-1" d="M267.9,20.06c-.02,1.87.18,3.76-.72,5.52"/>
      <path class="cls-1" d="M98.01,84.12c.89.01,1.81-.1,2.67.38.21.34.08.7-.03,1.06"/>
      <path class="cls-1" d="M46.78,68.52c.02-.29-.1-.63.36-.72.78-.15,1.14-.85,1.56-1.21,2.31-.07,4.05,1.47,6.18,1.69.32.03.6.23.91.34.85.31,1.59.91,2.65.66.49-.12,1.15.2,1.66.45,1.04.53,2.02,1.14,3.25,1.2.35.02.6.4.86.67.36.37.75.87,1.42.74"/>
      <path class="cls-1" d="M81.94,24.26c-.1-.4-.63-.54-.6-1.04-.99-.22-.99.58-1.2,1.16"/>
      <path class="cls-1" d="M35.27,62.64c1.02.51,2.17.44,3.24.73.76.21,1.55.42,2.25.67,1.64.58,3.43.64,4.96,1.58.83.51,1.98.23,2.75.98"/>
      <path class="cls-1" d="M283.26,91.55c-.29.37-.73.58-.76,1.2-.03.69-.63.9-1.28.84"/>
      <path class="cls-1" d="M203.23,102.83q-.16-.42-.97-.85c-.99,1.17-2.17,2.22-3.21,3.39-.34.38-.92,1.11.21,1.42"/>
      <path class="cls-1" d="M105.81,16.34c1.19-1.15,2.7-1.28,4.2-.36"/>
      <path class="cls-1" d="M196.27,112.01c.6.23.33.63.11.89-.52.62-1.25,1-1.91,1.45"/>
      <path class="cls-1" d="M276.18,60.36c-.17-1-.85-1.58-1.68-2.04"/>
      <path class="cls-1" d="M99.93,19.58c-.78.06-1.33.78-2.16.74-.19-.01-.09.3-.12.46"/>
      <path class="cls-1" d="M48.1,53.65c-1.03-.77-2.36-.49-3.34-.35-1.1.16-2.27-.73-3.28.2-.01,0-.55-.18-.46-.58"/>
      <path class="cls-1" d="M27.05,53.77c.12-.11.05-.35.3-.36,1.04-.04,2.08-.5,3.17,0,.37-.1.48-.62.89-.58,3.18-.22,6.3.8,9.49.34"/>
      <path class="cls-1" d="M85.3,24.26c-1.15-.49-2.91-.22-3.74.46-.25.21-.19.4-.22.62"/>
      <path class="cls-1" d="M202.75,105.35c-.81-.63-1.42-.63-1.92,0-.41.52-.01,1.48.84,2.04"/>
      <path class="cls-1" d="M110.61,18.98c-1.01-.34-2.02-.58-3,.11-.47.33-.84.22-1.02-.35"/>
      <path class="cls-1" d="M111.93,15.5c-.45-.07-.77-.37-1.36.06-.77.57-.17,1.01-.2,1.5"/>
      <path class="cls-1" d="M152.48,11.54c.16-.27.29-.66-.12-.7-.93-.09-1.86.08-2.76.34"/>
      <path class="cls-1" d="M272.94,92.51c-1.28.45-2.62.64-3.96.84"/>
      <path class="cls-1" d="M224.23,78.24h1.56"/>
      <path class="cls-1" d="M94.77,28.69c.56.75,1.39.9,2.76.48"/>
      <path class="cls-1" d="M122.61,64.44c-.2.58.12.87.6,1.08"/>
      <path class="cls-1" d="M266.94,49.93c0,.47-.05.95.48,1.2"/>
      <path class="cls-1" d="M260.34,44.29c-.47-.02-.69.38-1.02.6"/>
      <path class="cls-1" d="M267.3,49.63c-.71.15-1.48-.2-1.61-.68-.23-.8-.79-.65-1.27-.82"/>
      <path class="cls-1" d="M244.27,78.36c-.05,1.29-.28,1.45-1.56.95-1.39-.54-2.83-.67-4.31-.83-.96-.11-1.85-.02-2.77,0"/>
      <path class="cls-1" d="M258.18,43.33c.91-.98,1.63-.12,2.4.24"/>
      <path class="cls-1" d="M27.23,56.53c-.26.25-.06.56-.12.84"/>
      <path class="cls-1" d="M265.98,52.63c-1.2.18-2.07-.09-2.8-1.23-.81-1.25-2.32-1.84-3.4-2.82-1.92-1.74-4.08-3.12-6.14-4.66-3.15-2.35-6.27-4.74-9.24-7.31-.72-.62-.85-2.6-.24-3.47.72-1.03,1.55-1.77,3-1.35.92.27,1.89-.15,2.88-.02,1.11.15,2.16.71,3.37.46.31-.07.55-.13.84-.27.33-.16.61-.47,1.07-.39,1.53.24,2.81-.5,4.07-1.2,2.7-1.49,4.06-3.99,4.74-6.84.17-.73-.02-1.75.06-2.49.17-1.67-.6-2.98-.94-4.45-.3-1.27-1.24-2-2.16-2.76-.68-.56-1.48-.98-2.04-1.67-.69-.84-1.79-1.05-2.67-1.36-2.46-.86-4.87-1.86-7.4-2.51-1.75-.45-3.58-.48-5.3-1.14-.62-.24-1.34-.06-2.04.02-1.14.13-2.31-.07-3.48.1-.21.03-.73.19-1.07-.03"/>
      <path class="cls-1" d="M252.3,37.69c-.21.23-.47.42-.6.72-.4.06-.51-.41-.8-.52-.22.22-.15.44-.16.64"/>
      <path class="cls-1" d="M120.81,32.41c-.11.31-.47.59-.12.96"/>
      <path class="cls-1" d="M282.78,72.72c-.47.11-.99.16-.96.84"/>
      <path class="cls-1" d="M164.24,48.01c-.19.33-.82.03-.84.6"/>
      <path class="cls-1" d="M105.57,16.46c-.31-.13-.56.15-.99-.07-1.12-.58-2.33-1.14-3.61-.09-.23.19-.92-.11-1.4-.08"/>
      <path class="cls-1" d="M184.52,30.37c-.48.9-.96.28-1.47.11.14-1.26,1.22-1.66,1.86-2.37,1.01-1.12,2.22-2.02,3.44-2.93,1.14-.85,1.79-2.2,2.78-3.21,1.82-1.86,2.89-4.23,4.29-6.38,1.6-2.46,3.68-4.48,5.56-6.69.78-.92,1.36-1.91,1.77-3.02.3-.8-.35-1.78-1.18-1.64-1.57.26-3.14-.36-4.68.09-1.48.44-3.03.53-4.47,1.25-.92.46-1.78.7-2.54,1.57-1.38,1.58-1.3,3.3-1.12,5.09.16,1.55-1.33,3.12-2.9,2.87-.64-.1-1.28-.15-1.92-.1-1.61.14-3.2-.32-4.8-.24-1.92.1-3.84-.44-5.76-.02-.76.16-1.51-.23-2.28-.11"/>
      <path class="cls-1" d="M201.91,29.59c1.03.19,2.02-.08,3-.31.87-.21,1.68-.1,2.39.39.37.25.74.29,1.09.21,2.43-.58,4.8.1,7.2.25,1.46.09,2.83.55,4.19.99.98.32,1.45-.16,1.66-.88.51-1.71.88-3.56.42-5.25-.34-1.23-.1-2.34-.14-3.5-.1-2.57-.29-5.14-.66-7.67-.22-1.5-.2-2.96-.18-4.45,0-.53.36-1.12.73-1.28,1.43-.6,2.39-1.89,3.73-2.5,1.57-.72,3.19-1.36,4.87-1.87,1.95-.59,3.95-.97,5.9-1.55.08-.02,3.11.12,3.24.11.28,0,.57.08.84-.11,1.1-.76,1.95-.2,2.83.57.31.07.62-.3,1-.21"/>
      <path class="cls-1" d="M179.24,114.47c.07.15.29.09.36.24"/>
    </g>
  </g>
</svg>