<?xml version="1.0" encoding="UTF-8"?>
<svg id="Layer_2" data-name="Layer 2" xmlns="http://www.w3.org/2000/svg" viewBox="0 0 247.76 174.82">
  <defs>
    <style>
      .cls-1 {
        fill: none;
        stroke: #000;
        stroke-linecap: round;
        stroke-linejoin: round;
        stroke-width: .75px;
      }
    </style>
  </defs>
  <g id="Layer_1-2" data-name="Layer 1">
    <g>
      <path class="cls-1" d="M172.68,100.89c.4,1.3.2,1.58-1.07,2.05-1.21.45-2.42.81-3.17,2.12-.82,1.45-2.36,2.28-3.7,3.23-.76.53-1.8.4-2.74.4-.97,0-1.77-.09-2.56-.93-2.19-2.33-5.02-2.39-8.01-2-1.53.2-2.99.53-4.43,1.01-2.9.98-5.19,2.66-6.74,5.38-1.6,2.82-2.65,5.88-4.11,8.74-1.44,2.81-2.49,5.78-3.96,8.58-1.64,3.11-3.22,6.26-5.17,9.16-1.58,2.33-3.03,4.75-4.67,7.05-1.96,2.76-3.93,5.54-5.85,8.33-1.72,2.5-3.74,4.8-5.73,7.1-1.26,1.46-2.57,2.87-3.97,4.19-1.8,1.69-3.62,3.34-5.86,4.47-.89.45-1.56,1.32-2.65,1.42"/>
      <path class="cls-1" d="M70.94,57.7c.7.11,1.22-.38,1.79-.63.98-.43,1.72-1.23,2.88-1.48.84-.18.72-1.41.67-2.08-.07-1.03-.03-2.08-.24-3.13-.25-1.26.39-2.53.51-3.82.04-.45-.04-.81-.12-1.28.46-.66,1.04-1.28,1.39-2.08.34-.79,1.25-1,2.01-1.19,1.71-.44,2.05-.91,2.18-2.66.14-1.83.34-3.65,1.02-5.41.52-1.36.58-2.87.85-4.31.09-.5.22-.96.37-1.44.51-1.75.85-3.55,1.34-5.31.35-1.25.79-2.06,1.79-2.74.54-.37.9-.28,1.34.13,1.21,1.11,1.79,2.53,2.16,4.08.38,1.59.49,3.23.93,4.81.32,1.13.96.32,1.45.35,1.75.99,1.95,2.76,2.15,4.45.34,2.84.56,5.69.98,8.52.12.79-.15,1.61.22,2.41.35.75.71.94,1.34.47,1.32-.99,2.13-2.42,3.23-3.6,2.75-2.95,4.9-6.36,7.41-9.5,1.39-1.74,2.41-3.77,3.52-5.73.8-1.42,1.08-3.11,2.27-4.32.03-2.08,1.3-3.67,2.18-5.39,1.49-2.91,3.34-5.59,5.49-8.06,1.23-1.41,2.73-2.65,3.75-4.14.87-1.28,2.52-1.71,3-3.28.25-.83,1.42.12,1.74-.95.5.69,1.28.95,1.34,1.66.12,1.43.07,2.86-.57,4.2-.88,1.85-1.45,3.84-1.95,5.78-.74,2.84-1.57,5.68-2.05,8.61-.45,2.73-1.17,5.43-1.73,8.15-.33,1.6-.98,3.18-1.21,4.82-.36,2.58-1.25,5.03-1.85,7.55-.29,1.22-.71,2.44-1.2,3.59-1.01,2.34-1.92,4.72-2.85,7.09-.34.87-1.2,1.56-.93,2.65.88-.01,1.78-.1,2.51.7.45.49,1.35,2.35,1.04,2.88-.71,1.2-.59,2.61-1.13,3.87-.43,1-1.21,1.85-1.36,2.98.27.27.5.44.96.25,3.21-1.29,6.53-2.22,9.95-2.81,1.48-.26,2.93-.69,4.44-.69.43,0,.92-.14,1.08.48"/>
      <path class="cls-1" d="M70.82,58.18c-.58-1.27-.72-2.72-1.66-3.86-.36-.44-.36-1.11-.58-1.68-.99-2.49-2.82-4.23-4.99-5.57-1.07-.66-2.38-1.27-3.69-1.2-1.55.09-3.16.46-4.41,1.43-.86.67-1.76,1.32-2.59,2.08-1.43,1.32-2.28,3.02-3.12,4.64-.73,1.4-1.42,2.97-1.21,4.76.19,1.64.65,3.19,1.28,4.66.99,2.29,2.33,4.39,4.16,6.13-.07,1.32.99,2.19,1.35,3.35.46,1.5,1.21,2.9,1.52,4.45.53,2.61-.1,3.74-2.99,4.05-.33.04-.79.03-1.08-.33-.31-.39-.81-.52-1.21-.69-1.12-.47-2.18.09-2.62,1.29-.69,1.87-1.75,3.48-3.11,4.93-1.36,1.45-2.68,2.96-3.74,4.66-.57.92-.44,1.79.23,2.65,1.41,1.79,3.54,2.34,5.41,3.35,1.43.78,3.03.93,4.54,1.37.84.25,1.82.38,2.57,1.05-.34.9-1.24,1.06-1.96,1.26-2.31.63-4.46,1.62-6.6,2.65-.55.26-1.13.58-1.79.5-.12-.01-.32-.05-.35,0-.75,1.33-2.3,1.01-3.39,1.64-1.02.59-2.29.77-3.31,1.29-2.89,1.47-5.98,2.42-8.93,3.73-3.27,1.45-6.53,2.96-9.79,4.43-2.99,1.35-6.02,2.64-8.93,4.21-1.99,1.08-3.9,2.29-5.81,3.47-1.36.83-2.81,1.78-3.66,3.32.28.97.97,1.16,1.93,1.2,3.14.13,6.26-.28,9.35-.59,2.4-.24,4.81-.62,7.21-.82,1.68-.14,3.38-.38,5.02-.65,1.23-.21,2.52-.03,3.77-.53.73-.3,1.73-.32,2.61-.3,2.3.07,4.58-.3,6.83-.59,2.2-.29,4.45-.06,6.62-.7.89-.26,1.92-.15,2.87-.12,2.77.1,5.52-.26,8.28-.33,1.75-.04,3.55-.16,5.27-.48,1.48-.28,2.95-.5,4.44-.71,1.2-.17,2.42-.35,3.61-.66.59-.16,1.45-.65,1.68-1.09"/>
      <path class="cls-1" d="M8.55,124.04c1.53-1.5,3.58-2.11,5.39-3.14,1.45-.83,2.98-1.5,4.47-2.22,2.98-1.44,5.92-2.97,8.99-4.21,2.86-1.15,5.66-2.44,8.49-3.68,2.56-1.12,5.18-2.1,7.71-3.29,1.46-.69,3.03-1.15,4.54-1.72,1.27-.48,2.45-1.22,3.74-1.62,2.78-.85,5.27-2.41,8.04-3.25,1.04-.32,1.97-.75,2.89-1.32.51-.32.62-.81.42-1.08-.38-.53-.1-1.58-1.16-1.59-.4,0-.85-.12-1.19.02-1.85.74-3.7.03-5.38-.36-2.99-.68-5.97-1.64-8.67-3.25-1.19-.71-1.37-.96-.7-2.05.42-.68.91-1.32,1.43-1.92,1.46-1.66,2.75-3.44,3.92-5.38,2.15,1.27,4.18.71,6.14-.29.48-.24.85-.62,1.45-.73.69-.12.98-.85,1.05-1.41.27-1.99.11-3.88-.48-5.9-1.12-3.87-3.1-7.22-5.24-10.54-1.4-2.18-2.42-4.5-2.3-7.19.06-1.37.56-2.59,1.24-3.7,1.39-2.28,3.19-4.18,5.61-5.43.3-.16.59-.15.84-.09,2.44.55,4.12,2.08,5.42,4.17.98,1.58,1.22,3.44,2.09,5.08.35.67.4,1.71.34,2.48-.09,1.17.48,1.77,1.18,2.39.37.33,2.16-.1,2.62-.59,1.02-1.1,2.18-1.99,3.47-2.78.82-.5,1.46-.61,2.31-.12.56.33,1.26.39,1.9.14.88-.35,1.12-1.15.73-2.15-.35-.88-.53-1.78-.5-2.76.07-2.04-.03-4.08.04-6.12.05-1.53.64-2.86,1.9-3.84.46-.36.87-.35,1.33,0,.43.33,1.04.45,1.4.76.82.72,1.51.52,2.18-.05.49-.42.25-1.63-.48-2.25-.56-.47-1.02-.93-1.06-1.7-.09-1.81-.06-3.61.24-5.4.44-2.65,1.54-5.14,1.89-7.8.07-.52.34-.76.63-1.08"/>
      <path class="cls-1" d="M125.77,9.24c-1.39.97-2.21,2.43-3.24,3.72-2.39,2.97-3.85,6.46-5.52,9.84-1.63,3.31-2.99,6.75-5.24,9.75-1.44,1.92-2.85,3.88-4.21,5.87-1.05,1.54-2.05,3.13-3.28,4.53-1.52,1.73-2.68,3.77-4.44,5.27-2.19,1.85-5.1,1.85-6.34-1.54-.23-.64-.53-1.26-.77-1.9-.41-1.06-.07-2.1-.14-3.14-.13-2-.23-4.01-.53-6-.12-.79-.29-1.48-1.32-1.45-.71.02-.83-.61-1.08-1.07-1.17-2.14-1.51-4.56-2.27-6.84-.05-.14,0-.32,0-.48"/>
      <path class="cls-1" d="M150.36,102.81c-.83-.07-1.46.53-2.28.63-2.7.32-4.94,1.81-7.34,2.93-2.33,1.09-3.28,3.09-4.34,5.18-.52,1.03-.91,2.15-1.29,3.18-.49,1.35-1.25,2.59-1.65,4.01-.4,1.43-1.32,2.77-1.81,4.23-.73,2.19-1.81,4.21-2.89,6.24-1.15,2.16-2.13,4.42-3.46,6.49-1.02,1.58-2.14,3.11-3.07,4.71-1.31,2.27-3.03,4.21-4.41,6.38-.88,1.38-2.11,2.63-2.55,4.36-.27,1.04-1.36,1.72-2.12,2.52-1.29,1.37-2.15,3.08-3.58,4.34-.53.47-.1,1.11-.13,1.67"/>
      <path class="cls-1" d="M176.76,82.53c-2.12-.08-4.15.56-6.24.71-1.12.08-2.24.08-3.36.21-1.27.15-2.56.43-3.83.36-1.21-.07-2.28.41-3.34.72-1.68.49-3.4.39-5.08.82-2.42.63-4.92,1.02-7.42,1.27-.56.06-1.04.43-1.56.58-1.89.52-3.85.63-5.76,1.08-1.08.25-2.14.56-3.23.78-2.65.51-5.25,1.25-7.81,2.1-.61.2-1.36-.22-1.88.41-1.6-1.41-1.65-2.24-.14-3.62,2.5-2.3,4.72-4.89,7.25-7.14,1.26-1.12,2.6-2.2,3.92-3.29,2.36-1.96,4.87-3.82,6.42-6.52.64-1.11,1.54-2.38.69-3.95-.52-.95-1.35-1.35-2.2-1.62-1.47-.47-2.93-.98-4.55-.9-2.24.11-4.5-.1-6.71.29-1.21.21-2.39.58-3.6.83-2.33.48-4.52,1.47-6.84,2.04-1.3.32-2.46,1.02-3.83,1.26-.82.14-1.61.14-2.41.15-1.09.02-1.49-1.52-1.21-2.38.68-2.11,1.55-4.13,2.5-6.13.3-.63.49-1.39.52-2.14"/>
      <path class="cls-1" d="M230.15,79.05c-.28.27.04.69-.24.96-.26.17-.56.13-.84.12-4.52-.11-9.04.05-13.56-.06-1.95-.05-3.94-.21-5.87.09-1.97.3-3.93.07-5.88.23-3.16.26-6.33.25-9.47.56-1.64.16-3.3.2-4.92.42-1.76.23-3.53.32-5.29.41-2.32.12-4.61.75-6.96.51"/>
      <path class="cls-1" d="M90.85,172.87c.11-.82-.26-1.21-1.08-1.2-.12,0-.25.05-.36.05-1.95-.03-2.27-.37-2.28-2.33-.02-2.2.25-4.32.74-6.5.55-2.44,1.31-4.81,2.1-7.15.7-2.08,1.71-4.1,2.54-6.15,1.19-2.96,2.44-5.89,3.8-8.78,1.19-2.53,2.45-5.02,3.59-7.56,1.03-2.28,2.28-4.46,3.21-6.8,1.23-3.11,2.79-6.11,2.63-9.6-.05-1.03-.19-2-.97-2.76-.81-.79-1.01-1.85-1.17-2.88-.16-1-.57-1.67-1.59-1.78-1.46-.16-1.97.13-2.38,1.43-.38,1.19-1.41,1.92-1.95,2.99-.03.06-.3,0-.46,0"/>
      <path class="cls-1" d="M170.46,102.21c-.05-.82.74-1.23,1.14-1.25,1.02-.05,1.63-.73,2.38-1.17.37-.22.69-.35,1.1-.33.68.02,1.33-.06,1.92-.47.94-.65,1.27-.52,1.56.59.25.95.95,1.35,1.79.82,1.34-.85,2.92-.79,4.33-1.31,2.59-.95,5.49-.79,7.92-2.27.53-.32,1.12-.08,1.69-.21,2.64-.61,5.37-.99,7.88-1.9,2.72-.99,5.59-1.13,8.33-1.99,2.11-.67,4.43-.83,6.68-1.13,1.68-.22,3.36-.47,5.04-.69,1.6-.21,3.21-.4,4.81-.62.95-.14,1.83-.48,2.74-.7,1.36-.32,2.74-.43,4.1-.77,1.32-.33,2.64-.71,3.96-.93,2.01-.33,3.79-1.27,5.74-1.78,1.35-.35,2.64-1.11,3.49-2.35.46-.67.41-1.49-.04-2-.56-.64-1.27-1.45-2.23-1.31-.62.09-.6-.42-.95-.56-1.59-.63-3.21-1.05-4.93-.93-.29.02-.72-.05-.81-.15-1.03-1.09-2.4-.73-3.63-.93-1.31-.21-2.63-.32-3.96-.41-2.16-.14-4.33-.34-6.48-.16-2.37.2-4.72.04-7.08.02-.93,0-2.01-.28-2.88.42"/>
      <path class="cls-1" d="M126.61,7.56c-.83,1.95-.4,4.17-1.22,6.11-.87,2.06-1.24,4.28-1.77,6.4-.48,1.96-.95,4.02-1.08,6.09-.03.44-.01.87-.37,1.2-.18.17-.33.51-.32.6.09,1.32-.58,2.51-.67,3.73-.1,1.45-.9,2.65-.96,4.07-.01.26-.14.61-.06.83.28.78-.09,1.36-.51,1.92-.4.55-.59,1.14-.46,1.8.05.25,0,.38-.11.61-.83,1.74-1.35,3.63-2.16,5.34-.86,1.83-1.2,3.82-2.23,5.61-1.15,2-1.84,4.3-2,6.67-.06.84-.32,1.63-.05,2.54.2.67.4.85,1.02.83.68-.02,1.37-.05,2.04.11"/>
      <path class="cls-1" d="M142.8,22.67c.96.68,2.07,1.13,2.89,2.03,1.11,1.21,1.04,2.47.01,3.75-1.37,1.71-2.84,3.37-3.97,5.27-.39.66-.53,1.45-1.09,2.04-.87.91-1.78,1.08-2.77.47-.58-.36-1.13-1.83-.69-2.5,1.16-1.77,1-3.91,1.79-5.77.11-.26.12-.5.09-.73-.21-1.77.58-3.02,1.91-4.11.53-.43,1.02-.44,1.58-.45"/>
      <path class="cls-1" d="M138.6,61.48c1.34,0,2.66.13,3.96.42,2.77.63,5.15,1.91,6.57,4.45.61,1.1.45,2.48-.01,3.56-.98,2.28-2.41,4.28-4.23,6.07-1.79,1.77-3.84,3.19-5.71,4.85-1.76,1.57-3.67,2.98-4.9,5.06-.26.43-.71.18-1.08.24"/>
      <path class="cls-1" d="M103.09,120.38c-.58-.91-.53-1.94-.46-2.94.08-1.14-.21-2.04-1.26-2.68-.74.43-1.3,1.11-1.86,1.74-.73.82-1.74,1.13-2.67,1.51-.64.26-1.36.03-1.79-.68-.4-.66-1.01-1.12-1.13-2.03-.14-1.07-1.3-1.4-2.7-.84-3.31,1.34-6.77,2.18-10.21,3.09-1.03.27-2.02.76-3.04.86-.53-.47-.1-1.16-.56-1.57"/>
      <path class="cls-1" d="M72.14,117.56c-1.14-.75-2.34-.08-3.19.33-1.21.59-2.46.47-3.65.84-1.12.34-2.32.51-3.48.68-1.58.24-3.18.48-4.79.53-.98.03-1.99-.06-2.86.4-.57.31-.87-.19-1.34-.18-2.56.05-5.11.29-7.68.31-2.44.02-4.86.61-7.32.71-2.52.1-5.06.34-7.55.76-1.84.3-3.7.48-5.54.85-1.2.24-2.48.21-3.71.24-2.52.06-4.93.81-7.44.9-1.28.04-2.54.41-3.84.35-.27-.01-.55.04-.72-.24"/>
      <path class="cls-1" d="M106.69,162.67c-.42-.53-.81-.13-1.07.13-1.69,1.73-3.72,3.02-5.67,4.4-2.33,1.65-4.94,2.83-7.54,3.99-.56.25-1.43-.25-1.68.71"/>
      <path class="cls-1" d="M242.26,83.13c-.95.81-2.15,1.15-3.26,1.64-1.1.49-2.33.6-3.49,1.06-1.31.52-2.77.67-4.18.9-.89.14-1.77.29-2.66.54-1.22.34-2.57.37-3.81.61-1.76.34-3.65-.07-5.3.88-.09.05-.24,0-.36,0-1.35.02-2.73-.17-3.96.6-2.22-.46-4.11.97-6.24,1.12-1.04.07-2.07.5-3.13.66-.58.09-.73.47-.98.88-1.28-.23-2.55-.24-3.69.58-.96.69-2.19.49-3.27.89-.57.21-1.03.51-1.53.8"/>
      <path class="cls-1" d="M230.03,80.01c.22.38.58.37.96.36,1.7-.05,3.43.03,5.02.53,2.22.69,4.67.73,6.62,2.22.05.04.16,0,.24,0"/>
      <path class="cls-1" d="M98.11,170.83c.3.8-.49.62-.79.83-2.82,1.89-5.9,3.07-9.35,2.74-1.19-.11-2.39-.61-3.21-1.56-.23-.27-.56-.83-.38-1.28.31-.8-.11-1.34-.5-1.93"/>
      <path class="cls-1" d="M96.85,133.88c-.91.76-.92,2.02-1.67,2.89-1.33,1.52-1.65,3.56-2.58,5.3-.53.99-.56,2.28-1.2,3.3.36.2.64.41,1.02.39"/>
      <path class="cls-1" d="M90.97,148.63c-.85.21-1.26.75-1.74,1.52-1,1.61-1.5,3.38-2.18,5.09-.56,1.4-1.27,2.85-1.39,4.31-.11,1.37-1.03,2.4-1.04,3.71-.02,1.29-.16,2.52-.69,3.73-.22.5-.02,1.18-.04,1.78-.01.27.2.7-.35.72"/>
      <path class="cls-1" d="M97.21,114.32c-.82-2.65-2.95-3.47-5.37-2.68-.81.26-1.67.36-2.45.54-.96.22-1.96.69-2.97.55-.66-.09-.82.52-1.31.66-1.09.31-2.21.58-3.25,1.05"/>
      <path class="cls-1" d="M102.61,120.32c-1.01,1.54-1.58,3.23-1.95,5.03-.12.6-.86,1-.91,1.69-.03.36-.36.88.35,1.02"/>
      <path class="cls-1" d="M193.91,94.65c-1.09.17-2.21.51-3.25.61-1.46.13-2.6.75-3.83,1.31"/>
      <path class="cls-1" d="M99.73,128.24c-.7.41-1.16.98-1.32,1.8-.2.99-.99,1.69-1.34,2.63-.17.46-.48.79.15,1.09"/>
      <path class="cls-1" d="M170.4,101.73c-1.56-.98-3.12-.97-4.2,0-.34.3-.58.61-.47,1.09.24,1.02-.49,1.56-1.08,2.16-.1.1-.19.1-.24.13-.83.47-1.46,1.47-2.52,1.27-.88-.17-1.35-1.11-2.03-1.66-.8-.65-1.53-.99-2.42-.22"/>
      <path class="cls-1" d="M206.99,78.21c-.38-.18-.74-.17-1.08.12-.26.22-.57.22-.83,0-1.17-.99-2.38-.64-3.6-.12"/>
      <path class="cls-1" d="M81.91,114.68c-.31-.72-.87-.29-1.12-.09-1.08.87-2.6.72-3.63,1.65-.02.02-.21.12-.23.11-1.62-.78-2.73.9-4.21.89-.42,0-.79.38-.72.93"/>
      <path class="cls-1" d="M77.66,118.4c-.88.49-2.32.62-3.71.9-.91.18-1.85.52-2.77.77-.39.11-.76.36-1.2.18"/>
      <path class="cls-1" d="M109.21,158.95c-1.27.85-2.33,1.85-2.52,3.48"/>
      <path class="cls-1" d="M145.92,84.81c-.19-.69-.58-1.05-.95-.83-1.6.92-3.46.81-5.17,1.28-1.37.38-2.81.5-4.2.85-.39.1-.84.08-1.2-.22"/>
      <path class="cls-1" d="M195.95,78.81c-.19-.14-.29-.46-.6-.35-.94.33-1.95-.13-2.89.34-.67.34-1.54.24-2.14.15-.88-.13-1.58-.06-2.29.35-.7.4-1.26-.34-1.92-.19"/>
      <path class="cls-1" d="M138.48,61.06c-.04.15.15.39-.24.37-.72-.04-1.44.02-2.16-.02-.46-.02-.85.08-1.2.37"/>
      <path class="cls-1" d="M157.68,82.41c-.76-.81-1.53-.04-2.28.03-1.36.14-2.64.78-3.97.97-.78.11-1.67.09-2.51.08-1.06-.02-2.12-.02-3,.72"/>
      <path class="cls-1" d="M168.84,80.67c-.65,0-1.24.26-1.66.68-.52.52-1.49.54-1.65.4-.98-.83-1.88-.26-2.81-.06"/>
      <path class="cls-1" d="M185.93,79.41c-.39-.39-1.14-.62-1.62-.48-1.02.29-3.57.48-4.44.36-.96-.13-1.71.18-2.16,1.08"/>
      <path class="cls-1" d="M177.24,101.01c-1.05.49-2.21.66-3.25,1.17-.27.13-.71.19-1.07.03"/>
      <path class="cls-1" d="M214.01,77.97c.02-.56-.62-.59-.77-.56-1.64.37-3.3-.13-4.93.19-.83.16-1.23.61-1.2,1.45"/>
      <path class="cls-1" d="M162.72,83.73c-.19-.63-.1-1.28-.12-1.92-1.12-.64-2.24.2-3.36.02-.2-.03-.62.15-.36.58"/>
      <path class="cls-1" d="M91.21,145.33c.8.59.1.94-.25,1.25-.7.61-.9,1.31-.59,2.17"/>
      <path class="cls-1" d="M157.68,104.13c-.58-.64-.97-1.5-2.18-1.14-.36.11-1.18.04-1.42-.66"/>
      <path class="cls-1" d="M201.59,79.05c-.2-.87-.87-1.37-1.55-1.05-.28.13-.59.26-.85.45"/>
      <path class="cls-1" d="M186.71,96.81c-.45-.61-.44-.56-.84-.49-1.33.24-2.6.74-3.96.86-.64.06-1.09.6-1.68.83"/>
      <path class="cls-1" d="M178.08,80.97c-.56-1.35-1.94-1-2.74-.86-1.08.19-2.24-.04-3.26.5"/>
      <path class="cls-1" d="M198.59,78.09c-.66.4-1.53-.24-2.22.55-.26.3-.27.66-.54.89"/>
      <path class="cls-1" d="M170.88,80.73c-.44-.56-1.01-.14-1.43-.06-.54.1-.49-.08-.49-.42"/>
      <path class="cls-1" d="M176.76,99.33c.16.28.37.53.48.84.35,1.07.35,1.07,1.32.36"/>
      <path class="cls-1" d="M197.03,95.61c-.25-.71-.4-1.63-1.44-1.42-1.6.33-1.93.07-1.2,2.26"/>
      <path class="cls-1" d="M153.96,102.69c-.47.34-1.06.14-1.57.34-.3.12-.49-.12-.47-.46"/>
      <path class="cls-1" d="M185.39,96.69c.3.61-.1,1.34.36,1.92"/>
      <path class="cls-1" d="M163.56,105.93c.36.32.36.64,0,.96"/>
      <path class="cls-1" d="M163.08,106.77c.55.44.37,1.13.6,1.68"/>
    </g>
  </g>
</svg>