<?xml version="1.0" encoding="UTF-8"?>
<svg id="Layer_2" data-name="Layer 2" xmlns="http://www.w3.org/2000/svg" viewBox="0 0 274 173.19">
  <defs>
    <style>
      .cls-1 {
        fill: none;
        stroke: #000;
        stroke-linecap: round;
        stroke-linejoin: round;
        stroke-width: .75px;
      }
    </style>
  </defs>
  <g id="Layer_1-2" data-name="Layer 1">
    <g>
      <path class="cls-1" d="M167.24,114.87c.05,1.32,1.22,1.34,2.03,1.82.43.26,1.19.04,1.27.82.07.76.31,1.61-.1,2.25-.33.51-.3.97-.31,1.47-.03,1.08.2,2.23-.96,2.95-.07.05-.12.35-.1.4.34,1.3-.85,2.05-1.11,3.12-.18.74-.6,1.35-1.08,1.92-.59.71-1.01,1.49-1.2,2.4-.08.38-.27.69-.58.97-.8.71-1.59,1.45-1.7,2.63-.01.14-.12.26-.23.36-1.25,1.11-1.82,2.71-2.88,3.96"/>
      <path class="cls-1" d="M158.96,141.74c-.9.35-1.07,1.32-1.66,1.94-1.74,1.83-3.24,3.89-4.99,5.69-2.54,2.61-4.95,5.39-7.78,7.68-1.79,1.45-3.57,2.94-5.55,4.21-2.18,1.4-4.45,2.65-6.69,3.93-1.87,1.08-3.86,2.25-5.98,2.61-2.02.35-4.09,1.21-6.23.34-1.02-.42-2.17.08-3.23-.26"/>
      <path class="cls-1" d="M251.94,24.3c.25.3.58.36.96.37.82.02,1.6-.02,2.43.41.76.39,1.7-.09,2.49-.53.68-.38.22-.97.36-1.45.28-1.01-.26-1.9-.58-2.74-.6-1.57-.5-3.41-1.4-4.77-.91-1.38,0-2.99-.99-4.26-.18-.23-.26-.59-.51-.81-1.1-.97-1.68-2.35-2.57-3.43-1.34-1.62-2.17-3.79-4.38-4.62-.24-.09-.4-.39-.61-.58-.61-.57-1.28-1-2.16-.96-.2,0-.44.08-.59,0-2.66-1.48-4.25.52-5.84,1.98-1.03.94-1.87,1.78-3.4,1.66-1.24-.1-2.48-.08-3.74.39-.83.31-1.82.32-2.74.51-.86.18-1.56.77-2.52.74-.39-.01-.73.76-.57,1.19.34.91.05,1.89.45,2.77"/>
      <path class="cls-1" d="M227.83,11.22c.58.17,1.16.15,1.6.81.4.6,1.32.66,2.01.96.73.33.98.55.36,1.24-1.03,1.14-1.32,2.6-1.44,4.07-.13,1.54.04,3.06.45,4.56.32,1.18,1.93,2.86,3.14,2.98.8.08,1.53-.06,1.93-.94.35-.76.92-1.38,1.42-2.05.76-1,1.91-1.69,2.3-2.99.12-.41.53-.66.83-.96.36-.36.76-.39,1.07,0,1.17,1.45,2.59,2.61,4.07,3.73,1.23.94,2.47,1.64,4.09,1.57.71-.03,1.41.47,2.16.09"/>
      <path class="cls-1" d="M177.08,17.1c-2.52-.41-4.73-1.86-7.11-2.43-2.33-.56-4.3-1.89-6.66-2.37-1.34-.27-2.77-.85-4.13-1.29-.98-.32-2.1-.56-3.2-.7-1.48-.19-3.04-.19-4.46-.87-.89-.43-1.92-.2-2.88-.32-3.62-.47-7.29-.54-10.9-.19-1.84.18-3.73.08-5.51.46-1.03.21-2.12.46-3.15.83-.98.35-2.08.49-3.11.58-1.58.14-2.98.59-4.31,1.39-.39.24-.79.25-1.21.22-.77-.04-1.45.15-2.17.46-2.27.96-4.62,1.72-6.95,2.53-1.05.37-2.11.76-3.09,1.26-.55.28-1.04.27-1.58.31"/>
      <path class="cls-1" d="M104.97,17.94c-.63.14-1.21.48-1.65.87-.56.51-1.11.73-1.83.69-.2-.01-.41-.08-.6.11-1.58,1.47-3.71,1.96-5.49,3.05-1.6.98-3.07,2.26-3.74,4.16-.09.26-.22.49-.35.73-.59,1.14-.74,2.3-.41,3.6.39,1.56.47,3.15,1.68,4.46,1.47,1.59,2.92,3.3,4.77,4.3,1.27.69,2.3,2.12,4.02,1.91.61.89,1.62.96,2.52,1.18,1.47.37,2.89.93,4.28,1.45,1.45.54,2.94.23,4.41.84,1.28.53,2.95.65,4.49.76,1.38.1,2.94.05,4.37.74.75.36,1.82.19,2.73.48,1.32.42,2.67.77,3.95,1.3,1.52.63,3.2.81,4.66,1.48,1.16.54,2.48.01,3.54.86.27.21.86.06,1.29.03.85-.07,1.57.02,1.93.96.32.85,1.07,1.42,1.46,2.27.96,2.12-.96,4.24-2.55,4.39-.83.08-1.84-.44-2.44-.98-.41-.37-.94-.82-1.34-1.31-.55-.67-1.69-.87-2.56-.72-.99.17-1.8-.26-2.63-.49-.44-.12-.88-.26-1.34-.28-2.2-.09-4.39-.43-6.59-.61-1.38-.11-2.86-.05-4.19-.42-1.3-.35-2.56-.36-3.85-.45-.4-.03-.67-.27-1.12.1-.32.26-.92-.14-1.15-.56-.4-.77-1.08-.58-1.7-.59-1.6-.01-3.2,0-4.8-.02-.19,0-.43-.07-.6-.23"/>
      <path class="cls-1" d="M261.66,49.37c-1.28-1.22-2.84-.77-4.14.42-1.68,1.54-2.2,3.74-3.67,5.33-.44.47-.31,1.08-.52,1.6-.66,1.66-1.06,3.44-.43,5.25.32.93-.45,1.97-1.44,2.04-1.07.08-2-.03-2.78-.94-.6-.71-1.18-1.53-2.25-1.73-.3-.06-.55-.52-.71-.82-.92-1.77-2.16-3.16-3.8-4.39-1.12-.84-2.33-1.55-3.45-2.41-1.31-1.01-2.72-1.94-4.1-2.83-.75-.48-1.7-.67-2.23-1.52"/>
      <path class="cls-1" d="M56.5,66.11c.42-.05.79-.14,1.22.16.62.44,1.42.41,2.14.37,1.17-.08,2.32-.3,3.49.12,1.04.38,2.15.24,3.23.26.79.02,1.6-.17,2.29.46.31.28.79.15,1.19.13,1.87-.12,3.49.71,5.15,1.34.2.08.36.27.61.22,1.92-.34,3.75.43,5.64.54.91.05,1.94.24,2.75.8.9.62,1.89.71,2.89.56.66-.1,1.59.57,1.96-.69.2-.69.93-1.2.81-2.05-.03-.2-.04-.41,0-.6.41-2.09-.27-2.43-1.72-3.81-1.76-1.68-3.06-.15-4.39.07-2.64.45-4.97.4-6.97-1.55-.51-.49-1.25-.66-1.59-1.42-.7-1.58-.27-2.73,1.47-3.08.64-.13,1.07-.43,1.55-.76,1.02-.69,2.04-1.38,3.36-1.33.32.01.57-.19.85-.34,1.23-.67,2.59-.92,3.93-1.29,1.83-.52,3.72.04,5.39-.49,1.74-.55,3.54.06,5.2-.72.22-.1.96-.17.94.56"/>
      <path class="cls-1" d="M175.28,116.19c-.28,1.49-.16,1.78,1.21,2.32.48.19.83.5,1.18.81,2.09,1.87,4.6,2.99,7.22,3.78,1.36.41,2.83-.07,4.18-.55,1-.36,1.88-.99,2.89-1.29.64-.19.81-.74,1.17-1.13.68-.73,1.56-1.32,2.13-2.06,1.21-1.59,3.34-2.64,3.21-5.12-.03-.58-.29-.99-.52-1.43-.88-1.69-2.39-2.75-3.96-3.7-.39-.24-.81.16-1.21.42-.58.39-.54,1.36-1.42,1.41"/>
      <path class="cls-1" d="M104.85,131.79c-.45-.1-.44-.6-.78-.89.97-1.1,1.7-2.35,2.38-3.64.26-.49.38-.88.18-1.33-.08-.17-.15-.43-.09-.47,1.03-.75.39-2.37,1.66-3.03.94-.49,1.9-.46,2.89-.46.21,0,.42.02.48-.05,2,1.15,2.06,3.29,2.55,5.12.26.97-.29,2.32-1.25,3.06-.66.51-1.13.93-1.44,1.8-.27.76-.78,1.53-1.18,2.3-.07.13-.12.23-.11.37.13,1.82-.45,3.58-1.17,5.11-.68,1.43-.36,2.87-.77,4.27-.32,1.1-.4,2.44-.24,3.69.07.54.14,1.13-.1,1.68"/>
      <path class="cls-1" d="M9.11,127.83c1.41,1.3,2.37,2.93,3.4,4.53,1.06,1.65,1.86,3.46,3.52,4.75,1.5,1.17,2.51,2.91,4.12,4.03,1.36.95,2.45,2.31,4.08,2.88.2.07.39.19.47.36.65,1.4,2.13,1.65,3.25,2.39.82.54,1.66,1.1,2.46,1.65.44.3.91.67,1.39.85,1.43.53,2.51,1.86,4.19,1.85.27,0,.45.32.6.58.18.31.53.48.84.47,1.35-.07,2.51.49,3.74.92.92.32,1.98.26,2.99.47,1.69.36,3.4.87,5.14.76,1.3-.08,2.56-.12,3.85.13.39.08.73.22,1.15.43.58-.65,1.37-.7,2.21-.66.92.05,1.84.02,2.76,0,.64,0,1.23,0,1.82-.44.6-.44,1.19-.09,1.54.57"/>
      <path class="cls-1" d="M8.57,130.23c.19.69-.03,1.36-.06,2.04-.07,1.52.63,2.75,1.57,3.83,2.17,2.5,4.46,4.89,6.7,7.34.87.95,1.94,1.52,3.13,1.91"/>
      <path class="cls-1" d="M239.35,9.9c.45.63,1.19,1.05,1.13,2.04-.03.51.58.71,1.15.73,1.11.03,2.7,1.18,2.84,2.27.17,1.34,1.29,2.13,1.62,3.35.05.17.25.4.46.41,1.98.09,3.43,1.42,5.16,2.1.91.36,1.66-.21,1.68-1.19.03-1.39-.44-2.67-.86-3.95-.15-.44-.03-.89-.21-1.33-.41-.98-.77-1.99-1.57-2.75"/>
      <path class="cls-1" d="M108.57,154.22c-.11.55-.25,1.03.21,1.58.55.64.48,1.6.69,2.39.65,2.51,1.42,4.87,3.24,6.87.89.98,2,1.68,2.84,2.69.35.42.98.58,1.29-.22"/>
      <path class="cls-1" d="M167.72,114.57c-.35.42-.71.09-.95-.08-.79-.57-1.63-3.62-1.18-4.53.22-.44.36-.85.49-1.32.16-.59.67-1.07,1.4-.96.53.08,1.01.02,1.44-.26.38-.25.79-.27,1.2-.22,1.63.16,2.82.73,3.83,1.92.48.57,1.09,1.07,1.23,1.91.13.76.76,1.18,1.28,1.7,1.4,1.38,2.76,2.91,4.35,3.95,1.43.95,3.14,2.07,5.15,1.66.82-.17,1.62-.57,2.24-1.01,1.09-.77,2.34-1.53,2.79-2.95.09-.29.24-.46.49-.6,1.02-.58,1.37-1.35.94-2.38-.23-.56-.28-1.16-.57-1.69"/>
      <path class="cls-1" d="M177.32,17.22c1.2,1.3,2.9,1.66,4.45,2.24,1.48.55,2.77,1.34,4.09,2.16,1.36.85,2.77,1.63,4.4,2.01.85.2,1.63.88,2.41,1.38,2.82,1.79,5.69,3.49,8.64,5.04,1.05.55,1.88,1.42,2.88,2.04.5.31.99.76,1.56.12"/>
      <path class="cls-1" d="M37.91,65.33c0-.46.25-1-.25-1.31-.68-.42-1.27.22-1.83.41-1.16.38-2.28.95-3.42,1.43-1.81.76-3.78,1.15-5.44,2.33-1.76,1.25-3.8,2.08-5.26,3.74-1.29-.04-1.85,1.31-3,1.57-.45.1-.44.66-.72.95"/>
      <path class="cls-1" d="M51.58,62.69c-.32-.88-1.87-1.57-2.75-1.18-.24.11-.46.27-.73.22-1.73-.35-3.36.39-5.03.6-.81.1-1.91.02-2.65.73-.23.22-.5.13-.72.1-.83-.1-1.45.18-1.92.85"/>
      <path class="cls-1" d="M247.5,56.93c.47-.21.85-.58.82-1.08-.08-1.26.54-2.4,1.08-3.3.63-1.03.98-2.18,1.5-3.22,1-1.99,2.59-3.45,3.97-5.08.55-.65,1.68-.74,2.58-1.03,1.79-.57,3.03.59,4.45,1.22.28.12.47.43.84.37,1.26-.22,2.04.62,2.6,1.46,1,1.49,1.92,3.1,1.58,5.01-.28,1.53-.5,3.15-2.14,3.96"/>
      <path class="cls-1" d="M88.66,49.13c-.99-.69-1.93.1-2.87.19-.95.08-1.86.67-2.89.66-.6,0-1.12.37-1.66.54-2.12.68-4.34,1.01-6.3,2.27-.86.55-1.94,1.15-3.08,1.12-1.12-.03-1.72,1.05-2.76,1.11"/>
      <path class="cls-1" d="M103.41,139.58c.25,1.42.48,2.76-.16,4.24-.31.72-.16,1.81-.15,2.72.01.95.02,1.92.07,2.88.05.86-.25,1.79.47,2.52.04.04.01.16,0,.23-.13,1.73.54,3.29.93,4.93.37,1.57.75,3.1,1.46,4.56.47.96,1.05,1.87,1.26,2.98.14.71.79,1.15,1.63.73"/>
      <path class="cls-1" d="M151.64,4.86c-.03.18.03.46.12.46,1.11-.01,2.05.62,3.09.86,1.4.32,2.86.4,4.26.7,1.45.31,2.74,1.26,4.29,1.1.24-.02.45.05.6.24.64.82,1.64.93,2.53,1.18,1.39.39,2.23,1.16,2.27,2.66"/>
      <path class="cls-1" d="M139.89,165.38c.12.71-.18,1.12-.83,1.46-1.97,1.02-3.85,2.23-5.79,3.29-.57.31-1.33.5-2.02.63-1.18.21-2.23.75-3.36,1.1-.47.15-.82.38-.72.96"/>
      <path class="cls-1" d="M262.26,49.25c-.74-.06-.73.45-.72.96,0,.79-.06,1.52-.44,2.3-.89,1.83-1.42,3.81-2.59,5.52-.48.7.41,1.2.68,1.76.29.62,1.03.94,1.53,1.45.45.46,1.03.35,1.41-.01.52-.49,1.14-.89,1.26-1.77.13-.93.88-1.06,1.88-.49"/>
      <path class="cls-1" d="M104.01,130.95c-.88.08-.88.98-1.28,1.47-1.79,2.2-4.06,3.87-6.17,5.71-1.29,1.12-2.68,2.16-4.29,2.86-.78.34-.97,1.38-1.81,1.73-1.41.59-2.61,1.57-3.96,2.27-.14.07-.33-.04-.48.12-1.98,2.16-4.76,2.84-7.31,3.98-1.37.61-2.73,1.25-4.08,1.92-.63.31-1.32.44-1.95.63-1.63.49-3.32.81-5.01,1.1-1.6.28-3.16.88-4.81,1.01-.09,0-.16.15-.24.23"/>
      <path class="cls-1" d="M228.13,44.57c.79-1.14.74-1.06,1.99-.38,2.3,1.25,4.53,2.62,6.79,3.92,1.17.67,2.47,1.33,3.45,2.17,1.79,1.54,4.15,2.43,5.43,4.5.68,1.09,1.85,1.91,1.95,3.34"/>
      <path class="cls-1" d="M183.32,16.02c.73.26,1.49.41,1.94,1.19.31.55.97.55,1.54.68,1.22.3,2.12,1.41,3.48,1.36.73,1.33,2.53,1.08,3.37,2.27.19.26.46.41.82.51,1.29.37,2.34,1.23,3.49,1.88.92.52,1.81,1.1,2.74,1.59.83.45,1.47,1.17,2.39,1.58,1.72.78,2.98,2.38,4.72,3.15,1.75.77,2.84,2.51,4.47,3.16,1.63.66,2.75,1.91,4.24,2.7,1.92,1.02,3.8,2.16,5.69,3.26,1.72,1,3.24,2.33,5.13,3.05.48.18.83.67,1.21,1.06"/>
      <path class="cls-1" d="M170.84,130.65c.7.3.43.9.22,1.24-.92,1.46-1.14,3.33-2.62,4.45-.04,1.35-1.69,1.84-1.71,3.24,0,.38-.56.56-.79.86-1.34,1.69-2.82,3.29-3.71,5.28-.16.36-.39.61-.64.81-1.39,1.09-2.52,2.46-3.66,3.77-1.12,1.29-2.65,2.35-3.39,3.75-.62,1.16-2.06,1.39-2.29,2.69-1.85.87-2.87,2.8-4.69,3.71-.55.27-.73.8-1.06,1.22-.71.91-1.52,1.13-2.53.59"/>
      <path class="cls-1" d="M104.25,138.68c-1.65.87-3.1,2.04-4.56,3.18-1.83,1.43-3.69,2.89-5.69,3.99-1.66.92-2.92,2.31-4.53,3.16-1.42.75-2.85,1.49-4.29,2.22-1.66.84-3.47,1.36-5.05,2.37-1.09.7-2.39.83-3.6,1.21"/>
      <path class="cls-1" d="M246.07,5.7c-.83.56-1.7,1.07-2.17,2.03-.22.45-.07.75.26.96.64.4,1.48.54,1.67,1.45,1.69.22,2.77,1.78,4.44,2.01.06,0,.39.01.48-.21"/>
      <path class="cls-1" d="M3.83,90.64c-1.03.29-1.35,1-1.48,2.03-.14,1.08-.19,2.18-.61,3.27-.42,1.1-1.02,2.29-.71,3.57.09.36,0,.71-.11.95-.77,1.87-.3,3.76-.33,5.65-.01.79.51,1.7-.09,2.54-.18.25-.18.83.04,1.17.54.8.51,1.69.38,2.53-.26,1.63.77,3.08.51,4.68,1.18,1.39.42,3.4,1.56,4.8-.31,1.33.53,2.15,1.32,3,.32.34.18.79.25,1.2.17.94.36,1.89,1.43,2.28"/>
      <path class="cls-1" d="M43.9,65.81c.33,1.46.33,1.46-1.2,1.91-.16.05-.29.14-.48.14-2.3-.05-4.34.9-6.34,1.83-1.27.59-2.55,1.16-3.87,1.62-1.96.68-3.41,2.23-5.28,2.99-1.21.49-2.26,1.1-3.1,2.07-.78.91-1.91,1.34-2.81,2.1-.91.77-1.64,1.75-2.71,2.35-1.28.72-2.19,1.88-3.26,2.85-.3.27-.75.39-1.19.37"/>
      <path class="cls-1" d="M108.33,165.74c.01.28-.1.63.13.83,1.57,1.44,2.79,3.34,4.92,4.07,1.46.5,2.78,1.48,4.43,1.34"/>
      <path class="cls-1" d="M117.81,172.33c.05-.86.86-.56,1.06-.44,1.12.7,2.34.44,3.5.42,1.24-.02,2.52.33,3.73-.32.3-.16.63.17.95.22"/>
      <path class="cls-1" d="M245.83,4.02c-.74.59-1.68.24-2.56.63-1.48.67-2.53,1.32-2.62,3.08-.1,1.85-1.88,2.72-4.18,2.04"/>
      <path class="cls-1" d="M175.52,118.23c-.55.93-.63,1.96-.59,3,.05,1.53-.45,2.93-.99,4.31-.14.35-.17,1.08-.93.79"/>
      <path class="cls-1" d="M5.99,95.8c.86.27.78.89.6,1.56-.49,1.85-1.08,3.66-.87,5.64.16,1.45-.68,2.81-.49,4.32.14,1.12.27,2.25.48,3.36.06.28.41.98-.45.95"/>
      <path class="cls-1" d="M69.7,55.13c.24.71-.32,1.25-.4,1.92-.22,1.96.94,3.52,1.37,5.28.07.28.22-.07.35-.06"/>
      <path class="cls-1" d="M19.91,144.5c.1,1.03.5,1.73,1.38,2.47,1.27,1.07,2.89,1.61,3.99,2.83.36.39.79.19,1.11.46"/>
      <path class="cls-1" d="M180.68,15.3c-.33-.44-.74-.7-1.32-.6-.21.03-.52.06-.58-.12-.41-1.17-1.71-1.04-2.46-1.3-1.04-.36-1.83-1.43-3.07-1.22-.08.01-.22.02-.23,0-.58-1.61-2.36-.49-3.27-1.41-.18-.18-.63,0-.94.1"/>
      <path class="cls-1" d="M76.42,153.62c-.31,2-.75,2.39-2.76,2.39-.62,0-1.17.39-1.68.43-1.07.08-2.11.86-3.25.21-.15-.09-.55.07-.83.2-1.48.7-2.98,1.13-4.67,1.15-1.07.01-2.16.29-3.23.03-.34-.08-.52-.09-.73.15-.19.21-.5.49-.7.34-1.11-.84-2.17.2-3.26.03-.57-.09-1.22.15-1.67-.37-.23-.27-.45-.07-.6.02-1.24.7-2.69.59-3.81.24-1.27-.38-2.54-.19-3.75-.56"/>
      <path class="cls-1" d="M70.66,62.45c-1.09.28-2.19.56-3.24-.12-.31-.2-.68-.2-.95-.1-1.03.37-2.12-.39-3.13.21-.1.06-.23-.03-.36-.1-1.37-.76-2.87-.4-4.3-.57-1.95-.23-3.85.17-5.77-.04-.47-.05-.96-.07-1.32.35"/>
      <path class="cls-1" d="M147.56,5.22c-2.64-1.23-5.42-.68-8.16-.57-.57.02-1.1-.15-1.69-.1-.84.07-1.7-.1-2.52.3-.27.13-.54-.16-.84-.11"/>
      <path class="cls-1" d="M205.39,32.7c.2.91,1.15,1.15,1.72,1.49,1.93,1.14,3.65,2.57,5.59,3.67.92.52,1.77,1.12,2.58,1.85.62.56,1.69.63,2.35,1.38,1.27,1.46,3.4,1.35,4.81,2.63.89.81,2.04,1.29,3,2.03.35.27.78.62,1.3.62.51,0,.88.26,1.2.61.91.98,2.09,1.55,3.25,2.14.29.15.76.46.89-.23"/>
      <path class="cls-1" d="M53.14,65.81c-1.09-.35-1.82.71-2.88.69-2.01-.05-3.96.8-6,.51"/>
      <path class="cls-1" d="M13.49,83.44c-.08.36.23.7-.16,1.1-.87.89-1.2,2.23-2.53,2.77-.65.26-.52,1.3-1.21,1.65"/>
      <path class="cls-1" d="M273.3,56.45c.87,1.43-.18,2.58-1.02,3.16-1.4.97-2.16,2.35-3.19,3.55-.85.99-1.06,2.51-2.5,3.03-.12.04-.19.44-.26.69-.32,1.06-3.27,2.15-4.19,1.56-1.01-.64-1.18-1.74-.63-2.77.38-.7,1.06-1.22,1.31-1.92.59-1.68,2.34-2.68,2.55-4.55.01-.13-.03-.31.12-.35,1.16-.34,1.46-1.41,2.08-2.25.44-.59.76-1.09.69-1.83-.05-.49.23-.68.71-.73.96-.1,1.92,0,2.88.02,1.02.02.68,1.12,1.18,1.58.09.08.12.45.14.69"/>
      <path class="cls-1" d="M26.87,149.54c.14.39-.51.44-.3,1.01.63.51,1.44.98,2.29,1.47.95.55,2.32.56,2.83,1.19.97,1.22,2.29,1.23,3.46,1.7,1.51.62,3,1.35,4.67,1.46.89.06,1.75.42,2.49.78.72.36,1.61.09,2.22.75.09.1.88.32.81-.45"/>
      <path class="cls-1" d="M144.8,162.74c-.56.82-1.02,1.73-2.16,1.93-.64.11-.81.85-1.41,1.13-.42.2-.8.29-1.23.3"/>
      <path class="cls-1" d="M6.11,85.84c.65.82.66,1.94.52,2.75-.34,1.95.24,3.86-.03,5.77-.07.48-.07.97-.25,1.44"/>
      <path class="cls-1" d="M5.69,111.75c.14,1.08.02,2.16.06,3.24.02.6.05,1.13.43,1.71.4.61.4,1.51.48,2.25.14,1.38.12,2.8-.06,4.19-.03.23-.14.6.35.48"/>
      <path class="cls-1" d="M6.23,84.52c.02.57-.05.99-.57,1.47-1.6,1.49-1.95,3.4-1.35,5.48"/>
      <path class="cls-1" d="M18.71,77.32c0-.2-.01-.4,0-.6.06-.79.27-1.79-.62-2.11-.84-.29-1.6.51-2.1,1.06-.78.86-1.71,1.5-2.56,2.24-1.41,1.23-2.73,2.56-4.29,3.64-1.06.73-.48,2.04-.47,3.08,0,.54,0,1.02-.11,1.57-.19,1-.37,2.09.43,2.99"/>
      <path class="cls-1" d="M6.47,123.75c-.28.4-.18.86.02,1.19.52.87.36,1.69-.02,2.53"/>
      <path class="cls-1" d="M173.36,126.63c.23.77-.35,1.32-.64,1.9-.38.78-.87,1.55-1.52,2.18"/>
      <path class="cls-1" d="M101.25,47.45c-.22.27-.52.47-.84.47-1.75,0-3.39.8-5.16.63-.42-.04-.77.18-.72.71"/>
      <path class="cls-1" d="M151.64,5.22c-1-.06-1.98-.36-3-.24-.4.05-.9-.14-1.02.48"/>
      <path class="cls-1" d="M104.13,50.93c0,.59.14,1.25-.75,1.52-.37-.12-.84-.4-1.31-.68-1.08,1.37-2.91.6-4.19,1.44"/>
      <path class="cls-1" d="M53.38,65.45c.4.56.4.58.96.6.52.02,1.04.02,1.56,0,.37-.02.54.11.48.49"/>
      <path class="cls-1" d="M263.94,54.77c.88.02.86.73.68,1.19-.31.83-.2,1.6-.09,2.41"/>
      <path class="cls-1" d="M92.61,49.13c-1.09-.49-2.25-.21-3.36-.2-.83,0-.83.85-.84,1.52"/>
      <path class="cls-1" d="M167.72,107.91c.16.63-.44,1.57.72,1.8"/>
      <path class="cls-1" d="M8.39,88.72c-.52,0-1.05.04-1.56-.12"/>
      <path class="cls-1" d="M3.83,118.35c-.03.68.35.89.96.84"/>
      <path class="cls-1" d="M164.6,9.06c-.19.69-.75.43-1.2.48"/>
    </g>
  </g>
</svg>