<?xml version="1.0" encoding="UTF-8"?>
<svg id="Layer_2" data-name="Layer 2" xmlns="http://www.w3.org/2000/svg" viewBox="0 0 178.32 168.84">
  <defs>
    <style>
      .cls-1 {
        fill: none;
        stroke: #000;
        stroke-linecap: round;
        stroke-linejoin: round;
        stroke-width: .75px;
      }
    </style>
  </defs>
  <g id="Layer_1-2" data-name="Layer 1">
    <g>
      <path class="cls-1" d="M41.73,50.51c-.73-.1-.71.65-1.07.97-1.9,1.64-3.83,3.23-5.88,4.68-.88.63-2.01,1.34-2.19,2.29-.28,1.4-.42,2.99.62,4.3.71.9,1.62,1.33,2.76,1.32.96-.01,1.92,0,2.83,0,.32.85.25,1.66.33,2.41.1.87.49,1.57.84,2.25.61,1.19,2.14,1.51,3.42.71.78-.49,1.45-.25,2.26-.25.19,1.28-.2,2.49-.72,3.5-2.13,4.09-4.72,7.9-7.32,11.71-1.43,2.09-2.95,4.11-4.44,6.16-1.93,2.65-3.87,5.29-5.95,7.84-.6.73-1.32,1.38-1.67,2.28-.38.96-1.66,1.27-1.69,2.46-2.06,1.59-2.9,4.12-4.62,6-.84.91-1.66,2-2.21,3.19-.39.83-1.16,1.31-1.63,2.12-1.26,2.2-2.81,4.23-4.11,6.41-.96,1.6-1.79,3.3-2.59,5-.46.97-1.06,1.85-1.43,2.89-.84,2.36-1.85,4.64-2.05,7.2-.1,1.2-.31,2.39-.32,3.6-.03,2.69.69,5.17,1.9,7.57,1.41,2.8,3.48,5.01,6.07,6.63,1.02.64,2.36,1.21,3.67,1.24,1.51.03,3.04.2,4.56-.18,1.87-.47,3.64-1.16,5.4-1.91,2.33-.99,4.37-2.46,6.55-3.69,1.23-.7,2.42-1.62,3.5-2.59,1.52-1.37,3.32-2.35,4.95-3.56,2.77-2.07,5.67-4.01,8.33-6.2,2.04-1.68,4.12-3.33,6.22-4.91,1.27-.95,2.42-2.21,4.03-2.71"/>
      <path class="cls-1" d="M29.01,50.27c.33-.75,1.11-.71,1.69-.8,1.65-.27,3.35-.57,4.88-1.1,1.5-.52,3.07-.63,4.57-1.11.97-.31,2.16-.77,3.41-.29.61.23,1.55-.02,2.24-.32,1.65-.72,3.29-.25,3.94,1.36.14.36.18.91-.1,1.3-.78,1.12-1.51,2.31-2.99,2.65-.38.09-.67.32-.97.59-1.49,1.34-3.08,2.55-4.77,3.63-1.15.73-2.12,1.72-3.24,2.51-.17.12-.25.51-.11.69.28.37.64.67,1.18.62,1.08-.11,2.04.19,3.01.7,1.75.91,2.15,1.91,1.3,3.63.25.53.6.6,1.21.5,2.17-.35,3.95.32,5.15,2.25.67,1.08.4,2.24.23,3.36-.5,3.15-2.16,5.82-3.71,8.51-.98,1.7-2.17,3.27-3.21,4.94-1.25,2.01-2.83,3.75-4.19,5.65-2.44,3.42-5.09,6.66-7.72,9.92-1.78,2.21-3.58,4.42-5.33,6.65-2.2,2.8-4.05,5.88-6.1,8.8-1.28,1.82-2.44,3.72-3.63,5.58-1.34,2.1-2.59,4.29-3.65,6.56-.34.73-.75,1.43-1.07,2.16-.64,1.45-1.21,2.96-1.62,4.46-.54,2-.66,4.1-.73,6.22-.1,3.15,1.48,5.63,2.7,8.28,1.47.7,2.04,2.67,3.96,2.8.24.02.85.21.72.8"/>
      <path class="cls-1" d="M139.87,117.09c-.59-1.01-1.61-1.59-2.54-2.12-2.22-1.26-4.2-2.87-6.36-4.21-1.4-.87-2.4-2.21-3.91-2.98-.59-.3-1.09-.46-1.71-.55-1.04-.15-2.08-.43-2.99-.96-1.21-.71-2.64-.69-3.88-1.36-.66-.36-1.65-.03-2.49-.28-.95-.27-1.97-.16-2.9-.69-.34-.19-.91-.28-1.41-.31-1.82-.12-3.6-.52-5.39-.86-.5-.09-.99-.05-1.45-.04-2.86.04-5.65-.57-8.52-.61-2.43-.04-4.88-.12-7.32-.11-1.48,0-2.82-.65-4.32-.56-1.11.07-1.9.67-2.73,1.17-.69.41-.47,1.42.21,2.25.87,1.07,2.1,1.72,3.02,2.74,1.01,1.12,1.93,2.27,2.64,3.6.77,1.45.96,3.07,1.51,4.58.56,1.53.97,3.12,1.41,4.68.33,1.19.69,2.39,1.01,3.59.48,1.8.94,3.6,1.45,5.4.5,1.77.84,3.6,1.28,5.38.47,1.92.94,4.01,2.37,5.5,1,1.05,2.22,1.97,3.68,2.44.51.17.94.51,1.43.74.72.33.38,1,.11,1.4-.84,1.24-1.61,2.53-2.51,3.72-1.26,1.68-2.63,3.33-4.13,4.74-1.95,1.84-3.56,4.05-5.8,5.6-1.01.7-1.75,1.75-2.73,2.47-1.43,1.05-3.02,1.86-4.72,2.42-.98.32-1.95.61-2.98.8-1.94.35-3.02-.71-4.05-1.91-.33-.38-.71-.74-1-1.16-.19-.26-.63-.19-.69-.1-.8.97-1.9.65-2.9.7"/>
      <path class="cls-1" d="M86.12,5.04c2.08,1.5,3.35,3.69,4.94,5.62,2.33,2.84,4.72,5.64,7.61,7.99,1.38,1.12,2.42,2.72,3.67,4.06,1.85,2,3.31,4.38,5.72,5.86,1.49.92,2.06.97,3.27-.26.3-.3.7-.5,1.07-.73,2.95-1.8,6.05-3.26,9.33-4.4.95-.33,2-.54,2.94-1.05.69-.37,1.72-.15,2.61-.27,2.86-.41,5.75-.33,8.63-.26,2.69.07,5.16.85,7.46,2.34,1.93,1.25,4.04,2.2,5.86,3.63.1.08.32-.03.47.02,1.76.54,2.06,1.31.95,2.74-1.55,2-2.64,4.3-4.11,6.34-1.25,1.72-2.2,3.59-3.17,5.44-1.22,2.32-2.18,4.81-2.82,7.32-.56,2.2-1.34,4.5-.98,6.8.21,1.32-.3,2.78.64,3.98.08.1,0,.31.01.47.14,4.96.44,9.91.13,14.88-.2,3.16-.12,6.32-.13,9.48,0,1.55.64,2.47,2.16,2.47,1.48,0,2.79.59,4.2.78,1.62.22,3.21.68,4.77,1.07,1.3.32,2.62.12,3.88.56.9.31,1.9-.16,2.86-.21,1.25-.06,2.46,0,3.75-.37,1.32-.37,2.95-.69,4.3.37.12.1.39,0,.59.02,1.55.16,2.91.62,3.99,1.89.76.9,1.85,1.5,2.73,2.3"/>
      <path class="cls-1" d="M93.92,9.54c.37-.11.51-.36.23-.65-1.16-1.28-2.18-2.67-3.39-3.92-1.19-1.23-2.79-2.1-3.58-3.75-.44-.91-1.33-.92-2.26-.75-.99.18-1.7.33-2.11,1.55-.45,1.34-1.23,2.61-1.95,3.87-.84,1.48-1.28,3.18-2.11,4.64-.92,1.62-.43,3.53-1.38,5.07.75,1,.3,2.32.95,3.37,1.11,1.8,1.47,3.98,2.87,5.65.44.53-.38,1.74-1.18,1.77-1.58.06-3.06.53-4.57.93-1.8.47-3.47,1.28-5.26,1.74-.76.19-1.31.79-2.15,1.01-1.66.43-3.23,1.26-4.94,1.6-.56.11-.94.53-1.42.77-.95.49-2.05.61-2.9,1.28-.5.39-1.13.12-1.7.27-.63.17-1.27.35-1.89.58-2.5.9-5.01,1.77-7.56,2.53-.54.16-1.06-.02-1.56.11-2.4.63-4.75,1.43-7.18,1.98-1.69.38-3.44.67-5.05,1.38-1.48.65-3.05,1.01-4.58,1.5-3,.95-5.82,2.24-8.63,3.64-2.55,1.27-5.04,2.65-7.52,4.03-1.81,1.01-3.62,2.08-5.3,3.31-1.41,1.04-2.88,2.01-4.36,2.94-.76.48-1.65.74-2.39,1.35-.78.64-.74,1.5-.52,2.16.22.63.97,1.04,1.73,1.23,1.77.46,3.6.26,5.26-.12,1.4-.32,2.87-.56,4.28-1.21,1.22-.57,2.73-.87,4.14-1.23,1.92-.49,3.68-1.44,5.53-2.11,1.28-.46,2.63-.77,3.93-1.18,1.09-.34,2.24-.6,3.29-1.19,1.03-.58,2.29-.78,3.45-1.15,2.52-.8,5.22-.89,7.68-1.92.54-.23.82.11,1.21.26"/>
      <path class="cls-1" d="M158.34,47.87c-.98,1.38-.18,2.67.25,3.95.11.32.56.67.32.94-.41.46-.52,1.43-1.05,1.41-1.39-.05-2.29,1.4-3.72,1.03-.41-.11-.72.11-.71.59.04,1.83-.74,3.5-1.08,5.26-.24,1.24-.2,2.41-.45,3.79,1.63-.28,2.83.52,4.16.78,1.26.24,2.07,1.23,3.1,1.84,1.74,1.03,2.42,1,3.49-.63.87-1.3,1.26-2.75,1.33-4.32.1-2.05.02-4.08-.75-5.99-.71-1.75-1.58-3.46-2.64-5.03-.71-1.05-1.14-2.29-2.13-3.14"/>
      <path class="cls-1" d="M94.4,9.48c.86.32,1.16,1.18,1.65,1.82.35.45.64.94,1.1,1.3,1.46,1.13,2.47,2.72,4.06,3.74,1.07.69,1.64,1.93,2.5,2.88,1.08,1.2,1.95,2.56,3.23,3.62.67.56,1.17,1.37,1.95,1.88.47.3.92.35,1.32.09,1.28-.83,2.58-1.63,3.97-2.27,2.12-.98,4.19-2,6.46-2.7,5.38-1.67,10.86-1.43,16.34-1.29,1.19.03,2.5.28,3.76.63,2.16.61,3.93,1.89,5.98,2.61.63.23,1.15.72,1.48,1.06,1.36,1.39,3.22,1.8,4.76,2.79.68.44,1.53.55,2.16,1.21,1.14,1.17,1.35,1.74.19,2.87-1.79,1.75-3.04,3.88-4.36,5.94-.63.98-1.32,1.97-1.71,3.17-.29.89-1.07,1.76-1.61,2.65-.96,1.58-1.64,3.3-2.26,4.98-.5,1.36-1.48,2.76-1.07,4.4-1.15,2.39-.78,4.96-.65,7.43.09,1.84.07,3.68.18,5.52.01.2-.09.42.11.6.76.68.32,1.3-.19,2,.59.28.56.81.56,1.36-.01,3.2.06,6.4-.05,9.6-.03,1.05.05,2.08.04,3.12,0,1,0,2,0,3,1.03-.01,1.78.75,2.76.73.63,0,1.06.57,1.64.8,1.27.49,2.61.95,3.88,1.02,1.55.08,2.98.75,4.56.6,1.47-.14,3.04.26,4.41-.13.96-.27,1.9.02,2.8-.36.43-.18,2.98.19,3.34.48.69.55,1.71-.19,2.31.69.14.21.48.32.58.62"/>
      <path class="cls-1" d="M83.96,23.27c.53.59,1.25.97,1.69,1.67.47.75.48,1.64-.14,2.41-.55.69-1.56.95-2.28.6-.62-.31-2.18-.08-2.36.49-.2.64-.56.61-1,.58-2.23-.14-4.18.84-6.26,1.35-1.6.39-3.14,1.1-4.78,1.26-.95.09-1.44.91-2.28,1.12-1.29.32-2.58.66-3.84,1.09-1.77.61-3.53,1.25-5.27,1.93-1.51.59-3.05,1.11-4.57,1.65-1.12.4-2.34.56-3.35,1.21-1.04.67-2.28.45-3.38.91-1.62.68-3.37,1-5.03,1.59-1.48.52-2.94,1.18-4.45,1.5-1.45.3-2.86.61-4.19,1.26-1.37.67-2.82,1.12-4.31,1.47-.78.19-1.52.62-2.27.96-1.5.67-2.96,1.52-4.48,2.06-2.79,1-5.06,2.85-7.65,4.15-1.35.68-2.58,1.57-3.84,2.4"/>
      <path class="cls-1" d="M89,105.93c.48.57,1.05.11,1.56.1,3.88-.11,7.75.44,11.64.26.69-.03,1.17.82,1.92.48,1.29-.58,2.46.41,3.72.25,1.25-.16,2.53.07,3.7.31,2.08.43,4.26.6,6.24,1.4,2.07.83,4.35.98,6.28,2.32,1.94,1.35,4.05,2.47,5.98,3.86,2.54,1.82,5.25,3.4,7.9,5.07.87.55,1.49,1.39,2.39,1.94,1.91,1.15,3.43,2.83,4.97,4.37,1.49,1.49,3.19,2.65,4.78,3.97,1.48,1.23,3.41,1.42,5.25,1.29.95-.07,1.93-.09,2.89-.23,1.72-.26,2.91-1.36,4.3-2.13.46-.26.8-.72,1.31-.98.42-.21,1.05-.68.26-1.28"/>
      <path class="cls-1" d="M89.48,106.29c-.03.77.44,1.33.84,1.92.87,1.27,1.35,2.65,1.62,4.19.15.87.38,1.84.82,2.63.43.79.38,1.65.71,2.41.52,1.21.65,2.54,1.2,3.72.14.3.13.57.22.85.65,2.2,1.23,4.42,1.92,6.6.73,2.29.8,4.75,1.81,6.95.63,1.37,1.18,2.79,2.85,3.41.93.35,1.65,1.21,2.66,1.51,1.21.37,1.5,1.55,2.16,2.4"/>
      <path class="cls-1" d="M60.2,128.96c.56,1.17-.21,2.24-.27,3.36,0,.15-.23.35-.21.6.14,2.33-.79,4.65-.31,6.95.47,2.27-.1,4.68,1.01,6.86.23.45-.21,1.14.38,1.55"/>
      <path class="cls-1" d="M100.04,151.52c.38,1.24-.6,1.89-1.22,2.62-2.31,2.72-4.9,5.17-7.42,7.69-1.61,1.62-3.2,3.34-5.31,4.26-1.2.52-2.18,1.47-3.57,1.65-1.28.17-2.59.33-3.84.69-.72.21-.99-.56-1.67-.67-2.13-.34-3.91-1.46-5.3-3.16-.29-.36-.23-.57.01-.85"/>
      <path class="cls-1" d="M61.64,148.4c-1.09.08-.92.94-.81,1.55.18.98.61,1.9.82,2.88.62,2.94,1.87,5.63,3.48,8.15.63.98,1.59,1.68,2.39,2.53.49.52.89.07,1.32-.12"/>
      <path class="cls-1" d="M29.01,50.51c-.8-.92-1.88-.38-2.48-.04-1.02.58-2.03,1.02-3.16,1.24-1.7.33-3.22,1.22-4.92,1.56-1.53.31-2.87,1.15-4.31,1.7-.72.27-1.74-.2-2.17.81"/>
      <path class="cls-1" d="M82.88,10.08c.04.85-.21,1.54-.68,2.31-.91,1.49-.87,3.23-.5,4.89.33,1.48,1.18,2.76,1.9,4.08q.74,1.36-.36,2.28"/>
      <path class="cls-1" d="M59.12,126.2c-.62-.32-1.14-.12-1.56.36-.97,1.11-2.31,1.7-3.46,2.55-.99.74-1.92,1.62-2.93,2.33-1.58,1.1-2.95,2.46-4.63,3.43-.96.56-1.78,1.45-2.7,2.07-1.24.84-1.99,2.4-3.68,2.58-.15.02-.03,0-.11.12-.86,1.21-2.16,1.84-3.33,2.68-1.23.89-2.54,1.67-3.77,2.57-1.02.74-1.96,1.63-3.11,2.16-.73.34-1.42.69-1.91,1.34"/>
      <path class="cls-1" d="M139.15,117.57c.63-.42,1.23-.48,1.8.12.91.96,2.08,1.6,3.11,2.41,1.54,1.21,2.79,2.74,4.32,3.96,1.76,1.41,3.26,3.23,5.77,3.35,1.22,1.19,2.73.41,3.94.24,1.34-.19,2.62-1.2,3.73-2.17.68-.59,1.3-1.26,1.92-1.91.46-.48.93-.45,1.44-.12"/>
      <path class="cls-1" d="M176.1,93.81c-.79-1.59-1.51-3.24-3.24-4.08-.43-.21-.8-.36-1.02-.94-.21-.53-.76-1.27-1.62-.62-.22.16-.47.12-.72.12-.31-.37.32-.43.24-.72"/>
      <path class="cls-1" d="M59,125.96c.78-.71,1.01-1.7,1.31-2.64.27-.84.67-1.41,1.69-1.35.26.02.53-.34.78-.49,2.1,1.57,2.4,2.91,1.81,5.34-.21.86-.41,1.8-.48,2.74-.09,1.24-.48,2.46-1.02,3.61-.21.43-.29.9.47.84"/>
      <path class="cls-1" d="M171.18,114.45c-.35.84-1.34,1.75-.99,2.48.57,1.17-.33,1.52-.69,2.2-.15.28-.41.04-.6.12"/>
      <path class="cls-1" d="M28.05,148.64c-.37-.8-1.04-.26-1.29-.08-1.51,1.07-3.1,1.84-4.94,2.17-.28.05-.88.13-.97.68"/>
      <path class="cls-1" d="M85.88,4.68c-.62,1.84-1.93,3.31-2.76,5.04-.14.29-.37.24-.6.24"/>
      <path class="cls-1" d="M173.7,93.93c-.42.13-.4.34-.26.73.23.63.58,1.23.92,1.76.49.78.83,1.53,1.07,2.42.24.9,1.21.54,1.88.6.56.05.53-.54.57-.83.26-1.57-.24-3-1.07-4.31-.29-.46-.74-.61-1.19-.13"/>
      <path class="cls-1" d="M63.2,134.12c-.32,1.1.11,2.3-.57,3.38-.34.54.15,1.25.1,1.9-.04.53.1,1.08-.4,1.62,1.27.4.48,1.42.79,2.08.32.69.35,1.36.32,2.06-.03.72.22,1.46-.11,2.16"/>
      <path class="cls-1" d="M64.04,147.98c-.8.75-.86,1.17.02,2.45.75,1.09.49,2.15.22,3.25"/>
      <path class="cls-1" d="M63.8,153.67c1.11.13,1.86.67,2.18,1.79.06.21.16.48.08.59-.77,1.05-.08,1.41.71,1.97.76.54.91,1.66,1.55,2.39.09.1-.26.74-.68.93"/>
      <path class="cls-1" d="M168.06,117.93c-1.03.34-.97,1.21-.96,2.04"/>
      <path class="cls-1" d="M168.06,121.88c-.56,2.16-2.06,3.67-3.6,5.16"/>
      <path class="cls-1" d="M166.98,120.92c-1.03.46-2.21.77-2.4,2.16"/>
      <path class="cls-1" d="M106.51,142.88c-.63.74-1.15,1.45-1.39,2.5-.39,1.7-1.58,3.13-2.74,4.41-.7.77-1.07,1.87-2.11,2.32"/>
      <path class="cls-1" d="M16.29,151.4c1.32,0,2.64,0,3.96,0,.23,0,.67-.22.6.35"/>
      <path class="cls-1" d="M68.48,160.39c1.01.37,2.13.66,1.8,2.16"/>
      <path class="cls-1" d="M170.46,113.97c-1.69.36-1.51,2.14-2.34,3.17-.44.55.35,1.41.66,2.12-.08.43-.46.65-.72.95"/>
      <path class="cls-1" d="M177.66,97.77c-.99-.08-1.13.8-1.03,1.31.21,1.05-.27,1.76-.77,2.53"/>
      <path class="cls-1" d="M171.66,89.49c-.4.4-.8.8-1.2,1.2"/>
      <path class="cls-1" d="M68.12,163.87c.23.44.38,1.02,1.08.6.35-.21.34-.44-.13-1.07-.13-.17-.09-.32-.11-.49"/>
      <path class="cls-1" d="M48.45,133.88c.06.44-.07.89.12,1.32"/>
      <path class="cls-1" d="M9.69,55.18c.14.72.57.86,1.2.6.49-.2.96-.29,1.2.36"/>
      <path class="cls-1" d="M169.02,116.61c.32.11.56.45.96.36"/>
      <path class="cls-1" d="M166.02,122.96c-.81.33-.72,1.2-1.08,1.8"/>
      <path class="cls-1" d="M158.22,44.39c-1.64.71-2.4,2-2.81,3.71-.24,1.04-.44,1.98-.09,3.02.16.49-.21.62-.69.74-.84.22-1.74,0-2.54.55-1.21.83-1.73,1.66-1.28,2.89.46,1.24-.06,2.27-.39,3.37-.34,1.11-.73,2.18-.89,3.35-.16,1.17.24,2.52-.87,3.53-.18.17-.22.93.19,1.41.52.61,1.09,1.15,1.66,1.77,2.07-1.39,4.01-.41,5.63.58,1.69,1.03,3.52,1.69,5.22,2.66.15.09.46.09.72-.09,2.47-1.7,3.92-4.02,4.6-6.96.33-1.4.67-2.79.64-4.21-.04-2.08-.58-4.1-1.43-5.99-1.24-2.74-2.65-5.41-4.33-7.9-.75-1.11-1.57-2.37-3.21-2.42"/>
    </g>
  </g>
</svg>