<?xml version="1.0" encoding="UTF-8"?>
<svg id="Layer_2" data-name="Layer 2" xmlns="http://www.w3.org/2000/svg" viewBox="0 0 201.66 172.67">
  <defs>
    <style>
      .cls-1 {
        fill: none;
        stroke: #000;
        stroke-linecap: round;
        stroke-linejoin: round;
        stroke-width: .75px;
      }
    </style>
  </defs>
  <g id="Layer_1-2" data-name="Layer 1">
    <g>
      <path class="cls-1" d="M132.75,7.11c1.62-.41,3.33-.22,4.92-.83,1.23-.48,2.56-.25,3.84-.44,2.82-.4,5.66-.71,8.51-.74,2.24-.03,4.5-.07,6.71-.31,3.14-.34,6.25-.18,9.36.08,3.16.27,6.35.39,9.48.95,2.36.42,4.78.48,7.08,1.19,2.96.91,5.94,1.79,8.52,3.59,3.13,2.19,5.76,4.79,7.1,8.51.45,1.24,1.41,1.92,2.14,1.67,1.24-.42.8-1.52.83-2.39.04-1.19-.52-2.29-1.11-3.21-1.94-3.03-4.2-5.76-7.12-8-2.64-2.02-5.54-3.15-8.66-4.09-2.31-.7-4.65-1.18-6.99-1.52-1.72-.26-3.49-.54-5.26-.61-3.28-.13-6.56-.34-9.84-.57-.93-.06-1.84.13-2.76.13-3.56,0-7.12,0-10.68,0-2.19,0-4.32.46-6.48.7-1.03.11-2.07.08-3,.63"/>
      <path class="cls-1" d="M85.96,59.41c-1.25.02-2.43-.47-3.72-.39-2.59.15-5.16.44-7.67,1.02-2.48.57-4.88,1.44-7.21,2.48-.66.29-1.14.61-1.45,1.33-1.56,3.55-2.77,7.23-3.27,11.05-.4,3.04-.71,6.18-.03,9.22.71,3.14,1.8,6.16,4.02,8.66,1.86,2.09,3.85,4.02,6.39,5.24,2.31,1.11,4.59,2.14,7.3,2.39,3.95.37,7.53-.53,10.76-2.45,2.99-1.78,5.5-4.2,7.18-7.46,1.43-2.77,2.37-5.67,2.76-8.67.44-3.32.49-6.66-.72-9.97-1.18-3.22-2.8-6.1-5.36-8.35-1.9-1.67-4.02-3.07-6.57-3.64-.72-.16-1.47-.09-2.16-.34"/>
      <path class="cls-1" d="M59.56,66.73c.72.57.68,1.22.38,2.05-.92,2.59-1.26,5.3-1.65,8.02-.44,3.09.36,5.99.98,8.87,1.07,5.01,3.75,9.14,7.69,12.53,2.27,1.96,4.76,3.53,7.39,4.81,1.93.94,4.06,1.55,6.32,1.7,1.68.11,3.29.05,4.92-.18,2.39-.34,4.61-1.11,6.86-1.99,3.84-1.49,6.29-4.36,8.64-7.48.88-1.18.94-2.64,1.66-3.86,1.24-2.11,1.41-4.53,1.9-6.84.59-2.77.45-5.61.19-8.39-.25-2.67-1.1-5.25-2.32-7.69-1.6-3.2-3.45-6.23-6.27-8.49-2.52-2.02-5.16-3.86-8.5-4.37-.68-.1-1.28-.69-2.04-.33"/>
      <path class="cls-1" d="M122.97,6.15c-1.14-.77-2.29-.87-3.65-.1-.85.48-1.75.67-2.65.95-2.02.63-3.99,1.42-5.89,2.38-.57.29-1.25.47-1.77.77-1.68,1-3.54,1.67-5.18,2.73-.72.47-1.3,1.07-2.28,1.13-.36.02-.92.37-1.32.66-2.54,1.86-5.28,3.5-7.64,5.56-1.69,1.48-3.79,2.57-4.96,4.63-1.36.44-2.14,1.61-3.12,2.52-2.38,2.19-4.63,4.5-6.61,7.07-1.81,2.35-3.8,4.57-5.38,7.09-1.67,2.66-3.59,5.17-4.93,8.03-1.36,2.92-3.03,5.69-4.29,8.65-.62,1.45-1.97,1.89-3.16,2.48-2.82,1.41-5.65,2.79-8.28,4.57-1.06.72-2.3,1.16-3.34,1.94-.12.09-.28.18-.34.25-1.57,2.01-4.05,2.8-5.91,4.41-.56.49-1.02,1.07-1.57,1.55-1.65,1.43-3,3.21-4.8,4.42-1.44.97-2.16,2.56-3.56,3.54-.7.49-1.42,1.03-1.6,2.02-.1.56-.82.57-1.19.95-1.57,1.61-2.99,3.34-4.35,5.14-.74.98-1.63,1.88-2.48,2.79-.61.64-1.01,1.37-.96,2.28"/>
      <path class="cls-1" d="M119.79,10.47c-.46.34-.89.65-1.56.64-.61-.01-1.19.28-1.7.78-.92.89-2.21,1.16-3.35,1.68-1.83.85-3.7,1.65-5.55,2.44-2.01.86-3.52,2.33-5.37,3.31-1.1.58-2.16,1.2-3.24,1.79-3.19,1.73-5.51,4.52-8.3,6.73-2.18,1.72-4.17,3.8-6.06,5.91-.27.3-.49.62-.85.83-.81.49-1.22.29-1.44-.73"/>
      <path class="cls-1" d="M2.45,137.39c-.55.48-.59,1.16-.72,1.8-.4,1.94-.6,3.89-.65,5.88-.04,1.35-.45,2.71-.53,4.08-.17,2.88-.31,5.75.08,8.64.24,1.75.29,3.52.48,5.28.07.68.27,1.31.53,1.91.41.95.46,1.91.32,2.89-.07.46.1.93.29,1.18.86,1.11,1.61,2.39,3.09,2.85"/>
      <path class="cls-1" d="M10.13,123.95c-.09.23-.04.55-.14.71-1.12,1.72-.87,3.89-1.81,5.64-.98,1.83-1.22,3.85-1.59,5.79-.64,3.37-1.55,6.7-1.67,10.18-.08,2.44-.51,4.88-.5,7.32.01,3.05.21,6.11.88,9.12.45,2.04.84,4.04,1.91,5.89.71,1.23-.1,2.7-1.53,3.21-.27.1-.25.28-.24.49"/>
      <path class="cls-1" d="M59.92,66.01c-.26,1.04-1.3.67-1.94,1.05-3.74,2.21-7.41,4.51-10.91,7.09-.99.73-1.78,1.75-2.98,2.18"/>
      <path class="cls-1" d="M42.28,77.77c-.38.88-1.1,1.51-1.82,2.01-2.38,1.66-4.18,3.91-6.19,5.94-2.79,2.82-5.31,5.9-7.82,8.97-1.35,1.65-2.9,3.23-3.98,4.98-1.93,3.13-4.04,6.19-5.62,9.54-.35.75-.75,1.47-1.22,2.15-.3.43-.6.96-1.31.85-.77-.12-1-.85-1.02-1.33-.04-.86-.56-1.12-1.14-1.44"/>
      <path class="cls-1" d="M8.09,119.7c-1.11.16-1.61.55-1.64,1.86-.04,1.54-.88,2.8-1.32,4.17-.44,1.36-.67,2.82-1.34,4.11-.03.06.05.35.22.47"/>
      <path class="cls-1" d="M3.17,133.19c-.6.91-.58,1.99-.83,3-.23.9.45,1.22,1.07,1.56"/>
      <path class="cls-1" d="M18.29,98.76c-.3.03-.51.29-.58.49-.63,1.85-2.01,3.26-2.84,5-.47.99-1.29,1.83-1.77,2.89-.83,1.82-2.07,3.44-2.63,5.41-.27.94-.85,1.78-1.33,2.63-.78,1.37-1.05,2.86-1.41,4.34"/>
      <path class="cls-1" d="M85.36,55.93c.63-.92-.11-1.19-.72-1.17-2.4.06-4.79-.11-7.21.16-2.46.27-4.82,1.15-7.31,1.15-.21,0-.39.2-.6.29"/>
      <path class="cls-1" d="M76.84,42.98c-.19.57-.51,1.06-.84,1.56-1.98,3.1-4.01,6.16-5.69,9.45-.37.74-.18,1.38-.32,2.06"/>
      <path class="cls-1" d="M83.2,35.06c-.25,1.31-1.49,1.88-2.21,2.84-1.06,1.43-2.27,2.77-3.31,4.24-.27.38-.47.83-1.08.66-.54-.15-.63-.55-.6-1.02"/>
      <path class="cls-1" d="M12.29,116.16c.61.16.58.7.46,1.07-.51,1.61-.95,3.25-1.9,4.69"/>
      <path class="cls-1" d="M139.47,2.79c.06-.87-.1-1.39-1.2-1.1-2.57.69-5.32.55-7.79,1.7"/>
      <path class="cls-1" d="M128.55,3.99c-1.35-.2-2.53.33-3.72.84"/>
      <path class="cls-1" d="M14.45,112.44c.61,1.08.1,1.84-.72,2.52"/>
      <path class="cls-1" d="M129.03,4.11c-.04,1-.17,2-.12,3"/>
      <path class="cls-1" d="M130.11,4.23c.61.73.91,1.58.96,2.52"/>
    </g>
  </g>
</svg>