<?xml version="1.0" encoding="UTF-8"?>
<svg id="Layer_2" data-name="Layer 2" xmlns="http://www.w3.org/2000/svg" viewBox="0 0 232.57 163.96">
  <defs>
    <style>
      .cls-1 {
        fill: none;
        stroke: #000;
        stroke-linecap: round;
        stroke-linejoin: round;
        stroke-width: .75px;
      }
    </style>
  </defs>
  <g id="Layer_1-2" data-name="Layer 1">
    <g>
      <path class="cls-1" d="M192.16,55.76c.72.23,1.44.06,2.16,0,3.68-.24,7.36-.23,11.04.02,2.1.15,4.19.49,6.25,1.03,3.91,1.02,7.42,2.85,10.52,5.34,2.44,1.96,4.45,4.42,6.02,7.16,1.63,2.85,2.91,5.88,3.45,9.12.46,2.76.83,5.53.45,8.4-.42,3.12-1.23,6.09-2.85,8.73-1.94,3.16-4.36,5.94-7.25,8.34-2.95,2.45-6.01,4.73-9.16,6.9-2,1.38-4.24,2.38-6.6,2.98-1.23.31-2.09,1.2-3.23,1.61-1.55.56-3.7,0-4.82-1.19-.47-.5-.85-1.07-1.28-1.59-1.23-1.5-.26-3.6,1.65-3.96,1.98-.37,3.89-1.01,5.76-1.78,4.14-1.7,7.58-4.47,10.75-7.49,2.97-2.83,5.81-5.88,7.59-9.67.87-1.85,1.46-3.79,1.45-5.87-.01-2.54.14-5.08-.71-7.56-1.41-4.14-3.45-7.72-7.03-10.51-2.41-1.87-4.98-2.88-7.86-3.39-1.38-.24-2.79-.32-4.19-.4-3.28-.18-6.51.13-9.72.76-2.96.59-5.91,1.23-8.76,2.26-3.01,1.09-6.05,2.26-8.35,4.49-2.74,2.65-5.85,4.74-8.94,6.88-1.66,1.15-3.42,2.19-5.13,3.28-1.13.72-2.25.41-3.37.21-1.39-.25-2.6-.86-3.48-2.02-.92-1.21-.78-2.95.23-4.09,1.43-1.62,2.96-3.15,4.71-4.4,2.12-1.51,4.21-3.09,6.58-4.23,3.22-1.55,6.11-3.51,8.43-6.33,2.51-3.04,5.04-6.08,7.49-9.17,1.56-1.96,3.16-3.93,4.51-6.07.61-.97.65-2.04,1.06-3.02,1.04-2.43,1.45-4.91,1.22-7.57-.15-1.82-.24-3.61-.72-5.41-.96-3.57-2.35-6.88-4.44-9.97-2.48-3.67-5.58-6.59-9.54-8.45-3.64-1.71-7.49-2.79-11.62-2.86-2.28-.03-4.56-.27-6.84-.17-2.81.13-5.62.19-8.42.87-2.89.69-5.78,1.34-8.62,2.22-4.4,1.37-8.46,3.43-12.49,5.62-4.03,2.19-7.65,4.91-11.14,7.83-3.92,3.28-7.63,6.8-10.65,10.94-2.02,2.77-4.18,5.47-5.45,8.73-.69,1.77-1.56,3.46-2.18,5.27-.51,1.5-.95,2.97-.8,4.57.06.67-.14,1.16-.72,1.57-1.88,1.37-5.03,1.44-6.85.11-.66-.49-.98-1.21-1.32-1.92-.79-1.67-1.37-3.47-2.54-4.9-2.84-3.48-5.97-6.69-10.19-8.52-2.51-1.09-5.16-1.32-7.91-1.14-3.51.22-6.84,1.06-10.07,2.34-1.81.72-3.65,1.37-5.43,2.22-3.52,1.68-6.95,3.5-10.17,5.69-3.7,2.52-7.25,5.23-10.6,8.22-2.68,2.39-5.14,4.99-7.35,7.76-3.51,4.39-6.65,9.05-9.19,14.11-2.23,4.46-4.14,9.03-5.65,13.8-1.17,3.71-1.96,7.5-2.68,11.3-.22,1.15-.35,2.37-.32,3.59.08,2.6-.04,5.2.04,7.8.07,2.3.09,4.61.82,6.84.29.9.31,1.85.58,2.77,1.76,6.06,5.04,11.03,9.96,15.02,3.18,2.58,6.67,4.56,10.48,5.93,3.47,1.25,7.02,2.41,10.67,2.85,6.4.77,12.84,1.39,19.31,1,1.41-.08,2.79-.54,4.2-.71,4.79-.59,9.45-1.7,13.78-3.86,2.84-1.42,5.1-3.6,7.24-5.95,1.43-1.56,2.42-3.55,4.41-4.59.32-.17.62-.48.96-.45.8.08,1.26-.38,1.82-.84,1.16-.98,2.48-1.65,4.06-1.21,1.58.44,3.01,2.36,3.11,4.19.07,1.31-.18,2.56-.54,3.85-.93,3.35-1.87,6.76-1.36,10.3.41,2.84,2.15,4.76,4.53,6.26,2.8,1.77,5.87,1.35,8.89,1.28,2.59-.06,5.16-.46,7.67-1.08,2.7-.68,5.4-1.42,7.56-3.34,1.63-1.44,3.7-2.27,5.19-3.93.65-.72,2.18-.17,2.73.81,1.52,2.69.94,5.68-1.43,7.92-2.02,1.9-4.45,3.15-6.99,3.99-1.86.62-3.85,1.1-5.85,1.28-1.86.17-3.67.62-5.52.86-1.32.17-2.65.12-3.96.18-1.59.07-3.2-.1-4.8-.28-2.61-.31-5.08-.93-7.31-2.32-2.98-1.87-5.71-4.04-7.42-7.2-.73-1.35-1.07-2.9-1.2-4.43-.11-1.32-.33-2.56-.99-3.72"/>
      <path class="cls-1" d="M191.08,55.4c.15-1.83,1.42-3.09,2.43-4.41,1.68-2.18,3.48-4.25,4.87-6.63.64-1.1,1.2-2.18.56-3.62-.34-.76-.17-1.8-.09-2.73.22-2.5-.38-4.96-.59-7.44-.32-3.82-1.51-7.44-3.28-10.77-2.84-5.33-6.34-10.15-11.69-13.37-2.52-1.52-5.14-2.7-7.93-3.58-2.43-.77-4.94-1.12-7.43-1.59-2.12-.4-4.24-.48-6.36-.71-4.66-.49-9.21.24-13.81.71-2.9.3-5.69,1.09-8.49,1.7-2.51.55-4.93,1.65-7.35,2.65-3.7,1.53-7.4,3.01-10.79,5.17-3.15,2.01-6.28,4.08-9.22,6.38-2.59,2.02-4.99,4.26-7.25,6.66-1.04,1.11-2.17,2.14-3.22,3.25-1.69,1.78-3.17,3.72-4.68,5.64-1.77,2.25-3.08,4.78-4.54,7.21-.93,1.55-1.33,1.59-2.63.36-2.47-2.31-5.07-4.45-8.17-5.85-2.16-.98-4.5-1.45-6.82-1.98-2.72-.62-5.47-.61-8.16-.35-1.7.16-3.47.46-5.19.89-1.96.49-3.85,1.25-5.86,1.53-.56.08-.95.5-1.43.75-1.56.81-3.22,1.41-4.83,2.09-2.53,1.07-4.79,2.58-7.18,3.88-2.49,1.37-4.87,2.93-7.19,4.57-2.09,1.48-4.05,3.13-6.01,4.78-2.3,1.94-4.42,4.06-6.46,6.25-3.2,3.45-5.87,7.29-8.48,11.22-2.16,3.25-3.75,6.77-5.66,10.14-1.25,2.21-2.36,4.56-3.07,6.96-1.05,3.56-2.23,7.1-3.03,10.76-.74,3.39-1.07,6.78-1.41,10.21-.35,3.57-.29,7.13-.13,10.68.14,3.19,1.01,6.3,2.01,9.39,1.02,3.12,2.53,5.93,4.47,8.43,1.57,2.01,3.18,4.04,5.02,5.88,2.02,2.02,4.42,3.45,6.69,5.05,2.01,1.41,4.4,2.24,6.69,3.16,3.89,1.57,7.93,2.62,11.99,3.62,2.78.69,5.6,1.28,8.41,1.54,1.97.19,3.99.42,5.99.46,2.56.05,5.12,0,7.68.01,4.87,0,9.52-1.18,14.16-2.51,1.56-.45,3.15-.78,4.67-1.34,2.56-.95,4.96-2.21,7.08-3.95.34-.28.75-.44,1.09-.71"/>
      <path class="cls-1" d="M113.81,84.91c-.79.41-1.68.32-2.52.47-2.22.39-4.05,1.59-5.85,2.81-.74.5-1.44.9-2.3,1.05-2.14.37-4.25,1.03-6.2,1.88-1.59.7-3.31.92-4.85,1.69-.75.38-1.08.89-1.07,1.7.02,1.42.19,2.8,1.09,3.95.89,1.14,1.4,2.48,2.82,3.32,1.72,1.02,3.57,1.72,5.3,1.26,2.55-.68,4.32.41,6.13,1.68,1.18.83,2.43,1.25,3.85,1.31.77.03,1.51.28,2.28.39,3.47.46,6.03-.88,8.06-3.62,1.1-1.49,2.31-2.9,3.35-4.44,1.32-1.95,1.54-3.81.19-5.62-1.04-1.4-1.92-3.01-3.67-3.77-.4-.17-.8-.33-1.21-.46-.81-.25-1.48-.58-1.95-1.42-.7-1.24-1.97-1.83-3.33-2.18"/>
    </g>
  </g>
</svg>