<?xml version="1.0" encoding="UTF-8"?>
<svg id="Layer_2" xmlns="http://www.w3.org/2000/svg" version="1.1" viewBox="0 0 489.3 313.1">
  <!-- Generator: Adobe Illustrator 30.3.0, SVG Export Plug-In . SVG Version: 2.1.3 Build 182)  -->
  <defs>
    <style>
      .st0 {
        stroke: #514139;
      }

      .st0, .st1 {
        stroke-miterlimit: 10;
      }

      .st0, .st1, .st2, .st3, .st4 {
        fill: #514139;
      }

      .st1, .st2 {
        stroke: #514139;
      }

      .st5, .st3, .st4 {
        isolation: isolate;
      }

      .st2 {
        stroke-linecap: round;
        stroke-linejoin: round;
        stroke-width: .5px;
      }

      .st3 {
        font-size: 13px;
      }

      .st3, .st4 {
        font-family: MADECarvingSoftPERSONALUSE-Medium, 'MADE Carving Soft PERSONAL USE';
        font-weight: 500;
      }

      .st4 {
        font-size: 10px;
      }
    </style>
  </defs>
  <g class="st5">
    <text class="st3" transform="translate(81 59.5)"><tspan x="0" y="0">wwwegetables</tspan></text>
  </g>
  <g class="st5">
    <text class="st4" transform="translate(360.9 88.6)"><tspan x="0" y="0">filmbuilding,</tspan></text>
    <text class="st4" transform="translate(380 98.3)"><tspan x="0" y="0" xml:space="preserve">     finkenau 42</tspan></text>
  </g>
  <g class="st5">
    <text class="st3" transform="translate(213.2 164.4)"><tspan x="0" y="0">collective dinners</tspan></text>
  </g>
  <g class="st5">
    <text class="st3" transform="translate(62.2 234.2)"><tspan x="0" y="0">shared garden</tspan></text>
  </g>
  <g>
    <path class="st0" d="M5.8,301c0,.1,0,0,.4-.6l-.4.6Z"/>
    <path class="st0" d="M6.6,300.7l-.5-.4.5.4Z"/>
    <path class="st0" d="M12,269.3l.4-.6-.4.6Z"/>
    <path class="st0" d="M15.6,270.1l.4-.6-.4.6Z"/>
    <path class="st0" d="M14.6,271.1l.5-.5-.5.5Z"/>
    <path class="st0" d="M9.9,271.8c0-.1.5-.5.6-.5l-.6.5Z"/>
    <path class="st0" d="M14.1,271.7l.6-.6-.6.6Z"/>
    <path class="st0" d="M1.1,292.8l-.7-1.6.7,1.6Z"/>
    <path class="st0" d="M9.4,273.2l.4-1.5-.4,1.5Z"/>
    <path class="st0" d="M13.6,272.5l.5-.9-.5.9Z"/>
    <path class="st0" d="M13.2,273.1l.4-.6-.4.6Z"/>
    <path class="st0" d="M8.9,273.7l.5-.5c.2,0-.2.3-.5.5Z"/>
    <path class="st0" d="M12.5,274l.6-.9-.6.9Z"/>
    <path class="st0" d="M8.4,274.2l.5-.5-.5.5Z"/>
    <path class="st0" d="M15.1,270.6l.5-.5-.5.5Z"/>
    <path class="st0" d="M4.6,299.6l-.5-.4.5.4Z"/>
    <path class="st0" d="M12.9,268.3l.5-.5-.5.5Z"/>
    <path class="st0" d="M7.9,274.7l.5-.5-.5.5Z"/>
    <path class="st0" d="M13.4,267.8l.5-.5-.5.5Z"/>
    <path class="st0" d="M12.1,274.6l.4-.6-.4.6Z"/>
    <path class="st0" d="M7.4,275.3c0-.1.5-.5.6-.5l-.6.5Z"/>
    <path class="st0" d="M11.7,275.1l.4-.6-.4.6Z"/>
    <path class="st0" d="M5.1,299.6l-.2-1c.4.3.5.8.6.8s-.2.2-.3.3h0Z"/>
    <path class="st0" d="M4.2,299.2l-.5-.5.5.5Z"/>
    <path class="st0" d="M6.9,276.7l.5-1.4-.5,1.4Z"/>
    <path class="st0" d="M11.1,276.2l.6-1-.6,1Z"/>
    <path class="st0" d="M10.5,277.1l.5-1-.5,1Z"/>
    <path class="st0" d="M16.5,268.7v-2c.4.3.7,1,.5,1.2l-.5.8h0Z"/>
    <path class="st0" d="M13.9,267.2l.5-.5-.5.5Z"/>
    <path class="st0" d="M6.4,277.2l.5-.5c.2,0-.2.3-.5.5Z"/>
    <path class="st0" d="M6,277.8l.4-.5-.4.5Z"/>
    <path class="st0" d="M16.5,266.7l-.5-.5.5.5Z"/>
    <path class="st0" d="M14.5,266.7l.5-.5-.5.5Z"/>
    <path class="st0" d="M10.2,277.5c-.1.1.2-.2.4-.4,0,.1-.2.3-.4.4Z"/>
    <path class="st0" d="M3.6,298.7l-.5-.5.5.5Z"/>
    <path class="st0" d="M5.4,278.7l.6-.9-.6.9Z"/>
    <path class="st0" d="M9.6,278.1l.6-.5-.6.5Z"/>
    <path class="st0" d="M9.1,278.6l.5-.5-.5.5Z"/>
    <path class="st0" d="M5,279.2l.4-.5-.4.5Z"/>
    <path class="st0" d="M8.6,279.1l.5-.5-.5.5Z"/>
    <path class="st0" d="M4.5,279.8l.5-.5-.5.5Z"/>
    <path class="st0" d="M8,280l.6-.9-.6.9Z"/>
    <path class="st0" d="M16,266.2h-1c.2-.3.6-.7.7-.5l.3.5Z"/>
    <path class="st0" d="M4,280.3l.5-.5-.5.5Z"/>
    <path class="st0" d="M1.7,294.7l-.6-1.9c.2.4.5,1.4.6,1.9Z"/>
    <path class="st0" d="M11,270.8l.5-.5-.5.5Z"/>
    <path class="st0" d="M3.1,298.2l-.5-.6c0,.1.4.5.5.6Z"/>
    <path class="st0" d="M4.6,299.6h.5c0,.5-.3.2-.5,0Z"/>
    <path class="st0" d="M11.4,270.2l.6-.9-.6.9Z"/>
    <path class="st0" d="M16,269.5l.5-.8-.5.8Z"/>
    <path class="st0" d="M3.7,280.9c-.1-.4.4-.7.3-.6,0,0-.3.5-.3.6Z"/>
    <path class="st0" d="M2.1,296.6l-.4-1.9.4,1.9Z"/>
    <path class="st0" d="M4.3,296.5c-.1-.5-.3-1.5-.3-2l.3,2Z"/>
    <path class="st0" d="M4.9,298.6l-.6-2,.6,2Z"/>
    <path class="st0" d="M2.7,297.7c-.3-.2-.7-.8-.5-1.1l.5,1.1Z"/>
    <path class="st0" d="M7.6,280.5l.4-.6s-.4.6-.4.6Z"/>
    <path class="st0" d="M3.1,282.7l.6-1.9-.6,1.9Z"/>
    <path class="st0" d="M7.2,281.1l.4-.6c-.2.3-.6.6-.4.6Z"/>
    <path class="st0" d="M6.5,282.2l.6-1-.6,1Z"/>
    <path class="st0" d="M6,283.4l.6-1.3-.6,1.3Z"/>
    <path class="st0" d="M2.5,283.4l.5-.6-.5.6Z"/>
    <path class="st0" d="M2,284.3l.5-.9-.5.9Z"/>
    <path class="st0" d="M5.7,284.1l.3-.7-.3.7Z"/>
    <path class="st0" d="M1.5,285.2l.5-.9-.5.9Z"/>
    <path class="st0" d="M5,285.1l.7-1-.7,1Z"/>
    <path class="st0" d="M1,285.7l.5-.4-.5.4Z"/>
    <path class="st0" d="M4.6,285.7l.4-.5-.4.5Z"/>
    <path class="st0" d="M.3,286.8l.7-1.2c0,.1-.4.8-.7,1.2Z"/>
    <path class="st0" d="M4.1,287.2c-.3-.3.1-1.2.5-1.5l-.5,1.5Z"/>
    <path class="st0" d="M.4,291.2c-.5-1-.6-3.5,0-4.4v4.4Z"/>
    <path class="st0" d="M12.4,268.8l.5-.5-.5.5Z"/>
    <path class="st0" d="M4,294.6c-.2-.5-.6-1.9-.5-2.9l.7-4.5v7.4c0,0-.1,0-.1,0Z"/>
    <path class="st0" d="M10.4,271.2l.5-.5s-.5.5-.5.5Z"/>
    <path class="st0" d="M19,263.2c-.6-.6-.5-2.1,0-2.5v2.5Z"/>
    <g>
      <path class="st1" d="M187.3,139.1l-2.9-4.3-4.3-5.7-3.1-4.3-4.6-6.4-4.3-6.6-3.3-5.1-3.9-5.9-5-7-2.6-4.2-2.7-4.8-4.1-5.9-2.2-3.6-2.4-3.8c-1.5-2.3-2.7-4.4-3.7-7.4l1-1.1,3.2,4.9,4.7,7.7,5.6,8.5,2.2,3.5,5.1,7.5,7.4,11.6,3.5,5,3.7,5.8,12.3,17.1,1.7,2.7,4.4,7.1c1.7,2.7,3.2,5.5,4.5,8.5l-.7.7-1.7-2.5-4.4-6.4-3.7-5.5h0Z"/>
      <path class="st2" d="M125.1,269.9c.8-.2,2.2-.2,3.4-.2,0,1.2-.5,2.7-1.2,3.3l-7.8,1.8c-2.7.6-5.7.4-8.6,0-2.8,2.7-1.8,6.4-5.9,9.5-1.2,1.5-2.7,2.5-4.7,2.8-2.3,2.8-5,5-8.1,6.9l-5.3,3.2-3,2c-2.1,1.4-5.7,1.2-8.1,1.9-2.8.8-4.2.6-6.3-1.6-1-1-2.9-2.8-3.6-4.2-2.1-3.9-3.1-8.3-3.3-12.8l-.4-11.7c0-1-.5-2.8.2-3.5,2-.3,3,1.5,3.1,3.4v12.3c.1,0,1.2,6.8,1.2,6.8.5,3,1.7,5.2,3.9,7.3,1.6,1.5,4.6,2.4,6.8,1,2.6-1.7,5.2-2.8,8.2-3.8l3.1-2,3.1-2.3c1.8-1.3,3-2.6,4.9-3.6,3.6-1.8,10-9,10-11.4l.2-7.3c2.6-.6,3.4,1.3,4.1,3.5.6,1.8,3.6,1.1,4.9.8l9.2-2.1h0Z"/>
      <path class="st2" d="M80.5,165.3c-.1,0-.9-.7-.9-.4v1.4c0,0,0,1,0,1,0,.2.2-.5.4-.6l.6-.2-2.1,7c-.5,1.6-.6,3.5-.4,5.1,5.2,1.6,7.9,7.2,5.7,8.3s-6.9-1.1-8.1-3.6c-.9-1.9-1.6-3-3.9-3.3l-1-3.4,3.8-.4,4.3-10.2c1.9-6.1,1.9-11.6.7-17.7-.8-3.9-.2-11.6,1.2-11.4.6.1,1.4.4,1.9.6s.3,1.9,0,2.4c-1,1.3-1.3,3.4-1,5.1l1,7.4c.5,3.9,0,10-2.2,13h0Z"/>
      <path class="st2" d="M80.6,166.4v-1.1c.2,0,.5.5.4.6l-.4.5Z"/>
      <path class="st2" d="M5.8,301l.8-.3c2.2-.2,5.4-.2,7.5-1.4l10.2-5.7c1-.6,1.9-1.5,2.9-1.5.8,0,1.7,2.3,1.1,2.9-2.4,2.5-5.3,3.8-8.2,5.4-2.2,1.2-4,2.1-6.6,2.5-3.8.6-6.1,1-7.8-1.9h0Z"/>
      <path class="st2" d="M183.1,309.1l-6,.9c.6-.5,1.3-.9,1.6-.9h4.4Z"/>
      <path class="st2" d="M166.9,309.9c-.3,0-1-.6-1-.8l1,.8Z"/>
      <path class="st2" d="M184.7,308.6l-1.6.5c.3,0,1.2-.4,1.6-.5Z"/>
      <path class="st2" d="M184.7,308.6l.6-.4-.6.4Z"/>
      <path class="st2" d="M177.1,308.2c-2,.7-4.6.6-6.7,0h6.7Z"/>
      <path class="st2" d="M169.6,308l-1,.7c-.2.1-.9-.2-1.1-.5l2.1-.2Z"/>
      <path class="st2" d="M186.6,307.7l-1.2.5,1.2-.5Z"/>
      <path class="st2" d="M180.9,307.7c-1,.3-2.5.5-3.8.5,1.1-.6,2.4-.3,3.8-.5Z"/>
      <path class="st2" d="M165.9,309.1l-3.2-.9,2.8-.6c.1.2.3,0,.4,0v1.5s0,0,0,0Z"/>
      <path class="st2" d="M162.7,308.2l-.7-.6c0,0,.6.6.7.6Z"/>
      <path class="st2" d="M186.6,307.7c-.2,0-.2-.2.1-.8v.8Z"/>
      <path class="st2" d="M183.4,306.9l-2.5.8,2.5-.8Z"/>
      <path class="st2" d="M167,307.7h-1.1c0-.2.5-.7.6-.5l.5.5h0Z"/>
      <path class="st2" d="M165.5,307.6l-.8-.6.8.6Z"/>
      <path class="st2" d="M162,307.7l-.5-.6.5.6Z"/>
      <path class="st2" d="M186.7,306.9h-3.2c.9-.4,2.2-.2,3.2,0Z"/>
      <path class="st2" d="M164.7,307l-1.6-.5,1.6.5Z"/>
      <path class="st2" d="M161.5,307.1c-.5,0-.5,0,0-.9v.9Z"/>
      <path class="st2" d="M163.1,306.6l-1.6-.3c.1,0,1.1.2,1.6.3Z"/>
      <path class="st2" d="M167.4,308.2l-.4-.5.4.5Z"/>
      <path class="st2" d="M170.4,308.1h-.9c0-.1.9,0,.9,0Z"/>
      <path class="st2" d="M207.8,296.6l-.9-.6.9.6Z"/>
      <path class="st2" d="M202.3,292.1l-.5-.5.5.5Z"/>
      <path class="st2" d="M240,304.7l-1.5-.7,1.5.7Z"/>
      <path class="st2" d="M197.1,287.1l-1.1-.4c.2.1.9.4,1.1.4Z"/>
      <path class="st2" d="M275.5,304.7l-.6-.5.6.5Z"/>
      <path class="st2" d="M196,286.7l-1-.5,1,.5Z"/>
      <path class="st2" d="M191.5,287.5l-.6-1.3c.2.3.6,1,.6,1.3Z"/>
      <path class="st2" d="M192,291l-.5-3.5.5,3.5Z"/>
      <path class="st2" d="M195.1,286.1l-.6-.4.6.4Z"/>
      <polygon class="st2" points="193.9 287.9 192.9 291.7 192.9 287.8 193.9 287.9"/>
      <path class="st2" d="M201.5,288.7l-1.1-1.1,1.1,1.1Z"/>
      <path class="st2" d="M231.7,304.9l-2.1-.3,2.1.3Z"/>
      <path class="st2" d="M274.9,304.2l-.5-.5.5.5Z"/>
      <path class="st2" d="M194.5,285.7l-.6-.4.6.4Z"/>
      <path class="st2" d="M278.3,313.1v-4c.6,1.1.6,3.2,0,4Z"/>
      <path class="st2" d="M190.9,286.1l-.7-1c.2.1.6.7.7,1Z"/>
      <path class="st2" d="M276.8,310.4l-.5-1.3c.2.2.5,1,.5,1.3Z"/>
      <path class="st2" d="M241.9,305.3l-1.9-.6c.6,0,1.5.2,1.9.6Z"/>
      <path class="st2" d="M257.6,309.6l-1.6-.6,1.6.6Z"/>
      <path class="st2" d="M276.4,305.7l-.9-1,.9,1Z"/>
      <path class="st2" d="M193.9,285.3l-.9-.6.9.6Z"/>
      <path class="st2" d="M190.2,285.1l-.4-.5.4.5Z"/>
      <path class="st2" d="M193,284.7l-.6-.4.6.4Z"/>
      <path class="st2" d="M189.8,284.5l-.4-.6.4.6Z"/>
      <path class="st2" d="M232.7,305.7l-1-.8,1,.8Z"/>
      <path class="st2" d="M242.5,305.8c-.1,0-.6-.5-.6-.5l.6.5Z"/>
      <path class="st2" d="M192.4,284.3c0,0-.4-.5-.5-.5,0,.1.4.5.5.5Z"/>
      <path class="st2" d="M274.2,305.6l-.6-.5.6.5Z"/>
      <path class="st2" d="M189.4,284l-.6-.9.6.9Z"/>
      <path class="st2" d="M234.6,306.1l-1.9-.4,1.9.4Z"/>
      <path class="st2" d="M191.9,283.7l-.5-.9.5.9Z"/>
      <path class="st2" d="M188.8,283.1l-.5-.6.5.6Z"/>
      <path class="st2" d="M244.8,306.3l-2.4-.5,2.4.5Z"/>
      <path class="st2" d="M274.8,306.4l-.6-.9c.1.1.5.7.6.9Z"/>
      <path class="st2" d="M191.4,282.8l-.6-1,.6,1Z"/>
      <path class="st2" d="M248.3,309.6l-.4-.5.4.5Z"/>
      <path class="st2" d="M188.3,282.5l-.5-.9.5.9Z"/>
      <path class="st2" d="M245.8,309c.1,0,.4.1.4,0h-.4Z"/>
      <path class="st2" d="M190.9,281.8l-.4-.6.4.6Z"/>
      <path class="st2" d="M276.9,306.6l-.5-.9.5.9Z"/>
      <path class="st2" d="M187.9,281.7l-.5-1,.5,1Z"/>
      <path class="st2" d="M238.5,304c-.7.2-1.9,0-2.4-.4.7,0,1.9.2,2.4.4Z"/>
      <path class="st2" d="M226.7,304.3l-1.9-.5,1.9.5Z"/>
      <path class="st2" d="M278.3,309.1l-.4-.4c0,.1.4.4.4.4Z"/>
      <path class="st2" d="M190.5,281.2l-.5-.9.5.9Z"/>
      <path class="st2" d="M276.3,309l-.5-.6.5.6Z"/>
      <path class="st2" d="M236.3,306.5l-1.7-.4,1.7.4Z"/>
      <path class="st2" d="M256,309l-2.4-.4c.8,0,1.9.2,2.4.4Z"/>
      <path class="st2" d="M247.9,309.1h-1.6s.9-.4.9-.4c.2,0,.6.3.7.5h0Z"/>
      <path class="st2" d="M245.8,309l-1.9-.5,1.9.5Z"/>
      <path class="st2" d="M247.4,306.9l-2.5-.5,2.5.5Z"/>
      <path class="st2" d="M190,280.3l-.5-.5.5.5Z"/>
      <path class="st2" d="M187.3,280.7l-.6-1.1.6,1.1Z"/>
      <path class="st2" d="M274.4,303.7l-.5-.5.5.5Z"/>
      <path class="st2" d="M189.5,279.7l-.5-.5.5.5Z"/>
      <path class="st2" d="M186.8,279.6l-.4-.6.4.6Z"/>
      <path class="st2" d="M272.7,304l-.5-.9.5.9Z"/>
      <path class="st2" d="M236.1,303.6l-2.2-.3c.7-.3,1.7.2,2.2.3Z"/>
      <path class="st2" d="M253.6,308.6c-.7,0-1.6-.2-2.1-.4l2.1.4Z"/>
      <path class="st2" d="M224.7,303.7l-1.6-.6,1.6.6Z"/>
      <path class="st2" d="M243.8,308.5l-1.1-.5,1.1.5Z"/>
      <path class="st2" d="M273.9,303.2l-.5-.5.5.5Z"/>
      <path class="st2" d="M189,279.2l-.6-.9.6.9Z"/>
      <path class="st2" d="M186.4,279l-.5-.8.5.8Z"/>
      <path class="st2" d="M233.9,303.3l-2.9-.4,2.9.4Z"/>
      <path class="st2" d="M188.4,278.3l-.4-.7.4.7Z"/>
      <path class="st2" d="M223.2,303.1c-.2,0-.9-.3-1.1-.4l1.1.4Z"/>
      <path class="st2" d="M272.3,303.1l-.5-1,.5,1Z"/>
      <path class="st2" d="M195.8,288.5l-1.8-.6,1.8.6Z"/>
      <path class="st2" d="M231,302.9c-.1,0-.6-.6-.6-.6.1-.2.6.2.6.6Z"/>
      <path class="st2" d="M222.1,302.8l-3.4-.5,3.4.5Z"/>
      <path class="st2" d="M188,277.7l-.6-.9.6.9Z"/>
      <path class="st2" d="M238.3,307l-2-.5,2,.5Z"/>
      <path class="st2" d="M187.5,276.8l-.9-.7c.3.2.8.5.9.7Z"/>
      <path class="st2" d="M185.9,278.1l-.6-1.2c0-.2.2-.6.6-1.1v2.3Z"/>
      <path class="st2" d="M277.9,308.7l-.5-1.1.5,1.1Z"/>
      <path class="st2" d="M196.7,289.1l-1-.6,1,.6Z"/>
      <path class="st2" d="M275.8,308.5l-.5-1,.5,1Z"/>
      <path class="st2" d="M251.5,308.2c-.5-.3-1.2-.3-1.4-.6l1.4.6Z"/>
      <path class="st2" d="M202,289.2l-.5-.6.5.6Z"/>
      <path class="st2" d="M242.7,308l-2.4-.5,2.4.5Z"/>
      <path class="st2" d="M248.8,307.1l-1.5-.3c.5-.2,1.3.1,1.5.3Z"/>
      <path class="st2" d="M186.5,276l-.6-.2.6.2Z"/>
      <path class="st2" d="M197.4,289.5l-.7-.4.7.4Z"/>
      <path class="st2" d="M202.4,289.7l-.5-.5.5.5Z"/>
      <path class="st2" d="M273.4,302.7c-.1-.1-.5-.7-.6-.9l.6.9Z"/>
      <path class="st2" d="M275.3,307.5l-.5-1,.5,1Z"/>
      <path class="st2" d="M230.4,302.3l-2.9-.5,2.9.5Z"/>
      <path class="st2" d="M218.7,302.3c-.3,0-1.1-.5-1.4-.7l1.4.7Z"/>
      <path class="st2" d="M199.2,290l-1.8-.6,1.8.6Z"/>
      <path class="st2" d="M203,290.2l-.5-.5.5.5Z"/>
      <path class="st2" d="M277.4,307.6l-.5-1,.5,1Z"/>
      <path class="st2" d="M240.3,307.4l-2-.5,2,.5Z"/>
      <path class="st2" d="M271.8,302.2l-.5-1,.5,1Z"/>
      <path class="st2" d="M200.7,290.7l-1.5-.6,1.5.6Z"/>
      <path class="st2" d="M250.1,307.6l-1.2-.5,1.2.5Z"/>
      <path class="st2" d="M203.5,290.7l-.5-.5.5.5Z"/>
      <path class="st2" d="M227.5,301.8l-1.6-.4,1.6.4Z"/>
      <path class="st2" d="M201.3,291.1l-.5-.4c.2-.2.5.3.5.4Z"/>
      <path class="st2" d="M204,291.2l-.5-.5.5.5Z"/>
      <path class="st2" d="M217.2,301.6l-.6-.4c.2-.3.6.3.6.4Z"/>
      <path class="st2" d="M272.8,301.8l-.4-1,.4,1Z"/>
      <path class="st2" d="M225.8,301.4l-2.3-.6,2.3.6Z"/>
      <path class="st2" d="M216.7,301.2l-2-.5,2,.5Z"/>
      <path class="st2" d="M271.3,301.2l-.5-1,.5,1Z"/>
      <path class="st2" d="M192.4,291.6c-.3,0-.7-.5-.4-.6l.4.6Z"/>
      <path class="st2" d="M201.8,291.5l-.5-.5.5.5Z"/>
      <path class="st2" d="M223.5,300.7l-1.5-.6,1.5.6Z"/>
      <path class="st2" d="M214.7,300.7l-1.4-.6,1.4.6Z"/>
      <path class="st2" d="M204.4,291.6l-.4-.4.4.4Z"/>
      <path class="st2" d="M222,300.1c-.6.2-1.6-.1-1.9-.5.5.1,1.5.3,1.9.5Z"/>
      <path class="st2" d="M213.2,300.1l-1-.5,1,.5Z"/>
      <path class="st2" d="M192.4,291.6s.2,0,.5,0h-.5Z"/>
      <path class="st2" d="M229.6,304.7l-3-.4,3,.4Z"/>
      <path class="st2" d="M272.4,300.8l-.5-1.6.5,1.6Z"/>
      <path class="st2" d="M204.9,292.2l-.6-.6.6.6Z"/>
      <path class="st2" d="M200.4,287.6c-.9.1-2.6.1-3.2-.5.9,0,2.7,0,3.2.5Z"/>
      <path class="st2" d="M220.1,299.6l-1.7-.3,1.7.3Z"/>
      <path class="st2" d="M212.2,299.6l-1-.5,1,.5Z"/>
      <path class="st2" d="M202.9,293l-.6-.9.6.9Z"/>
      <path class="st2" d="M218.4,299.3c-.3,0-1.1-.4-1.4-.6l1.4.6Z"/>
      <path class="st2" d="M205.5,292.7l-.6-.5.6.5Z"/>
      <path class="st2" d="M211.2,299.1l-1-.5,1,.5Z"/>
      <path class="st2" d="M271.9,299.2l-.4-1.1.4,1.1Z"/>
      <path class="st2" d="M270.8,300.2l-.5-1.2c-.1-.2.2-.6.6-1.1v2.4Z"/>
      <path class="st2" d="M217,298.8l-.6-.4.6.4Z"/>
      <path class="st2" d="M210.2,298.6l-.9-.5.9.5Z"/>
      <path class="st2" d="M271.5,298.1l-.6-.3.6.3Z"/>
      <path class="st2" d="M216.4,298.4l-1.9-.7c.7,0,1.6.2,1.9.7Z"/>
      <path class="st2" d="M206.4,293.3l-.9-.6.9.6Z"/>
      <path class="st2" d="M209.3,298.1l-.5-.5c.1.1.4.4.5.5Z"/>
      <path class="st2" d="M204.4,294c-.6,0-1.4-.7-1.5-1.1l.9.4c.2.1.4.5.6.7Z"/>
      <path class="st2" d="M207,293.7l-.6-.4.6.4Z"/>
      <path class="st2" d="M214.5,297.7c-.5-.1-1.2-.2-1.5-.5l1.5.5Z"/>
      <path class="st2" d="M208.8,297.6l-.5-.5.5.5Z"/>
      <path class="st2" d="M207.6,294.1l-.6-.4.6.4Z"/>
      <path class="st2" d="M205.8,294.5l-1.4-.5,1.4.5Z"/>
      <path class="st2" d="M208.4,294.7l-.9-.6.9.6Z"/>
      <path class="st2" d="M213,297.1l-1.1-.4,1.1.4Z"/>
      <path class="st2" d="M208.3,297l-.5-.5.5.5Z"/>
      <path class="st2" d="M212,296.7l-1.1-.6,1.1.6Z"/>
      <path class="st2" d="M206.4,295.5l-.6-1c.2,0,.5.8.6,1Z"/>
      <path class="st2" d="M209,295.2l-.6-.5.6.5Z"/>
      <path class="st2" d="M209.9,295.7l-.9-.4.9.4Z"/>
      <path class="st2" d="M206.8,296c-.1,0-.4-.3-.5-.5,0,.1.4.5.5.5Z"/>
      <path class="st2" d="M210.9,296.2l-1-.5,1,.5Z"/>
      <path class="st2" d="M273.7,305.1c-.2-.2-.8-.8-.9-1l.9,1Z"/>
      <path class="st2" d="M41.7,176.2h-1.6c.2-.3.7-.5.9-.4l.6.4Z"/>
      <path class="st2" d="M39.9,186.1c-1.8.3-3.8.2-5.7-.4,0,0,5.7.4,5.7.4Z"/>
      <path class="st2" d="M39.9,186.1l.5-.7-.5.7Z"/>
      <path class="st2" d="M34.2,185.7l-6.2-.5c2,0,4.5-.1,6.2.5Z"/>
      <path class="st2" d="M28,185.2l-1-.5,1,.5Z"/>
      <path class="st2" d="M40.4,185.4l.8-1-.8,1Z"/>
      <path class="st2" d="M35,184.2s-.4.4-.4.4l-.6-.4h1s0,0,0,0Z"/>
      <path class="st2" d="M36.1,184.5l-1.1-.3c.3-.3.6-.5.6-.4s.4.7.5.7h0Z"/>
      <path class="st2" d="M34,184.2l-1.5-.4c.8,0,1.2.2,1.5.4Z"/>
      <path class="st2" d="M27,184.7c-.3,0-.7-.5-.6-.7s.5-.5.6-.3v1Z"/>
      <path class="st2" d="M32.5,183.8h-5.5c1.4-.7,4.2-.7,5.5,0Z"/>
      <path class="st2" d="M41.3,184.4l.3-5.6-.3,5.6Z"/>
      <path class="st2" d="M41.6,178.8c0-.2.3-.3.3-.4l-.3.4Z"/>
      <path class="st2" d="M36.1,184.5c.6-.2,1.8-.1,1.8-.6v-1.8c0-1.2.2-3.1.5-3.9v6.5l-2.4-.2h0Z"/>
      <path class="st2" d="M41.9,178.3l.7-.9-.7.9Z"/>
      <path class="st2" d="M38.5,178.3c-.1-.3.4-1,.6-1l-.6,1Z"/>
      <path class="st2" d="M42.6,177.4l.3-.5-.3.5Z"/>
      <path class="st2" d="M39.1,177.2l.5-.6-.5.6Z"/>
      <path class="st2" d="M42.9,176.9l-1.2-.7,1.2.7Z"/>
      <path class="st2" d="M39.6,176.7l.5-.6-.5.6Z"/>
      <path class="st2" d="M193.9,299.6v-5c.8,1.6.6,3.7,0,5Z"/>
      <path class="st2" d="M192.2,304.4c-.3-.9-.4-2.1,0-2.6v2.6Z"/>
      <path class="st2" d="M193.9,294.6l-.6-1,.6,1Z"/>
      <path class="st2" d="M192.2,301.8l.7-8v6.7c0,.2-.6,1.1-.7,1.3h0Z"/>
      <path class="st2" d="M192.2,304.4l.7-.2-.7.2Z"/>
      <path class="st2" d="M192.9,304.2l.8-.7-.8.7Z"/>
      <path class="st2" d="M193.7,303.5c-.4-1-.4-2.8.2-3.9l-.2,3.9Z"/>
      <path class="st2" d="M193.3,293.6l-.4.2.4-.2Z"/>
      <path class="st2" d="M252.3,287.6l-.6-.4.6.4Z"/>
      <path class="st2" d="M274.4,271.8l-1.5-.5,1.5.5Z"/>
      <path class="st2" d="M241.4,268.3l-2-.5,2,.5Z"/>
      <path class="st2" d="M260.8,268.2l-1.4-.4,1.4.4Z"/>
      <path class="st2" d="M253.2,269.3l.5-.6-.5.6Z"/>
      <path class="st2" d="M249.8,270.9l.4-2.3c0,1.1-.2,2.2-.4,2.3Z"/>
      <path class="st2" d="M243,269.2l-1-.5,1,.5Z"/>
      <path class="st2" d="M237.4,273.1c-.6-.9-.6-3.3,0-4.5v4.5Z"/>
      <path class="st2" d="M268.4,292.2l-.9-.6.9.6Z"/>
      <path class="st2" d="M308.3,269l.5-1-.5,1Z"/>
      <path class="st2" d="M261.9,268.8l-1.1-.5,1.1.5Z"/>
      <path class="st2" d="M255.3,268.8h-1.6c.3-.5.9-.6,1.1-.5l.5.5h0Z"/>
      <path class="st2" d="M250.2,268.6c0-.1.6-.4.7-.5l-.7.5Z"/>
      <path class="st2" d="M242,268.7l-.6-.4.6.4Z"/>
      <path class="st2" d="M237.4,268.6l.6-.5-.6.5Z"/>
      <path class="st2" d="M256,287.2l-1-.5,1,.5Z"/>
      <path class="st2" d="M251.6,287.2l-1.4-.6,1.4.6Z"/>
      <path class="st2" d="M255,286.7l-1-.5,1,.5Z"/>
      <path class="st2" d="M250.2,286.6l-.9-.6.9.6Z"/>
      <path class="st2" d="M254,286.1l-.6-.3.6.3Z"/>
      <path class="st2" d="M249.3,286.1l-.6-.4c.3.2.7.5.6.4Z"/>
      <path class="st2" d="M253.6,288.1c-.3-.1-1-.4-1.3-.5l1.3.5Z"/>
      <path class="st2" d="M253.4,285.8l-1.1-.6,1.1.6Z"/>
      <path class="st2" d="M248.7,285.6l-.5-.4c.3,0,.6.4.5.4Z"/>
      <path class="st2" d="M310.7,268.8l.6-1.1-.6,1.1Z"/>
      <path class="st2" d="M258.8,288.3c-.5-.1-1.5-.3-1.9-.5l1.9.5Z"/>
      <path class="st2" d="M264.3,269.4l-2.4-.6,2.4.6Z"/>
      <path class="st2" d="M250.9,268.1l.5-.5-.5.5Z"/>
      <path class="st2" d="M252.3,285.2l-1-.5,1,.5Z"/>
      <path class="st2" d="M248.2,285.2l-1.4-.6,1.4.6Z"/>
      <path class="st2" d="M310.2,270.1l.5-1.3-.5,1.3Z"/>
      <path class="st2" d="M251.3,284.7l-.9-.5.9.5Z"/>
      <path class="st2" d="M246.8,284.6l-.6-.6.6.6Z"/>
      <path class="st2" d="M239,267.7l-1,.5,1-.5Z"/>
      <path class="st2" d="M308.8,268l.4-.9-.4.9Z"/>
      <path class="st2" d="M259.3,267.9l-1.9-.5,1.9.5Z"/>
      <path class="st2" d="M251.4,267.6l.5-.6-.5.6Z"/>
      <path class="st2" d="M239.4,267.8c-.1,0-.4-.1-.4-.1h.4Z"/>
      <path class="st2" d="M257.5,267.3l-.6-.6.6.6Z"/>
      <path class="st2" d="M250.5,284.2l-.6-.5.6.5Z"/>
      <path class="st2" d="M246.2,284.1l-.9-.5.9.5Z"/>
      <path class="st2" d="M256.9,266.8l-1-.6,1,.6Z"/>
      <path class="st2" d="M249.9,283.7l-.9-.5.9.5Z"/>
      <path class="st2" d="M254.4,266.2l-.5.3c-.2.1-.6,0-.9-.2l1.4-.2Z"/>
      <path class="st2" d="M251.9,267l.5-.9-.5.9Z"/>
      <path class="st2" d="M265.2,292.5l-1.1-.3,1.1.3Z"/>
      <path class="st2" d="M245.3,283.5l-1-.5,1,.5Z"/>
      <path class="st2" d="M255.8,266.2h-1.5c0-.1.6-.6.8-.5l.7.5h0Z"/>
      <path class="st2" d="M253,266.4l-.5-.2.5.2Z"/>
      <path class="st2" d="M249,283.2l-.6-.4.6.4Z"/>
      <path class="st2" d="M244.3,283c0,0-.2-.1-.5-.5l.5.5Z"/>
      <path class="st2" d="M311.4,267.7v-4.4c.7,1,.6,3.4,0,4.4Z"/>
      <path class="st2" d="M264.1,292.2l-1.9-.5,1.9.5Z"/>
      <path class="st2" d="M311.5,263.3c-.2-.4-.7-1-.7-1.2l.7,1.2Z"/>
      <path class="st2" d="M310.8,262.2l-.5-.7.5.7Z"/>
      <path class="st2" d="M269.5,293l-1.1-.8,1.1.8Z"/>
      <path class="st2" d="M309.2,267.1l.2-5.7-.2,5.7Z"/>
      <path class="st2" d="M310.3,261.5h-.9.9Z"/>
      <path class="st2" d="M248.4,282.8l-.9-.5.9.5Z"/>
      <path class="st2" d="M243.8,282.6l-.5-.5.5.5Z"/>
      <path class="st2" d="M243.9,269.7l-.9-.5.9.5Z"/>
      <path class="st2" d="M247.5,282.2l-.5-.5.5.5Z"/>
      <path class="st2" d="M243.2,282.1l-.6-.4.6.4Z"/>
      <path class="st2" d="M252.9,270.4c.1-.4.2-.9.3-1.1l-.3,1.1Z"/>
      <path class="st2" d="M258.8,269.5l-1.6-.3,1.6.3Z"/>
      <path class="st2" d="M242.6,281.7c-.2-.1-.8-.4-.9-.6l.9.6Z"/>
      <path class="st2" d="M266,269.8l-1.7-.4,1.7.4Z"/>
      <path class="st2" d="M246.9,281.7l-1.1-1.1,1.1,1.1Z"/>
      <path class="st2" d="M245.9,280.6l-1.4-.5c.5.1,1.1.3,1.4.5Z"/>
      <path class="st2" d="M241.8,281l-.6-.9.6.9Z"/>
      <path class="st2" d="M244.5,280.1l-.6-.4.6.4Z"/>
      <path class="st2" d="M241.2,280.1l-.4-.6.4.6Z"/>
      <path class="st2" d="M244,279.7l-.6-.4.6.4Z"/>
      <path class="st2" d="M243.4,279.3l-.9-.6.9.6Z"/>
      <path class="st2" d="M240.8,279.5l-.6-.9.6.9Z"/>
      <path class="st2" d="M242.5,278.6c-.1-.1-.5-.3-.5-.4-.2,0,.2.3.5.4Z"/>
      <path class="st2" d="M240.3,278.6l-.7-.7.7.7Z"/>
      <path class="st2" d="M239.6,277.9l.3-.3-.3.3Z"/>
      <path class="st2" d="M242,278.2l-.5-1,.5,1Z"/>
      <path class="st2" d="M239.9,277.6l-.2-.8c0,.3.3.4.6.4l-.4.4h0Z"/>
      <path class="st2" d="M254.8,288.5l-1.2-.4,1.2.4Z"/>
      <path class="st2" d="M307.9,269.6l.4-.6-.4.6Z"/>
      <path class="st2" d="M259.5,288.7l-.7-.4.7.4Z"/>
      <path class="st2" d="M294.3,276.2c-.7.6-1.4.4-2.5-.2l2.5.2Z"/>
      <path class="st2" d="M249.3,276.3c-.2.1-.8.5-1,.3l-.5-.5,1.5.2h0Z"/>
      <path class="st2" d="M241.4,277.2h-1.1s.2-1,.2-1c.2.1.8.8.9,1h0Z"/>
      <path class="st2" d="M267.5,291.7l-1-.5,1,.5Z"/>
      <path class="st2" d="M300.7,276.1h-6.4c0,0,6.4,0,6.4,0Z"/>
      <path class="st2" d="M291.8,276l-2.5-.5,2.5.5Z"/>
      <path class="st2" d="M244.4,270.3c-.3-.2-.6-.6-.5-.6.1,0,.4.5.5.6Z"/>
      <path class="st2" d="M250.3,275.7l-1.1.6,1.1-.6Z"/>
      <path class="st2" d="M247.8,276.1l-.5-.5.5.5Z"/>
      <polygon class="st2" points="240.5 276.2 239.7 276.8 238.9 276.2 239.4 275.7 240.5 276.2"/>
      <path class="st2" d="M255.8,289.1l-1.1-.6,1.1.6Z"/>
      <path class="st2" d="M238.9,276.2v-.7s0,.7,0,.7Z"/>
      <path class="st2" d="M260.5,289.3l-1-.6,1,.6Z"/>
      <path class="st2" d="M289.3,275.5l-2.5-.5,2.5.5Z"/>
      <path class="st2" d="M250.3,275.7c.1-.2.4-.6.5-.4,0,.1-.4.4-.5.4Z"/>
      <path class="st2" d="M247.3,275.6l-.6-.5.6.5Z"/>
      <path class="st2" d="M256.3,289.6l-.4-.4.4.4Z"/>
      <path class="st2" d="M265.7,293.2l-.5-.7.5.7Z"/>
      <path class="st2" d="M304.8,274.6c-.4.5-1.8.5-2.5,0h2.5Z"/>
      <path class="st2" d="M300.7,276.1l.6-1.4-.6,1.4Z"/>
      <path class="st2" d="M286.7,274.9l-2.6-.3,2.6.3Z"/>
      <path class="st2" d="M246.7,275.1l-.8-.5.8.5Z"/>
      <path class="st2" d="M239.4,275.7c0-.1-.2-.1-.5-.1h0c0-.1-.3-.5-.3-.5l-.3-.4h.6c0,.1,0,.2,0,.3l.3.4.3.4h0Z"/>
      <path class="st2" d="M262.1,289.6c-.6-.1-1.3-.2-1.6-.4l1.6.4Z"/>
      <path class="st2" d="M262.2,269.9l-3.4-.4,3.4.4Z"/>
      <path class="st2" d="M304.8,274.6l.4-.4-.4.4Z"/>
      <path class="st2" d="M302.3,274.7h-1c0-.3.6-.7.6-.5l.3.5h0Z"/>
      <path class="st2" d="M284.1,274.7c-1.9-.2-3.9,0-5.5-.3l4.2-.2c.4,0,1.3.5,1.3.5Z"/>
      <path class="st2" d="M238.2,274.6c.1,0-.3-.2-.4-.6l.4.6Z"/>
      <path class="st2" d="M269.1,270.2c-1.1,0-2.3-.1-3.1-.3l3.1.3Z"/>
      <path class="st2" d="M307.4,270.5l.5-.9-.5.9Z"/>
      <path class="st2" d="M267.7,293.8l-2-.5,2,.5Z"/>
      <path class="st2" d="M270.3,293.6l-.8-.6.8.6Z"/>
      <path class="st2" d="M262.2,291.7l-1.1-.4,1.1.4Z"/>
      <path class="st2" d="M245,271.2l-.5-.9.5.9Z"/>
      <path class="st2" d="M305.2,274.2c0,0,.5-.4.6-.5,0-.1-.3.2-.6.5Z"/>
      <path class="st2" d="M297,273.7c-1.5.7-3.2.8-4.3,0h4.3Z"/>
      <path class="st2" d="M278.6,274.3l-2.5-.6,2.5.6Z"/>
      <path class="st2" d="M250.9,275.3l.5-1.3-.5,1.3Z"/>
      <path class="st2" d="M245.9,274.6l-1.5-1.1,1,.4c.2,0,.4.5.5.7h0Z"/>
      <path class="st2" d="M257.2,290.2l-.9-.6c.4.2,1,.5.9.6Z"/>
      <path class="st2" d="M264,290l-1.9-.4,1.9.4Z"/>
      <path class="st2" d="M268.7,294.6l-1-.8.9.3c.1,0,.3.5,0,.5h0Z"/>
      <path class="st2" d="M306.8,273.2l-1.1.6,1.1-.6Z"/>
      <path class="st2" d="M301.3,273.4l-4.3.3c.6-.6,2.8-.6,4.3-.3Z"/>
      <path class="st2" d="M292.8,273.7l-5.7-.3,5.7.3Z"/>
      <path class="st2" d="M276.1,273.8l-1.5-.4,1.5.4Z"/>
      <path class="st2" d="M248.4,273.6l.5-.5-.5.5Z"/>
      <path class="st2" d="M248.4,273.6l-.9.6c-.3.2-.8-.9-.7-1.1l1.6.4h0Z"/>
      <path class="st2" d="M238.8,274.6l.4-1.5-.4,1.5Z"/>
      <path class="st2" d="M237.9,274l-.5-.8.5.8Z"/>
      <path class="st2" d="M252.4,272.3c0-1,.2-1.7.4-1.9l-.4,1.9Z"/>
      <path class="st2" d="M270.3,294.7v-1.1c.2,0,.8.5.6.7l-.6.4h0Z"/>
      <path class="st2" d="M262.8,270.6l-.6-.7c.1,0,.5.6.6.7Z"/>
      <path class="st2" d="M307.8,272.7l-1,.5,1-.5Z"/>
      <path class="st2" d="M301.3,273.4l.6-.7-.6.7Z"/>
      <path class="st2" d="M287.1,273.4c-1.8-.3-2.8-.3-3.5-.8,1.4,0,2.4,0,3.5.8Z"/>
      <path class="st2" d="M274.6,273.4l-3-.8c1.4.1,2.7.3,3,.8Z"/>
      <path class="st2" d="M251.3,273.9l.3-1.2-.3,1.2Z"/>
      <path class="st2" d="M248.9,273.1l.6-.6c0,.1-.5.5-.6.6Z"/>
      <path class="st2" d="M246.8,273.2l-.4-.4c0,0,.3.3.4.4Z"/>
      <path class="st2" d="M244.4,273.5c-.4,0-.9-.5-1-1l1,1Z"/>
      <path class="st2" d="M271.9,270.5l-2.9-.4c.9,0,2.4,0,2.9.4Z"/>
      <path class="st2" d="M258.6,290.7l-1.5-.6,1.5.6Z"/>
      <path class="st2" d="M307.8,272.7l.4-.4-.4.4Z"/>
      <path class="st2" d="M303.5,272.3l-1.6.4c0-.1.8-.6,1.6-.4Z"/>
      <path class="st2" d="M283.5,272.6c-1.4,0-3,0-4-.4,1,0,2.7-.1,4,.4Z"/>
      <path class="st2" d="M309.6,271.1c.2-.2.5-.7.6-1,.1.2-.1.8-.6,1Z"/>
      <path class="st2" d="M271.6,272.5l-5.2-.6,5.2.6Z"/>
      <path class="st2" d="M269.3,295.1l-.6-.5.6.5Z"/>
      <path class="st2" d="M251.7,272.8l.8-.5-.8.5Z"/>
      <path class="st2" d="M257.1,269.2l-1.9-.4,1.9.4Z"/>
      <path class="st2" d="M265.4,290.6l-1.5-.6,1.5.6Z"/>
      <path class="st2" d="M263.2,271.1l-.5-.5.5.5Z"/>
      <path class="st2" d="M257,287.8c-.5-.2-1.1-.5-1-.5l1,.5Z"/>
      <path class="st2" d="M269.6,295.5l.7-.8-.7.8Z"/>
      <path class="st2" d="M308.2,272.3l.5-.5-.5.5Z"/>
      <path class="st2" d="M305.4,271.6l-1.8.6,1.8-.6Z"/>
      <path class="st2" d="M279.5,272.3c-1.6-.1-2.8-.2-3.5-.8,1.3.2,2.4.3,3.5.8Z"/>
      <path class="st2" d="M274.4,271.8c0,0,.3-.2.6-.4-.3.8-.5.4-.6.4Z"/>
      <path class="st2" d="M266.4,272l-2.6-.4,2.6.4Z"/>
      <path class="st2" d="M245.9,272.2l-.5-.5.5.5Z"/>
      <path class="st2" d="M243.4,272.5l-.7-1.1c.2,0,.5,1,.7,1.1Z"/>
      <path class="st2" d="M273,271.3l-1-.8,1,.8Z"/>
      <path class="st2" d="M261.1,291.3l-2.5-.6,2.5.6Z"/>
      <path class="st2" d="M306.9,271c0,0,.5-.4.5-.5-.2.3-.5.8-.5.5Z"/>
      <path class="st2" d="M269.3,295.1l.3.4c.2.2,0,0-.3-.4Z"/>
      <path class="st2" d="M266.5,291.2l-1-.5,1,.5Z"/>
      <path class="st2" d="M242.7,271.4l-2.1.3c-.6,0-1,.9-1.4,1.5l.2-2.1,3.3.3h0Z"/>
      <path class="st2" d="M309.6,271.1l-.9.7.9-.7Z"/>
      <path class="st2" d="M245.4,271.7l-.4-.5.4.5Z"/>
      <path class="st2" d="M249.6,272.6l.2-1.6-.2,1.6Z"/>
      <path class="st2" d="M263.8,271.6c0,.3-.3-.3-.5-.5l.5.5Z"/>
      <path class="st2" d="M306.9,271l-1.5.6,1.5-.6Z"/>
      <path class="st2" d="M276,271.5h-1c0-.1,1,0,1,0Z"/>
      <path class="st2" d="M246.4,272.8l-.5-.5.5.5Z"/>
      <path class="st2" d="M135,137c-.1,0-.5.2-.6.1l-.6-.3,1.2.2h0Z"/>
      <path class="st2" d="M129,133.1c-.9,0-2.7.3-3.5,0,1-.2,2.7-.3,3.5,0Z"/>
      <path class="st2" d="M125.5,133.1l-6,.8,6-.8Z"/>
      <path class="st2" d="M130.6,133.8l-1.5-.7,1.5.7Z"/>
      <path class="st2" d="M119.5,133.9l-1,.5,1-.5Z"/>
      <path class="st2" d="M131.6,134.3l-1-.5,1,.5Z"/>
      <path class="st2" d="M118.4,134.8v-.4c0-.1,0,0,0,.4Z"/>
      <path class="st2" d="M123.5,134.8h-1c0,.2.3-.5.3-.5s.5.6.7.5Z"/>
      <path class="st2" d="M132.9,134.9l-1.4-.6,1.4.6Z"/>
      <path class="st2" d="M122.4,134.8c-1.2.5-3,.4-4,0h4Z"/>
      <path class="st2" d="M127.8,135.2c-1.6,0-3.4,0-4.3-.5,1.4,0,3.1,0,4.3.5Z"/>
      <path class="st2" d="M133.5,135.4l-.6-.4c.2-.1.6.3.6.4Z"/>
      <path class="st2" d="M131.6,135.9c-1,0-2.9-.3-3.8-.7l3.8.7Z"/>
      <path class="st2" d="M134.1,135.8l-.6-.4c.1,0,.4.4.6.4Z"/>
      <path class="st2" d="M132.8,136.2c-.2-.1-.9-.3-1.2-.4.4-.4,1.1.2,1.2.4Z"/>
      <polygon class="st2" points="135.3 136.4 133.9 136.4 134.1 135.8 135.3 136.4"/>
      <polygon class="st2" points="133.9 136.4 133.8 136.8 132.8 136.2 133.9 136.4"/>
      <path class="st2" d="M135,137l.3-.6s0,.2-.3.6Z"/>
      <path class="st2" d="M147.4,153.8h-.5c0,0,.5,0,.5,0Z"/>
      <path class="st2" d="M168,183.9c-.1.1-.7.5-.8.4l-.4-.6,1.2.2h0Z"/>
      <path class="st2" d="M160,161.5l-.6-1.9.6,1.9Z"/>
      <path class="st2" d="M162.6,160.9l-.6-1.5c.2.3.5,1.1.6,1.5Z"/>
      <path class="st2" d="M179.9,155l-5.4-.5,5.4.5Z"/>
      <path class="st2" d="M151.9,160.2l.5-.9-.5.9Z"/>
      <path class="st2" d="M146.5,160.3c0-.1.4-.8.6-1.2l-.6,1.2Z"/>
      <path class="st2" d="M188.4,158.8c-.5.5-1.6.4-2.8,0h2.8Z"/>
      <path class="st2" d="M153.5,155.2l.5-.5c-.2.3-.6.7-.5.5Z"/>
      <path class="st2" d="M159.5,155.3l-.5-.5.5.5Z"/>
      <path class="st2" d="M152.3,159.4c.2-.3.6-.8.5-.5,0,0-.5.4-.5.5Z"/>
      <path class="st2" d="M159,154.8l-.6-.6.6.6Z"/>
      <path class="st2" d="M160.9,167.6c-.4-.7-.3-2.9-.4-4.4.4,1.1.4,2.9.4,4.4Z"/>
      <path class="st2" d="M154,154.7l.5-.5-.5.5Z"/>
      <path class="st2" d="M185.6,158.8c-1,0-2.5-.2-3.4-.4,1.6,0,2.9,0,3.4.4Z"/>
      <path class="st2" d="M163.3,165l-.3-1.6.3,1.6Z"/>
      <path class="st2" d="M148.4,155.8l-.6-1.3c.3,0,.5.7.6,1.3Z"/>
      <path class="st2" d="M166.1,164.7c-.2-.1.1-.8.4-1.1l-.4,1.1Z"/>
      <path class="st2" d="M172.4,159.9l.5-1.3-.5,1.3Z"/>
      <path class="st2" d="M171.5,155.2l.5-.5-.5.5Z"/>
      <path class="st2" d="M182.1,155.2l-2.2-.2c.3-.4,1.3,0,2.2.2Z"/>
      <path class="st2" d="M162,159.4l-.6-1.1.6,1.1Z"/>
      <path class="st2" d="M159.4,159.6l-.5-1.6c.4.6.5,1.4.5,1.6Z"/>
      <path class="st2" d="M153.5,155.2l-1.4.4,1.4-.4Z"/>
      <path class="st2" d="M160,155.9l-.5-.5.5.5Z"/>
      <path class="st2" d="M154.9,158.4l-2,.5,2-.5Z"/>
      <path class="st2" d="M188.4,158.8v-1l.5.3c.1,0-.3.8-.5.7h0Z"/>
      <path class="st2" d="M169.4,165.4l.5-1-.5,1Z"/>
      <path class="st2" d="M182.2,158.4l-2.1-.5,2.1.5Z"/>
      <path class="st2" d="M174.5,154.5l-2.1-.2c.1-.2.5-.6.8-.5l1.3.7h0Z"/>
      <path class="st2" d="M158.4,154.3l-.4-.4.4.4Z"/>
      <path class="st2" d="M168.6,159.6l.4-1.9-.4,1.9Z"/>
      <path class="st2" d="M154.5,154.2l.5-.5-.5.5Z"/>
      <path class="st2" d="M147.8,154.4l-.4-.6.4.6Z"/>
      <path class="st2" d="M147,155.8v-2c-.1,0,0,2,0,2Z"/>
      <path class="st2" d="M155.9,157.8c-.2.2-.8.6-1.1.6l1.1-.6Z"/>
      <path class="st2" d="M158,153.8l-.5-.5.5.5Z"/>
      <path class="st2" d="M171,155.7l.5-.5-.5.5Z"/>
      <path class="st2" d="M188.4,157.8l-.4-.4.4.4Z"/>
      <path class="st2" d="M180.1,157.9l-1.9-.8,1.9.8Z"/>
      <path class="st2" d="M163.7,167.9l-.5-2.9.5,2.9Z"/>
      <path class="st2" d="M155,153.7l.5-.5-.5.5Z"/>
      <path class="st2" d="M165.6,167.1l.5-2.4-.5,2.4Z"/>
      <path class="st2" d="M185,155.7c-1.3,0-2.6-.1-2.9-.5l2.9.5Z"/>
      <path class="st2" d="M147.1,159.1v-3.3c.3.8.4,2.5,0,3.3Z"/>
      <path class="st2" d="M172.9,158.5c0-.2.2-1.3.4-1.4l-.4,1.4Z"/>
      <path class="st2" d="M146.9,162.7l-.5-.6.5.6Z"/>
      <path class="st2" d="M169,157.7c-.3,0,.2-.3.5-.5l-.5.5Z"/>
      <path class="st2" d="M161.5,158.2l-.5-1,.5,1Z"/>
      <path class="st2" d="M157.5,153.3l-.5-.5.5.5Z"/>
      <path class="st2" d="M155.5,153.2l.5-.5-.5.5Z"/>
      <path class="st2" d="M157,152.8l-1-.2c.1-.1.5-.5.6-.4l.4.6h0Z"/>
      <path class="st2" d="M168.9,166.4l.5-1-.5,1Z"/>
      <path class="st2" d="M168.6,167.5l.3-1.1c0,.2-.3.9-.3,1.1Z"/>
      <path class="st2" d="M158.8,158.1l-.5-.9c.2.1.4.7.5.9Z"/>
      <path class="st2" d="M148.9,156.8l-.5-1,.5,1Z"/>
      <path class="st2" d="M155.9,157.8c.1-.1.5-.5.4-.4l-.4.4Z"/>
      <path class="st2" d="M151.5,156.2c0,0,.4-.5.6-.6l-.6.6Z"/>
      <path class="st2" d="M165.1,168.2l.5-1.1c0,.2-.4.9-.5,1.1Z"/>
      <path class="st2" d="M171.8,160.4l.6-.5c0,.1-.5.4-.6.5Z"/>
      <path class="st2" d="M146,161.2l.5-.9-.5.9Z"/>
      <path class="st2" d="M172,154.7l.4-.4-.4.4Z"/>
      <path class="st2" d="M169.9,164.4l.5-1.4-.5,1.4Z"/>
      <path class="st2" d="M167.7,170.5c.3-1.4.3-2.7.9-2.9,0,.8-.4,2.1-.9,2.9Z"/>
      <path class="st2" d="M160.4,156.3c-.2-.2-.5-.5-.4-.4.1.1.3.3.4.4Z"/>
      <path class="st2" d="M151.3,161.3l.6-1.1-.6,1.1Z"/>
      <path class="st2" d="M161.4,170.6c-.4-.9-.5-2-.5-3.1.4,1.2.5,2.3.5,3.1Z"/>
      <path class="st2" d="M165.1,168.2l-.5.6c-.2.2-.8-.6-.8-.9l1.3.3Z"/>
      <path class="st2" d="M170.5,156.2l.5-.5-.5.5Z"/>
      <path class="st2" d="M167.6,162.1l.4-1.9-.4,1.9Z"/>
      <path class="st2" d="M171.4,160.8l.4-.4c-.1.1-.3.3-.4.4Z"/>
      <path class="st2" d="M186,156.4l-1-.7,1,.7Z"/>
      <path class="st2" d="M167.2,176.3l.5-5.8-.5,5.8Z"/>
      <path class="st2" d="M188,157.4l-.5-.5c0-.3.3.2.5.5Z"/>
      <path class="st2" d="M163,163.4l-.4-2.5.4,2.5Z"/>
      <path class="st2" d="M166.5,163.6l.5-.9-.5.9Z"/>
      <path class="st2" d="M178.2,157.1h-4.9c1.1-.5,3.7-.5,4.9,0Z"/>
      <path class="st2" d="M162,174c-.6-.4-.6-1.9-.7-3.3.3.8.6,2.4.7,3.3Z"/>
      <path class="st2" d="M169.5,157.2l.5-.5-.5.5Z"/>
      <path class="st2" d="M162.4,175.1l-.3-1.1c0,.2.2.9.3,1.1Z"/>
      <path class="st2" d="M162.9,176.1l-.5-1,.5,1Z"/>
      <path class="st2" d="M170.8,161.8l.6-1.1-.6,1.1Z"/>
      <path class="st2" d="M158.4,157.1l-1.1-.4c.2,0,.9.3,1.1.4Z"/>
      <path class="st2" d="M156.4,157.3l.5-.5-.5.5Z"/>
      <path class="st2" d="M148.4,162.6l-.5.5c-.2,0-.7,0-1.1-.4h1.5c0,0,0-.1,0-.1Z"/>
      <path class="st2" d="M151,156.7c-.5.6-2,.6-2,0h2Z"/>
      <path class="st2" d="M187.4,156.9l-1.4-.5,1.4.5Z"/>
      <path class="st2" d="M167,162.7l.6-.6-.6.6Z"/>
      <path class="st2" d="M163.4,177.1l-.5-1,.5,1Z"/>
      <path class="st2" d="M166.9,178.7l.3-2.4c.4.6,0,1.8-.3,2.4Z"/>
      <path class="st2" d="M145.8,161.6c-.1,0-.4-.3.2-.4l-.2.4Z"/>
      <path class="st2" d="M170,156.7l.5-.5-.5.5Z"/>
      <path class="st2" d="M150.9,162.1c0,0,.3-.5.4-.8,0,.1,0,.9-.4.8Z"/>
      <path class="st2" d="M150.9,162.1l-2.5.6,2.5-.6Z"/>
      <path class="st2" d="M146.4,162.2l-.5-.6.5.6Z"/>
      <path class="st2" d="M160.6,163.2l-.5-1.6.5,1.6Z"/>
      <path class="st2" d="M170.4,163l.4-1.1-.4,1.1Z"/>
      <path class="st2" d="M160.9,157.2l-.5-1,.5,1Z"/>
      <path class="st2" d="M163.9,178.1l-.5-1,.5,1Z"/>
      <path class="st2" d="M164.3,179.1l-.4-1,.4,1Z"/>
      <path class="st2" d="M166.9,181.2c-.8-.4-.3-2,0-2.4v2.4Z"/>
      <path class="st2" d="M164.8,180.6l-.5-1.5.5,1.5Z"/>
      <path class="st2" d="M165.4,181.8l-.6-1.1.6,1.1Z"/>
      <path class="st2" d="M168.1,181.8l-1.2-.7,1.2.7Z"/>
      <path class="st2" d="M157.3,156.7c0,0-.4.1-.4.1h.4Z"/>
      <path class="st2" d="M151,156.7l.5-.6-.5.6Z"/>
      <path class="st2" d="M165.9,182.7l-.5-1,.5,1Z"/>
      <path class="st2" d="M168,183.9v-2c.6.3.4,1.6,0,2Z"/>
      <path class="st2" d="M166.3,183.1l-.4-.4c.2.2.5.5.4.4Z"/>
      <path class="st2" d="M166.8,183.7l-.6-.5.6.5Z"/>
      <path class="st2" d="M168,160.2c-.3,0,.2-.4.6-.6,0,.1-.6.6-.6.6Z"/>
      <path class="st2" d="M27.4,226.1l-.4-.4.4.4Z"/>
      <path class="st2" d="M29.1,226.3l-.5-.5.5.5Z"/>
      <path class="st2" d="M29.9,218.3l.5-.5-.5.5Z"/>
      <path class="st2" d="M30.4,217.8l.5-.5-.5.5Z"/>
      <path class="st2" d="M31.9,216.7l-.9.6.9-.6Z"/>
      <path class="st2" d="M27.9,218.3l.9-1.5v.9c-.1.2-.6.4-.9.5h0Z"/>
      <path class="st2" d="M29.4,218.8l.5-.5-.5.5Z"/>
      <path class="st2" d="M31.9,216.7c.1,0,.5-.4.5-.5.2,0-.2.3-.5.5Z"/>
      <path class="st2" d="M29.8,216.2l-1,.6c.1-.2.8-.5,1-.6Z"/>
      <path class="st2" d="M29.8,216.2l.7-.4-.7.4Z"/>
      <path class="st2" d="M28.9,219.3l.5-.5-.5.5Z"/>
      <path class="st2" d="M27.4,219.2c.1,0-.4.4-.9.6l.9-.6Z"/>
      <path class="st2" d="M32.4,216.2l.6-.9-.6.9Z"/>
      <path class="st2" d="M31.4,215.3l-.9.5.9-.5Z"/>
      <path class="st2" d="M33.8,214.7l-.9.6c.1-.2.7-.6.9-.6Z"/>
      <path class="st2" d="M31.4,215.3l.5-.5-.5.5Z"/>
      <path class="st2" d="M28.5,219.8l.5-.5-.5.5Z"/>
      <path class="st2" d="M26,220.2c0-.1.3-.4.4-.4.1,0-.2.3-.4.4Z"/>
      <path class="st2" d="M28,220.4l.4-.6-.4.6Z"/>
      <path class="st2" d="M25.5,221.1l.6-.9-.6.9Z"/>
      <path class="st2" d="M33.8,214.7l.7-.4-.7.4Z"/>
      <path class="st2" d="M31.9,214.8l.5-.5-.5.5Z"/>
      <path class="st2" d="M35.5,213.8l-1.1.6,1.1-.6Z"/>
      <path class="st2" d="M32.4,214.3l.5-.5-.5.5Z"/>
      <path class="st2" d="M36.5,213.3l-.9.4.9-.4Z"/>
      <path class="st2" d="M32.9,213.8l.5-.5-.5.5Z"/>
      <path class="st2" d="M25.5,222.9l-.4-1c0-.2.2-.6.4-.8v1.8Z"/>
      <path class="st2" d="M27.5,224.8s-.2,0-.5-.4c0-.7.2-2,.6-2.6v3h0Z"/>
      <path class="st2" d="M26,224.3l-.5-1.4.5,1.4Z"/>
      <path class="st2" d="M26.6,224.7c-.1,0-.6-.3-.6-.4l.6.4Z"/>
      <path class="st2" d="M34.4,212.7c0,0-.5.4-1,.6l1-.6Z"/>
      <polygon class="st2" points="27 225.7 26.6 224.7 27 224.4 27 225.7"/>
      <path class="st2" d="M36.5,213.3l.2-1.6c.2.1.5.9.3,1.1l-.5.5h0Z"/>
      <path class="st2" d="M32.2,230.7s.2,0,.4,0c0,.5-.3.2-.4,0Z"/>
      <path class="st2" d="M32.2,230.7l-.5-.4.5.4Z"/>
      <path class="st2" d="M32.5,230.7v-1.1c.3.3.7.7.5.8l-.5.3Z"/>
      <path class="st2" d="M31.6,230.2l-.5-.4.5.4Z"/>
      <path class="st2" d="M32.5,229.6l-.5-.5.5.5Z"/>
      <path class="st2" d="M31.1,229.8l-.5-.6c0,.1.4.5.5.6Z"/>
      <path class="st2" d="M36.7,211.7l-1-.6,1,.6Z"/>
      <path class="st2" d="M31.9,229.1l-.6-.5.6.5Z"/>
      <path class="st2" d="M28.1,225.3l-.5-.5.5.5Z"/>
      <path class="st2" d="M31.4,228.6l-.7-.6.7.6Z"/>
      <path class="st2" d="M34.4,212.7l.6-1.8c-.1,1.2-.3,1.7-.6,1.8Z"/>
      <polygon class="st2" points="30.7 228.1 30.6 229.2 29.6 228.4 30.1 227.2 30.7 228.1"/>
      <path class="st2" d="M35.6,211.1c-.5.1-.7,0-.6-.3l.6.3Z"/>
      <polygon class="st2" points="29.5 227.2 29.6 228.4 28.5 227.2 29.5 227.2"/>
      <polygon class="st2" points="30.1 227.2 29.5 227.2 29.5 226.7 30.1 227.2"/>
      <path class="st2" d="M28.5,227.2l-.5-.5.5.5Z"/>
      <path class="st2" d="M28.6,225.8l-.5-.5.5.5Z"/>
      <path class="st2" d="M29.5,226.7l-.4-.4.4.4Z"/>
      <path class="st2" d="M27.6,221.7c0-.6.3-1.4.5-1.4l-.5,1.4Z"/>
      <path class="st2" d="M28,226.7l-.6-.6.6.6Z"/>
      <path class="st2" d="M27.4,219.2l.6-.9-.6.9Z"/>
      <path class="st2" d="M30.5,246.5l.6-.9-.6.9Z"/>
      <path class="st2" d="M23.5,255l.6-.9-.6.9Z"/>
      <path class="st2" d="M26.1,252.1c0-.3.4-.8.6-.9l-.6.9Z"/>
      <path class="st2" d="M29.4,252.3l.5-.5-.5.5Z"/>
      <path class="st2" d="M20.5,263.2l.4-.4-.4.4Z"/>
      <path class="st2" d="M42.7,233.2l-3-.2c.6-.5,2.4-.4,3,.2Z"/>
      <path class="st2" d="M39,233.7l.6-.7-.6.7Z"/>
      <path class="st2" d="M42.5,235.8v-2.5c.6.5.5,2.1,0,2.5Z"/>
      <path class="st2" d="M39.1,234.7c-.2-.2-.5-.7-.5-.6,0,0,.4-.4.5-.3v1h0Z"/>
      <path class="st2" d="M39.1,236.2v-1.6s.4.8.4.8c0,.2-.2.6-.4.8h0Z"/>
      <path class="st2" d="M42,236.3l.6-.6c-.2.1-.5.5-.6.6Z"/>
      <path class="st2" d="M38.5,237.1l.6-.9-.6.9Z"/>
      <path class="st2" d="M41.4,237.2l.6-.9-.6.9Z"/>
      <path class="st2" d="M38.1,237.6l.4-.5-.4.5Z"/>
      <path class="st2" d="M40.9,237.8l.5-.6-.5.6Z"/>
      <path class="st2" d="M25.5,257.8l.5-.5-.5.5Z"/>
      <path class="st2" d="M37.5,238.5l.6-.9-.6.9Z"/>
      <path class="st2" d="M40.4,238.3l.5-.5-.5.5Z"/>
      <path class="st2" d="M20.5,263.2l-.7.6c-.2.1-.8-.4-.8-.6h1.5Z"/>
      <path class="st2" d="M39.9,238.8l.5-.5-.5.5Z"/>
      <path class="st2" d="M37,239.5l.5-1-.5,1Z"/>
      <path class="st2" d="M21.1,258l.6-.9-.6.9Z"/>
      <path class="st2" d="M39.5,239.4c0-.1.3-.5.4-.6-.1,0-.4.4-.4.6Z"/>
      <path class="st2" d="M39,240.4l.5-1-.5,1Z"/>
      <path class="st2" d="M36.6,240.1c0-.1.4-.4.4-.6l-.4.6Z"/>
      <path class="st2" d="M20.9,262.8l.5-.5-.5.5Z"/>
      <path class="st2" d="M36.1,240.6l.5-.5-.5.5Z"/>
      <path class="st2" d="M38.4,241.2l.6-.9-.6.9Z"/>
      <path class="st2" d="M35.6,241.1l.5-.5-.5.5Z"/>
      <path class="st2" d="M21.5,262.2l.5-.5-.5.5Z"/>
      <path class="st2" d="M35.1,241.6l.5-.5-.5.5Z"/>
      <path class="st2" d="M38,241.8l.4-.6-.4.6Z"/>
      <path class="st2" d="M34.6,242.1l.5-.5-.5.5Z"/>
      <path class="st2" d="M37.4,242.7l.6-.9-.6.9Z"/>
      <path class="st2" d="M34,242.7l.6-.6-.6.6Z"/>
      <path class="st2" d="M22,261.8l.5-.5-.5.5Z"/>
      <path class="st2" d="M33.5,243.2l.5-.5-.5.5Z"/>
      <path class="st2" d="M37,243.3l.4-.6-.4.6Z"/>
      <path class="st2" d="M33,243.7l.5-.5-.5.5Z"/>
      <path class="st2" d="M36.5,243.9l.4-.6-.4.6Z"/>
      <path class="st2" d="M32.6,244.1l.4-.4-.4.4Z"/>
      <path class="st2" d="M35.9,244.8l.6-.9-.6.9Z"/>
      <path class="st2" d="M32.1,244.6l.5-.5-.5.5Z"/>
      <path class="st2" d="M31.6,245.1l.5-.5s-.5.5-.5.5Z"/>
      <path class="st2" d="M35.5,245.3l.5-.5-.5.5Z"/>
      <path class="st2" d="M21.7,257.1l.5-.6-.5.6Z"/>
      <path class="st2" d="M31.2,245.6l.5-.6-.5.6Z"/>
      <path class="st2" d="M34.9,245.8l.5-.5-.5.5Z"/>
      <path class="st2" d="M34.4,246.3l.5-.5-.5.5Z"/>
      <path class="st2" d="M33.9,246.8l.5-.5-.5.5Z"/>
      <path class="st2" d="M22.4,261.2l.6-.9-.6.9Z"/>
      <path class="st2" d="M19.1,260.6l.5-.5-.5.5Z"/>
      <path class="st2" d="M26,257.2l.5-.9-.5.9Z"/>
      <path class="st2" d="M30.1,247.1l.4-.6-.4.6Z"/>
      <path class="st2" d="M33.4,247.2l.5-.5-.5.5Z"/>
      <path class="st2" d="M29.5,248l.6-.9-.6.9Z"/>
      <path class="st2" d="M33,247.8l.5-.6-.5.6Z"/>
      <path class="st2" d="M32.4,248.7l.6-.9-.6.9Z"/>
      <path class="st2" d="M29.1,248.6l.4-.6-.4.6Z"/>
      <path class="st2" d="M23,260.3l.5-.5-.5.5Z"/>
      <path class="st2" d="M28.7,249.2l.4-.6-.4.6Z"/>
      <path class="st2" d="M31.9,249.2l.4-.5-.4.5Z"/>
      <path class="st2" d="M28.1,250.1l.6-.9-.6.9Z"/>
      <path class="st2" d="M31.5,249.8l.5-.5-.5.5Z"/>
      <path class="st2" d="M19.6,260.1c.1,0,.4-.4.4-.6l-.4.6Z"/>
      <path class="st2" d="M23.4,259.8l.5-.5-.5.5Z"/>
      <path class="st2" d="M23.9,259.2l.5-.5-.5.5Z"/>
      <path class="st2" d="M22.1,256.6l.5-.5-.5.5Z"/>
      <path class="st2" d="M31,250.4l.4-.6-.4.6Z"/>
      <path class="st2" d="M27.6,250.6c.1,0,.4-.4.5-.5-.1,0-.4.4-.5.5Z"/>
      <path class="st2" d="M20,259.5l.6-.9-.6.9Z"/>
      <path class="st2" d="M30.4,251.2l.6-.9-.6.9Z"/>
      <path class="st2" d="M27.6,250.6l-.9.6.9-.6Z"/>
      <path class="st2" d="M24.4,258.8l.6-.6-.6.6Z"/>
      <path class="st2" d="M25,258.2l.4-.4-.4.4Z"/>
      <path class="st2" d="M20.6,258.6l.4-.6-.4.6Z"/>
      <path class="st2" d="M30,251.8l.5-.5-.5.5Z"/>
      <path class="st2" d="M22.6,256.1l.5-.5-.5.5Z"/>
      <path class="st2" d="M25.6,252.6l.5-.6-.5.6Z"/>
      <path class="st2" d="M29,252.8l.5-.6-.5.6Z"/>
      <path class="st2" d="M26.5,256.4l.5-1-.5,1Z"/>
      <path class="st2" d="M25.1,253.1l.5-.5-.5.5Z"/>
      <path class="st2" d="M28.4,253.7l.6-.9-.6.9Z"/>
      <path class="st2" d="M24.6,253.6l.5-.5-.5.5Z"/>
      <path class="st2" d="M23.1,255.6l.4-.6-.4.6Z"/>
      <path class="st2" d="M27,255.4c0-.1.4-.5.4-.6-.1,0-.5.4-.4.6Z"/>
      <path class="st2" d="M24.1,254.1l.5-.5-.5.5Z"/>
      <path class="st2" d="M27.9,254.2l.5-.6-.5.6Z"/>
      <path class="st2" d="M27.5,254.8l.5-.5-.5.5Z"/>
      <path class="st2" d="M31.5,208.2l-.5-.5c0,0,.4.5.5.5Z"/>
      <path class="st2" d="M29.9,206.6l-.5-.5.5.5Z"/>
      <path class="st2" d="M32.6,207.3l-.5-1,.5,1Z"/>
      <path class="st2" d="M30.4,207.1l-.5-.5.5.5Z"/>
      <path class="st2" d="M32.1,206.3l-.5-.5c.1,0,.4.4.5.5Z"/>
      <path class="st2" d="M29.4,206.1c-.1,0-.5-.4-.4-.4l.4.4Z"/>
      <path class="st2" d="M33,209.2h.6c0,0-.6,0-.6,0Z"/>
      <path class="st2" d="M31.6,205.8l-.9-.6.9.6Z"/>
      <path class="st2" d="M30.7,205.2l-.6-.4c0,.1.4.4.6.4Z"/>
      <path class="st2" d="M30.9,207.6l-.5-.5.5.5Z"/>
      <path class="st2" d="M30.1,204.8l-.6-.5.6.5Z"/>
      <polygon class="st2" points="29 205.7 28.5 204.2 29.2 204.2 29 205.7"/>
      <path class="st2" d="M33.6,209.2v-.6c.4.1.3.2,0,.6Z"/>
      <path class="st2" d="M29.5,204.3s-.3-.1-.4-.1l-.2-.5.5.6Z"/>
      <path class="st2" d="M28.5,204.2v-.5s0,.5,0,.5Z"/>
      <path class="st2" d="M33.1,208.1l-.4-.8.4.8Z"/>
      <path class="st2" d="M29,203.7h-.5c0-.4.3-.2.5,0Z"/>
      <polygon class="st2" points="33.5 208.7 33 209.2 31.5 208.2 33.1 208.1 33.5 208.7"/>
      <path class="st2" d="M36.9,287.7c0,0,.4-.5.5-.5l-.5.5Z"/>
      <path class="st2" d="M33.6,287l.5-.5-.5.5Z"/>
      <path class="st2" d="M37.1,284.6l.6-.5c-.1.1-.5.4-.6.5Z"/>
      <path class="st2" d="M37.1,284.6l-1.4.6,1.4-.6Z"/>
      <path class="st2" d="M41.3,284.7l-1,.5,1-.5Z"/>
      <path class="st2" d="M41.9,284.2l.5-.5-.5.5Z"/>
      <path class="st2" d="M38.6,283.5l-.8.6.8-.6Z"/>
      <path class="st2" d="M42.4,283.7l.5-.4-.5.4Z"/>
      <path class="st2" d="M38.6,283.5l.5-.5-.5.5Z"/>
      <path class="st2" d="M43.9,282.7l-.9.6.9-.6Z"/>
      <path class="st2" d="M39.1,283.1l.5-.5-.5.5Z"/>
      <path class="st2" d="M35.7,285.2l-1.1.5c.1-.3.7-.6,1.1-.5Z"/>
      <path class="st2" d="M40.3,285.2l-.9.6c.1-.2.7-.5.9-.6Z"/>
      <path class="st2" d="M40.5,282l-.9.6.9-.6Z"/>
      <path class="st2" d="M32.6,288l1-1-1,1Z"/>
      <path class="st2" d="M31.8,290.2c-.2-.2-.4-.9-.2-1.1l.5-.5-.2,1.6h0Z"/>
      <path class="st2" d="M43.9,282.7l.7-.9c-.1.2-.5.8-.7.9Z"/>
      <path class="st2" d="M40.5,282l.5-.4-.5.4Z"/>
      <path class="st2" d="M41.1,281.6l.5-.5-.5.5Z"/>
      <path class="st2" d="M35.4,289.8l-1.9.5,1.9-.5Z"/>
      <path class="st2" d="M34.1,286.5c0-.3.4-.8.6-.9l-.6.9Z"/>
      <path class="st2" d="M38.9,286.5l.6-.8c0,.2-.3,1-.6.8Z"/>
      <path class="st2" d="M35.4,289.8c0-.3.3-.9.6-1-.1.2-.4,1-.6,1Z"/>
      <path class="st2" d="M45.5,280.8l-.9,1,.9-1Z"/>
      <path class="st2" d="M41.6,281.1l.5-.5-.5.5Z"/>
      <path class="st2" d="M33.5,290.3l-1.1.3c-.2,0-.5-.3-.6-.5l1.7.2h0Z"/>
      <path class="st2" d="M42.1,280.6c0-.1.4-.6.6-.4l-.6.4Z"/>
      <path class="st2" d="M45.5,280.8c0-.2,0-.9.2-1.3.1.2.4.6.2.8l-.5.5h0Z"/>
      <path class="st2" d="M32,288.5l.5-.5-.5.5Z"/>
      <path class="st2" d="M45,279.5l-2.3.8,2.3-.8Z"/>
      <path class="st2" d="M45.7,279.5h-.7c0,0,.7,0,.7,0Z"/>
      <path class="st2" d="M36.4,288.2l.5-.5-.5.5Z"/>
      <path class="st2" d="M38.9,286.5l-1.4.6,1.4-.6Z"/>
      <path class="st2" d="M36,288.8l.4-.6-.4.6Z"/>
      <path class="st2" d="M41.3,284.7c.1,0,.5-.4.6-.4-.1.2-.3.4-.6.4Z"/>
      <path class="st2" d="M145.4,149.8c-.5,0-.4-.2,0-.5v.5Z"/>
      <path class="st2" d="M145.5,151.3c-.2-.2-.1-.4,0-.6v.6Z"/>
      <path class="st2" d="M145.9,149.2h-.5c0,0,.5,0,.5,0Z"/>
      <path class="st2" d="M146,149.7v-.5c.1,0,0,.4,0,.5Z"/>
      <path class="st2" d="M145.9,150.8c.1,0-.2,0-.5-.1v-.9s.6,0,.6,0v1.1h0Z"/>
      <path class="st2" d="M145.9,152.2h.6c0,0-.6,0-.6,0Z"/>
      <path class="st2" d="M146.5,152.3v-.6c.4,0,.3.2,0,.6Z"/>
      <polygon class="st2" points="146.4 151.7 145.9 152.2 145.5 151.3 145.9 150.8 146.4 151.7"/>
      <path class="st2" d="M50.8,275.2l.6-.4-.6.4Z"/>
      <path class="st2" d="M55.2,274.1l-1,.6,1-.6Z"/>
      <path class="st2" d="M52.1,276.1l-1.3.6,1.3-.6Z"/>
      <path class="st2" d="M50.1,277c-.1.1.2-.3.7-.3l-.7.3Z"/>
      <path class="st2" d="M60.5,269.2h-1.5s.8-.5.8-.5c.2-.1.7.4.7.5Z"/>
      <path class="st2" d="M58.4,269.7l.5-.5-.5.5Z"/>
      <path class="st2" d="M60.9,269.7l-.4-.5.4.5Z"/>
      <path class="st2" d="M48.7,276.9l.8-.6-.8.6Z"/>
      <path class="st2" d="M58,270.2l.5-.5-.5.5Z"/>
      <path class="st2" d="M52.1,276.1l.6-.6-.6.6Z"/>
      <path class="st2" d="M61.1,270.1l-.2-.4c.7,0,.3.3.2.4Z"/>
      <path class="st2" d="M57.4,270.9l.6-.6c0,0-.4.6-.6.6Z"/>
      <path class="st2" d="M60.6,270.6l.5-.5-.5.5Z"/>
      <path class="st2" d="M57.4,270.9l-1.9.4,1.9-.4Z"/>
      <path class="st2" d="M60,271l.5-.5-.5.5Z"/>
      <path class="st2" d="M55.5,271.2l-1.1.5c.2-.3.8-.7,1.1-.5Z"/>
      <path class="st2" d="M60,271l-.9.6.9-.6Z"/>
      <path class="st2" d="M53.9,272.2l.5-.5c-.1,0-.5.4-.5.5Z"/>
      <path class="st2" d="M58.6,272.1l.5-.5-.5.5Z"/>
      <path class="st2" d="M53.4,272.7l.5-.5-.5.5Z"/>
      <path class="st2" d="M49.4,276.2l.5-.5-.5.5Z"/>
      <path class="st2" d="M58.1,272.6l.5-.6c0,0-.4.5-.5.6Z"/>
      <path class="st2" d="M53.5,275l-.9.5.9-.5Z"/>
      <path class="st2" d="M52.9,273.2l.5-.5-.5.5Z"/>
      <path class="st2" d="M58.1,272.6l-1.4.6,1.4-.6Z"/>
      <path class="st2" d="M52.4,273.7l.5-.5-.5.5Z"/>
      <path class="st2" d="M56.1,273.6l.6-.3-.6.3Z"/>
      <path class="st2" d="M50.1,277l-.4.6c0,.1-.7-.3-.7-.4l1.1-.3Z"/>
      <path class="st2" d="M51.9,274.3l.5-.5-.5.5Z"/>
      <path class="st2" d="M56.1,273.6l-1,.5,1-.5Z"/>
      <path class="st2" d="M51.4,274.7l.5-.5-.5.5Z"/>
      <path class="st2" d="M50.8,275.2l-.9.6.9-.6Z"/>
      <path class="st2" d="M53.5,275l.6-.4-.6.4Z"/>
      <path class="st2" d="M49,277.3c-.2-.3-.5-.6-.3-.4l.3.4Z"/>
      <path class="st2" d="M150.8,303l-1.8-.5c.4,0,1.4.3,1.8.5Z"/>
      <path class="st2" d="M157,306.2c-.9,0-1.8-.3-1.9-.7l1.9.7Z"/>
      <path class="st2" d="M152.4,304.2c-.2-.2-.5-.8-.5-.6,0,0,.3,0,.5.1v.5h0Z"/>
      <path class="st2" d="M159.4,305.4l-2-.3,2,.3Z"/>
      <path class="st2" d="M159.6,306.7l-.2-1.3.5.6c.1.1-.2.6-.4.7h0Z"/>
      <path class="st2" d="M155.9,304l-1.6-.5,1.6.5Z"/>
      <path class="st2" d="M155.1,305.5l-1.1-.4,1.1.4Z"/>
      <path class="st2" d="M154.3,303.5l-1-.3,1,.3Z"/>
      <path class="st2" d="M153.1,304.6l-.6-.4.6.4Z"/>
      <path class="st2" d="M156.9,304.6l-1.1-.6c.3,0,.8.4,1.1.6Z"/>
      <path class="st2" d="M151,301.5l-2-.3c.4,0,1.8,0,2,.3Z"/>
      <path class="st2" d="M158.4,306.8l-1.5-.6,1.5.6Z"/>
      <path class="st2" d="M157.4,305l-.5-.4.5.4Z"/>
      <path class="st2" d="M159.6,306.7c-.1,0-.5.4-.4.4s-.5-.2-.7-.3h1.1Z"/>
      <path class="st2" d="M148.9,302.5c-.4.2-.6-.5-.5-.6l.6-.7v1.3c0,0,0,0,0,0Z"/>
      <path class="st2" d="M151.6,302.2l-.5-.7.5.7Z"/>
      <path class="st2" d="M154.1,305.1l-1-.5,1,.5Z"/>
      <path class="st2" d="M152.4,302.7l-.9-.4.9.4Z"/>
      <path class="st2" d="M151.9,303.7l-1.2-.6,1.2.6Z"/>
      <polygon class="st2" points="153.3 303.2 152.4 303.8 152.4 302.7 153.3 303.2"/>
      <path class="st2" d="M69.6,177.7l-2.4-.2,2.4.2Z"/>
      <path class="st2" d="M69.6,177.7l.3-1.1-.3,1.1Z"/>
      <path class="st2" d="M69.8,176.6l-2.4-.2,2.4.2Z"/>
      <path class="st2" d="M67.2,177.4l.3-1.1-.3,1.1Z"/>
      <path class="st2" d="M24.1,198.3l-.4-.6.4.6Z"/>
      <path class="st2" d="M26,202.7l-1-.6,1,.6Z"/>
      <path class="st2" d="M27.5,202.7v-.5s0,.5,0,.5Z"/>
      <path class="st2" d="M27.6,202.3l-.5-.4.5.4Z"/>
      <path class="st2" d="M25,202.1l-.6-.5c0,0,.5.4.6.5Z"/>
      <path class="st2" d="M27,201.9l-1-.7,1,.7Z"/>
      <path class="st2" d="M27.5,202.7c-.1.3-.8.5-1,.4l-.5-.4h1.5Z"/>
      <path class="st2" d="M23.1,196.8l-.9-.6c.2,0,.7.4.9.6Z"/>
      <polygon class="st2" points="21.5 197.2 21.1 196.2 21.6 196.2 21.5 197.2"/>
      <path class="st2" d="M24.4,201.6l-.4-.6c0,.1.3.5.4.6Z"/>
      <path class="st2" d="M23.7,197.8l-.6-.9.6.9Z"/>
      <path class="st2" d="M26,201.2c0,0-.3-.3-.5-.4,0,.1.4.4.5.4Z"/>
      <path class="st2" d="M24,201.1l-.4-.9.4.9Z"/>
      <path class="st2" d="M21.1,196.2l-.4-1,.4,1Z"/>
      <polygon class="st2" points="22.3 196.2 21.6 196.2 21.5 194.7 22.3 196.2"/>
      <path class="st2" d="M22,198.1l-.5-.9.5.9Z"/>
      <path class="st2" d="M25.6,200.8l-.5-.9.5.9Z"/>
      <path class="st2" d="M23.6,200.1l-1-1.1,1,1.1Z"/>
      <path class="st2" d="M25.1,199.9l-.5-1,.5,1Z"/>
      <path class="st2" d="M20.7,195.2c-.7,0-.4-.3-.2-.5l.2.5Z"/>
      <path class="st2" d="M21.5,194.7h-1c0-.2.6-.6.8-.5l.3.5Z"/>
      <path class="st2" d="M24.5,198.9l-.4-.6.4.6Z"/>
      <path class="st2" d="M22.6,199.1l-.6-1,.6,1Z"/>
      <path class="st2" d="M147,300.6h.4c0,.5-.3.3-.4,0Z"/>
      <polygon class="st2" points="145.4 299.6 145 299.2 145.4 299.1 145.4 299.6"/>
      <polygon class="st2" points="147.4 299.6 146 299.7 145.9 299.2 147.4 299.6"/>
      <path class="st2" d="M145,299.2l-.5-.6.5.6Z"/>
      <path class="st2" d="M144.5,298.6v-.6c0,.5,0,.6,0,.6Z"/>
      <path class="st2" d="M145.9,299.2c.2-.2-.2-.1-.5-.1l.3-1,.2,1.1h0Z"/>
      <path class="st2" d="M146,300l-.6-.4h.6c0,.4,0,.6,0,.4h0Z"/>
      <path class="st2" d="M147.4,300.6v-1c.3,0,.6.6.5.7l-.5.3Z"/>
      <path class="st2" d="M147,300.6l-1.1-.5,1.1.5Z"/>
      <path class="st2" d="M145.7,298.2l-1.3-.2c0,0,.6-.5.7-.3l.6.5h0Z"/>
      <path class="st2" d="M141.9,295.7v-.5c.5,0,.4.1,0,.5Z"/>
      <path class="st2" d="M141.4,295.6h.5c0,.5-.3.2-.5,0Z"/>
      <polygon class="st2" points="141.4 295.6 140.9 295.2 141.6 295.1 141.4 295.6"/>
      <polygon class="st2" points="142 295.2 141.6 295.1 141.4 294.1 142 295.2"/>
      <polygon class="st2" points="140.9 295.2 140.4 294.1 140.9 294.1 140.9 295.2"/>
      <polygon class="st2" points="141.4 294.1 140.9 294.1 141 293.7 141.4 294.1"/>
      <polygon class="st2" points="140.4 294.1 139.9 293.7 140.6 293.6 140.4 294.1"/>
      <polygon class="st2" points="141 293.7 140.6 293.6 140.4 293.1 141 293.7"/>
      <path class="st2" d="M139.9,293.7c-.6,0-.4-.2,0-.5v.5Z"/>
      <path class="st2" d="M140.4,293.1h-.5c0-.5.3-.2.5,0Z"/>
      <path class="st2" d="M142.9,144.8h.5c0,.4-.3.2-.5,0Z"/>
      <path class="st2" d="M143.4,144.8v-1c.3,0,.6.6.5.7l-.5.3h0Z"/>
      <path class="st2" d="M142.9,144.8c-.3,0-.6-.6-.5-.7l.5-.3v1h0Z"/>
      <path class="st2" d="M143.4,143.7h-.5c0-.4.3-.2.5,0Z"/>
      <polygon class="st2" points="135.1 287.1 135.4 287.1 135.2 287.6 135.1 287.1"/>
      <polygon class="st2" points="134.8 285.7 134.4 285.6 134.7 285.1 134.8 285.7"/>
      <path class="st2" d="M135.1,287.1l-.6-.5.6.5Z"/>
      <polygon class="st2" points="135.4 287.1 135.4 286.2 136.2 286.6 135.4 287.1"/>
      <path class="st2" d="M135.4,286.2l-.6-.5.6.5Z"/>
      <polygon class="st2" points="134.5 286.6 133.7 286.1 134.4 285.6 134.5 286.6"/>
      <path class="st2" d="M137.9,138.2v-.8c.1,0,0,.8,0,.8Z"/>
      <path class="st2" d="M139.4,137.7h-.5c0-.5.2-.3.5,0Z"/>
      <path class="st2" d="M138.5,137.7l-.5-.3.5.3Z"/>
      <path class="st2" d="M139.5,138.2v-.5c0,0,0,.5,0,.5Z"/>
      <path class="st2" d="M137.9,138.2h.5c0,0-.5,0-.5,0Z"/>
      <path class="st2" d="M139,138.3h.5c0,0-.5,0-.5,0Z"/>
      <polygon class="st2" points="139 138.3 138.4 138.3 138.5 137.7 138.9 137.8 139 138.3"/>
      <g>
        <path class="st2" d="M206.2,110.8l.6-1.4-.6,1.4Z"/>
        <path class="st2" d="M210.9,151.8l.6-1.1-.6,1.1Z"/>
        <path class="st2" d="M232.4,64.1l-2-.8,2,.8Z"/>
        <path class="st2" d="M217.8,67.5l.4-.6-.4.6Z"/>
        <path class="st2" d="M220,67.3c0-.2.2-.6.3-.5l-.3.5Z"/>
        <path class="st2" d="M217.4,68.5l.5-1-.5,1Z"/>
        <path class="st2" d="M219.4,68.8l.6-1.4-.6,1.4Z"/>
        <path class="st2" d="M216.9,69.5l.4-1.1-.4,1.1Z"/>
        <path class="st2" d="M219.7,64c0-.1.4-.5.5-.6l-.5.6Z"/>
        <path class="st2" d="M218.9,69.9l.5-1.1-.5,1.1Z"/>
        <path class="st2" d="M216.4,70.8l.6-1.3-.6,1.3Z"/>
        <path class="st2" d="M240.1,63l-3.1.5,3.1-.5Z"/>
        <path class="st2" d="M237.1,63.5l-1.6.5c0-.2.9-.7,1.6-.5Z"/>
        <path class="st2" d="M230.4,63.3c-1.4,0-2.4-.2-2.8-.5.9,0,2.1.3,2.8.5Z"/>
        <path class="st2" d="M218.4,70.8l.5-1-.5,1Z"/>
        <path class="st2" d="M215.8,71.9l.6-1.1-.6,1.1Z"/>
        <path class="st2" d="M210.2,143.2c-.2-.1-.4-.8-.4-1.1l.4,1.1Z"/>
        <path class="st2" d="M218.1,71.3l.3-.5-.3.5Z"/>
        <path class="st2" d="M217.4,73.7c0-.9,0-2.2.7-2.4l-.7,2.4Z"/>
        <path class="st2" d="M220.2,63.4l.6-.5-.6.5Z"/>
        <path class="st2" d="M242,62.2c-.5.2-1.5.7-1.9.7l1.9-.7Z"/>
        <path class="st2" d="M215.3,73.4c0-.3.3-1.2.5-1.5l-.5,1.5Z"/>
        <path class="st2" d="M215,74.5l.2-1.1-.2,1.1Z"/>
        <path class="st2" d="M216.7,77.1l.7-3.4-.7,3.4Z"/>
        <path class="st2" d="M214.4,77.4c0-.8,0-2.3.7-2.9-.2,1-.4,2.2-.7,2.9Z"/>
        <path class="st2" d="M213.7,79.4c0-.5.4-1.3.7-2l-.7,2Z"/>
        <path class="st2" d="M216.4,79.6l.3-2.5c.4.8,0,1.9-.3,2.5Z"/>
        <path class="st2" d="M234.3,62.3c-.8.5-2.5.7-3.5,0h3.5Z"/>
        <polygon class="st2" points="221.7 62.4 222.5 62.8 221.9 64.2 220.8 62.9 221.7 62.4"/>
        <path class="st2" d="M213.3,82.5l.3-3.2c.3,1.2,0,2.3-.3,3.2Z"/>
        <path class="st2" d="M215.9,82.6c0-1.1.1-2.2.4-3-.1,1.1-.2,2.3-.4,3Z"/>
        <path class="st2" d="M213,84.5c-.3-.6,0-1.5.3-2l-.3,2Z"/>
        <path class="st2" d="M219.2,65.3l.5-1.4-.5,1.4Z"/>
        <path class="st2" d="M215.2,85.6l.8-3c-.1,1-.2,2.3-.8,3Z"/>
        <path class="st2" d="M235.5,64c-.8.2-2.3.4-3,.1h3Z"/>
        <path class="st2" d="M212.4,87.4l.7-2.9-.7,2.9Z"/>
        <path class="st2" d="M214.7,87.7l.5-2-.5,2Z"/>
        <path class="st2" d="M244.9,61.6l-2.8.6c.7-.3,2-.5,2.8-.6Z"/>
        <path class="st2" d="M211.7,89.8l.7-2.4c0,.8-.2,2-.7,2.4Z"/>
        <path class="st2" d="M214.3,89.6l.4-1.9-.4,1.9Z"/>
        <path class="st2" d="M211.1,90.9l.6-1.1c.2.4-.3,1-.6,1.1Z"/>
        <path class="st2" d="M214.4,90.2v-.6c-.1,0,0,.6,0,.6Z"/>
        <path class="st2" d="M235.7,61.7l-1.4.6,1.4-.6Z"/>
        <path class="st2" d="M214.6,91.8l-.2-1.6.3.6c0,.2,0,.7-.1.9h0Z"/>
        <path class="st2" d="M209.9,142.2c-.3,0,0-.3,0-.5v.5Z"/>
        <path class="st2" d="M221.4,65.2l.6-.9c0,.3-.4.8-.6.9Z"/>
        <path class="st2" d="M209.9,141.7c-.1-.1-.3-.5.1-.7v.7Z"/>
        <path class="st2" d="M210.8,96.6l.3-5.7.3,4c0,.3-.5,1.3-.6,1.7Z"/>
        <path class="st2" d="M230.8,62.3l-1.1-.6c.2,0,.9.6,1.1.6Z"/>
        <path class="st2" d="M210.1,140.9l-.8-1.9.8,1.9Z"/>
        <path class="st2" d="M207.9,144.8l-.4-1,.4,1Z"/>
        <polygon class="st2" points="222.7 61.8 227.6 62.8 222.5 62.8 221.7 62.4 222.7 61.8"/>
        <path class="st2" d="M212.4,144.3l-1.2-.5c.3,0,1.1.3,1.2.5Z"/>
        <path class="st2" d="M212.3,148.2v-3.9c.7.6.7,2.9,0,3.9Z"/>
        <path class="st2" d="M247.4,61.2c-.6.6-1.9.8-2.5.5l2.5-.5Z"/>
        <path class="st2" d="M208.5,145.4l-.6-.6.6.6Z"/>
        <path class="st2" d="M213.9,94.2l.8-2.5-.8,2.5Z"/>
        <path class="st2" d="M238.6,61.3c-.6.3-1.5.3-2.9.4.6-.3,2-.4,2.9-.4Z"/>
        <path class="st2" d="M207.1,142.2l-.6-2.8.6,2.8Z"/>
        <path class="st2" d="M208.4,114.5c0-.5.3-1.4.5-1.8l-.5,1.8Z"/>
        <path class="st2" d="M229.7,61.7c-.2,0-1-.3-1.5-.6l1.5.6Z"/>
        <path class="st2" d="M205.4,119.3l.3-6.4.2,5.1c0,.4-.4,1.1-.6,1.3Z"/>
        <path class="st2" d="M206.5,139.4l-.8-1.9.8,1.9Z"/>
        <path class="st2" d="M209,145.8l-.5-.5.5.5Z"/>
        <path class="st2" d="M213.2,97.6l.6-3.4-.6,3.4Z"/>
        <path class="st2" d="M218.2,66.9l.6-1-.6,1Z"/>
        <path class="st2" d="M223.8,61.2l-1.1.6,1.1-.6Z"/>
        <path class="st2" d="M209.6,146.4l-.6-.5c0,0,.6.4.6.5Z"/>
        <path class="st2" d="M211.2,143.8l-1-.6,1,.6Z"/>
        <path class="st2" d="M220.3,66.8l.6-1-.6,1Z"/>
        <path class="st2" d="M210.4,98.4c0-.6.2-1.5.5-1.8,0,.4-.3,1.4-.5,1.8Z"/>
        <path class="st2" d="M248.4,60.7l-1,.5c.2,0,.8-.4,1-.5Z"/>
        <path class="st2" d="M209.9,147.9l-.4-1.5.4,1.5Z"/>
        <path class="st2" d="M209.9,148.3v-.4c.7,0,.4.1,0,.4Z"/>
        <path class="st2" d="M213,98.7l.2-1.1c.4.3-.3.9-.2,1.1Z"/>
        <path class="st2" d="M242.1,61c-.8.3-2.2.3-3.5.4,1.3-.4,2.7-.5,3.5-.4Z"/>
        <path class="st2" d="M208.9,112.7l.6-1.5-.6,1.5Z"/>
        <path class="st2" d="M228.2,61.1h-4.4c1-.4,3.3-.4,4.4,0Z"/>
        <path class="st2" d="M248.4,60.7l.5-.4-.5.4Z"/>
        <path class="st2" d="M244.6,60.1c.2.7-1.2.7-2.5.8l2.5-.8Z"/>
        <path class="st2" d="M248.9,60.3v-.5s0,.5,0,.5Z"/>
        <path class="st2" d="M244.6,60.1l.7-.2-.7.2Z"/>
        <path class="st2" d="M221,65.8l.4-.6-.4.6Z"/>
        <path class="st2" d="M209.9,153.8v-5.5s0,5.5,0,5.5Z"/>
        <path class="st2" d="M212,149.2l.3-.9-.3.9Z"/>
        <path class="st2" d="M209.8,99.9l.6-1.5c0,.5-.4,1.2-.6,1.5Z"/>
        <path class="st2" d="M205.7,112.8l.5-2c.1.6-.3,1.8-.5,2Z"/>
        <path class="st2" d="M248.8,59.8h-3.5c0,0,3.5,0,3.5,0Z"/>
        <path class="st2" d="M208.2,120.1l-.4-3.8c0-.4.5-1.3.5-1.8v5.6c-.1,0-.2,0-.2,0Z"/>
        <path class="st2" d="M212.4,100.7c0-.6.2-1.6.6-2l-.6,2Z"/>
        <path class="st2" d="M209.3,139.1l-.6-2.8.6,2.8Z"/>
        <path class="st2" d="M209.4,101l.4-1.2-.4,1.2Z"/>
        <path class="st2" d="M209,102.5c-.3-.5,0-1.3.4-1.5l-.4,1.5Z"/>
        <path class="st2" d="M208.7,136.3l-.5-2,.5,2Z"/>
        <path class="st2" d="M211.7,103.1l.7-2.4-.7,2.4Z"/>
        <path class="st2" d="M211.4,150.7l.6-1.5-.6,1.5Z"/>
        <path class="st2" d="M208.5,105.9l.6-3.4-.6,3.4Z"/>
        <path class="st2" d="M211.2,105.1l.5-2-.5,2Z"/>
        <path class="st2" d="M205.7,137.5l-.3-4,.3,4Z"/>
        <path class="st2" d="M210.8,106.6l.4-1.5-.4,1.5Z"/>
        <path class="st2" d="M208,107l.5-1.1-.5,1.1Z"/>
        <path class="st2" d="M205.4,133.5c.2-.3-.5-1-.6-1.2l.6-13.1v14.2Z"/>
        <path class="st2" d="M207.4,108.3l.6-1.3-.6,1.3Z"/>
        <path class="st2" d="M209.5,111.2l.5-1.5-.5,1.5Z"/>
        <path class="st2" d="M210.5,107.7l.3-1.1-.3,1.1Z"/>
        <path class="st2" d="M210,109.7c-.1-.7.2-1.6.5-2l-.5,2Z"/>
        <path class="st2" d="M218.9,65.8l.3-.5-.3.5Z"/>
        <path class="st2" d="M206.8,109.4l.6-1.1-.6,1.1Z"/>
        <path class="st2" d="M209.9,153.8c.4,0,.6,0,.3,0h-.3Z"/>
        <path class="st2" d="M207.4,128v-6.6c0-.2.6-1,.9-1.3l-.9,7.9h0Z"/>
        <path class="st2" d="M207.4,129.8l-.5-1.1c0-.1.4-.3.5-.7v1.8Z"/>
        <path class="st2" d="M210.1,153.7l.7-1.9-.7,1.9Z"/>
        <path class="st2" d="M207.7,132.6c-.2-.7-.3-2.1-.3-2.8.3.6.4,1.8.3,2.8Z"/>
        <path class="st2" d="M208.2,134.3l-.5-1.7.5,1.7Z"/>
        <path class="st2" d="M207.4,143.7c-.2,0-.6-1-.4-1.5l.4,1.5Z"/>
        <path class="st2" d="M363.6,13.8c-.1,0-.4-.4-.6-.4l.6.4Z"/>
        <path class="st2" d="M345.1,6.4l.6-.9c0,.3-.4.8-.6.9Z"/>
        <path class="st2" d="M380.7,54.7l-.5-1,.5,1Z"/>
        <path class="st2" d="M343.8,5.4l1-1.7-.2,1.3c0,.3-.6.4-.8.5Z"/>
        <path class="st2" d="M383.6,53.5s-.6-.4-.8-.5c.1,0,1,.3.8.5Z"/>
        <path class="st2" d="M380.2,53.7l-.5-1,.5,1Z"/>
        <path class="st2" d="M382.8,52.9c-.2-.1-.5-.7-.5-.9l.5.9Z"/>
        <path class="st2" d="M381.1,55.7l-.4-1,.4,1Z"/>
        <path class="st2" d="M384.8,55.8l-.5-1,.5,1Z"/>
        <path class="st2" d="M352.8,4l-.5-.5.5.5Z"/>
        <path class="st2" d="M352.3,3.5l-.5-.5.5.5Z"/>
        <path class="st2" d="M379.7,52.7l-.5-1,.5,1Z"/>
        <path class="st2" d="M379.2,51.7l-.5-1,.5,1Z"/>
        <path class="st2" d="M381.6,57.2l-.4-1.5.4,1.5Z"/>
        <path class="st2" d="M385.3,56.8l-.5-1,.5,1Z"/>
        <path class="st2" d="M351.1,4.4l-.3-.5.3.5Z"/>
        <path class="st2" d="M350.8,3.8l-1.1-1.1c.1,0,.6.2.6.4l.5.7h0Z"/>
        <path class="st2" d="M382.3,52l-.4-1.6.4,1.6Z"/>
        <path class="st2" d="M353.4,4.4l-.6-.5.6.5Z"/>
        <path class="st2" d="M347.2,3l-.9,1.4c0-.6.2-1.3.9-1.4Z"/>
        <path class="st2" d="M344.8,3.7c0-.2.4-.8.5-.9l-.5.9Z"/>
        <path class="st2" d="M378.7,50.7l-.4-1.1c0,.2.3,1,.4,1.1Z"/>
        <path class="st2" d="M351.9,3l-.5-.5.5.5Z"/>
        <path class="st2" d="M345.7,5.5l.6-1.1-.6,1.1Z"/>
        <path class="st2" d="M351.7,5.3l-.5-.9.5.9Z"/>
        <path class="st2" d="M354.3,5l-.9-.6.9.6Z"/>
        <path class="st2" d="M385.8,57.8l-.5-1,.5,1Z"/>
        <path class="st2" d="M354.8,5.5c0,0-.4-.4-.5-.5l.5.5Z"/>
        <path class="st2" d="M381.9,50.5l-.5-1.1.5,1.1Z"/>
        <path class="st2" d="M343.3,6.3l.5-.8-.5.8Z"/>
        <path class="st2" d="M382.1,57.8c0,0-.5-.5-.6-.6l.6.6Z"/>
        <path class="st2" d="M366.7,13.9c0,0-.3-.3-.4-.4l.4.4Z"/>
        <path class="st2" d="M352.1,5.8l-.5-.5.5.5Z"/>
        <path class="st2" d="M355.3,6.1l-.5-.7.5.7Z"/>
        <path class="st2" d="M349.7,2.7l-.5-.4.5.4Z"/>
        <path class="st2" d="M352.6,6.3l-.5-.5.5.5Z"/>
        <path class="st2" d="M347.2,3l.4-.6-.4.6Z"/>
        <path class="st2" d="M356.3,7c-.3-.1-.8-.6-1-.8l1,.8Z"/>
        <path class="st2" d="M382.6,58.3l-.5-.5.5.5Z"/>
        <path class="st2" d="M386.3,59l-.6-1.1.6,1.1Z"/>
        <path class="st2" d="M342.9,6.8l.5-.6-.5.6Z"/>
        <path class="st2" d="M345.3,2.8l.5-.5-.5.5Z"/>
        <path class="st2" d="M344.7,7l.4-.6-.4.6Z"/>
        <path class="st2" d="M349.3,2.3h-1.6c.1-.1.7-.7.9-.5l.8.5Z"/>
        <path class="st2" d="M353.1,6.8l-.5-.5.5.5Z"/>
        <path class="st2" d="M342.3,7.3l.5-.5-.5.5Z"/>
        <path class="st2" d="M344.3,7.6l.4-.6-.4.6Z"/>
        <path class="st2" d="M383,60.8l-.5-2.4.5,2.4Z"/>
        <path class="st2" d="M348.9.4l-1-.2c.1,0,.3-.2.5-.1l.6.4h0Z"/>
        <path class="st2" d="M345.8,2.3l.5-.5-.5.5Z"/>
        <path class="st2" d="M354.6,7.8l-1.5-1,1.2.2c.2,0,.4.6.3.8Z"/>
        <path class="st2" d="M386.9,60.4l-.5-1.4.5,1.4Z"/>
        <path class="st2" d="M357.3,7.5l-1-.5,1,.5Z"/>
        <path class="st2" d="M341.8,7.8l.5-.5-.5.5Z"/>
        <path class="st2" d="M343.6,8.4l.6-.8c-.1.2-.5.7-.6.8Z"/>
        <path class="st2" d="M358.3,8l-1-.5,1,.5Z"/>
        <path class="st2" d="M351.4,2.4l-1-1,1,1Z"/>
        <path class="st2" d="M341.3,8.3l.5-.5-.5.5Z"/>
        <path class="st2" d="M355.6,8.4l-1-.6,1,.6Z"/>
        <path class="st2" d="M358.9,8.4l-.6-.5.6.5Z"/>
        <path class="st2" d="M387.4,62l-.5-1.6.5,1.6Z"/>
        <path class="st2" d="M340.8,9.2l.5-.9-.5.9Z"/>
        <path class="st2" d="M378.3,49.6c-.6-.6-.6-2.3-.5-3.3.4.7.5,2.5.5,3.3Z"/>
        <path class="st2" d="M343.6,8.4l-.8.6c0-.2.6-.6.8-.6Z"/>
        <path class="st2" d="M383.7,61.8c-.2-.2-.6-.8-.7-1.1l.7,1.1Z"/>
        <path class="st2" d="M377.8,46.2l-.6-1.1.6,1.1Z"/>
        <path class="st2" d="M377.2,45.2l-.4-1,.4,1Z"/>
        <path class="st2" d="M381,45c-.4,0-.7-.8-.8-1.1.2.2.8.8.8,1.1Z"/>
        <path class="st2" d="M380.2,43.8l-.4-.4.4.4Z"/>
        <path class="st2" d="M376.8,44.2l-.4-1.5.4,1.5Z"/>
        <path class="st2" d="M379.8,43.4l-.6-.9.6.9Z"/>
        <path class="st2" d="M379.2,42.5c-.1-.2-.5-.9-.6-1.1l.6,1.1Z"/>
        <path class="st2" d="M376.4,42.7l-.7-2.4.7,2.4Z"/>
        <path class="st2" d="M384.1,62.3l-.4-.5c0,0,.6.3.4.5Z"/>
        <path class="st2" d="M387.7,66.1c-.3-1.1-.4-3-.3-4.1.3,1,.3,2.7.3,4.1Z"/>
        <path class="st2" d="M378.6,41.5l-.6-2.9.6,2.9Z"/>
        <path class="st2" d="M350.4,1.4l-.6-.5.6.5Z"/>
        <path class="st2" d="M375.7,40.2l-.5-2c.2.5.5,1.4.5,2Z"/>
        <path class="st2" d="M378.1,38.6l-.3-1.6c.2.3.6,1.1.3,1.6Z"/>
        <path class="st2" d="M384.5,66.7l-.3-4.3.3,4.3Z"/>
        <path class="st2" d="M375.2,38.2l-.4-1.5.4,1.5Z"/>
        <path class="st2" d="M346.3,1.8c0-.3.4-.8.6-.8l-.6.8Z"/>
        <path class="st2" d="M374.8,36.7l-.5-1.5.5,1.5Z"/>
        <path class="st2" d="M377.8,37c-.2-.4-.5-1.4-.5-2l.5,2Z"/>
        <path class="st2" d="M374.3,35.2l-.5-1.5.5,1.5Z"/>
        <path class="st2" d="M377.3,35l-.7-2.4c.6.4.6,1.7.7,2.4Z"/>
        <path class="st2" d="M356.6,9.3l-1-.9c.5,0,1,.4,1,.9Z"/>
        <path class="st2" d="M373.8,33.6l-.6-1.9.6,1.9Z"/>
        <path class="st2" d="M384.2,54.8l-.7-1.4.7,1.4Z"/>
        <path class="st2" d="M376.6,32.6l-.3-1.1.3,1.1Z"/>
        <path class="st2" d="M342.1,9.9l.6-.9-.6.9Z"/>
        <path class="st2" d="M360.3,9.5l-.9-.6.9.6Z"/>
        <path class="st2" d="M340.4,9.9l.4-.7-.4.7Z"/>
        <path class="st2" d="M357.2,9.8l-.6-.5c.2,0,.5.4.6.5Z"/>
        <path class="st2" d="M388.2,67.9c-.3-.3-.5-1.4-.5-1.8l.5,1.8Z"/>
        <path class="st2" d="M376.2,31.5l-.5-1,.5,1Z"/>
        <path class="st2" d="M373.2,31.8l-.5-1.4.5,1.4Z"/>
        <path class="st2" d="M385.1,68.5l-.7-1.8.7,1.8Z"/>
        <path class="st2" d="M360.9,9.9l-.6-.4.6.4Z"/>
        <path class="st2" d="M375.8,30.5l-.4-.5.4.5Z"/>
        <path class="st2" d="M389,69c-.3-.1-.6-.8-.8-1l.8,1Z"/>
        <path class="st2" d="M339.5,10.9l.9-1.1-.9,1.1Z"/>
        <path class="st2" d="M385.4,78.3l-.2-9.8.2,9.8Z"/>
        <path class="st2" d="M341.7,10.4l.5-.5-.5.5Z"/>
        <path class="st2" d="M389,78.8v-9.8c.3,2.6.2,7.3,0,9.8Z"/>
        <path class="st2" d="M375.3,30l-.5-.6.5.6Z"/>
        <path class="st2" d="M358.1,10.4l-.9-.6.9.6Z"/>
        <path class="st2" d="M372.6,30.3l-.5-1.6.5,1.6Z"/>
        <path class="st2" d="M361.4,10.3c-.1.1-.5-.2-.5-.4l.5.4Z"/>
        <path class="st2" d="M341.2,11l.5-.5s-.5.5-.5.5Z"/>
        <path class="st2" d="M374.9,29.4c-.2-.1-.5-.6-.6-1l.6,1Z"/>
        <path class="st2" d="M359.1,10.9l-1-.5,1,.5Z"/>
        <path class="st2" d="M372.1,28.7l-.4-1,.4,1Z"/>
        <path class="st2" d="M362.8,10.9l-1.4-.6c.5.2,1.2.4,1.4.6Z"/>
        <path class="st2" d="M338.7,11.8c0-.3.4-.9.8-.9l-.8.9Z"/>
        <path class="st2" d="M340.7,11.5l.5-.5-.5.5Z"/>
        <path class="st2" d="M387.5,79l-2.1-.7,2.1.7Z"/>
        <path class="st2" d="M389,78.8c0,.1-.8.5-.9.4l-.6-.2,1.5-.2h0Z"/>
        <path class="st2" d="M374.2,28.4c-.2-.3-.4-.9-.4-1.3l.4,1.3Z"/>
        <path class="st2" d="M371.7,27.7l-.5-1,.5,1Z"/>
        <path class="st2" d="M359.7,11.2l-.6-.4.6.4Z"/>
        <path class="st2" d="M371.2,26.7l-.5-1,.5,1Z"/>
        <path class="st2" d="M364,11.8c-.4.1-1-.4-1.1-.8l1.1.8Z"/>
        <path class="st2" d="M340.2,12l.5-.5-.5.5Z"/>
        <path class="st2" d="M370.8,25.8l-.5-1.1.5,1.1Z"/>
        <path class="st2" d="M360.6,11.9l-.9-.6.9.6Z"/>
        <polygon class="st2" points="339.2 13 338.4 13.7 337.9 12.8 338.7 11.8 339.2 13"/>
        <path class="st2" d="M339.7,12.5l.5-.5-.5.5Z"/>
        <path class="st2" d="M373.8,27.1l-.4-2.6.4,2.6Z"/>
        <path class="st2" d="M373.4,24.5l-.7-1.1c.2.2.7.8.7,1.1Z"/>
        <path class="st2" d="M370.3,24.6l-.6-1.4.6,1.4Z"/>
        <path class="st2" d="M361.2,12.3l-.6-.4.6.4Z"/>
        <path class="st2" d="M349.8.9l-.9-.6.9.6Z"/>
        <path class="st2" d="M372.7,23.4l-.4-.4.4.4Z"/>
        <path class="st2" d="M369.7,23.3c-.2,0-.6-.4-.4-.6l.4.6Z"/>
        <path class="st2" d="M372.3,22.9l-.6-.9.6.9Z"/>
        <path class="st2" d="M365.3,12.4l-1.4-.7,1.4.7Z"/>
        <path class="st2" d="M369.3,22.7l-.5-1.5.5,1.5Z"/>
        <path class="st2" d="M371.8,22l-.5-1,.5,1Z"/>
        <path class="st2" d="M339.2,13l.5-.5-.5.5Z"/>
        <path class="st2" d="M371.3,21l-.5-1,.5,1Z"/>
        <path class="st2" d="M368.8,21.1l-.6-1.9.6,1.9Z"/>
        <path class="st2" d="M362,12.8l-.9-.5.9.5Z"/>
        <path class="st2" d="M370.8,20l-.5-1,.5,1Z"/>
        <path class="st2" d="M368.3,19.3l-.5-.6c0,.1.5.5.5.6Z"/>
        <path class="st2" d="M365.8,12.9l-.5-.5c.1,0,.4.4.5.5Z"/>
        <path class="st2" d="M337.2,13.5l.7-.7-.7.7Z"/>
        <path class="st2" d="M370.2,19l-.5-1,.5,1Z"/>
        <path class="st2" d="M367.7,18.7l-.6-.9.6.9Z"/>
        <path class="st2" d="M363.1,13.4l-1-.6,1,.6Z"/>
        <path class="st2" d="M369.8,18c0-.1-.4-.5-.5-.6.2.1.4.3.5.6Z"/>
        <path class="st2" d="M367.1,17.8l-.4-.6.4.6Z"/>
        <path class="st2" d="M369.3,17.5l-.5-.5.5.5Z"/>
        <path class="st2" d="M366.4,13.5l-.5-.6.5.6Z"/>
        <path class="st2" d="M368.8,17l-.5-.5.5.5Z"/>
        <path class="st2" d="M366.7,17.2l-.6-.9.6.9Z"/>
        <path class="st2" d="M368.3,16.5c0,0-.4-.4-.5-.5l.5.5Z"/>
        <path class="st2" d="M366.1,16.4l-.4-.6.4.6Z"/>
        <path class="st2" d="M335.2,15.9h.5c0,.5-.1.4-.5,0Z"/>
        <path class="st2" d="M365.7,15.8l-.5-.6.5.6Z"/>
        <polygon class="st2" points="336.8 15.3 335.8 15.9 335.8 15.5 336.8 15.3"/>
        <path class="st2" d="M336.7,14l.5-.5-.5.5Z"/>
        <path class="st2" d="M335.2,15.9c-.5,0-.2-.3,0-.5v.5Z"/>
        <path class="st2" d="M367.9,15.9l-.6-1.1.6,1.1Z"/>
        <path class="st2" d="M336.8,15.3l.5-.5-.5.5Z"/>
        <polygon class="st2" points="335.8 15.5 335.3 15.4 335.7 14.9 335.8 15.5"/>
        <path class="st2" d="M365.2,15.1l-.9-.9.9.9Z"/>
        <path class="st2" d="M337.3,14.8l.5-.5s-.5.5-.5.5Z"/>
        <path class="st2" d="M335.7,14.9l.5-.4-.5.4Z"/>
        <path class="st2" d="M367.3,14.9l-.5-1s.5,1,.5,1Z"/>
        <path class="st2" d="M364.3,14.2l-.7-.5.7.5Z"/>
        <path class="st2" d="M337.8,14.3l.5-.6-.5.6Z"/>
        <path class="st2" d="M336.2,14.5l.5-.5-.5.5Z"/>
        <path class="st2" d="M347.9.2l-1,.7s1-.8,1-.7Z"/>
        <path class="st2" d="M381.4,49.3c-.7-.8-.7-3.1-.4-4.3l.4,4.3Z"/>
        <path class="st2" d="M359.4,8.9l-.6-.4c.1.1.4.4.6.4Z"/>
        <polygon class="st2" points="291.3 49.8 289.8 49.8 289.8 48.9 291.3 49.8"/>
        <path class="st2" d="M288.3,47.6l-.4-.7c.1-.2.5.5.4.7Z"/>
        <path class="st2" d="M276.9,49.8l.6-.4-.6.4Z"/>
        <path class="st2" d="M291.3,50.2v-.5c.4.1.2.4,0,.5Z"/>
        <path class="st2" d="M271.9,53.2l.5-.5-.5.5Z"/>
        <path class="st2" d="M276.2,53.4l.6-.4-.6.4Z"/>
        <path class="st2" d="M271.4,53.8l.5-.5-.5.5Z"/>
        <path class="st2" d="M287.2,49.2l-.5-.5.5.5Z"/>
        <path class="st2" d="M277.6,52.3l-.9.7.9-.7Z"/>
        <path class="st2" d="M280.9,47.2c.1,0,.5-.4.6-.5,0,0-.5.4-.6.5Z"/>
        <path class="st2" d="M276.2,53.4l-.9.6.9-.6Z"/>
        <path class="st2" d="M282.6,48.8l-1,.6,1-.6Z"/>
        <path class="st2" d="M270.9,54.3l.5-.5-.5.5Z"/>
        <path class="st2" d="M274.6,54.4l.6-.4-.6.4Z"/>
        <path class="st2" d="M268.3,57.5c-.4.1-.8.2-1,.2l-.7-.2h1.6s0,0,0,0Z"/>
        <path class="st2" d="M270.2,57l-1.9.5,1.9-.5Z"/>
        <path class="st2" d="M287.7,49.8l-.5-.5.5.5Z"/>
        <path class="st2" d="M266.6,57.5l-2.2-.6,2.2.6Z"/>
        <path class="st2" d="M270.2,57l.6-.5c0,0-.5.5-.6.5Z"/>
        <path class="st2" d="M278.4,48.8l-.9.6.9-.6Z"/>
        <path class="st2" d="M289.8,48.9l-.9-.5.9.5Z"/>
        <path class="st2" d="M286.7,48.8c-.1-.2-.3-.4-.6-.4l.6.4Z"/>
        <path class="st2" d="M282.6,48.8l.6-.4-.6.4Z"/>
        <path class="st2" d="M264.5,56.9l.3-.7-.3.7Z"/>
        <path class="st2" d="M278.4,48.8l.6-.5-.6.5Z"/>
        <path class="st2" d="M280.9,47.2l-1.1.6,1.1-.6Z"/>
        <path class="st2" d="M276.9,49.8l-1.4.6,1.4-.6Z"/>
        <path class="st2" d="M286.1,48.3l-.8-.5.8.5Z"/>
        <polygon class="st2" points="289.8 50.8 288.2 50.3 289.8 49.8 289.8 50.8"/>
        <path class="st2" d="M285.3,47.8h-1c0,0,.5-.4.5-.4s.3.2.6.4Z"/>
        <path class="st2" d="M284.2,47.9l-1,.5,1-.5Z"/>
        <path class="st2" d="M279.8,47.8l-.9.5.9-.5Z"/>
        <path class="st2" d="M280.2,50.4l.6-.4-.6.4Z"/>
        <path class="st2" d="M274.9,50.8c0-.1.4-.5.6-.4l-.6.4Z"/>
        <path class="st2" d="M280.2,50.4l-.9.6.9-.6Z"/>
        <path class="st2" d="M290.8,50.8l.5-.6-.5.6Z"/>
        <path class="st2" d="M274.4,51.3l.5-.5-.5.5Z"/>
        <path class="st2" d="M288.9,48.4c-.2,0-.5-.7-.6-.8l.6.8Z"/>
        <path class="st2" d="M287.9,46.9l-4.4-.2,4.4.2Z"/>
        <path class="st2" d="M281.6,49.4l-.9.5.9-.5Z"/>
        <path class="st2" d="M278.8,51.4l.5-.4-.5.4Z"/>
        <path class="st2" d="M272.2,55.9l-1.4.5,1.4-.5Z"/>
        <path class="st2" d="M290.8,50.8c0,.2-.6.4-.5.5,0,0-.5-.2-.5-.4h1s0,0,0,0Z"/>
        <path class="st2" d="M273.9,51.7l.5-.4-.5.4Z"/>
        <path class="st2" d="M266,55.7l-1.2.5,1.2-.5Z"/>
        <path class="st2" d="M278.2,51.9l.5-.5-.5.5Z"/>
        <path class="st2" d="M283.4,46.7l-1.6-.5c.2-.2.9-.5,1-.3l.5.8Z"/>
        <path class="st2" d="M273.9,51.7l-.9.6.9-.6Z"/>
        <path class="st2" d="M273.3,55.3l-1.1.6,1.1-.6Z"/>
        <path class="st2" d="M268.8,55.1l-2.9.5,2.9-.5Z"/>
        <path class="st2" d="M273.3,55.3l.5-.4-.5.4Z"/>
        <path class="st2" d="M277.6,52.3l.6-.4-.6.4Z"/>
        <path class="st2" d="M272.4,52.8l.6-.5-.6.5Z"/>
        <path class="st2" d="M281.4,46.8l.5-.6-.5.6Z"/>
        <path class="st2" d="M270.4,54.8c-.2.2-1,.6-1.5.3l1.5-.3Z"/>
        <path class="st2" d="M274.6,54.4l-.9.6.9-.6Z"/>
        <path class="st2" d="M270.4,54.8l.5-.6-.5.6Z"/>
        <path class="st2" d="M288.2,50.3c-.1,0-.5-.4-.5-.5l.5.5Z"/>
        <path class="st2" d="M386.4,90.9l-1.2-.3c.1-.1.6-.6.7-.4,0,0,.5.7.5.7Z"/>
        <path class="st2" d="M384.8,91.2l.5-.6-.5.6Z"/>
        <path class="st2" d="M386.2,94.5l.2-3.6c.5.7.4,2.7-.2,3.6Z"/>
        <path class="st2" d="M384.3,91.8l.5-.5-.5.5Z"/>
        <path class="st2" d="M383.7,92.6l.6-.9-.6.9Z"/>
        <path class="st2" d="M383.7,93.8c-.1,0-.5-.4-.4-.6l.4-.6v1.2h0Z"/>
        <path class="st2" d="M384.1,94.4l-.4-.5.4.5Z"/>
        <path class="st2" d="M386.2,94.5c-.3.4-1.8.3-2.1-.1h2.1Z"/>
        <polygon class="st2" points="332.3 19 331.9 18.8 332.4 18.3 332.3 19"/>
        <polygon class="st2" points="333.3 17.7 333.8 18.4 332.8 19 332.4 18.3 333.3 17.7"/>
        <path class="st2" d="M334.8,17.6l.3-.6c0-.1,0,.1-.3.6Z"/>
        <polygon class="st2" points="331.6 19.4 331.3 19.3 331.9 18.8 331.6 19.4"/>
        <polygon class="st2" points="334.8 17.6 333.8 18.4 333.3 17.7 333.8 16.7 334.8 17.6"/>
        <path class="st2" d="M335.1,17l-1.3-.3c0-.2.6-.5.7-.4,0,0,.6.6.6.7Z"/>
        <path class="st2" d="M330.9,19.7l.6.5c.2.2,0,0-.6-.5Z"/>
        <path class="st2" d="M330.9,19.7l.3-.4-.3.4Z"/>
        <polygon class="st2" points="332.2 19.5 332.3 19 332.8 19 332.2 19.5"/>
        <polygon class="st2" points="331.5 20.2 331.6 19.4 332.2 19.5 331.5 20.2"/>
        <path class="st2" d="M384.7,100.3c.2.3-.6.6-.7.5l-.3-.5h1Z"/>
        <path class="st2" d="M384.7,100.3v-2.5,2.5Z"/>
        <path class="st2" d="M383.7,100.3c-.5-.5-.4-1.7,0-2v2h0Z"/>
        <path class="st2" d="M383.7,98.3l.6-.4-.6.4Z"/>
        <path class="st2" d="M384.7,97.8h-.4c0-.4,0-.4.4,0Z"/>
        <path class="st2" d="M308.9,39.8l-1,.5,1-.5Z"/>
        <path class="st2" d="M307.9,40.3l-1,.5,1-.5Z"/>
        <path class="st2" d="M312.2,40.4l.5-.4-.5.4Z"/>
        <path class="st2" d="M321.2,30.9l.6-1-.6,1Z"/>
        <path class="st2" d="M318.9,30.8l.5-.5-.5.5Z"/>
        <polygon class="st2" points="325.8 24.9 325.8 25.4 324.8 25.4 325.8 24.9"/>
        <path class="st2" d="M297.8,48.3l-1,.5,1-.5Z"/>
        <path class="st2" d="M293.3,49.8c-.4,0-.6-.9-.5-1.1l.5-.3v1.4h0Z"/>
        <path class="st2" d="M318.4,31.3l.5-.5-.5.5Z"/>
        <path class="st2" d="M320.7,31.5l.5-.5-.5.5Z"/>
        <path class="st2" d="M299.1,47.8l-1.3.6,1.3-.6Z"/>
        <path class="st2" d="M326.3,25.4v-.5c0,0,0,.5,0,.5Z"/>
        <path class="st2" d="M317.9,31.8l.5-.5-.5.5Z"/>
        <path class="st2" d="M294.4,47.8l-1,.7,1-.7Z"/>
        <path class="st2" d="M300.1,47.4l-1.1.4,1.1-.4Z"/>
        <path class="st2" d="M294.4,47.8l.5-.4-.5.4Z"/>
        <path class="st2" d="M324,26.4c0-.5.6-1,.9-1l-.9,1Z"/>
        <path class="st2" d="M325.8,26.8v-1.4s.6,0,.6,0c0,.7-.4,1.5-.6,1.5Z"/>
        <path class="st2" d="M301.1,46.9l-1,.5,1-.5Z"/>
        <path class="st2" d="M323.3,27.2l.7-.8-.7.8Z"/>
        <path class="st2" d="M295.9,46.7l-1,.7,1-.7Z"/>
        <path class="st2" d="M296.8,48.9l-1.1.6c.2-.2.7-.5,1.1-.6Z"/>
        <path class="st2" d="M325.8,26.8l-1.6,1.1.4-.7c.1-.2.6-.3,1.3-.4Z"/>
        <path class="st2" d="M302.1,46.3l-1,.5,1-.5Z"/>
        <path class="st2" d="M297.4,46.3l-1.5.4,1.5-.4Z"/>
        <path class="st2" d="M302.1,46.3l.6-.3-.6.3Z"/>
        <path class="st2" d="M297.4,46.3l.6-.5c0,.1-.4.6-.6.5Z"/>
        <path class="st2" d="M323.3,27.2l-.9.8.9-.8Z"/>
        <path class="st2" d="M303.8,45.4l-1.1.6,1.1-.6Z"/>
        <path class="st2" d="M297.9,45.7l.4-.4s-.3.3-.4.4Z"/>
        <path class="st2" d="M304.8,44.9l-1,.5,1-.5Z"/>
        <path class="st2" d="M326.2,24.8h-.5c0-.5.3-.2.5,0Z"/>
        <path class="st2" d="M299.4,44.7l-1.1.7,1.1-.7Z"/>
        <path class="st2" d="M305.8,44.4l-1,.5,1-.5Z"/>
        <path class="st2" d="M301,44.3l-1.6.4,1.6-.4Z"/>
        <path class="st2" d="M306.8,43.9l-1,.5,1-.5Z"/>
        <path class="st2" d="M301.9,43.8c-.2.1-.7.4-.9.5l.9-.5Z"/>
        <path class="st2" d="M307.7,43.5l-.9.4.9-.4Z"/>
        <path class="st2" d="M321.3,28.9l1.1-1-1.1,1Z"/>
        <path class="st2" d="M301.9,43.8c0,0,.4-.6.5-.6l-.5.6Z"/>
        <path class="st2" d="M320.2,32l.5-.5-.5.5Z"/>
        <path class="st2" d="M307.7,43.5l.6-.5-.6.5Z"/>
        <path class="st2" d="M303.8,42.7l-1.4.5,1.4-.5Z"/>
        <path class="st2" d="M322.6,29.4l-.8.5c0-.2.6-.5.8-.5Z"/>
        <path class="st2" d="M319.4,30.3l.5-.5-.5.5Z"/>
        <path class="st2" d="M317.4,32.3l.5-.5-.5.5Z"/>
        <path class="st2" d="M319.7,32.4l.5-.5-.5.5Z"/>
        <path class="st2" d="M316.9,32.8l.5-.5-.5.5Z"/>
        <path class="st2" d="M319.2,33l.5-.5c0,0-.4.5-.5.5Z"/>
        <path class="st2" d="M309.1,42.4l-.9.5.9-.5Z"/>
        <path class="st2" d="M316.4,33.3l.5-.5-.5.5Z"/>
        <path class="st2" d="M318.7,33.8l.5-.8-.5.8Z"/>
        <path class="st2" d="M303.8,42.7l.5-.3-.5.3Z"/>
        <path class="st2" d="M320.8,29.3l-.9.5.9-.5Z"/>
        <path class="st2" d="M310.1,41.9l-1,.5,1-.5Z"/>
        <path class="st2" d="M315.9,33.8l.5-.5c0,0-.4.4-.5.5Z"/>
        <path class="st2" d="M315.3,34.7l.6-.9-.6.9Z"/>
        <path class="st2" d="M318.3,34.5l.5-.7-.5.7Z"/>
        <path class="st2" d="M317.7,35.4l.6-.9-.6.9Z"/>
        <path class="st2" d="M314.8,35.7l.5-1-.5,1Z"/>
        <path class="st2" d="M305.3,41.7l-1,.7,1-.7Z"/>
        <path class="st2" d="M322.6,29.4l.6-.5-.6.5Z"/>
        <path class="st2" d="M295.3,49.8c-.5.6-1.7.5-2,0h2Z"/>
        <path class="st2" d="M317.2,35.9l.5-.5-.5.5Z"/>
        <path class="st2" d="M320.8,29.3l.5-.3-.5.3Z"/>
        <path class="st2" d="M314.3,36.7l.5-1-.5,1Z"/>
        <path class="st2" d="M316.7,36.5l.5-.5-.5.5Z"/>
        <path class="st2" d="M316.3,36.9l.4-.4-.4.4Z"/>
        <path class="st2" d="M314.3,36.7c0,.2-.6.6-.9.6l.9-.6Z"/>
        <path class="st2" d="M311.1,41.4l-1,.5,1-.5Z"/>
        <path class="st2" d="M323.2,29l.5-.5-.5.5Z"/>
        <path class="st2" d="M305.3,41.7l.6-.4-.6.4Z"/>
        <path class="st2" d="M315.7,37.5l.6-.6-.6.6Z"/>
        <path class="st2" d="M312.9,37.8l.6-.4-.6.4Z"/>
        <path class="st2" d="M315.2,37.9l.5-.5-.5.5Z"/>
        <path class="st2" d="M312.9,37.8l-.9.6.9-.6Z"/>
        <path class="st2" d="M314.7,38.5l.5-.5-.5.5Z"/>
        <path class="st2" d="M312,38.3l-1,.5,1-.5Z"/>
        <path class="st2" d="M314.2,39l.5-.5-.5.5Z"/>
        <path class="st2" d="M311,38.8l-1,.5,1-.5Z"/>
        <path class="st2" d="M313.7,39.4l.5-.5-.5.5Z"/>
        <path class="st2" d="M295.3,49.8l.4-.4-.4.4Z"/>
        <path class="st2" d="M323.7,28.5l.4-.5c0,.1-.3.5-.4.5Z"/>
        <path class="st2" d="M311.1,41.4c.1,0,.5-.4.6-.4-.1.2-.3.4-.6.4Z"/>
        <path class="st2" d="M309.9,39.3l-1,.5,1-.5Z"/>
        <path class="st2" d="M313.7,39.4l-.9.6.9-.6Z"/>
        <path class="st2" d="M306.9,40.8l-1,.5,1-.5Z"/>
        <path class="st2" d="M311.7,40.9l.5-.5-.5.5Z"/>
        <path class="st2" d="M259.4,56.8l-.4-.3c-.2-.2.2.2.4.3Z"/>
        <path class="st2" d="M258.9,58.3c0,.1-.5.5-.4.5,0,0-.4-.2-.6-.3l1-.2h0Z"/>
        <path class="st2" d="M257.9,58.5h-.6c0-.1,0-.6,0-.6h.3c.2-.2.1.2.3.6h0Z"/>
        <path class="st2" d="M258.9,58.3v-.4c-.1,0,.4,0,.4,0,0,0-.3.3-.4.4Z"/>
        <polygon class="st2" points="258.8 57.8 257.6 57.9 259 56.5 258.8 57.8"/>
        <polygon class="st2" points="260.3 56.8 260.3 57.5 259.3 57.8 259.4 56.8 260.3 56.8"/>
        <path class="st2" d="M256.8,58.3v-.5c0,0,0,.5,0,.5Z"/>
        <path class="st2" d="M261.2,57.4l-.4-.7.4.7Z"/>
        <path class="st2" d="M257.4,57.9h-.5c0,0,.5,0,.5,0Z"/>
        <path class="st2" d="M256.8,58.3h.5c-.2.2-.4.3-.5,0Z"/>
        <path class="st2" d="M260.3,57.5h.9c0,0-.9,0-.9,0Z"/>
        <path class="st2" d="M260.9,56.7h-.5c0,.1.5,0,.5,0Z"/>
        <path class="st2" d="M253.8,58.3h-.5c0-.4.2-.2.5,0Z"/>
        <path class="st2" d="M252.1,58.1l-.3,1.2c-.2,0-.4,0-.3-.1l-.7-.5,1.3-.7h0Z"/>
        <path class="st2" d="M250.9,59.4v-.6s0,.6,0,.6Z"/>
        <polygon class="st2" points="253.3 59.3 253.4 58.9 253.9 58.8 253.3 59.3"/>
        <path class="st2" d="M253.3,59.3c0,.2-.5.6-.7.5l-.8-.5h1.5Z"/>
        <path class="st2" d="M250.9,59.4l.6-.2c-.3.4-.4.3-.6.2Z"/>
        <polygon class="st2" points="253.3 58.4 253.4 58.9 252.4 58.5 253.3 58.4"/>
        <path class="st2" d="M252.4,58.5l-.3-.4.3.4Z"/>
        <path class="st2" d="M253.9,58.8v-.5c0,0,0,.5,0,.5Z"/>
        <path class="st2" d="M329.7,22.5l.5-.5-.5.5Z"/>
        <path class="st2" d="M327.3,22.8l.5-.5-.5.5Z"/>
        <path class="st2" d="M330.4,20.9l-.4-.3c-.2-.2,0,0,.4.3Z"/>
        <path class="st2" d="M328.3,23.9c-.1.2-.6.6-.8.5l-1.1-.6h1.9Z"/>
        <path class="st2" d="M328.3,23.9l.4-.4-.4.4Z"/>
        <path class="st2" d="M326.4,23.8s.2-.3.4-.5l-.4.5Z"/>
        <path class="st2" d="M328.7,23.5l.5-.5-.5.5Z"/>
        <path class="st2" d="M329.3,21.2l.7-.7-.7.7Z"/>
        <path class="st2" d="M330.2,22l.2-1.1c0,0,.5.6.3.7l-.6.4Z"/>
        <path class="st2" d="M329.3,21.2l-.9.6.9-.6Z"/>
        <path class="st2" d="M327.9,22.3l.5-.5-.5.5Z"/>
        <path class="st2" d="M326.8,23.3l.6-.5-.6.5Z"/>
        <path class="st2" d="M329.2,23l.5-.5-.5.5Z"/>
        <g>
          <path class="st2" d="M289.3,249.2h-1.9c.2-.3.8-.6,1-.5l.9.5h0Z"/>
          <path class="st2" d="M307.9,259.3c-.1.1-.7.5-.8.4l-.4-.6,1.1.2Z"/>
          <path class="st2" d="M251.1,189.9c-.1.3,0,.2.3-.6l-.3.6Z"/>
          <path class="st2" d="M379.7,109.8l.5-1-.5,1Z"/>
          <path class="st2" d="M382.8,109.2l.5-1-.5,1Z"/>
          <path class="st2" d="M375.7,120.2c0,.2.4-.3.6-.5,0,0-.5.4-.6.5Z"/>
          <path class="st2" d="M380.2,108.8l.5-1-.5,1Z"/>
          <path class="st2" d="M375.7,120.2l-1,3.1c-1.4,4.5-4,2.9-1.4,11.1l1.6,5.1,1.6,8.3,2.2,9.7,1.5,9.4,1.5,9.5,1,5.9,1,6.6,1.3,8.7,2.7,15.7.3,9.4c0,1.7-1.1,2.7-2.3,3.7-2.6,2.3-4.2,2.6-8.2.3l-3.9-2.3c-1.1-.7-2.1-1.4-3.5-1.3-2.7.3-4.4-.4-6.8-1.3l-7.3-.3-7-.4-15,1.8-12.5,1.4-11.9,1.7-8.3.3c-4,.1-7.6.1-11.6-.1-5.7-.4-11.6,0-16.6,2.3l-3.5,3.5c1.7,3.3,3.5,6.7,4.1,10.2-.3,0-.6,1.2-.6,1.7l-4.8-8.6-3.7.4c0-1,.1-2.5.5-3.1l2.3-3.5-7.7,1.7-9.5,3-9.2,3.6-5.3,1.8-11,4.8-12.3,5.7-3.3,1.7c-3.1,1.6-6.5,2.7-9,5-1.1,1-2.2,1.4-3.2.7-.7-.4-1-2.8-.3-3.1l6.1-3c2.9-1.4,5.4-3.8,7.9-5.9,1.6-1.4,3.4-2.7,4.4-4.7.6-1.3-.8-3.6-1.2-4.9l-1.6-5.6-2-9-.8-5.1-.6-4.5-1.2-6.8-1.4-9.8c-.5-3.6-2.3-7.2-2.3-10.9v-15.6c.1,0-6.6-4.3-6.6-4.3-.6-.4-1.6-1.8-1.4-2.4,1-.1,2.6-.1,3.2.1l5,2,.9-4.7c1.5-.6,2.9,1,2.9,2.3v5.6s4.2,2.8,4.2,2.8c2,1.4,3.6,3.4,5.2,5.2l9.9,10.6c4.4,4.7,5.5-1.6,12.1.3l7.8,2.3c.6.2,1.6,1.4,1.3,1.9-.9,1.3-4.2.4-3.6,1.3l.9,1.2,4,.5c.8.4,2.2.5,2.7,0l-1.8-3c.5,0,.6-.2.3-.6l1.8.5,9.2,3.2.7,2.2c2.3-.2,2.9.4,4,1.6l5.5,6c1.3,1.5,2.2,3.1,2.8,4.8h-.6s-.7,0-.7,0l-2.5-1.5c1.6,2.6,2.5,4.1,2.8,6.9l2.6,3.3c0-1.1.1-2.1,0-2.7h.5c.4,1.1.5,1.1.8,0l1,5.1c.2.9-.4,2.5-1,3.8,1.1.5,2.9.6,4.6.3,3.1-.4,6.3,0,9.4,0h11.2s10.7-1.1,10.7-1.1l14.4-2.1,16.5-1.7,7-.3,8.5.3c2.9,0,5.7,0,8.2,1.4,8.1,0,12.3,6.9,15.4,4.6,1.4-4.1-.4-7.9-1-11.9l-.8-6.1-1.5-8.1-1.5-8.1-2.6-15.3-1.3-7.6-1.8-9.8-.5-3.2c-1.1-3.4-1.7-6.6-2-10-.7-1-1.8-2.8-2-3.9l-1-5.3c-.4-2.4-.6-5.4.7-7.5l2.9-4.7,2-2.9c0,.4.1.9.4.8l1.1-.4h0ZM209.3,173.8c.4-.2,1.4-1,1.1-1.2l-1.5-1.3.4,2.5h0ZM227.3,190.6c-1.9-3-3.2-4.7-5.4-6.4l2.8,7.6,2.6-1.1h0ZM214.5,191.8l.4-.3v-3.3c-.1,0-.6.3-.6.3v3.3ZM211,197.8l.4-.3v-2.8c-.1,0-.6.3-.6.3v2.8ZM231.2,207.1v-8.7c0-1.2-.9-2.6-1.9-3.5l-4.1,6.7c-2,2.4-2.6,6.4-.8,9,2.8.1,6.9-1.4,6.8-3.5h0ZM259.9,195.6l.3-.2-.3.2ZM260.6,195.6l-.2.6,1.7,2.2,3.2,4.8,1.4-2.6-2.7-3c-1.1-1.2-1.9-2.1-3.3-1.9h0ZM235,204.3c1-.8,1.6-1.9,1.4-2.7-.2-.6-1-1.3-2-1.9,0,2,.1,3.1.6,4.6ZM245.8,225.1l2.1,5.7c4.1-.3,9.9-2.4,9.8-3.1l-.3-2c-.6-3.6-2.2-6.6-3.6-9.8-.8-1.9-.7-4-2.1-6.1-.8-1.1-1.2-3.9-1.5-5.3-2-.5-3.2-1.1-4.4-2.7l-3.8-1.2c-.2,3,2,5,5,4.6l1.7,4.1c.9,2.3,1.6,4,3.2,5.9s2.1,4.1,2.3,6.5c.1,1.5.7,4.1.1,5.4-.8,1.9-4.2,2-5.8,1.2l-2.2-3.5-.3.4h0ZM219.9,209l-.2-4.7c-1.2,1.7-1.3,3.9-.2,5l.4-.2ZM220.2,209.8v-.6s0,.6,0,.6ZM231.9,211.5l2.2.6c.3,0,.4-1.1.3-1.3l-.8-1.2-1.7,1.9h0ZM243,214.4l-.8-4.2c-1.3,1.6-.5,3.6.3,4.4l.5-.2h0ZM222.6,211.7l-.2.2.2.2.2-.2-.2-.2ZM219,217l-2.4-4.3c-.5,1.6,0,3.2,1,4.7l.5.8c0,.1,1-1.1.9-1.2h0ZM243.1,214.7l-.3,1.1c-.3.2,1.1.2,1,0l-.7-1.1h0ZM241.8,233.5l-2.5-5.4c-2.1-4.5-1-8.4-3.7-8.8-.5,0-1.5,1.4-1.3,2l2.7,7.6c.7,2,.8,3.6.9,5.9l3.9-1.3h0ZM273.3,223.5c1.5-.7,2.8-1.7,2.4-3.5l-4,1.6c-.4.1-.6,1.4-.3,1.6s1.4.4,1.8.2h0ZM217.7,224.8l-2.2-2.6.5,4.6,1.8-2h0ZM245.6,223.9v.8c0,0,0-.8,0-.8ZM230.5,231.6l.2-.3-.2.3ZM231,231.7l-.2.2v3.3c-.1.7.7,2.5,1.2,2.2l2.4-1.1-3.5-4.7h0ZM224.9,238.4l-1.7-6.1c-1.6,1.4-.2,2.3-.1,3.3l.7,5.9c1.1-.7,1.5-2.1,1.2-3.1h0Z"/>
          <path class="st2" d="M383.2,108.2l.5-1-.5,1Z"/>
          <path class="st2" d="M376.4,119.7l.5-.6-.5.6Z"/>
          <path class="st2" d="M374.2,119.8c0-.2.5-.6.5-.4l-.5.4Z"/>
          <path class="st2" d="M383.8,107.2l.4-.9-.4.9Z"/>
          <path class="st2" d="M380.7,107.8l.6-1.8-.6,1.8Z"/>
          <path class="st2" d="M374.7,119.4c.2-.3.6-.6.5-.6,0,0-.4.5-.5.6Z"/>
          <path class="st2" d="M376.8,119.2l.5-.9-.5.9Z"/>
          <path class="st2" d="M381.4,106c-.1-.6.3-1.2.3-1.1l-.3,1.1Z"/>
          <path class="st2" d="M384.2,106.3v-2c.6.4.4,1.6,0,2Z"/>
          <path class="st2" d="M276.4,209.4c0,0-.6.5-.7.4l-.4-.6,1.1.2h0Z"/>
          <path class="st2" d="M381.7,105l.5-.7-.5.7Z"/>
          <path class="st2" d="M384.2,104.3h-2.1c.5-.7,1.9-.5,2.1,0Z"/>
          <path class="st2" d="M377.4,118.3l.4-.7-.4.7Z"/>
          <path class="st2" d="M375.1,118.8l.6-1.1-.6,1.1Z"/>
          <path class="st2" d="M377.8,117.6l.5-.9-.5.9Z"/>
          <polygon class="st2" points="274.7 208.2 274.2 207.6 275 207.7 274.7 208.2"/>
          <path class="st2" d="M375.7,117.8l.5-1-.5,1Z"/>
          <polygon class="st2" points="276.6 209 275.2 209.1 274.7 208.2 275.5 207.7 276.6 209"/>
          <path class="st2" d="M378.3,116.7l.5-.6-.5.6Z"/>
          <path class="st2" d="M381.7,111.2l.5-1-.5,1Z"/>
          <path class="st2" d="M376.2,116.8l.5-1-.5,1Z"/>
          <path class="st2" d="M276.4,209.4l.3-.4-.3.4Z"/>
          <path class="st2" d="M378.8,116.2l.5-.9-.5.9Z"/>
          <path class="st2" d="M278.1,212.2l-.7-.3.7.3Z"/>
          <path class="st2" d="M277.2,213.7l-.3-1.1c0-.2.1-.3.5-.7l-.2,1.9h0Z"/>
          <path class="st2" d="M379.3,115.3l.5-1-.5,1Z"/>
          <path class="st2" d="M378.6,112.3l.6-1.4-.6,1.4Z"/>
          <polygon class="st2" points="278.5 213.8 277.7 213.7 278.1 212.2 278.5 213.8"/>
          <path class="st2" d="M285.4,249.3l-1.6-.2c.4-.3.9-.5,1-.4l.5.5h0Z"/>
          <path class="st2" d="M376.7,115.8l.6-1.3-.6,1.3Z"/>
          <path class="st2" d="M274.8,243.8l-.6-.4c-.2-.1-.2-.6-.3-1.1l.9,1.5h0Z"/>
          <path class="st2" d="M275.2,245.4l-.5-1.6c.4.2.6,1.1.5,1.6Z"/>
          <path class="st2" d="M273.4,250.5v-6.6c.6,2,.4,4.8,0,6.6Z"/>
          <path class="st2" d="M381.2,112.1l.5-1-.5,1Z"/>
          <path class="st2" d="M275.7,246.9l-.5-1.5c.3.2.5,1.1.5,1.5Z"/>
          <path class="st2" d="M277.3,248.7l-1.1-.2c-.4,0-.3-1.3-.4-1.7l1.6,1.8Z"/>
          <path class="st2" d="M281.9,248.5h-3.5c.8-.4,2.6-.4,3.5,0Z"/>
          <path class="st2" d="M378.2,112.8l.3-.5c.3,0-.1.4-.3.5Z"/>
          <path class="st2" d="M278.5,248.4c-.1,0-.6.7-.6.7,0,0-.5-.3-.6-.4l1.2-.3h0Z"/>
          <path class="st2" d="M283.7,249.3l-1.7-.8,1.7.8Z"/>
          <path class="st2" d="M379.2,110.9l.5-1.1-.5,1.1Z"/>
          <path class="st2" d="M382.2,110.2l.5-1-.5,1Z"/>
          <path class="st2" d="M380.8,112.7l.4-.6-.4.6Z"/>
          <path class="st2" d="M292,249h-1.1c0,0,1.1,0,1.1,0Z"/>
          <path class="st2" d="M283.7,249.3c-.2,0,0-.2.1-.1-.1.1-.5.5-.1.1Z"/>
          <path class="st2" d="M286.5,249.7l-1.1-.4,1.1.4Z"/>
          <path class="st2" d="M286.8,249.6l.6-.6-.6.6Z"/>
          <path class="st2" d="M290.9,249l-.6.5c-.2.1-.7-.2-1-.4h1.6q0-.1,0-.1Z"/>
          <path class="st2" d="M293.9,249.6l-1.8-.7,1.8.7Z"/>
          <path class="st2" d="M286.5,249.7c0,0,.4,0,.4,0-.2.3-.5.7-.4,0Z"/>
          <path class="st2" d="M294.4,250.4l-.5-.7.5.7Z"/>
          <path class="st2" d="M295.6,250.6l-1.2-.3c.2,0,.8.4,1.2.3Z"/>
          <path class="st2" d="M377.6,113.8l.6-1.1-.6,1.1Z"/>
          <path class="st2" d="M380.3,113.2l.5-.6c-.3.3-.6.6-.5.6Z"/>
          <path class="st2" d="M274.2,251.1l-.8-.6.8.6Z"/>
          <path class="st2" d="M379.8,114.3l.6-1.1-.6,1.1Z"/>
          <path class="st2" d="M282.8,251.2h-5c1.1-.7,3.8-.8,5,0Z"/>
          <path class="st2" d="M377.3,114.5l.3-.7-.3.7Z"/>
          <path class="st2" d="M290.3,251.2h-5c1.1-.7,3.5-.6,5,0Z"/>
          <path class="st2" d="M297.4,251.1l-1.9-.5,1.9.5Z"/>
          <path class="st2" d="M274.8,251.6l-.5-.6.5.6Z"/>
          <path class="st2" d="M277.8,251.2l-.9.6.9-.6Z"/>
          <path class="st2" d="M285.3,251.2c-1,.6-1.8.5-2.5,0h2.5Z"/>
          <path class="st2" d="M290.7,251.9l-.4-.7.4.7Z"/>
          <path class="st2" d="M298.4,251.8l-1-.6,1,.6Z"/>
          <path class="st2" d="M276.8,251.8l-1.2.5c-.2,0-.7-.4-.9-.6h2.1Z"/>
          <path class="st2" d="M294,252.3l-3.3-.4,3.3.4Z"/>
          <path class="st2" d="M299.8,252.3l-1.4-.5c.5,0,1.2.2,1.4.5Z"/>
          <path class="st2" d="M295.1,252.7c-.2-.1-.9-.4-1.1-.4.4-.3,1,.2,1.1.4Z"/>
          <path class="st2" d="M300.4,252.8l-.5-.5.5.5Z"/>
          <path class="st2" d="M295.8,253l-.6-.4.6.4Z"/>
          <path class="st2" d="M300.9,253.3c-.1,0-.5-.5-.6-.6l.6.6Z"/>
          <path class="st2" d="M296.8,253.7l-1-.6,1,.6Z"/>
          <path class="st2" d="M302.3,253.7l-1.4-.4,1.4.4Z"/>
          <path class="st2" d="M297.8,254l-1-.4c.2.1.8.4,1,.4Z"/>
          <path class="st2" d="M302.9,254.3l-.6-.6.6.6Z"/>
          <path class="st2" d="M300.4,255.1l-2.6-1.1h1.8c.4.2.6.7.8,1.1h0Z"/>
          <path class="st2" d="M303.4,254.8c-.1,0-.5-.4-.5-.5l.5.5Z"/>
          <path class="st2" d="M304.8,255.3l-1.4-.5,1.4.5Z"/>
          <path class="st2" d="M300.8,255.5l-.4-.4.4.4Z"/>
          <path class="st2" d="M305.5,255.7l-.7-.3.7.3Z"/>
          <path class="st2" d="M306.5,256.2l-1-.5,1,.5Z"/>
          <path class="st2" d="M303.1,256.6l-1-.5,1,.5Z"/>
          <path class="st2" d="M307.4,256.8l-.9-.6c.2.1.8.4.9.6Z"/>
          <path class="st2" d="M304.2,257.2l-1-.6,1,.6Z"/>
          <path class="st2" d="M307.9,257.6l-.5-.9.5.9Z"/>
          <path class="st2" d="M304.8,257.5l-.6-.4.6.4Z"/>
          <path class="st2" d="M305.7,258.1l-.9-.5.9.5Z"/>
          <path class="st2" d="M307.9,259.3v-1.7s.4.8.4.8c.1.2-.2.7-.4.9h0Z"/>
          <path class="st2" d="M306.2,258.6l-.5-.5.5.5Z"/>
          <path class="st2" d="M306.7,259.1l-.5-.5.5.5Z"/>
          <path class="st2" d="M302.2,256.1l-1.4-.6,1.4.6Z"/>
        </g>
      </g>
    </g>
  </g>
</svg>