<?xml version="1.0" encoding="UTF-8"?>
<svg id="Layer_2" xmlns="http://www.w3.org/2000/svg" version="1.1" viewBox="0 0 368.8 308.5">
  <!-- Generator: Adobe Illustrator 30.3.0, SVG Export Plug-In . SVG Version: 2.1.3 Build 182)  -->
  <defs>
    <style>
      .st0 {
        stroke-linecap: round;
        stroke-linejoin: round;
        stroke-width: .5px;
      }

      .st0, .st1, .st2, .st3, .st4 {
        fill: #73993e;
      }

      .st0, .st3, .st4 {
        stroke: #73993e;
      }

      .st1, .st2 {
        font-family: MADECarvingSoftPERSONALUSE-Bold, 'MADE Carving Soft PERSONAL USE';
        font-size: 20.7px;
        font-weight: 700;
      }

      .st5, .st2 {
        isolation: isolate;
      }

      .st3 {
        stroke-width: 1px;
      }

      .st3, .st4 {
        stroke-miterlimit: 10;
      }

      .st4 {
        stroke-width: .9px;
      }
    </style>
  </defs>
  <g class="st5">
    <g class="st5">
      <text class="st2" transform="translate(42.8 39.6)"><tspan x="0" y="0">irl.wwwegetables.net</tspan></text>
    </g>
  </g>
  <g class="st5">
    <text class="st2" transform="translate(255.8 85.3)"><tspan x="0" y="0">finkenau 42</tspan></text>
  </g>
  <g class="st5">
    <g class="st5">
      <text class="st2" transform="translate(196.5 162.3)"><tspan x="0" y="0">collective</tspan></text>
    </g>
  </g>
  <g class="st5">
    <g class="st5">
      <text class="st2" transform="translate(251.4 178)"><tspan x="0" y="0">dinners</tspan></text>
    </g>
  </g>
  <g class="st5">
    <g class="st5">
      <text class="st2" transform="translate(41.7 210.5)"><tspan x="0" y="0">shared</tspan></text>
    </g>
  </g>
  <path class="st3" d="M11.4,256.4l.4-.6-.4.6Z"/>
  <path class="st3" d="M14.9,257.2l.4-.6-.4.6Z"/>
  <path class="st3" d="M13.9,258.1l.5-.5-.5.5Z"/>
  <path class="st3" d="M9.4,258.8c0,0,.5-.5.6-.5l-.6.5Z"/>
  <path class="st3" d="M13.4,258.7l.6-.6-.6.6Z"/>
  <path class="st3" d="M1.1,278.8l-.7-1.5.7,1.5Z"/>
  <path class="st3" d="M9,260.1l.4-1.4-.4,1.4Z"/>
  <path class="st3" d="M13,259.5l.5-.9-.5.9Z"/>
  <path class="st3" d="M12.6,260l.4-.6-.4.6Z"/>
  <path class="st3" d="M8.5,260.6l.5-.5c.2,0-.2.3-.5.5Z"/>
  <path class="st3" d="M11.9,260.9l.6-.9-.6.9Z"/>
  <path class="st3" d="M8,261.1l.5-.5-.5.5Z"/>
  <path class="st3" d="M14.4,257.7l.5-.5-.5.5Z"/>
  <path class="st3" d="M4.4,285.3l-.5-.4.5.4Z"/>
  <path class="st3" d="M12.3,255.5l.5-.5-.5.5Z"/>
  <path class="st3" d="M7.5,261.6l.5-.5s-.5.5-.5.5Z"/>
  <path class="st3" d="M12.8,255l.5-.5-.5.5Z"/>
  <path class="st3" d="M11.5,261.5l.4-.6-.4.6Z"/>
  <path class="st3" d="M7.1,262.1c0,0,.5-.5.6-.5l-.6.5Z"/>
  <path class="st3" d="M11.2,261.9l.4-.6-.4.6Z"/>
  <path class="st3" d="M4.9,285.3l-.2-1c.4.3.5.8.6.8s-.2.2-.3.3h0Z"/>
  <path class="st3" d="M4,284.9l-.5-.5.5.5Z"/>
  <path class="st3" d="M6.6,263.5l.5-1.3-.5,1.3Z"/>
  <path class="st3" d="M10.6,263l.6-1-.6,1Z"/>
  <path class="st3" d="M10,263.8l.5-1-.5,1Z"/>
  <path class="st3" d="M15.7,255.8v-1.9c.4.3.7,1,.5,1.1l-.5.8h0Z"/>
  <path class="st3" d="M13.3,254.4l.5-.5-.5.5Z"/>
  <path class="st3" d="M6.1,263.9l.5-.5c.2,0-.2.3-.5.5Z"/>
  <path class="st3" d="M5.7,264.5l.4-.5-.4.5Z"/>
  <path class="st3" d="M15.7,253.9l-.5-.5.5.5Z"/>
  <path class="st3" d="M13.8,253.9l.5-.5-.5.5Z"/>
  <path class="st3" d="M9.7,264.2c0,0,.2-.2.4-.4,0,0-.2.3-.4.4Z"/>
  <path class="st3" d="M3.4,284.4l-.5-.5.5.5Z"/>
  <path class="st3" d="M5.2,265.4l.6-.9-.6.9Z"/>
  <path class="st3" d="M9.2,264.8l.6-.5-.6.5Z"/>
  <path class="st3" d="M8.7,265.3l.5-.5-.5.5Z"/>
  <path class="st3" d="M4.8,265.8l.4-.5-.4.5Z"/>
  <path class="st3" d="M8.2,265.8l.5-.5-.5.5Z"/>
  <path class="st3" d="M4.3,266.4l.5-.5-.5.5Z"/>
  <path class="st3" d="M7.6,266.6l.6-.9-.6.9Z"/>
  <path class="st3" d="M15.3,253.5h-1c.2-.3.6-.7.7-.5l.3.5Z"/>
  <path class="st3" d="M3.8,266.9l.5-.5-.5.5Z"/>
  <path class="st3" d="M1.6,280.6l-.6-1.8c.2.4.5,1.3.6,1.8Z"/>
  <path class="st3" d="M10.5,257.8l.5-.5-.5.5Z"/>
  <path class="st3" d="M3,283.9l-.5-.6c0,0,.4.5.5.6Z"/>
  <path class="st3" d="M10.9,257.3l.6-.9-.6.9Z"/>
  <path class="st3" d="M15.3,256.6l.5-.8-.5.8Z"/>
  <path class="st3" d="M3.5,267.5c0-.4.4-.7.3-.6,0,0-.3.5-.3.6Z"/>
  <path class="st3" d="M2,282.4l-.4-1.8.4,1.8Z"/>
  <path class="st3" d="M4.1,282.3c0-.5-.3-1.4-.3-1.9l.3,1.9Z"/>
  <path class="st3" d="M4.7,284.3l-.6-1.9.6,1.9Z"/>
  <path class="st3" d="M2.6,283.5c-.3-.2-.7-.8-.5-1l.5,1Z"/>
  <path class="st3" d="M7.3,267.1l.4-.6-.4.6Z"/>
  <path class="st3" d="M3,269.2l.6-1.8-.6,1.8Z"/>
  <path class="st3" d="M6.9,267.7l.4-.6c-.2.3-.6.6-.4.6Z"/>
  <path class="st3" d="M6.2,268.7l.6-1-.6,1Z"/>
  <path class="st3" d="M5.7,269.8l.6-1.2-.6,1.2Z"/>
  <path class="st3" d="M2.4,269.8l.5-.6-.5.6Z"/>
  <path class="st3" d="M1.9,270.7l.5-.9-.5.9Z"/>
  <path class="st3" d="M5.4,270.5l.3-.7-.3.7Z"/>
  <path class="st3" d="M1.4,271.6l.5-.9-.5.9Z"/>
  <path class="st3" d="M4.8,271.5l.7-1-.7,1Z"/>
  <path class="st3" d="M1,272l.5-.4-.5.4Z"/>
  <path class="st3" d="M4.4,272l.4-.5-.4.5Z"/>
  <path class="st3" d="M.3,273.1l.7-1.1c0,0-.4.8-.7,1.1Z"/>
  <path class="st3" d="M3.9,273.5c-.3-.3,0-1.1.5-1.4l-.5,1.4Z"/>
  <path class="st3" d="M.4,277.3c-.5-1-.6-3.3,0-4.2v4.2Z"/>
  <path class="st3" d="M11.8,255.9l.5-.5-.5.5Z"/>
  <path class="st3" d="M3.8,280.5c-.2-.5-.6-1.8-.5-2.8l.7-4.3v7h-.2Z"/>
  <path class="st3" d="M9.9,258.2l.5-.5-.5.5Z"/>
  <path class="st3" d="M18.1,250.6c-.6-.6-.5-2,0-2.4v2.4Z"/>
  <g>
    <path class="st4" d="M170.1,133l-2-4.8-3-6.4-2.2-4.8-3.2-7.1-3-7.3-2.3-5.7-2.7-6.5-3.5-7.8-1.8-4.6-1.8-5.3-2.9-6.6-1.5-4-1.6-4.2c-1-2.6-1.8-4.9-2.4-8.1l.9-1.1,2.2,5.4,3.2,8.5,3.9,9.4,1.5,3.9,3.5,8.3,5.1,12.9,2.4,5.6,2.5,6.4,8.6,19,1.2,3,3,7.9c1.2,3,2.2,6.1,3,9.4l-.6.7-1.2-2.8-3.1-7.1-2.6-6.1h.3Z"/>
    <path class="st0" d="M111,257c.7-.2,1.9-.2,3-.2,0,1.1-.4,2.6-1.1,3.1l-6.9,1.7c-2.4.6-5,.4-7.6,0-2.5,2.6-1.6,6.1-5.2,9-1.1,1.4-2.4,2.4-4.2,2.7-2,2.7-4.4,4.8-7.2,6.6l-4.7,3-2.7,1.9c-1.9,1.3-5,1.1-7.2,1.8-2.5.8-3.7.6-5.6-1.5-.9-1-2.6-2.7-3.2-4-1.9-3.7-2.7-7.9-2.9-12.2l-.4-11.1c0-1-.4-2.7.2-3.3,1.8-.3,2.7,1.4,2.7,3.2v11.7c0,0,1.1,6.5,1.1,6.5.4,2.9,1.5,5,3.4,7,1.4,1.4,4.1,2.3,6,1,2.3-1.6,4.6-2.7,7.2-3.6l2.7-1.9,2.7-2.2c1.6-1.2,2.7-2.5,4.3-3.4,3.2-1.7,8.8-8.6,8.8-10.9l.2-7c2.3-.6,3,1.2,3.6,3.3.5,1.7,3.2,1,4.3.8l8.1-2h0Z"/>
    <path class="st0" d="M71.5,157.4c0,0-.8-.7-.8-.4v1.3s0,1,0,1c0,.2.2-.5.4-.6l.5-.2-1.9,6.7c-.4,1.5-.5,3.3-.4,4.9,4.6,1.5,7,6.9,5,7.9s-6.1-1-7.2-3.4c-.8-1.8-1.4-2.9-3.4-3.1l-.9-3.2,3.4-.4,3.8-9.7c1.7-5.8,1.7-11,.6-16.9-.7-3.7-.2-11,1.1-10.9.5,0,1.2.4,1.7.6s.3,1.8,0,2.3c-.9,1.2-1.1,3.2-.9,4.9l.9,7c.4,3.7,0,9.5-1.9,12.4h0Z"/>
    <path class="st0" d="M71.6,158.4v-1c.2,0,.4.5.4.6l-.4.5Z"/>
    <path class="st0" d="M5.5,286.6l.7-.3c1.9-.2,4.8-.2,6.6-1.3l9-5.4c.9-.6,1.7-1.4,2.6-1.4s1.5,2.2,1,2.8c-2.1,2.4-4.7,3.6-7.2,5.1-1.9,1.1-3.5,2-5.8,2.4-3.4.6-5.4,1-6.9-1.8h0Z"/>
    <path class="st0" d="M162.2,294.3l-5.3.9c.5-.5,1.1-.9,1.4-.9h3.9Z"/>
    <path class="st0" d="M147.9,295.1c-.3,0-.9-.6-.9-.8l.9.8Z"/>
    <path class="st0" d="M163.6,293.8l-1.4.5c.3,0,1.1-.4,1.4-.5Z"/>
    <path class="st0" d="M163.6,293.8l.5-.4-.5.4Z"/>
    <path class="st0" d="M156.9,293.5c-1.8.7-4.1.6-5.9,0h5.9Z"/>
    <path class="st0" d="M150.3,293.3l-.9.7c-.2,0-.8-.2-1-.5l1.9-.2Z"/>
    <path class="st0" d="M165.3,293l-1.1.5,1.1-.5Z"/>
    <path class="st0" d="M160.3,293c-.9.3-2.2.5-3.4.5,1-.6,2.1-.3,3.4-.5Z"/>
    <path class="st0" d="M147,294.3l-2.8-.9,2.5-.6c0,.2.3,0,.4,0v1.4h0Z"/>
    <path class="st0" d="M144.2,293.5l-.6-.6s.5.6.6.6Z"/>
    <path class="st0" d="M165.3,293c-.2,0-.2-.2,0-.8v.8h0Z"/>
    <path class="st0" d="M162.5,292.2l-2.2.8,2.2-.8Z"/>
    <path class="st0" d="M148,293h-1c0-.2.4-.7.5-.5l.4.5h0Z"/>
    <path class="st0" d="M146.7,292.9l-.7-.6.7.6Z"/>
    <path class="st0" d="M143.6,293l-.4-.6.4.6Z"/>
    <path class="st0" d="M165.4,292.2h-2.8c.8-.4,1.9-.2,2.8,0Z"/>
    <path class="st0" d="M145.9,292.3l-1.4-.5,1.4.5Z"/>
    <path class="st0" d="M143.1,292.4q-.4,0,0-.9v.9Z"/>
    <path class="st0" d="M144.5,291.9l-1.4-.3c0,0,1,.2,1.4.3Z"/>
    <path class="st0" d="M148.3,293.5l-.4-.5.4.5Z"/>
    <path class="st0" d="M151,293.4h-.8c0,0,.8,0,.8,0Z"/>
    <path class="st0" d="M184,282.4l-.8-.6.8.6Z"/>
    <path class="st0" d="M179.2,278.1l-.4-.5.4.5Z"/>
    <path class="st0" d="M212.5,290.1l-1.3-.7,1.3.7Z"/>
    <path class="st0" d="M174.6,273.4l-1-.4c.2,0,.8.4,1,.4Z"/>
    <path class="st0" d="M243.9,290.1l-.5-.5.5.5Z"/>
    <path class="st0" d="M173.6,273l-.9-.5.9.5Z"/>
    <path class="st0" d="M169.6,273.8l-.5-1.2c.2.3.5,1,.5,1.2Z"/>
    <path class="st0" d="M170.1,277.1l-.4-3.3.4,3.3Z"/>
    <path class="st0" d="M172.8,272.4l-.5-.4.5.4Z"/>
    <polygon class="st0" points="171.8 274.1 170.9 277.8 170.9 274 171.8 274.1"/>
    <path class="st0" d="M178.5,274.9l-1-1,1,1Z"/>
    <path class="st0" d="M205.2,290.3l-1.9-.3,1.9.3Z"/>
    <path class="st0" d="M243.3,289.7l-.4-.5.4.5Z"/>
    <path class="st0" d="M172.3,272l-.5-.4.5.4Z"/>
    <path class="st0" d="M246.3,298.1v-3.8c.5,1,.5,3,0,3.8Z"/>
    <path class="st0" d="M169.1,272.4l-.6-1c.2,0,.5.7.6,1Z"/>
    <path class="st0" d="M245,295.6l-.4-1.2c.2.2.4,1,.4,1.2Z"/>
    <path class="st0" d="M214.2,290.7l-1.7-.6c.5,0,1.3.2,1.7.6Z"/>
    <path class="st0" d="M228,294.8l-1.4-.6,1.4.6Z"/>
    <path class="st0" d="M244.7,291.1l-.8-1,.8,1Z"/>
    <path class="st0" d="M171.8,271.7l-.8-.6.8.6Z"/>
    <path class="st0" d="M168.5,271.5l-.4-.5.4.5Z"/>
    <path class="st0" d="M171,271.1l-.5-.4.5.4Z"/>
    <path class="st0" d="M168.1,270.9l-.4-.6.4.6Z"/>
    <path class="st0" d="M206,291.1l-.9-.8.9.8Z"/>
    <path class="st0" d="M214.7,291.2c0,0-.5-.5-.5-.5l.5.5Z"/>
    <path class="st0" d="M170.4,270.7s-.4-.5-.4-.5c0,0,.4.5.4.5Z"/>
    <path class="st0" d="M242.7,291l-.5-.5.5.5Z"/>
    <path class="st0" d="M167.8,270.4l-.5-.9.5.9Z"/>
    <path class="st0" d="M207.7,291.5l-1.7-.4,1.7.4Z"/>
    <path class="st0" d="M170,270.1l-.4-.9.4.9Z"/>
    <path class="st0" d="M167.2,269.6l-.4-.6.4.6Z"/>
    <path class="st0" d="M216.7,291.7l-2.1-.5,2.1.5Z"/>
    <path class="st0" d="M243.2,291.8l-.5-.9c0,0,.4.7.5.9Z"/>
    <path class="st0" d="M169.5,269.3l-.5-1,.5,1Z"/>
    <path class="st0" d="M219.8,294.8l-.4-.5.4.5Z"/>
    <path class="st0" d="M166.8,269l-.4-.9.4.9Z"/>
    <path class="st0" d="M217.6,294.2c0,0,.4,0,.4,0h-.4Z"/>
    <path class="st0" d="M169.1,268.3l-.4-.6.4.6Z"/>
    <path class="st0" d="M245.1,291.9l-.4-.9.4.9Z"/>
    <path class="st0" d="M166.5,268.2l-.4-1,.4,1Z"/>
    <path class="st0" d="M211.2,289.5c-.6.2-1.7,0-2.1-.4.6,0,1.7.2,2.1.4Z"/>
    <path class="st0" d="M200.7,289.8l-1.7-.5,1.7.5Z"/>
    <path class="st0" d="M246.3,294.3l-.4-.4c0,0,.4.4.4.4Z"/>
    <path class="st0" d="M168.7,267.8l-.4-.9.4.9Z"/>
    <path class="st0" d="M244.6,294.2l-.4-.6.4.6Z"/>
    <path class="st0" d="M209.2,291.8l-1.5-.4,1.5.4Z"/>
    <path class="st0" d="M226.6,294.2l-2.1-.4c.7,0,1.7.2,2.1.4Z"/>
    <path class="st0" d="M219.5,294.3h-1.4s.8-.4.8-.4c.2,0,.5.3.6.5h0Z"/>
    <path class="st0" d="M217.6,294.2l-1.7-.5,1.7.5Z"/>
    <path class="st0" d="M219,292.2l-2.2-.5,2.2.5Z"/>
    <path class="st0" d="M168.3,266.9l-.4-.5.4.5Z"/>
    <path class="st0" d="M165.9,267.3l-.5-1,.5,1Z"/>
    <path class="st0" d="M242.9,289.2l-.4-.5.4.5Z"/>
    <path class="st0" d="M167.9,266.3l-.4-.5.4.5Z"/>
    <path class="st0" d="M165.5,266.2l-.4-.6.4.6Z"/>
    <path class="st0" d="M241.4,289.5l-.4-.9.4.9Z"/>
    <path class="st0" d="M209,289.1l-1.9-.3c.6-.3,1.5.2,1.9.3Z"/>
    <path class="st0" d="M224.5,293.8c-.6,0-1.4-.2-1.9-.4l1.9.4Z"/>
    <path class="st0" d="M199,289.2l-1.4-.6,1.4.6Z"/>
    <path class="st0" d="M215.9,293.8l-1-.5,1,.5Z"/>
    <path class="st0" d="M242.4,288.7l-.4-.5.4.5Z"/>
    <path class="st0" d="M167.4,265.8l-.5-.9.5.9Z"/>
    <path class="st0" d="M165.1,265.7l-.4-.8.4.8Z"/>
    <path class="st0" d="M207.1,288.8l-2.6-.4,2.6.4Z"/>
    <path class="st0" d="M166.9,265l-.4-.7.4.7Z"/>
    <path class="st0" d="M197.6,288.6c-.2,0-.8-.3-1-.4l1,.4Z"/>
    <path class="st0" d="M241,288.6l-.4-1,.4,1Z"/>
    <path class="st0" d="M173.4,274.7l-1.6-.6,1.6.6Z"/>
    <path class="st0" d="M204.5,288.4c0,0-.5-.6-.5-.6,0-.2.5.2.5.6Z"/>
    <path class="st0" d="M196.7,288.3l-3-.5,3,.5Z"/>
    <path class="st0" d="M166.5,264.4l-.5-.9.5.9Z"/>
    <path class="st0" d="M211,292.3l-1.8-.5,1.8.5Z"/>
    <path class="st0" d="M166.1,263.6l-.8-.7c.3.2.7.5.8.7Z"/>
    <path class="st0" d="M164.7,264.8l-.5-1.1c0-.2.2-.6.5-1v2.2s0,0,0,0Z"/>
    <path class="st0" d="M246,293.9l-.4-1,.4,1Z"/>
    <path class="st0" d="M174.2,275.3l-.9-.6.9.6Z"/>
    <path class="st0" d="M244.1,293.8l-.4-1,.4,1Z"/>
    <path class="st0" d="M222.7,293.5c-.4-.3-1.1-.3-1.2-.6l1.2.6Z"/>
    <path class="st0" d="M178.9,275.4l-.4-.6.4.6Z"/>
    <path class="st0" d="M214.9,293.3l-2.1-.5,2.1.5Z"/>
    <path class="st0" d="M220.3,292.4l-1.3-.3c.4-.2,1.1,0,1.3.3Z"/>
    <path class="st0" d="M165.2,262.8l-.5-.2.5.2Z"/>
    <path class="st0" d="M174.8,275.7l-.6-.4.6.4Z"/>
    <path class="st0" d="M179.3,275.8l-.4-.5.4.5Z"/>
    <path class="st0" d="M242,288.2c0,0-.4-.7-.5-.9l.5.9Z"/>
    <path class="st0" d="M243.7,292.8l-.4-1,.4,1Z"/>
    <path class="st0" d="M204,287.8l-2.6-.5,2.6.5Z"/>
    <path class="st0" d="M193.7,287.8c-.3,0-1-.5-1.2-.7l1.2.7Z"/>
    <path class="st0" d="M176.4,276.1l-1.6-.6,1.6.6Z"/>
    <path class="st0" d="M179.8,276.3l-.4-.5.4.5Z"/>
    <path class="st0" d="M245.5,292.9l-.4-1,.4,1Z"/>
    <path class="st0" d="M212.8,292.7l-1.8-.5,1.8.5Z"/>
    <path class="st0" d="M240.6,287.8l-.4-1,.4,1Z"/>
    <path class="st0" d="M177.8,276.8l-1.3-.6,1.3.6Z"/>
    <path class="st0" d="M221.4,292.9l-1.1-.5,1.1.5Z"/>
    <path class="st0" d="M180.2,276.8l-.4-.5.4.5Z"/>
    <path class="st0" d="M201.4,287.4l-1.4-.4,1.4.4Z"/>
    <path class="st0" d="M178.3,277.2l-.4-.4c.2-.2.4.3.4.4Z"/>
    <path class="st0" d="M180.7,277.3l-.4-.5.4.5Z"/>
    <path class="st0" d="M192.3,287.2l-.5-.4c.2-.3.5.3.5.4Z"/>
    <path class="st0" d="M241.5,287.4l-.4-1,.4,1Z"/>
    <path class="st0" d="M199.9,287l-2-.6,2,.6Z"/>
    <path class="st0" d="M191.9,286.8l-1.8-.5,1.8.5Z"/>
    <path class="st0" d="M240.2,286.8l-.4-1,.4,1Z"/>
    <path class="st0" d="M170.4,277.7c-.3,0-.6-.5-.4-.6l.4.6Z"/>
    <path class="st0" d="M178.7,277.6l-.4-.5.4.5Z"/>
    <path class="st0" d="M197.9,286.3l-1.3-.6,1.3.6Z"/>
    <path class="st0" d="M190.1,286.3l-1.2-.6,1.2.6Z"/>
    <path class="st0" d="M181,277.7l-.4-.4.4.4Z"/>
    <path class="st0" d="M196.6,285.8c-.5.2-1.4,0-1.7-.5.4,0,1.3.3,1.7.5Z"/>
    <path class="st0" d="M188.8,285.8l-.9-.5.9.5Z"/>
    <path class="st0" d="M170.4,277.7h.4s-.4,0-.4,0Z"/>
    <path class="st0" d="M203.3,290.1l-2.7-.4,2.7.4Z"/>
    <path class="st0" d="M241.1,286.4l-.4-1.5.4,1.5Z"/>
    <path class="st0" d="M181.5,278.2l-.5-.6.5.6Z"/>
    <path class="st0" d="M177.5,273.8c-.8,0-2.3,0-2.8-.5.8,0,2.4,0,2.8.5Z"/>
    <path class="st0" d="M194.9,285.3l-1.5-.3,1.5.3Z"/>
    <path class="st0" d="M187.9,285.3l-.9-.5.9.5Z"/>
    <path class="st0" d="M179.7,279l-.5-.9.5.9Z"/>
    <path class="st0" d="M193.4,285c-.3,0-1-.4-1.2-.6l1.2.6Z"/>
    <path class="st0" d="M182,278.7l-.5-.5.5.5Z"/>
    <path class="st0" d="M187,284.8l-.9-.5.9.5Z"/>
    <path class="st0" d="M240.7,284.9l-.4-1,.4,1Z"/>
    <path class="st0" d="M239.7,285.8l-.4-1.1c0-.2.2-.6.5-1v2.3h0Z"/>
    <path class="st0" d="M192.2,284.5l-.5-.4.5.4Z"/>
    <path class="st0" d="M186.2,284.3l-.8-.5.8.5Z"/>
    <path class="st0" d="M240.3,283.8l-.5-.3.5.3Z"/>
    <path class="st0" d="M191.6,284.1l-1.7-.7c.6,0,1.4.2,1.7.7Z"/>
    <path class="st0" d="M182.8,279.3l-.8-.6.8.6Z"/>
    <path class="st0" d="M185.4,283.8l-.4-.5.4.5Z"/>
    <path class="st0" d="M181,279.9c-.5,0-1.2-.7-1.3-1l.8.4c.2,0,.4.5.5.7Z"/>
    <path class="st0" d="M183.3,279.7l-.5-.4.5.4Z"/>
    <path class="st0" d="M190,283.5c-.4,0-1.1-.2-1.3-.5l1.3.5Z"/>
    <path class="st0" d="M184.9,283.4l-.4-.5.4.5Z"/>
    <path class="st0" d="M183.9,280l-.5-.4.5.4Z"/>
    <path class="st0" d="M182.3,280.4l-1.2-.5,1.2.5Z"/>
    <path class="st0" d="M184.6,280.6l-.8-.6.8.6Z"/>
    <path class="st0" d="M188.6,282.9l-1-.4,1,.4Z"/>
    <path class="st0" d="M184.5,282.8l-.4-.5.4.5Z"/>
    <path class="st0" d="M187.7,282.5l-1-.6,1,.6Z"/>
    <path class="st0" d="M182.8,281.4l-.5-1c.2,0,.4.8.5,1Z"/>
    <path class="st0" d="M185.1,281.1l-.5-.5.5.5Z"/>
    <path class="st0" d="M185.9,281.6l-.8-.4.8.4Z"/>
    <path class="st0" d="M183.2,281.8c0,0-.4-.3-.4-.5,0,0,.4.5.4.5Z"/>
    <path class="st0" d="M186.8,282l-.9-.5.9.5Z"/>
    <path class="st0" d="M242.3,290.5c-.2-.2-.7-.8-.8-1l.8,1Z"/>
    <path class="st0" d="M37.3,167.7h-1.4c.2-.3.6-.5.8-.4l.5.4h0Z"/>
    <path class="st0" d="M35.7,177.2c-1.6.3-3.4.2-5-.4l5,.4Z"/>
    <path class="st0" d="M35.7,177.2l.4-.7-.4.7Z"/>
    <path class="st0" d="M30.6,176.8l-5.5-.5c1.8,0,4,0,5.5.5Z"/>
    <path class="st0" d="M25.1,176.3l-.9-.5.9.5Z"/>
    <path class="st0" d="M36.1,176.5l.7-1-.7,1Z"/>
    <path class="st0" d="M31.3,175.4l-.4.4-.5-.4h.9Z"/>
    <path class="st0" d="M32.3,175.7l-1-.3c.3-.3.5-.5.5-.4s.4.7.4.7h0Z"/>
    <path class="st0" d="M30.5,175.4l-1.3-.4c.7,0,1.1.2,1.3.4Z"/>
    <path class="st0" d="M24.3,175.8c-.3,0-.6-.5-.5-.7s.4-.5.5-.3v1Z"/>
    <path class="st0" d="M29.1,175h-4.9c1.2-.7,3.7-.7,4.9,0Z"/>
    <path class="st0" d="M36.9,175.6l.3-5.3-.3,5.3Z"/>
    <path class="st0" d="M37.2,170.2c0-.2.3-.3.3-.4l-.3.4Z"/>
    <path class="st0" d="M32.3,175.7c.5-.2,1.6,0,1.6-.6v-1.7c0-1.1.2-3,.4-3.7v6.2s-2.1-.2-2.1-.2h0Z"/>
    <path class="st0" d="M37.4,169.7l.6-.9-.6.9Z"/>
    <path class="st0" d="M34.4,169.7c0-.3.4-1,.5-1l-.5,1Z"/>
    <path class="st0" d="M38.1,168.9l.3-.5-.3.5Z"/>
    <path class="st0" d="M35,168.7l.4-.6-.4.6Z"/>
    <path class="st0" d="M38.3,168.4l-1.1-.7,1.1.7Z"/>
    <path class="st0" d="M35.4,168.2l.4-.6-.4.6Z"/>
    <path class="st0" d="M171.8,285.3v-4.8c.7,1.5.5,3.5,0,4.8Z"/>
    <path class="st0" d="M170.3,289.8c-.3-.9-.4-2,0-2.5v2.5Z"/>
    <path class="st0" d="M171.8,280.5l-.5-1,.5,1Z"/>
    <path class="st0" d="M170.3,287.4l.6-7.6v6.4c0,.2-.5,1-.6,1.2h0Z"/>
    <path class="st0" d="M170.3,289.8l.6-.2-.6.2Z"/>
    <path class="st0" d="M170.9,289.7l.7-.7-.7.7Z"/>
    <path class="st0" d="M171.6,289c-.4-1-.4-2.7.2-3.7l-.2,3.7Z"/>
    <path class="st0" d="M171.2,279.6l-.4.2.4-.2Z"/>
    <path class="st0" d="M223.4,273.8l-.5-.4.5.4Z"/>
    <path class="st0" d="M242.9,258.8l-1.3-.5,1.3.5Z"/>
    <path class="st0" d="M213.7,255.5l-1.8-.5,1.8.5Z"/>
    <path class="st0" d="M230.9,255.4l-1.2-.4,1.2.4Z"/>
    <path class="st0" d="M224.2,256.4l.4-.6-.4.6Z"/>
    <path class="st0" d="M221.2,257.9l.4-2.2c0,1-.2,2.1-.4,2.2Z"/>
    <path class="st0" d="M215.1,256.3l-.9-.5.9.5Z"/>
    <path class="st0" d="M210.2,260c-.5-.9-.5-3.1,0-4.3v4.3Z"/>
    <path class="st0" d="M237.6,278.2l-.8-.6.8.6Z"/>
    <path class="st0" d="M272.8,256.1l.4-1-.4,1Z"/>
    <path class="st0" d="M231.8,255.9l-1-.5,1,.5Z"/>
    <path class="st0" d="M226,255.9h-1.4c.3-.5.8-.6,1-.5l.4.5h0Z"/>
    <path class="st0" d="M221.5,255.8c0,0,.5-.4.6-.5l-.6.5Z"/>
    <path class="st0" d="M214.3,255.8l-.5-.4.5.4Z"/>
    <path class="st0" d="M210.2,255.8l.5-.5-.5.5Z"/>
    <path class="st0" d="M226.6,273.5l-.9-.5.9.5Z"/>
    <path class="st0" d="M222.7,273.5l-1.2-.6,1.2.6Z"/>
    <path class="st0" d="M225.7,273l-.9-.5.9.5Z"/>
    <path class="st0" d="M221.5,272.9l-.8-.6.8.6Z"/>
    <path class="st0" d="M224.9,272.4l-.5-.3.5.3Z"/>
    <path class="st0" d="M220.7,272.4l-.5-.4c.3.2.6.5.5.4Z"/>
    <path class="st0" d="M224.5,274.3c-.3,0-.9-.4-1.1-.5l1.1.5Z"/>
    <path class="st0" d="M224.3,272.1l-1-.6,1,.6Z"/>
    <path class="st0" d="M220.2,271.9l-.4-.4c.3,0,.5.4.4.4Z"/>
    <path class="st0" d="M275,255.9l.5-1-.5,1Z"/>
    <path class="st0" d="M229.1,274.5c-.4,0-1.3-.3-1.7-.5l1.7.5Z"/>
    <path class="st0" d="M234,256.5l-2.1-.6,2.1.6Z"/>
    <path class="st0" d="M222.1,255.3l.4-.5-.4.5Z"/>
    <path class="st0" d="M223.4,271.6l-.9-.5.9.5Z"/>
    <path class="st0" d="M219.7,271.6l-1.2-.6,1.2.6Z"/>
    <path class="st0" d="M274.5,257.2l.4-1.2-.4,1.2Z"/>
    <path class="st0" d="M222.5,271.1l-.8-.5.8.5Z"/>
    <path class="st0" d="M218.5,271l-.5-.6.5.6Z"/>
    <path class="st0" d="M211.6,254.9l-.9.5.9-.5Z"/>
    <path class="st0" d="M273.3,255.2l.4-.9-.4.9Z"/>
    <path class="st0" d="M229.5,255.1l-1.7-.5,1.7.5Z"/>
    <path class="st0" d="M222.6,254.8l.4-.6-.4.6Z"/>
    <path class="st0" d="M212,255c0,0-.4,0-.4,0h.4,0Z"/>
    <path class="st0" d="M228,254.5l-.5-.6.5.6Z"/>
    <path class="st0" d="M221.8,270.6l-.5-.5.5.5Z"/>
    <path class="st0" d="M218,270.5l-.8-.5.8.5Z"/>
    <path class="st0" d="M227.4,254l-.9-.6.9.6Z"/>
    <path class="st0" d="M221.2,270.1l-.8-.5.8.5Z"/>
    <path class="st0" d="M225.2,253.5l-.4.3c-.2,0-.5,0-.8-.2l1.2-.2h0Z"/>
    <path class="st0" d="M223,254.2l.4-.9-.4.9Z"/>
    <path class="st0" d="M234.8,278.5l-1-.3,1,.3Z"/>
    <path class="st0" d="M217.2,269.9l-.9-.5.9.5Z"/>
    <path class="st0" d="M226.5,253.5h-1.3c0,0,.5-.6.7-.5l.6.5h0Z"/>
    <path class="st0" d="M224,253.7l-.4-.2.4.2Z"/>
    <path class="st0" d="M220.4,269.7l-.5-.4.5.4Z"/>
    <path class="st0" d="M216.3,269.5s-.2,0-.4-.5l.4.5Z"/>
    <path class="st0" d="M275.6,254.9v-4.2c.6,1,.5,3.2,0,4.2Z"/>
    <path class="st0" d="M233.8,278.2l-1.7-.5,1.7.5Z"/>
    <path class="st0" d="M275.7,250.7c-.2-.4-.6-1-.6-1.1l.6,1.1Z"/>
    <path class="st0" d="M275.1,249.7l-.4-.7.4.7Z"/>
    <path class="st0" d="M238.6,279l-1-.8,1,.8Z"/>
    <path class="st0" d="M273.6,254.3l.2-5.4-.2,5.4Z"/>
    <path class="st0" d="M274.6,249h-.8s.8,0,.8,0Z"/>
    <path class="st0" d="M219.9,269.3l-.8-.5.8.5Z"/>
    <path class="st0" d="M215.9,269.1l-.4-.5.4.5Z"/>
    <path class="st0" d="M215.9,256.8l-.8-.5.8.5Z"/>
    <path class="st0" d="M219.1,268.7l-.4-.5.4.5Z"/>
    <path class="st0" d="M215.3,268.6l-.5-.4.5.4Z"/>
    <path class="st0" d="M223.9,257.5c0-.4.2-.9.3-1l-.3,1Z"/>
    <path class="st0" d="M229.1,256.6l-1.4-.3,1.4.3Z"/>
    <path class="st0" d="M214.8,268.2c-.2,0-.7-.4-.8-.6l.8.6Z"/>
    <path class="st0" d="M235.5,256.9l-1.5-.4,1.5.4Z"/>
    <path class="st0" d="M218.6,268.2l-1-1,1,1Z"/>
    <path class="st0" d="M217.7,267.2l-1.2-.5c.4,0,1,.3,1.2.5Z"/>
    <path class="st0" d="M214.1,267.6l-.5-.9.5.9Z"/>
    <path class="st0" d="M216.5,266.7l-.5-.4.5.4Z"/>
    <path class="st0" d="M213.6,266.7l-.4-.6.4.6Z"/>
    <path class="st0" d="M216,266.3l-.5-.4.5.4Z"/>
    <path class="st0" d="M215.5,265.9l-.8-.6.8.6Z"/>
    <path class="st0" d="M213.2,266.1l-.5-.9.5.9Z"/>
    <path class="st0" d="M214.7,265.3c0,0-.4-.3-.4-.4-.2,0,.2.3.4.4Z"/>
    <path class="st0" d="M212.8,265.3l-.6-.7.6.7Z"/>
    <path class="st0" d="M212.1,264.6l.3-.3-.3.3Z"/>
    <path class="st0" d="M214.3,264.9l-.4-1,.4,1Z"/>
    <path class="st0" d="M212.4,264.3l-.2-.8c0,.3.3.4.5.4l-.4.4h0Z"/>
    <path class="st0" d="M225.6,274.7l-1.1-.4,1.1.4Z"/>
    <path class="st0" d="M272.5,256.7l.4-.6-.4.6Z"/>
    <path class="st0" d="M229.7,274.9l-.6-.4.6.4Z"/>
    <path class="st0" d="M260.5,263c-.6.6-1.2.4-2.2-.2l2.2.2Z"/>
    <path class="st0" d="M220.7,263.1c-.2,0-.7.5-.9.3l-.4-.5,1.3.2h0Z"/>
    <path class="st0" d="M213.7,263.9h-1l.2-1c.2,0,.7.8.8,1h0Z"/>
    <path class="st0" d="M236.8,277.8l-.9-.5.9.5Z"/>
    <path class="st0" d="M266.1,262.9h-5.7s5.7,0,5.7,0Z"/>
    <path class="st0" d="M258.3,262.8l-2.2-.5,2.2.5Z"/>
    <path class="st0" d="M216.4,257.4c-.3-.2-.5-.6-.4-.6s.4.5.4.6Z"/>
    <path class="st0" d="M221.6,262.5l-1,.6,1-.6Z"/>
    <path class="st0" d="M219.4,262.9l-.4-.5.4.5Z"/>
    <polygon class="st0" points="212.9 263 212.2 263.6 211.5 263 212 262.5 212.9 263"/>
    <path class="st0" d="M226.5,275.3l-1-.6,1,.6Z"/>
    <path class="st0" d="M211.5,263v-.7s0,.7,0,.7Z"/>
    <path class="st0" d="M230.6,275.5l-.9-.6.9.6Z"/>
    <path class="st0" d="M256.1,262.3l-2.2-.5,2.2.5Z"/>
    <path class="st0" d="M221.6,262.5c0-.2.4-.6.4-.4,0,0-.4.4-.4.4Z"/>
    <path class="st0" d="M218.9,262.4l-.5-.5.5.5Z"/>
    <path class="st0" d="M226.9,275.8l-.4-.4.4.4Z"/>
    <path class="st0" d="M235.2,279.2l-.4-.7.4.7Z"/>
    <path class="st0" d="M269.8,261.5c-.4.5-1.6.5-2.2,0h2.2Z"/>
    <path class="st0" d="M266.1,262.9l.5-1.3-.5,1.3Z"/>
    <path class="st0" d="M253.8,261.8l-2.3-.3,2.3.3Z"/>
    <path class="st0" d="M218.4,261.9l-.7-.5.7.5Z"/>
    <path class="st0" d="M212,262.5c0,0-.2,0-.4,0h0c0,0-.3-.5-.3-.5l-.3-.4h.5v.3s.3.4.3.4l.3.4h0Z"/>
    <path class="st0" d="M232,275.8c-.5,0-1.1-.2-1.4-.4l1.4.4Z"/>
    <path class="st0" d="M232.1,257l-3-.4,3,.4Z"/>
    <path class="st0" d="M269.8,261.5l.4-.4-.4.4Z"/>
    <path class="st0" d="M267.5,261.6h-.9c0-.3.5-.7.5-.5l.3.5h0Z"/>
    <path class="st0" d="M251.5,261.6c-1.7-.2-3.4,0-4.9-.3l3.7-.2c.4,0,1.1.5,1.1.5Z"/>
    <path class="st0" d="M210.9,261.5c0,0-.3-.2-.4-.6l.4.6Z"/>
    <path class="st0" d="M238.2,257.3c-1,0-2,0-2.7-.3l2.7.3Z"/>
    <path class="st0" d="M272.1,257.6l.4-.9-.4.9Z"/>
    <path class="st0" d="M237,279.8l-1.8-.5,1.8.5Z"/>
    <path class="st0" d="M239.3,279.6l-.7-.6.7.6Z"/>
    <path class="st0" d="M232.1,277.8l-1-.4,1,.4Z"/>
    <path class="st0" d="M216.9,258.2l-.4-.9.4.9Z"/>
    <path class="st0" d="M270.1,261.1s.4-.4.5-.5c0,0-.3.2-.5.5Z"/>
    <path class="st0" d="M262.9,260.6c-1.3.7-2.8.8-3.8,0h3.8Z"/>
    <path class="st0" d="M246.6,261.2l-2.2-.6,2.2.6Z"/>
    <path class="st0" d="M222.1,262.1l.4-1.2-.4,1.2Z"/>
    <path class="st0" d="M217.7,261.5l-1.3-1,.9.4c.2,0,.4.5.4.7h0Z"/>
    <path class="st0" d="M227.7,276.3l-.8-.6c.4.2.9.5.8.6Z"/>
    <path class="st0" d="M233.7,276.1l-1.7-.4,1.7.4Z"/>
    <path class="st0" d="M237.9,280.5l-.9-.8.8.3c0,0,.3.5,0,.5h0Z"/>
    <path class="st0" d="M271.5,260.1l-1,.6,1-.6Z"/>
    <path class="st0" d="M266.7,260.3l-3.8.3c.5-.6,2.5-.6,3.8-.3Z"/>
    <path class="st0" d="M259.2,260.6l-5-.3,5,.3Z"/>
    <path class="st0" d="M244.4,260.7l-1.3-.4,1.3.4Z"/>
    <path class="st0" d="M219.9,260.5l.4-.5-.4.5Z"/>
    <path class="st0" d="M219.9,260.5l-.8.6c-.3.2-.7-.9-.6-1l1.4.4h0Z"/>
    <path class="st0" d="M211.4,261.5l.4-1.4-.4,1.4Z"/>
    <path class="st0" d="M210.6,260.9l-.4-.8.4.8Z"/>
    <path class="st0" d="M223.5,259.3c0-1,.2-1.6.4-1.8l-.4,1.8Z"/>
    <path class="st0" d="M239.3,280.6v-1c.2,0,.7.5.5.7l-.5.4h0Z"/>
    <path class="st0" d="M232.6,257.7l-.5-.7c0,0,.4.6.5.7Z"/>
    <path class="st0" d="M272.4,259.7l-.9.5.9-.5Z"/>
    <path class="st0" d="M266.7,260.3l.5-.7-.5.7Z"/>
    <path class="st0" d="M254.1,260.3c-1.6-.3-2.5-.3-3.1-.8,1.2,0,2.1,0,3.1.8Z"/>
    <path class="st0" d="M243.1,260.3l-2.7-.8c1.2,0,2.4.3,2.7.8Z"/>
    <path class="st0" d="M222.5,260.8l.3-1.1-.3,1.1Z"/>
    <path class="st0" d="M220.4,260l.5-.6c0,0-.4.5-.5.6Z"/>
    <path class="st0" d="M218.5,260.1l-.4-.4s.3.3.4.4Z"/>
    <path class="st0" d="M216.4,260.4c-.4,0-.8-.5-.9-1l.9,1Z"/>
    <path class="st0" d="M240.7,257.6l-2.6-.4c.8,0,2.1,0,2.6.4Z"/>
    <path class="st0" d="M228.9,276.8l-1.3-.6,1.3.6Z"/>
    <path class="st0" d="M272.4,259.7l.4-.4-.4.4Z"/>
    <path class="st0" d="M268.6,259.3l-1.4.4c0,0,.7-.6,1.4-.4Z"/>
    <path class="st0" d="M250.9,259.6c-1.2,0-2.7,0-3.5-.4.9,0,2.4,0,3.5.4Z"/>
    <path class="st0" d="M274,258.1c.2-.2.4-.7.5-1,0,.2,0,.8-.5,1Z"/>
    <path class="st0" d="M240.4,259.5l-4.6-.6,4.6.6Z"/>
    <path class="st0" d="M238.4,281l-.5-.5.5.5Z"/>
    <path class="st0" d="M222.8,259.8l.7-.5-.7.5Z"/>
    <path class="st0" d="M227.6,256.3l-1.7-.4,1.7.4Z"/>
    <path class="st0" d="M234.9,276.7l-1.3-.6,1.3.6Z"/>
    <path class="st0" d="M233,258.1l-.4-.5.4.5Z"/>
    <path class="st0" d="M227.5,274c-.4-.2-1-.5-.9-.5l.9.5Z"/>
    <path class="st0" d="M238.6,281.4l.6-.8-.6.8Z"/>
    <path class="st0" d="M272.8,259.3l.4-.5-.4.5Z"/>
    <path class="st0" d="M270.3,258.6l-1.6.6,1.6-.6Z"/>
    <path class="st0" d="M247.4,259.3c-1.4,0-2.5-.2-3.1-.8,1.1.2,2.1.3,3.1.8Z"/>
    <path class="st0" d="M242.9,258.8s.3-.2.5-.4c-.3.8-.4.4-.5.4Z"/>
    <path class="st0" d="M235.8,259l-2.3-.4,2.3.4Z"/>
    <path class="st0" d="M217.7,259.2l-.4-.5.4.5Z"/>
    <path class="st0" d="M215.5,259.5l-.6-1c.2,0,.4,1,.6,1Z"/>
    <path class="st0" d="M241.7,258.3l-.9-.8.9.8Z"/>
    <path class="st0" d="M231.1,277.4l-2.2-.6,2.2.6Z"/>
    <path class="st0" d="M271.6,258s.4-.4.4-.5c-.2.3-.4.8-.4.5Z"/>
    <path class="st0" d="M238.4,281l.3.4c.2.2,0,0-.3-.4Z"/>
    <path class="st0" d="M235.9,277.3l-.9-.5.9.5Z"/>
    <path class="st0" d="M214.9,258.4l-1.9.3c-.5,0-.9.9-1.2,1.4l.2-2,2.9.3h0Z"/>
    <path class="st0" d="M274,258.1l-.8.7.8-.7Z"/>
    <path class="st0" d="M217.3,258.7l-.4-.5.4.5Z"/>
    <path class="st0" d="M221,259.6l.2-1.5-.2,1.5Z"/>
    <path class="st0" d="M233.5,258.6c0,.3-.3-.3-.4-.5l.4.5Z"/>
    <path class="st0" d="M271.6,258l-1.3.6,1.3-.6Z"/>
    <path class="st0" d="M244.3,258.5h-.9c0,0,.9,0,.9,0Z"/>
    <path class="st0" d="M218.1,259.8l-.4-.5.4.5Z"/>
    <path class="st0" d="M119.7,130.4c0,0-.4.2-.5,0l-.5-.3,1.1.2h0Z"/>
    <path class="st0" d="M114.4,126.7c-.8,0-2.4.3-3.1,0,.9-.2,2.4-.3,3.1,0Z"/>
    <path class="st0" d="M111.3,126.7l-5.3.8,5.3-.8Z"/>
    <path class="st0" d="M115.8,127.4l-1.3-.7,1.3.7Z"/>
    <path class="st0" d="M106,127.5l-.9.5.9-.5Z"/>
    <path class="st0" d="M116.7,127.8l-.9-.5.9.5Z"/>
    <path class="st0" d="M105,128.3v-.4c0,0,0,0,0,.4Z"/>
    <path class="st0" d="M109.5,128.3h-.9c0,.2.3-.5.3-.5,0,0,.4.6.6.5Z"/>
    <path class="st0" d="M117.8,128.4l-1.2-.6,1.2.6Z"/>
    <path class="st0" d="M108.6,128.3c-1.1.5-2.7.4-3.5,0h3.5Z"/>
    <path class="st0" d="M113.3,128.7c-1.4,0-3,0-3.8-.5,1.2,0,2.7,0,3.8.5Z"/>
    <path class="st0" d="M118.4,128.9l-.5-.4c.2,0,.5.3.5.4Z"/>
    <path class="st0" d="M116.7,129.4c-.9,0-2.6-.3-3.4-.7l3.4.7Z"/>
    <path class="st0" d="M118.9,129.3l-.5-.4c0,0,.4.4.5.4Z"/>
    <path class="st0" d="M117.8,129.7c-.2,0-.8-.3-1.1-.4.4-.4,1,.2,1.1.4Z"/>
    <polygon class="st0" points="120 129.8 118.7 129.8 118.9 129.3 120 129.8"/>
    <polygon class="st0" points="118.7 129.8 118.6 130.2 117.8 129.7 118.7 129.8"/>
    <path class="st0" d="M119.7,130.4l.3-.6s0,.2-.3.6Z"/>
    <path class="st0" d="M130.7,146.4h-.4s.4,0,.4,0Z"/>
    <path class="st0" d="M148.9,175.1c0,0-.6.5-.7.4l-.4-.6,1.1.2h0Z"/>
    <path class="st0" d="M141.8,153.7l-.5-1.8.5,1.8Z"/>
    <path class="st0" d="M144.1,153.2l-.5-1.4c.2.3.4,1,.5,1.4Z"/>
    <path class="st0" d="M159.4,147.6l-4.8-.5,4.8.5Z"/>
    <path class="st0" d="M134.6,152.5l.4-.9-.4.9Z"/>
    <path class="st0" d="M129.9,152.6c0,0,.4-.8.5-1.1l-.5,1.1Z"/>
    <path class="st0" d="M166.9,151.2c-.4.5-1.4.4-2.5,0h2.5Z"/>
    <path class="st0" d="M136.1,147.7l.4-.5c-.2.3-.5.7-.4.5Z"/>
    <path class="st0" d="M141.4,147.8l-.4-.5.4.5Z"/>
    <path class="st0" d="M135,151.7c.2-.3.5-.8.4-.5,0,0-.4.4-.4.5Z"/>
    <path class="st0" d="M140.9,147.4l-.5-.6.5.6Z"/>
    <path class="st0" d="M142.6,159.6c-.4-.7-.3-2.8-.4-4.2.4,1,.4,2.8.4,4.2Z"/>
    <path class="st0" d="M136.5,147.3l.4-.5-.4.5Z"/>
    <path class="st0" d="M164.4,151.2c-.9,0-2.2-.2-3-.4,1.4,0,2.6,0,3,.4Z"/>
    <path class="st0" d="M144.7,157.1l-.3-1.5.3,1.5Z"/>
    <path class="st0" d="M131.5,148.3l-.5-1.2c.3,0,.4.7.5,1.2Z"/>
    <path class="st0" d="M147.2,156.8c-.2,0,0-.8.4-1l-.4,1Z"/>
    <path class="st0" d="M152.8,152.2l.4-1.2-.4,1.2Z"/>
    <path class="st0" d="M152,147.7l.4-.5-.4.5Z"/>
    <path class="st0" d="M161.3,147.7l-1.9-.2c.3-.4,1.1,0,1.9.2Z"/>
    <path class="st0" d="M143.6,151.7l-.5-1,.5,1Z"/>
    <path class="st0" d="M141.3,151.9l-.4-1.5c.4.6.4,1.3.4,1.5Z"/>
    <path class="st0" d="M136.1,147.7l-1.2.4,1.2-.4Z"/>
    <path class="st0" d="M141.8,148.4l-.4-.5.4.5Z"/>
    <path class="st0" d="M137.3,150.8l-1.8.5,1.8-.5Z"/>
    <path class="st0" d="M166.9,151.2v-1s.4.3.4.3c0,0-.3.8-.4.7h0Z"/>
    <path class="st0" d="M150.1,157.5l.4-1-.4,1Z"/>
    <path class="st0" d="M161.4,150.8l-1.9-.5,1.9.5Z"/>
    <path class="st0" d="M154.6,147.1l-1.9-.2c0-.2.4-.6.7-.5l1.1.7h0Z"/>
    <path class="st0" d="M140.4,146.9l-.4-.4.4.4Z"/>
    <path class="st0" d="M149.4,151.9l.4-1.8-.4,1.8Z"/>
    <path class="st0" d="M136.9,146.8l.4-.5-.4.5Z"/>
    <path class="st0" d="M131,147l-.4-.6.4.6Z"/>
    <path class="st0" d="M130.3,148.3v-1.9c0,0,0,1.9,0,1.9Z"/>
    <path class="st0" d="M138.2,150.2c-.2.2-.7.6-1,.6l1-.6Z"/>
    <path class="st0" d="M140,146.4l-.4-.5.4.5Z"/>
    <path class="st0" d="M151.5,148.2l.4-.5-.4.5Z"/>
    <path class="st0" d="M166.9,150.2l-.4-.4.4.4Z"/>
    <path class="st0" d="M159.6,150.3l-1.7-.8,1.7.8Z"/>
    <path class="st0" d="M145.1,159.8l-.4-2.8.4,2.8Z"/>
    <path class="st0" d="M137.4,146.3l.4-.5-.4.5Z"/>
    <path class="st0" d="M146.7,159.1l.4-2.3-.4,2.3Z"/>
    <path class="st0" d="M163.9,148.2c-1.1,0-2.3,0-2.6-.5l2.6.5Z"/>
    <path class="st0" d="M130.4,151.5v-3.1c.3.8.4,2.4,0,3.1Z"/>
    <path class="st0" d="M153.2,150.9c0-.2.2-1.2.4-1.3l-.4,1.3Z"/>
    <path class="st0" d="M130.2,154.9l-.4-.6.4.6Z"/>
    <path class="st0" d="M149.7,150.1c-.3,0,.2-.3.4-.5l-.4.5Z"/>
    <path class="st0" d="M143.1,150.6l-.4-1,.4,1Z"/>
    <path class="st0" d="M139.6,145.9l-.4-.5.4.5Z"/>
    <path class="st0" d="M137.8,145.8l.4-.5-.4.5Z"/>
    <path class="st0" d="M139.1,145.5l-.9-.2c0,0,.4-.5.5-.4l.4.6h0Z"/>
    <path class="st0" d="M149.7,158.4l.4-1-.4,1Z"/>
    <path class="st0" d="M149.4,159.5l.3-1c0,.2-.3.9-.3,1Z"/>
    <path class="st0" d="M140.7,150.5l-.4-.9c.2,0,.4.7.4.9Z"/>
    <path class="st0" d="M132,149.3l-.4-1,.4,1Z"/>
    <path class="st0" d="M138.2,150.2c0,0,.4-.5.4-.4l-.4.4Z"/>
    <path class="st0" d="M134.3,148.7s.4-.5.5-.6l-.5.6Z"/>
    <path class="st0" d="M146.3,160.1l.4-1c0,.2-.4.9-.4,1Z"/>
    <path class="st0" d="M152.2,152.7l.5-.5c0,0-.4.4-.5.5Z"/>
    <path class="st0" d="M129.4,153.5l.4-.9-.4.9Z"/>
    <path class="st0" d="M152.4,147.3l.4-.4-.4.4Z"/>
    <path class="st0" d="M150.5,156.5l.4-1.3-.4,1.3Z"/>
    <path class="st0" d="M148.6,162.3c.3-1.3.3-2.6.8-2.8,0,.8-.4,2-.8,2.8Z"/>
    <path class="st0" d="M142.1,148.8c-.2-.2-.4-.5-.4-.4l.4.4Z"/>
    <path class="st0" d="M134.1,153.6l.5-1-.5,1Z"/>
    <path class="st0" d="M143,162.4c-.4-.9-.4-1.9-.4-3,.4,1.1.4,2.2.4,3Z"/>
    <path class="st0" d="M146.3,160.1l-.4.6c-.2.2-.7-.6-.7-.9l1.1.3h0Z"/>
    <path class="st0" d="M151.1,148.7l.4-.5-.4.5Z"/>
    <path class="st0" d="M148.5,154.3l.4-1.8-.4,1.8Z"/>
    <path class="st0" d="M151.9,153.1l.4-.4-.4.4Z"/>
    <path class="st0" d="M164.8,148.9l-.9-.7.9.7Z"/>
    <path class="st0" d="M148.2,167.8l.4-5.5-.4,5.5Z"/>
    <path class="st0" d="M166.5,149.8l-.4-.5c0-.3.3.2.4.5Z"/>
    <path class="st0" d="M144.4,155.6l-.4-2.4.4,2.4Z"/>
    <path class="st0" d="M147.5,155.7l.4-.9-.4.9Z"/>
    <path class="st0" d="M157.9,149.6h-4.3c1-.5,3.3-.5,4.3,0Z"/>
    <path class="st0" d="M143.6,165.7c-.5-.4-.5-1.8-.6-3.1.3.8.5,2.3.6,3.1Z"/>
    <path class="st0" d="M150.2,149.7l.4-.5-.4.5Z"/>
    <path class="st0" d="M143.9,166.7l-.3-1c0,.2.2.9.3,1Z"/>
    <path class="st0" d="M144.4,167.7l-.4-1,.4,1Z"/>
    <path class="st0" d="M151.3,154l.5-1-.5,1Z"/>
    <path class="st0" d="M140.4,149.6l-1-.4c.2,0,.8.3,1,.4Z"/>
    <path class="st0" d="M138.6,149.7l.4-.5-.4.5Z"/>
    <path class="st0" d="M131.5,154.8l-.4.5c-.2,0-.6,0-1-.4h1.3s0,0,0,0h0Z"/>
    <path class="st0" d="M133.8,149.2c-.4.6-1.8.6-1.8,0h1.8Z"/>
    <path class="st0" d="M166,149.4l-1.2-.5,1.2.5Z"/>
    <path class="st0" d="M148,154.9l.5-.6-.5.6Z"/>
    <path class="st0" d="M144.8,168.6l-.4-1,.4,1Z"/>
    <path class="st0" d="M147.9,170.1l.3-2.3c.4.6,0,1.7-.3,2.3Z"/>
    <path class="st0" d="M129.2,153.8c0,0-.4-.3.2-.4l-.2.4Z"/>
    <path class="st0" d="M150.6,149.2l.4-.5-.4.5Z"/>
    <path class="st0" d="M133.8,154.3s.3-.5.4-.8c0,0,0,.9-.4.8Z"/>
    <path class="st0" d="M133.8,154.3l-2.2.6,2.2-.6Z"/>
    <path class="st0" d="M129.8,154.4l-.4-.6.4.6Z"/>
    <path class="st0" d="M142.3,155.4l-.4-1.5.4,1.5Z"/>
    <path class="st0" d="M151,155.2l.4-1-.4,1Z"/>
    <path class="st0" d="M142.6,149.7l-.4-1,.4,1Z"/>
    <path class="st0" d="M145.2,169.6l-.4-1,.4,1Z"/>
    <path class="st0" d="M145.6,170.5l-.4-1,.4,1Z"/>
    <path class="st0" d="M147.9,172.5c-.7-.4-.3-1.9,0-2.3v2.3Z"/>
    <path class="st0" d="M146,171.9l-.4-1.4.4,1.4Z"/>
    <path class="st0" d="M146.6,173.1l-.5-1,.5,1Z"/>
    <path class="st0" d="M149,173.1l-1.1-.7,1.1.7Z"/>
    <path class="st0" d="M139.4,149.2h-.4c0,0,.4,0,.4,0h0Z"/>
    <path class="st0" d="M133.8,149.2l.4-.6-.4.6Z"/>
    <path class="st0" d="M147,173.9l-.4-1,.4,1Z"/>
    <path class="st0" d="M148.9,175.1v-1.9c.5.3.4,1.5,0,1.9Z"/>
    <path class="st0" d="M147.4,174.3l-.4-.4c.2.2.4.5.4.4Z"/>
    <path class="st0" d="M147.8,174.9l-.5-.5.5.5Z"/>
    <path class="st0" d="M148.9,152.5c-.3,0,.2-.4.5-.6,0,0-.5.6-.5.6Z"/>
    <path class="st0" d="M24.6,215.3l-.4-.4.4.4Z"/>
    <path class="st0" d="M26.1,215.5l-.4-.5.4.5Z"/>
    <path class="st0" d="M26.8,207.8l.4-.5-.4.5Z"/>
    <path class="st0" d="M27.3,207.4l.4-.5-.4.5Z"/>
    <path class="st0" d="M28.6,206.3l-.8.6.8-.6Z"/>
    <path class="st0" d="M25.1,207.8l.8-1.4v.9c0,.2-.5.4-.8.5h0Z"/>
    <path class="st0" d="M26.4,208.3l.4-.5-.4.5Z"/>
    <path class="st0" d="M28.6,206.3c0,0,.4-.4.4-.5.2,0-.2.3-.4.5Z"/>
    <path class="st0" d="M26.7,205.8l-.9.6c0-.2.7-.5.9-.6Z"/>
    <path class="st0" d="M26.7,205.8l.6-.4-.6.4Z"/>
    <path class="st0" d="M25.9,208.8l.4-.5-.4.5Z"/>
    <path class="st0" d="M24.6,208.7c0,0-.4.4-.8.6l.8-.6Z"/>
    <path class="st0" d="M29,205.8l.5-.9-.5.9Z"/>
    <path class="st0" d="M28.2,205l-.8.5.8-.5Z"/>
    <path class="st0" d="M30.3,204.4l-.8.6c0-.2.6-.6.8-.6Z"/>
    <path class="st0" d="M28.2,205l.4-.5-.4.5Z"/>
    <path class="st0" d="M25.6,209.3l.4-.5-.4.5Z"/>
    <path class="st0" d="M23.4,209.7c0,0,.3-.4.4-.4s-.2.3-.4.4Z"/>
    <path class="st0" d="M25.1,209.8l.4-.6-.4.6Z"/>
    <path class="st0" d="M22.9,210.5l.5-.9-.5.9Z"/>
    <path class="st0" d="M30.3,204.4l.6-.4-.6.4Z"/>
    <path class="st0" d="M28.6,204.5l.4-.5s-.4.5-.4.5Z"/>
    <path class="st0" d="M31.8,203.6l-1,.6,1-.6Z"/>
    <path class="st0" d="M29,204l.4-.5-.4.5Z"/>
    <path class="st0" d="M32.7,203.1l-.8.4.8-.4Z"/>
    <path class="st0" d="M29.5,203.6l.4-.5-.4.5Z"/>
    <path class="st0" d="M22.9,212.2l-.4-1c0-.2.2-.6.4-.8v1.7Z"/>
    <path class="st0" d="M24.7,214s-.2,0-.4-.4c0-.7.2-1.9.5-2.5v2.9h0Z"/>
    <path class="st0" d="M23.4,213.6l-.4-1.3.4,1.3Z"/>
    <path class="st0" d="M23.9,213.9c0,0-.5-.3-.5-.4l.5.4Z"/>
    <path class="st0" d="M30.8,202.5s-.4.4-.9.6l.9-.6Z"/>
    <polygon class="st0" points="24.3 214.9 23.9 213.9 24.3 213.7 24.3 214.9"/>
    <path class="st0" d="M32.7,203.1l.2-1.5c.2,0,.4.9.3,1l-.4.5h0Z"/>
    <path class="st0" d="M28.9,219.7h.4c0,.5-.3.2-.4,0Z"/>
    <path class="st0" d="M28.9,219.7l-.4-.4.4.4Z"/>
    <path class="st0" d="M29.1,219.7v-1c.3.3.6.7.4.8l-.4.3Z"/>
    <path class="st0" d="M28.3,219.2l-.4-.4.4.4Z"/>
    <path class="st0" d="M29.1,218.6l-.4-.5.4.5Z"/>
    <path class="st0" d="M27.9,218.8l-.4-.6c0,0,.4.5.4.6Z"/>
    <path class="st0" d="M32.8,201.6l-.9-.6.9.6Z"/>
    <path class="st0" d="M28.6,218.1l-.5-.5.5.5Z"/>
    <path class="st0" d="M25.2,214.5l-.4-.5.4.5Z"/>
    <path class="st0" d="M28.2,217.7l-.6-.6.6.6Z"/>
    <path class="st0" d="M30.8,202.5l.5-1.7c0,1.1-.3,1.6-.5,1.7Z"/>
    <polygon class="st0" points="27.5 217.2 27.4 218.2 26.6 217.5 27 216.3 27.5 217.2"/>
    <path class="st0" d="M31.9,201c-.4,0-.6,0-.5-.3l.5.3Z"/>
    <polygon class="st0" points="26.5 216.3 26.6 217.5 25.6 216.3 26.5 216.3"/>
    <polygon class="st0" points="27 216.3 26.5 216.3 26.5 215.8 27 216.3"/>
    <path class="st0" d="M25.6,216.3l-.4-.5.4.5Z"/>
    <path class="st0" d="M25.7,215l-.4-.5.4.5Z"/>
    <path class="st0" d="M26.5,215.8l-.4-.4.4.4Z"/>
    <path class="st0" d="M24.8,211.1c0-.6.3-1.3.4-1.3l-.4,1.3Z"/>
    <path class="st0" d="M25.1,215.8l-.5-.6.5.6Z"/>
    <path class="st0" d="M24.6,208.7l.5-.9-.5.9Z"/>
    <path class="st0" d="M27.4,234.7l.5-.9-.5.9Z"/>
    <path class="st0" d="M21.2,242.8l.5-.9-.5.9Z"/>
    <path class="st0" d="M23.5,240c0-.3.4-.8.5-.9l-.5.9Z"/>
    <path class="st0" d="M26.4,240.2l.4-.5-.4.5Z"/>
    <path class="st0" d="M18.5,250.6l.4-.4-.4.4Z"/>
    <path class="st0" d="M38.1,222l-2.7-.2c.5-.5,2.1-.4,2.7.2Z"/>
    <path class="st0" d="M34.9,222.5l.5-.7-.5.7Z"/>
    <path class="st0" d="M38,224.5v-2.4c.5.5.4,2,0,2.4Z"/>
    <path class="st0" d="M35,223.5c-.2-.2-.4-.7-.4-.6,0,0,.4-.4.4-.3v1h0,0Z"/>
    <path class="st0" d="M35,224.9v-1.5s.4.8.4.8c0,.2-.2.6-.4.8h0Z"/>
    <path class="st0" d="M37.5,225l.5-.6c-.2,0-.4.5-.5.6Z"/>
    <path class="st0" d="M34.4,225.7l.5-.9-.5.9Z"/>
    <path class="st0" d="M37,225.8l.5-.9-.5.9Z"/>
    <path class="st0" d="M34.1,226.2l.4-.5-.4.5Z"/>
    <path class="st0" d="M36.5,226.4l.4-.6-.4.6Z"/>
    <path class="st0" d="M22.9,245.5l.4-.5-.4.5Z"/>
    <path class="st0" d="M33.5,227.1l.5-.9-.5.9Z"/>
    <path class="st0" d="M36.1,226.9l.4-.5-.4.5Z"/>
    <path class="st0" d="M18.5,250.6l-.6.6c-.2,0-.7-.4-.7-.6h1.3Z"/>
    <path class="st0" d="M35.7,227.4l.4-.5-.4.5Z"/>
    <path class="st0" d="M33.1,228l.4-1-.4,1Z"/>
    <path class="st0" d="M19.1,245.7l.5-.9-.5.9Z"/>
    <path class="st0" d="M35.3,227.9c0,0,.3-.5.4-.6,0,0-.4.4-.4.6Z"/>
    <path class="st0" d="M34.9,228.9l.4-1-.4,1Z"/>
    <path class="st0" d="M32.7,228.6c0,0,.4-.4.4-.6l-.4.6Z"/>
    <path class="st0" d="M18.9,250.2l.4-.5-.4.5Z"/>
    <path class="st0" d="M32.3,229.1l.4-.5-.4.5Z"/>
    <path class="st0" d="M34.3,229.7l.5-.9-.5.9Z"/>
    <path class="st0" d="M31.9,229.6l.4-.5-.4.5Z"/>
    <path class="st0" d="M19.4,249.7l.4-.5-.4.5Z"/>
    <path class="st0" d="M31.4,230l.4-.5-.4.5Z"/>
    <path class="st0" d="M34,230.2l.4-.6-.4.6Z"/>
    <path class="st0" d="M31,230.5l.4-.5-.4.5Z"/>
    <path class="st0" d="M33.5,231.1l.5-.9-.5.9Z"/>
    <path class="st0" d="M30.5,231.1l.5-.6-.5.6Z"/>
    <path class="st0" d="M19.8,249.3l.4-.5-.4.5Z"/>
    <path class="st0" d="M30,231.6l.4-.5-.4.5Z"/>
    <path class="st0" d="M33.1,231.7l.4-.6-.4.6Z"/>
    <path class="st0" d="M29.6,232l.4-.5-.4.5Z"/>
    <path class="st0" d="M32.7,232.2l.4-.6-.4.6Z"/>
    <path class="st0" d="M29.2,232.4l.4-.4-.4.4Z"/>
    <path class="st0" d="M32.1,233.1l.5-.9-.5.9Z"/>
    <path class="st0" d="M28.8,232.9l.4-.5-.4.5Z"/>
    <path class="st0" d="M28.3,233.4l.4-.5s-.4.5-.4.5Z"/>
    <path class="st0" d="M31.8,233.6l.4-.5-.4.5Z"/>
    <path class="st0" d="M19.6,244.8l.4-.6-.4.6Z"/>
    <path class="st0" d="M28,233.8l.4-.6-.4.6Z"/>
    <path class="st0" d="M31.2,234l.4-.5-.4.5Z"/>
    <path class="st0" d="M30.8,234.5l.4-.5-.4.5Z"/>
    <path class="st0" d="M30.4,235l.4-.5-.4.5Z"/>
    <path class="st0" d="M20.2,248.7l.5-.9-.5.9Z"/>
    <path class="st0" d="M17.3,248.1l.4-.5-.4.5Z"/>
    <path class="st0" d="M23.4,244.9l.4-.9-.4.9Z"/>
    <path class="st0" d="M27,235.3l.4-.6-.4.6Z"/>
    <path class="st0" d="M29.9,235.4l.4-.5-.4.5Z"/>
    <path class="st0" d="M26.5,236.1l.5-.9-.5.9Z"/>
    <path class="st0" d="M29.6,235.9l.4-.6-.4.6Z"/>
    <path class="st0" d="M29,236.8l.5-.9-.5.9Z"/>
    <path class="st0" d="M26.1,236.7l.4-.6-.4.6Z"/>
    <path class="st0" d="M20.7,247.8l.4-.5-.4.5Z"/>
    <path class="st0" d="M25.8,237.3l.4-.6-.4.6Z"/>
    <path class="st0" d="M28.6,237.3l.4-.5-.4.5Z"/>
    <path class="st0" d="M25.2,238.1l.5-.9-.5.9Z"/>
    <path class="st0" d="M28.2,237.8l.4-.5-.4.5Z"/>
    <path class="st0" d="M17.7,247.7c0,0,.4-.4.4-.6l-.4.6Z"/>
    <path class="st0" d="M21.1,247.4l.4-.5-.4.5Z"/>
    <path class="st0" d="M21.5,246.8l.4-.5-.4.5Z"/>
    <path class="st0" d="M19.9,244.3l.4-.5-.4.5Z"/>
    <path class="st0" d="M27.8,238.4l.4-.6-.4.6Z"/>
    <path class="st0" d="M24.8,238.6c0,0,.4-.4.4-.5,0,0-.4.4-.4.5Z"/>
    <path class="st0" d="M18.1,247.1l.5-.9-.5.9Z"/>
    <path class="st0" d="M27.3,239.2l.5-.9-.5.9Z"/>
    <path class="st0" d="M24.8,238.6l-.8.6.8-.6Z"/>
    <path class="st0" d="M22,246.4l.5-.6-.5.6Z"/>
    <path class="st0" d="M22.5,245.8l.4-.4-.4.4Z"/>
    <path class="st0" d="M18.6,246.2l.4-.6-.4.6Z"/>
    <path class="st0" d="M26.9,239.8l.4-.5-.4.5Z"/>
    <path class="st0" d="M20.4,243.8l.4-.5-.4.5Z"/>
    <path class="st0" d="M23,240.5l.4-.6-.4.6Z"/>
    <path class="st0" d="M26,240.7l.4-.6-.4.6Z"/>
    <path class="st0" d="M23.8,244.1l.4-1-.4,1Z"/>
    <path class="st0" d="M22.6,241l.4-.5-.4.5Z"/>
    <path class="st0" d="M25.5,241.6l.5-.9-.5.9Z"/>
    <path class="st0" d="M22.1,241.5l.4-.5-.4.5Z"/>
    <path class="st0" d="M20.8,243.4l.4-.6-.4.6Z"/>
    <path class="st0" d="M24.3,243.2c0,0,.4-.5.4-.6,0,0-.4.4-.4.6Z"/>
    <path class="st0" d="M21.7,241.9l.4-.5-.4.5Z"/>
    <path class="st0" d="M25.1,242l.4-.6-.4.6Z"/>
    <path class="st0" d="M24.7,242.6l.4-.5-.4.5Z"/>
    <path class="st0" d="M28.2,198.2l-.4-.5s.4.5.4.5Z"/>
    <path class="st0" d="M26.8,196.7l-.4-.5.4.5Z"/>
    <path class="st0" d="M29.2,197.4l-.4-1,.4,1Z"/>
    <path class="st0" d="M27.3,197.2l-.4-.5.4.5Z"/>
    <path class="st0" d="M28.8,196.4l-.4-.5c0,0,.4.4.4.5Z"/>
    <path class="st0" d="M26.4,196.2c0,0-.4-.4-.4-.4l.4.4Z"/>
    <path class="st0" d="M29.6,199.2h.5s-.5,0-.5,0Z"/>
    <path class="st0" d="M28.3,195.9l-.8-.6.8.6Z"/>
    <path class="st0" d="M27.5,195.4l-.5-.4c0,0,.4.4.5.4Z"/>
    <path class="st0" d="M27.7,197.7l-.4-.5.4.5Z"/>
    <path class="st0" d="M27,195l-.5-.5.5.5Z"/>
    <polygon class="st0" points="26 195.8 25.6 194.4 26.2 194.4 26 195.8"/>
    <path class="st0" d="M30.1,199.2v-.6c.4,0,.3.2,0,.6Z"/>
    <path class="st0" d="M26.5,194.5s-.3,0-.4,0l-.2-.5.4.6h0Z"/>
    <path class="st0" d="M25.6,194.4v-.5s0,.5,0,.5Z"/>
    <path class="st0" d="M29.7,198.1l-.4-.8.4.8Z"/>
    <path class="st0" d="M26,193.9h-.4c0-.4.3-.2.4,0Z"/>
    <polygon class="st0" points="30 198.7 29.6 199.2 28.2 198.2 29.7 198.1 30 198.7"/>
    <path class="st0" d="M33,273.9s.4-.5.4-.5l-.4.5Z"/>
    <path class="st0" d="M30.1,273.3l.4-.5-.4.5Z"/>
    <path class="st0" d="M33.2,271l.5-.5c0,0-.4.4-.5.5Z"/>
    <path class="st0" d="M33.2,271l-1.2.6,1.2-.6Z"/>
    <path class="st0" d="M36.9,271.1l-.9.5.9-.5Z"/>
    <path class="st0" d="M37.4,270.6l.4-.5-.4.5Z"/>
    <path class="st0" d="M34.5,269.9l-.7.6.7-.6Z"/>
    <path class="st0" d="M37.9,270.1l.4-.4-.4.4Z"/>
    <path class="st0" d="M34.5,269.9l.4-.5-.4.5Z"/>
    <path class="st0" d="M39.2,269.2l-.8.6.8-.6Z"/>
    <path class="st0" d="M35,269.6l.4-.5-.4.5Z"/>
    <path class="st0" d="M32,271.6l-1,.5c0-.3.6-.6,1-.5Z"/>
    <path class="st0" d="M36,271.6l-.8.6c0-.2.6-.5.8-.6Z"/>
    <path class="st0" d="M36.2,268.5l-.8.6.8-.6Z"/>
    <path class="st0" d="M29.2,274.2l.9-1-.9,1Z"/>
    <path class="st0" d="M28.5,276.3c-.2-.2-.4-.9-.2-1l.4-.5-.2,1.5h0Z"/>
    <path class="st0" d="M39.2,269.2l.6-.9c0,.2-.4.8-.6.9Z"/>
    <path class="st0" d="M36.2,268.5l.4-.4-.4.4Z"/>
    <path class="st0" d="M36.7,268.1l.4-.5-.4.5Z"/>
    <path class="st0" d="M31.7,275.9l-1.7.5,1.7-.5Z"/>
    <path class="st0" d="M30.5,272.8c0-.3.4-.8.5-.9l-.5.9Z"/>
    <path class="st0" d="M34.8,272.8l.5-.8c0,.2-.3,1-.5.8Z"/>
    <path class="st0" d="M31.7,275.9c0-.3.3-.9.5-1,0,.2-.4,1-.5,1Z"/>
    <path class="st0" d="M40.6,267.4l-.8,1,.8-1Z"/>
    <path class="st0" d="M37.2,267.7l.4-.5-.4.5Z"/>
    <path class="st0" d="M30,276.4l-1,.3c-.2,0-.4-.3-.5-.5l1.5.2h0Z"/>
    <path class="st0" d="M37.6,267.2c0,0,.4-.6.5-.4l-.5.4Z"/>
    <path class="st0" d="M40.6,267.4c0-.2,0-.9.2-1.2,0,.2.4.6.2.8l-.4.5h0Z"/>
    <path class="st0" d="M28.7,274.7l.4-.5-.4.5Z"/>
    <path class="st0" d="M40.2,266.1l-2,.8,2-.8Z"/>
    <path class="st0" d="M40.8,266.1h-.6s.6,0,.6,0Z"/>
    <path class="st0" d="M32.6,274.4l.4-.5-.4.5Z"/>
    <path class="st0" d="M34.8,272.8l-1.2.6,1.2-.6Z"/>
    <path class="st0" d="M32.2,275l.4-.6-.4.6Z"/>
    <path class="st0" d="M36.9,271.1c0,0,.4-.4.5-.4,0,.2-.3.4-.5.4Z"/>
    <path class="st0" d="M128.9,142.6c-.4,0-.4-.2,0-.5v.5Z"/>
    <path class="st0" d="M129,144c-.2-.2,0-.4,0-.6v.6Z"/>
    <path class="st0" d="M129.3,142h-.4s.4,0,.4,0Z"/>
    <path class="st0" d="M129.4,142.5v-.5c0,0,0,.4,0,.5Z"/>
    <path class="st0" d="M129.3,143.6c0,0-.2,0-.4,0v-.9h.5v1h0Z"/>
    <path class="st0" d="M129.3,144.9h.5s-.5,0-.5,0Z"/>
    <path class="st0" d="M129.9,145v-.6c.4,0,.3.2,0,.6Z"/>
    <polygon class="st0" points="129.8 144.4 129.3 144.9 129 144 129.3 143.6 129.8 144.4"/>
    <path class="st0" d="M45.3,262l.5-.4-.5.4Z"/>
    <path class="st0" d="M49.2,261l-.9.6.9-.6Z"/>
    <path class="st0" d="M46.4,262.9l-1.1.6,1.1-.6Z"/>
    <path class="st0" d="M44.7,263.8c0,0,.2-.3.6-.3l-.6.3Z"/>
    <path class="st0" d="M53.9,256.3h-1.3s.7-.5.7-.5c.2,0,.6.4.6.5Z"/>
    <path class="st0" d="M52,256.8l.4-.5-.4.5Z"/>
    <path class="st0" d="M54.2,256.8l-.4-.5.4.5Z"/>
    <path class="st0" d="M43.4,263.7l.7-.6-.7.6Z"/>
    <path class="st0" d="M51.7,257.3l.4-.5-.4.5Z"/>
    <path class="st0" d="M46.4,262.9l.5-.6-.5.6Z"/>
    <path class="st0" d="M54.4,257.2l-.2-.4c.6,0,.3.3.2.4Z"/>
    <path class="st0" d="M51.1,257.9l.5-.6s-.4.6-.5.6Z"/>
    <path class="st0" d="M54,257.7l.4-.5-.4.5Z"/>
    <path class="st0" d="M51.1,257.9l-1.7.4,1.7-.4Z"/>
    <path class="st0" d="M53.4,258l.4-.5-.4.5Z"/>
    <path class="st0" d="M49.4,258.2l-1,.5c.2-.3.7-.7,1-.5Z"/>
    <path class="st0" d="M53.4,258l-.8.6.8-.6Z"/>
    <path class="st0" d="M48,259.2l.4-.5c0,0-.4.4-.4.5Z"/>
    <path class="st0" d="M52.2,259.1l.4-.5-.4.5Z"/>
    <path class="st0" d="M47.6,259.7l.4-.5-.4.5Z"/>
    <path class="st0" d="M44.1,263l.4-.5-.4.5Z"/>
    <path class="st0" d="M51.7,259.6l.4-.6s-.4.5-.4.6Z"/>
    <path class="st0" d="M47.7,261.8l-.8.5.8-.5Z"/>
    <path class="st0" d="M47.2,260.1l.4-.5-.4.5Z"/>
    <path class="st0" d="M51.7,259.6l-1.2.6,1.2-.6Z"/>
    <path class="st0" d="M46.7,260.6l.4-.5-.4.5Z"/>
    <path class="st0" d="M50,260.5l.5-.3-.5.3Z"/>
    <path class="st0" d="M44.7,263.8l-.4.6c0,0-.6-.3-.6-.4l1-.3h0Z"/>
    <path class="st0" d="M46.3,261.2l.4-.5-.4.5Z"/>
    <path class="st0" d="M50,260.5l-.9.5.9-.5Z"/>
    <path class="st0" d="M45.8,261.6l.4-.5-.4.5Z"/>
    <path class="st0" d="M45.3,262l-.8.6.8-.6Z"/>
    <path class="st0" d="M47.7,261.8l.5-.4-.5.4Z"/>
    <path class="st0" d="M43.7,264c-.2-.3-.4-.6-.3-.4l.3.4Z"/>
    <path class="st0" d="M133.7,288.5l-1.6-.5c.4,0,1.2.3,1.6.5Z"/>
    <path class="st0" d="M139.1,291.6c-.8,0-1.6-.3-1.7-.7l1.7.7Z"/>
    <path class="st0" d="M135.1,289.7c-.2-.2-.4-.8-.4-.6,0,0,.3,0,.4,0v.5h0Z"/>
    <path class="st0" d="M141.3,290.8l-1.8-.3,1.8.3Z"/>
    <path class="st0" d="M141.4,292l-.2-1.2.4.6c0,0-.2.6-.4.7h0Z"/>
    <path class="st0" d="M138.2,289.5l-1.4-.5,1.4.5Z"/>
    <path class="st0" d="M137.5,290.9l-1-.4,1,.4Z"/>
    <path class="st0" d="M136.8,289l-.9-.3.9.3Z"/>
    <path class="st0" d="M135.7,290l-.5-.4.5.4Z"/>
    <path class="st0" d="M139.1,290l-1-.6c.3,0,.7.4,1,.6Z"/>
    <path class="st0" d="M133.8,287.1l-1.8-.3c.4,0,1.6,0,1.8.3Z"/>
    <path class="st0" d="M140.4,292.1l-1.3-.6,1.3.6Z"/>
    <path class="st0" d="M139.5,290.4l-.4-.4.4.4Z"/>
    <path class="st0" d="M141.4,292c0,0-.4.4-.4.4s-.4-.2-.6-.3h1s0,0,0,0Z"/>
    <path class="st0" d="M132,288c-.4.2-.5-.5-.4-.6l.5-.7v1.2h0Z"/>
    <path class="st0" d="M134.4,287.8l-.4-.7.4.7Z"/>
    <path class="st0" d="M136.6,290.5l-.9-.5.9.5Z"/>
    <path class="st0" d="M135.1,288.2l-.8-.4.8.4Z"/>
    <path class="st0" d="M134.6,289.2l-1.1-.6,1.1.6Z"/>
    <polygon class="st0" points="135.9 288.7 135.1 289.3 135.1 288.2 135.9 288.7"/>
    <path class="st0" d="M61.9,169.2l-2.1-.2,2.1.2Z"/>
    <path class="st0" d="M61.9,169.2l.3-1-.3,1Z"/>
    <path class="st0" d="M62.1,168.1l-2.1-.2,2.1.2Z"/>
    <path class="st0" d="M59.8,168.9l.3-1-.3,1Z"/>
    <path class="st0" d="M21.7,188.8l-.4-.6.4.6Z"/>
    <path class="st0" d="M23.4,193l-.9-.6.9.6Z"/>
    <path class="st0" d="M24.7,193v-.5s0,.5,0,.5Z"/>
    <path class="st0" d="M24.8,192.6l-.4-.4.4.4Z"/>
    <path class="st0" d="M22.5,192.4l-.5-.5s.4.4.5.5Z"/>
    <path class="st0" d="M24.3,192.2l-.9-.7.9.7Z"/>
    <path class="st0" d="M24.7,193c0,.3-.7.5-.9.4l-.4-.4h1.3Z"/>
    <path class="st0" d="M20.8,187.4l-.8-.6c.2,0,.6.4.8.6Z"/>
    <polygon class="st0" points="19.4 187.7 19.1 186.8 19.5 186.8 19.4 187.7"/>
    <path class="st0" d="M22,191.9l-.4-.6c0,0,.3.5.4.6Z"/>
    <path class="st0" d="M21.3,188.3l-.5-.9.5.9Z"/>
    <path class="st0" d="M23.4,191.6s-.3-.3-.4-.4c0,0,.4.4.4.4Z"/>
    <path class="st0" d="M21.6,191.5l-.4-.9.4.9Z"/>
    <path class="st0" d="M19.1,186.8l-.4-1,.4,1Z"/>
    <polygon class="st0" points="20.1 186.8 19.5 186.8 19.4 185.4 20.1 186.8"/>
    <path class="st0" d="M19.8,188.6l-.4-.9.4.9Z"/>
    <path class="st0" d="M23,191.2l-.4-.9.4.9Z"/>
    <path class="st0" d="M21.3,190.5l-.9-1,.9,1Z"/>
    <path class="st0" d="M22.6,190.3l-.4-1,.4,1Z"/>
    <path class="st0" d="M18.7,185.8c-.6,0-.4-.3-.2-.5l.2.5Z"/>
    <path class="st0" d="M19.4,185.4h-.9c0-.2.5-.6.7-.5l.3.5h0Z"/>
    <path class="st0" d="M22.1,189.4l-.4-.6.4.6Z"/>
    <path class="st0" d="M20.4,189.6l-.5-1,.5,1Z"/>
    <path class="st0" d="M130.3,286.2h.4c0,.5-.3.3-.4,0Z"/>
    <polygon class="st0" points="128.9 285.3 128.5 284.9 128.9 284.8 128.9 285.3"/>
    <polygon class="st0" points="130.7 285.3 129.4 285.4 129.3 284.9 130.7 285.3"/>
    <path class="st0" d="M128.5,284.9l-.4-.6.4.6Z"/>
    <path class="st0" d="M128.1,284.3v-.6.6Z"/>
    <path class="st0" d="M129.3,284.9c.2-.2-.2,0-.4,0l.3-1,.2,1h0Z"/>
    <path class="st0" d="M129.4,285.7l-.5-.4h.5c0,.4,0,.6,0,.4h0Z"/>
    <path class="st0" d="M130.7,286.2v-1c.3,0,.5.6.4.7l-.4.3Z"/>
    <path class="st0" d="M130.3,286.2l-1-.5,1,.5Z"/>
    <path class="st0" d="M129.2,283.9l-1.1-.2s.5-.5.6-.3l.5.5h0Z"/>
    <path class="st0" d="M125.8,281.6v-.5c.4,0,.4,0,0,.5Z"/>
    <path class="st0" d="M125.4,281.5h.4c0,.5-.3.2-.4,0Z"/>
    <polygon class="st0" points="125.4 281.5 124.9 281.1 125.5 281 125.4 281.5"/>
    <polygon class="st0" points="125.9 281.1 125.5 281 125.4 280 125.9 281.1"/>
    <polygon class="st0" points="124.9 281.1 124.5 280 124.9 280 124.9 281.1"/>
    <polygon class="st0" points="125.4 280 124.9 280 125 279.7 125.4 280"/>
    <polygon class="st0" points="124.5 280 124 279.7 124.7 279.6 124.5 280"/>
    <polygon class="st0" points="125 279.7 124.7 279.6 124.5 279.1 125 279.7"/>
    <path class="st0" d="M124,279.7c-.5,0-.4-.2,0-.5v.5Z"/>
    <path class="st0" d="M124.5,279.1h-.4c0-.5.3-.2.4,0Z"/>
    <path class="st0" d="M126.7,137.8h.4c0,.4-.3.2-.4,0Z"/>
    <path class="st0" d="M127.1,137.8v-1c.3,0,.5.6.4.7l-.4.3h0Z"/>
    <path class="st0" d="M126.7,137.8c-.3,0-.5-.6-.4-.7l.4-.3v1h0Z"/>
    <path class="st0" d="M127.1,136.8h-.4c0-.4.3-.2.4,0Z"/>
    <polygon class="st0" points="119.8 273.4 120.1 273.4 119.9 273.8 119.8 273.4"/>
    <polygon class="st0" points="119.5 272 119.2 271.9 119.4 271.5 119.5 272"/>
    <path class="st0" d="M119.8,273.4l-.5-.5.5.5Z"/>
    <polygon class="st0" points="120.1 273.4 120.1 272.5 120.8 272.9 120.1 273.4"/>
    <path class="st0" d="M120.1,272.5l-.5-.5.5.5Z"/>
    <polygon class="st0" points="119.3 272.9 118.6 272.4 119.2 271.9 119.3 272.9"/>
    <path class="st0" d="M122.3,131.6v-.8c0,0,0,.8,0,.8Z"/>
    <path class="st0" d="M123.6,131.1h-.4c0-.5.2-.3.4,0Z"/>
    <path class="st0" d="M122.8,131.1l-.4-.3.4.3Z"/>
    <path class="st0" d="M123.7,131.6v-.5s0,.5,0,.5Z"/>
    <path class="st0" d="M122.3,131.6h.4s-.4,0-.4,0Z"/>
    <path class="st0" d="M123.2,131.7h.4s-.4,0-.4,0Z"/>
    <polygon class="st0" points="123.2 131.7 122.7 131.7 122.8 131.1 123.2 131.2 123.2 131.7"/>
    <g>
      <path class="st0" d="M182.6,105.5l.5-1.3-.5,1.3Z"/>
      <path class="st0" d="M186.8,144.5l.5-1-.5,1Z"/>
      <path class="st0" d="M205.8,61l-1.8-.8,1.8.8Z"/>
      <path class="st0" d="M192.9,64.2l.4-.6-.4.6Z"/>
      <path class="st0" d="M194.8,64c0-.2.2-.6.3-.5l-.3.5Z"/>
      <path class="st0" d="M192.5,65.2l.4-1-.4,1Z"/>
      <path class="st0" d="M194.3,65.5l.5-1.3-.5,1.3Z"/>
      <path class="st0" d="M192.1,66.1l.4-1-.4,1Z"/>
      <path class="st0" d="M194.6,60.9c0,0,.4-.5.4-.6l-.4.6Z"/>
      <path class="st0" d="M193.8,66.5l.4-1-.4,1Z"/>
      <path class="st0" d="M191.6,67.4l.5-1.2-.5,1.2Z"/>
      <path class="st0" d="M212.6,59.9l-2.7.5,2.7-.5Z"/>
      <path class="st0" d="M209.9,60.4l-1.4.5c0-.2.8-.7,1.4-.5Z"/>
      <path class="st0" d="M204,60.2c-1.2,0-2.1-.2-2.5-.5.8,0,1.9.3,2.5.5Z"/>
      <path class="st0" d="M193.4,67.4l.4-1-.4,1Z"/>
      <path class="st0" d="M191.1,68.4l.5-1-.5,1Z"/>
      <path class="st0" d="M186.2,136.3c-.2,0-.4-.8-.4-1l.4,1Z"/>
      <path class="st0" d="M193.1,67.8l.3-.5-.3.5Z"/>
      <path class="st0" d="M192.5,70.1c0-.9,0-2.1.6-2.3l-.6,2.3Z"/>
      <path class="st0" d="M195,60.3l.5-.5-.5.5Z"/>
      <path class="st0" d="M214.3,59.2c-.4.2-1.3.7-1.7.7l1.7-.7Z"/>
      <path class="st0" d="M190.7,69.8c0-.3.3-1.1.4-1.4l-.4,1.4Z"/>
      <path class="st0" d="M190.4,70.9l.2-1-.2,1Z"/>
      <path class="st0" d="M191.9,73.4l.6-3.2-.6,3.2Z"/>
      <path class="st0" d="M189.9,73.6c0-.8,0-2.2.6-2.8-.2,1-.4,2.1-.6,2.8Z"/>
      <path class="st0" d="M189.3,75.6c0-.5.4-1.2.6-1.9l-.6,1.9Z"/>
      <path class="st0" d="M191.6,75.7l.3-2.4c.4.8,0,1.8-.3,2.4Z"/>
      <path class="st0" d="M207.5,59.3c-.7.5-2.2.7-3.1,0h3.1Z"/>
      <polygon class="st0" points="196.3 59.4 197 59.7 196.5 61.1 195.5 59.8 196.3 59.4"/>
      <path class="st0" d="M188.9,78.5l.3-3c.3,1.1,0,2.2-.3,3Z"/>
      <path class="st0" d="M191.2,78.6c0-1,0-2.1.4-2.9,0,1-.2,2.2-.4,2.9Z"/>
      <path class="st0" d="M188.6,80.4c-.3-.6,0-1.4.3-1.9l-.3,1.9Z"/>
      <path class="st0" d="M194.1,62.1l.4-1.3-.4,1.3Z"/>
      <path class="st0" d="M190.6,81.5l.7-2.9c0,1-.2,2.2-.7,2.9Z"/>
      <path class="st0" d="M208.5,60.9c-.7.2-2,.4-2.7,0h2.7s0,0,0,0Z"/>
      <path class="st0" d="M188.1,83.2l.6-2.8-.6,2.8Z"/>
      <path class="st0" d="M190.1,83.5l.4-1.9-.4,1.9Z"/>
      <path class="st0" d="M216.8,58.6l-2.5.6c.6-.3,1.8-.5,2.5-.6Z"/>
      <path class="st0" d="M187.5,85.5l.6-2.3c0,.8-.2,1.9-.6,2.3Z"/>
      <path class="st0" d="M189.8,85.3l.4-1.8-.4,1.8Z"/>
      <path class="st0" d="M187,86.5l.5-1c.2.4-.3,1-.5,1Z"/>
      <path class="st0" d="M189.9,85.8v-.6c0,0,0,.6,0,.6Z"/>
      <path class="st0" d="M208.7,58.7l-1.2.6,1.2-.6Z"/>
      <path class="st0" d="M190,87.4l-.2-1.5.3.6c0,.2,0,.7,0,.9h0Z"/>
      <path class="st0" d="M185.9,135.4c-.3,0,0-.3,0-.5v.5Z"/>
      <path class="st0" d="M196.1,62l.5-.9c0,.3-.4.8-.5.9Z"/>
      <path class="st0" d="M185.9,134.9c0,0-.3-.5,0-.7v.7h0Z"/>
      <path class="st0" d="M186.7,91.9l.3-5.4.3,3.8c0,.3-.4,1.2-.5,1.6Z"/>
      <path class="st0" d="M204.4,59.3l-1-.6c.2,0,.8.6,1,.6Z"/>
      <path class="st0" d="M186.1,134.1l-.7-1.8.7,1.8Z"/>
      <path class="st0" d="M184.1,137.8l-.4-1,.4,1Z"/>
      <polygon class="st0" points="197.2 58.8 201.5 59.7 197 59.7 196.3 59.4 197.2 58.8"/>
      <path class="st0" d="M188.1,137.4l-1.1-.5c.3,0,1,.3,1.1.5Z"/>
      <path class="st0" d="M188,141.1v-3.7c.6.6.6,2.8,0,3.7Z"/>
      <path class="st0" d="M219,58.2c-.5.6-1.7.8-2.2.5l2.2-.5Z"/>
      <path class="st0" d="M184.7,138.4l-.5-.6.5.6Z"/>
      <path class="st0" d="M189.4,89.6l.7-2.4-.7,2.4Z"/>
      <path class="st0" d="M211.3,58.3c-.5.3-1.3.3-2.6.4.5-.3,1.8-.4,2.6-.4Z"/>
      <path class="st0" d="M183.4,135.4l-.5-2.7.5,2.7Z"/>
      <path class="st0" d="M184.6,109c0-.5.3-1.3.4-1.7l-.4,1.7Z"/>
      <path class="st0" d="M203.4,58.7c-.2,0-.9-.3-1.3-.6l1.3.6Z"/>
      <path class="st0" d="M181.9,113.6l.3-6.1.2,4.9c0,.4-.4,1-.5,1.2h0Z"/>
      <path class="st0" d="M182.9,132.7l-.7-1.8.7,1.8Z"/>
      <path class="st0" d="M185.1,138.8l-.4-.5.4.5Z"/>
      <path class="st0" d="M188.8,92.9l.5-3.2-.5,3.2Z"/>
      <path class="st0" d="M193.2,63.6l.5-1-.5,1Z"/>
      <path class="st0" d="M198.2,58.2l-1,.6,1-.6Z"/>
      <path class="st0" d="M185.6,139.4l-.5-.5s.5.4.5.5Z"/>
      <path class="st0" d="M187,136.9l-.9-.6.9.6Z"/>
      <path class="st0" d="M195.1,63.6l.5-1-.5,1Z"/>
      <path class="st0" d="M186.3,93.6c0-.6.2-1.4.4-1.7,0,.4-.3,1.3-.4,1.7Z"/>
      <path class="st0" d="M219.9,57.7l-.9.5c.2,0,.7-.4.9-.5Z"/>
      <path class="st0" d="M185.9,140.8l-.4-1.4.4,1.4Z"/>
      <path class="st0" d="M185.9,141.2v-.4c.6,0,.4,0,0,.4Z"/>
      <path class="st0" d="M188.6,93.9l.2-1c.4.3-.3.9-.2,1Z"/>
      <path class="st0" d="M214.3,58c-.7.3-1.9.3-3.1.4,1.1-.4,2.4-.5,3.1-.4Z"/>
      <path class="st0" d="M185,107.3l.5-1.4-.5,1.4Z"/>
      <path class="st0" d="M202.1,58.1h-3.9c.9-.4,2.9-.4,3.9,0Z"/>
      <path class="st0" d="M219.9,57.7l.4-.4-.4.4Z"/>
      <path class="st0" d="M216.6,57.2c.2.7-1.1.7-2.2.8l2.2-.8Z"/>
      <path class="st0" d="M220.4,57.4v-.5s0,.5,0,.5Z"/>
      <path class="st0" d="M216.6,57.2l.6-.2-.6.2Z"/>
      <path class="st0" d="M195.7,62.6l.4-.6-.4.6Z"/>
      <path class="st0" d="M185.9,146.4v-5.2s0,5.2,0,5.2Z"/>
      <path class="st0" d="M187.7,142l.3-.9-.3.9Z"/>
      <path class="st0" d="M185.8,95.1l.5-1.4c0,.5-.4,1.1-.5,1.4Z"/>
      <path class="st0" d="M182.2,107.4l.4-1.9c0,.6-.3,1.7-.4,1.9Z"/>
      <path class="st0" d="M220.3,56.9h-3.1s3.1,0,3.1,0Z"/>
      <path class="st0" d="M184.4,114.3l-.4-3.6c0-.4.4-1.2.4-1.7v5.3h-.2s0,0,0,0Z"/>
      <path class="st0" d="M188.1,95.8c0-.6.2-1.5.5-1.9l-.5,1.9Z"/>
      <path class="st0" d="M185.4,132.4l-.5-2.7.5,2.7Z"/>
      <path class="st0" d="M185.5,96.1l.4-1.1-.4,1.1Z"/>
      <path class="st0" d="M185.1,97.6c-.3-.5,0-1.2.4-1.4l-.4,1.4Z"/>
      <path class="st0" d="M184.8,129.7l-.4-1.9.4,1.9Z"/>
      <path class="st0" d="M187.5,98.1l.6-2.3-.6,2.3Z"/>
      <path class="st0" d="M187.2,143.5l.5-1.4-.5,1.4Z"/>
      <path class="st0" d="M184.7,100.8l.5-3.2-.5,3.2Z"/>
      <path class="st0" d="M187,100l.4-1.9-.4,1.9Z"/>
      <path class="st0" d="M182.2,130.9l-.3-3.8.3,3.8Z"/>
      <path class="st0" d="M186.7,101.5l.4-1.4-.4,1.4Z"/>
      <path class="st0" d="M184.2,101.8l.4-1-.4,1Z"/>
      <path class="st0" d="M181.9,127.1c.2-.3-.4-1-.5-1.1l.5-12.5v13.5s0,0,0,0Z"/>
      <path class="st0" d="M183.7,103.1l.5-1.2-.5,1.2Z"/>
      <path class="st0" d="M185.5,105.8l.4-1.4-.4,1.4Z"/>
      <path class="st0" d="M186.4,102.5l.3-1-.3,1Z"/>
      <path class="st0" d="M186,104.4c0-.7.2-1.5.4-1.9l-.4,1.9Z"/>
      <path class="st0" d="M193.8,62.6l.3-.5-.3.5Z"/>
      <path class="st0" d="M183.2,104.1l.5-1-.5,1Z"/>
      <path class="st0" d="M185.9,146.4c.4,0,.5,0,.3,0h-.3Z"/>
      <path class="st0" d="M183.7,121.8v-6.3c0-.2.5-1,.8-1.2l-.8,7.5h0Z"/>
      <path class="st0" d="M183.7,123.6l-.4-1c0,0,.4-.3.4-.7v1.7Z"/>
      <path class="st0" d="M186.1,146.3l.6-1.8-.6,1.8Z"/>
      <path class="st0" d="M183.9,126.2c-.2-.7-.3-2-.3-2.7.3.6.4,1.7.3,2.7Z"/>
      <path class="st0" d="M184.4,127.8l-.4-1.6.4,1.6Z"/>
      <path class="st0" d="M183.7,136.8c-.2,0-.5-1-.4-1.4l.4,1.4Z"/>
      <path class="st0" d="M321.7,13.1c0,0-.4-.4-.5-.4l.5.4Z"/>
      <path class="st0" d="M305.4,6l.5-.9c0,.3-.4.8-.5.9Z"/>
      <path class="st0" d="M336.8,52l-.4-1,.4,1Z"/>
      <path class="st0" d="M304.2,5.1l.9-1.6-.2,1.2c0,.3-.5.4-.7.5h0Z"/>
      <path class="st0" d="M339.4,50.9s-.5-.4-.7-.5c0,0,.9.3.7.5Z"/>
      <path class="st0" d="M336.4,51.1l-.4-1,.4,1Z"/>
      <path class="st0" d="M338.7,50.3c-.2,0-.4-.7-.4-.9l.4.9Z"/>
      <path class="st0" d="M337.2,53l-.4-1,.4,1Z"/>
      <path class="st0" d="M340.5,53.1l-.4-1,.4,1Z"/>
      <path class="st0" d="M312.2,3.7l-.4-.5.4.5Z"/>
      <path class="st0" d="M311.7,3.3l-.4-.5.4.5Z"/>
      <path class="st0" d="M335.9,50.1l-.4-1,.4,1Z"/>
      <path class="st0" d="M335.5,49.2l-.4-1,.4,1Z"/>
      <path class="st0" d="M337.6,54.4l-.4-1.4.4,1.4Z"/>
      <path class="st0" d="M340.9,54l-.4-1,.4,1Z"/>
      <path class="st0" d="M310.7,4.1l-.3-.5.3.5Z"/>
      <path class="st0" d="M310.4,3.6l-1-1c0,0,.5.2.5.4l.4.7h0Z"/>
      <path class="st0" d="M338.2,49.5l-.4-1.5.4,1.5Z"/>
      <path class="st0" d="M312.7,4.1l-.5-.5.5.5Z"/>
      <path class="st0" d="M307.2,2.8l-.8,1.3c0-.6.2-1.2.8-1.3Z"/>
      <path class="st0" d="M305.1,3.5c0-.2.4-.8.4-.9,0,0-.4.9-.4.9Z"/>
      <path class="st0" d="M335.1,48.2l-.4-1c0,.2.3,1,.4,1Z"/>
      <path class="st0" d="M311.4,2.8l-.4-.5.4.5Z"/>
      <path class="st0" d="M305.9,5.2l.5-1-.5,1Z"/>
      <path class="st0" d="M311.2,5l-.4-.9.4.9Z"/>
      <path class="st0" d="M313.5,4.7l-.8-.6.8.6Z"/>
      <path class="st0" d="M341.3,55l-.4-1,.4,1Z"/>
      <path class="st0" d="M313.9,5.2s-.4-.4-.4-.5l.4.5Z"/>
      <path class="st0" d="M337.9,48l-.4-1,.4,1Z"/>
      <path class="st0" d="M303.8,5.9l.4-.8-.4.8Z"/>
      <path class="st0" d="M338.1,55s-.4-.5-.5-.6l.5.6Z"/>
      <path class="st0" d="M324.5,13.2s-.3-.3-.4-.4l.4.4Z"/>
      <path class="st0" d="M311.6,5.5l-.4-.5.4.5Z"/>
      <path class="st0" d="M314.4,5.7l-.4-.7.4.7Z"/>
      <path class="st0" d="M309.4,2.5l-.4-.4.4.4Z"/>
      <path class="st0" d="M312,5.9l-.4-.5.4.5Z"/>
      <path class="st0" d="M307.2,2.8l.4-.6-.4.6Z"/>
      <path class="st0" d="M315.3,6.6c-.3,0-.7-.6-.9-.8l.9.8Z"/>
      <path class="st0" d="M338.5,55.5l-.4-.5.4.5Z"/>
      <path class="st0" d="M341.8,56.1l-.5-1,.5,1Z"/>
      <path class="st0" d="M303.4,6.4l.4-.6-.4.6Z"/>
      <path class="st0" d="M305.5,2.6l.4-.5-.4.5Z"/>
      <path class="st0" d="M305,6.6l.4-.6-.4.6Z"/>
      <path class="st0" d="M309.1,2.1h-1.4c0,0,.6-.7.8-.5l.7.5h0Z"/>
      <path class="st0" d="M312.4,6.4l-.4-.5.4.5Z"/>
      <path class="st0" d="M302.9,6.9l.4-.5-.4.5Z"/>
      <path class="st0" d="M304.7,7.2l.4-.6-.4.6Z"/>
      <path class="st0" d="M338.9,57.8l-.4-2.3.4,2.3Z"/>
      <path class="st0" d="M308.7.3l-.9-.2c0,0,.3-.2.4,0l.5.4h0Z"/>
      <path class="st0" d="M306,2.1l.4-.5-.4.5Z"/>
      <path class="st0" d="M313.8,7.4l-1.3-1,1.1.2c.2,0,.4.6.3.8Z"/>
      <path class="st0" d="M342.3,57.5l-.4-1.3.4,1.3Z"/>
      <path class="st0" d="M316.2,7.1l-.9-.5.9.5Z"/>
      <path class="st0" d="M302.5,7.4l.4-.5-.4.5Z"/>
      <path class="st0" d="M304,7.9l.5-.8c0,.2-.4.7-.5.8Z"/>
      <path class="st0" d="M317,7.6l-.9-.5.9.5Z"/>
      <path class="st0" d="M310.9,2.2l-.9-1,.9,1Z"/>
      <path class="st0" d="M302,7.8l.4-.5-.4.5Z"/>
      <path class="st0" d="M314.6,7.9l-.9-.6.9.6Z"/>
      <path class="st0" d="M317.6,7.9l-.5-.5.5.5Z"/>
      <path class="st0" d="M342.7,59l-.4-1.5.4,1.5Z"/>
      <path class="st0" d="M301.6,8.7l.4-.9-.4.9Z"/>
      <path class="st0" d="M334.7,47.2c-.5-.6-.5-2.2-.4-3.1.4.7.4,2.4.4,3.1Z"/>
      <path class="st0" d="M304,7.9l-.7.6c0-.2.5-.6.7-.6Z"/>
      <path class="st0" d="M339.5,58.8c-.2-.2-.5-.8-.6-1l.6,1Z"/>
      <path class="st0" d="M334.3,43.9l-.5-1,.5,1Z"/>
      <path class="st0" d="M333.7,43l-.4-1,.4,1Z"/>
      <path class="st0" d="M337.1,42.8c-.4,0-.6-.8-.7-1,.2.2.7.8.7,1Z"/>
      <path class="st0" d="M336.4,41.6l-.4-.4.4.4Z"/>
      <path class="st0" d="M333.4,42l-.4-1.4.4,1.4Z"/>
      <path class="st0" d="M336,41.3l-.5-.9.5.9Z"/>
      <path class="st0" d="M335.5,40.4c0-.2-.4-.9-.5-1l.5,1Z"/>
      <path class="st0" d="M333,40.6l-.6-2.3.6,2.3Z"/>
      <path class="st0" d="M339.8,59.3l-.4-.5s.5.3.4.5Z"/>
      <path class="st0" d="M343,62.9c-.3-1-.4-2.9-.3-3.9.3,1,.3,2.6.3,3.9Z"/>
      <path class="st0" d="M335,39.5l-.5-2.8.5,2.8Z"/>
      <path class="st0" d="M310.1,1.3l-.5-.5.5.5Z"/>
      <path class="st0" d="M332.4,38.2l-.4-1.9c.2.5.4,1.3.4,1.9Z"/>
      <path class="st0" d="M334.5,36.7l-.3-1.5c.2.3.5,1,.3,1.5Z"/>
      <path class="st0" d="M340.2,63.5l-.3-4.1.3,4.1Z"/>
      <path class="st0" d="M332,36.3l-.4-1.4.4,1.4Z"/>
      <path class="st0" d="M306.4,1.6c0-.3.4-.8.5-.8l-.5.8Z"/>
      <path class="st0" d="M331.6,34.9l-.4-1.4.4,1.4Z"/>
      <path class="st0" d="M334.3,35.2c-.2-.4-.4-1.3-.4-1.9l.4,1.9Z"/>
      <path class="st0" d="M331.2,33.5l-.4-1.4.4,1.4Z"/>
      <path class="st0" d="M333.8,33.3l-.6-2.3c.5.4.5,1.6.6,2.3Z"/>
      <path class="st0" d="M315.5,8.8l-.9-.9c.4,0,.9.4.9.9Z"/>
      <path class="st0" d="M330.7,31.9l-.5-1.8.5,1.8Z"/>
      <path class="st0" d="M339.9,52.1l-.6-1.3.6,1.3Z"/>
      <path class="st0" d="M333.2,31l-.3-1,.3,1Z"/>
      <path class="st0" d="M302.7,9.4l.5-.9-.5.9Z"/>
      <path class="st0" d="M318.8,9l-.8-.6.8.6Z"/>
      <path class="st0" d="M301.2,9.4l.4-.7-.4.7Z"/>
      <path class="st0" d="M316.1,9.3l-.5-.5c.2,0,.4.4.5.5Z"/>
      <path class="st0" d="M343.5,64.6c-.3-.3-.4-1.3-.4-1.7l.4,1.7Z"/>
      <path class="st0" d="M332.9,29.9l-.4-1,.4,1Z"/>
      <path class="st0" d="M330.2,30.2l-.4-1.3.4,1.3Z"/>
      <path class="st0" d="M340.7,65.2l-.6-1.7.6,1.7Z"/>
      <path class="st0" d="M319.3,9.4l-.5-.4.5.4Z"/>
      <path class="st0" d="M332.5,29l-.4-.5.4.5Z"/>
      <path class="st0" d="M344.2,65.6c-.3,0-.5-.8-.7-1l.7,1Z"/>
      <path class="st0" d="M300.4,10.3l.8-1-.8,1Z"/>
      <path class="st0" d="M341,74.5l-.2-9.3.2,9.3Z"/>
      <path class="st0" d="M302.4,9.8l.4-.5-.4.5Z"/>
      <path class="st0" d="M344.2,75v-9.3c.3,2.5.2,7,0,9.3Z"/>
      <path class="st0" d="M332.1,28.5l-.4-.6.4.6Z"/>
      <path class="st0" d="M316.9,9.8l-.8-.6.8.6Z"/>
      <path class="st0" d="M329.7,28.8l-.4-1.5.4,1.5Z"/>
      <path class="st0" d="M319.8,9.7c0,0-.4-.2-.4-.4l.4.4Z"/>
      <path class="st0" d="M301.9,10.4l.4-.5-.4.5Z"/>
      <path class="st0" d="M331.7,27.9c-.2,0-.4-.6-.5-1l.5,1Z"/>
      <path class="st0" d="M317.7,10.3l-.9-.5.9.5Z"/>
      <path class="st0" d="M329.2,27.3l-.4-1,.4,1Z"/>
      <path class="st0" d="M321,10.3l-1.2-.6c.4.2,1.1.4,1.2.6Z"/>
      <path class="st0" d="M299.7,11.2c0-.3.4-.9.7-.9l-.7.9Z"/>
      <path class="st0" d="M301.5,10.9l.4-.5-.4.5Z"/>
      <path class="st0" d="M342.8,75.2l-1.9-.7,1.9.7Z"/>
      <path class="st0" d="M344.2,75c0,0-.7.5-.8.4l-.5-.2,1.3-.2h0Z"/>
      <path class="st0" d="M331.1,27c-.2-.3-.4-.9-.4-1.2l.4,1.2Z"/>
      <path class="st0" d="M328.9,26.3l-.4-1,.4,1Z"/>
      <path class="st0" d="M318.3,10.6l-.5-.4.5.4Z"/>
      <path class="st0" d="M328.4,25.4l-.4-1,.4,1Z"/>
      <path class="st0" d="M322.1,11.2c-.4,0-.9-.4-1-.8l1,.8Z"/>
      <path class="st0" d="M301,11.4l.4-.5-.4.5Z"/>
      <path class="st0" d="M328.1,24.5l-.4-1,.4,1Z"/>
      <path class="st0" d="M319.1,11.3l-.8-.6.8.6Z"/>
      <polygon class="st0" points="300.2 12.3 299.4 13 299 12.1 299.7 11.2 300.2 12.3"/>
      <path class="st0" d="M300.6,11.8l.4-.5-.4.5Z"/>
      <path class="st0" d="M330.7,25.7l-.4-2.5.4,2.5Z"/>
      <path class="st0" d="M330.4,23.3l-.6-1c.2.2.6.8.6,1Z"/>
      <path class="st0" d="M327.6,23.4l-.5-1.3.5,1.3Z"/>
      <path class="st0" d="M319.6,11.6l-.5-.4.5.4Z"/>
      <path class="st0" d="M309.5.8l-.8-.6.8.6Z"/>
      <path class="st0" d="M329.8,22.2l-.4-.4.4.4Z"/>
      <path class="st0" d="M327.1,22.1c-.2,0-.5-.4-.4-.6l.4.6Z"/>
      <path class="st0" d="M329.4,21.7l-.5-.9.5.9Z"/>
      <path class="st0" d="M323.2,11.7l-1.2-.7,1.2.7Z"/>
      <path class="st0" d="M326.8,21.6l-.4-1.4.4,1.4Z"/>
      <path class="st0" d="M329,20.9l-.4-1,.4,1Z"/>
      <path class="st0" d="M300.2,12.3l.4-.5-.4.5Z"/>
      <path class="st0" d="M328.5,19.9l-.4-1,.4,1Z"/>
      <path class="st0" d="M326.3,20l-.5-1.8.5,1.8Z"/>
      <path class="st0" d="M320.3,12.1l-.8-.5.8.5Z"/>
      <path class="st0" d="M328.1,19l-.4-1,.4,1Z"/>
      <path class="st0" d="M325.9,18.3l-.4-.6c0,0,.4.5.4.6Z"/>
      <path class="st0" d="M323.7,12.2l-.4-.5c0,0,.4.4.4.5Z"/>
      <path class="st0" d="M298.4,12.8l.6-.7-.6.7Z"/>
      <path class="st0" d="M327.6,18l-.4-1,.4,1Z"/>
      <path class="st0" d="M325.3,17.7l-.5-.9.5.9Z"/>
      <path class="st0" d="M321.3,12.7l-.9-.6.9.6Z"/>
      <path class="st0" d="M327.2,17.1c0,0-.4-.5-.4-.6.2,0,.4.3.4.6Z"/>
      <path class="st0" d="M324.8,16.9l-.4-.6.4.6Z"/>
      <path class="st0" d="M326.8,16.6l-.4-.5.4.5Z"/>
      <path class="st0" d="M324.2,12.8l-.4-.6.4.6Z"/>
      <path class="st0" d="M326.3,16.1l-.4-.5.4.5Z"/>
      <path class="st0" d="M324.5,16.3l-.5-.9.5.9Z"/>
      <path class="st0" d="M325.9,15.6s-.4-.4-.4-.5l.4.5Z"/>
      <path class="st0" d="M323.9,15.6l-.4-.6.4.6Z"/>
      <path class="st0" d="M296.6,15.1h.4c0,.5,0,.4-.4,0Z"/>
      <path class="st0" d="M323.6,15l-.4-.6.4.6Z"/>
      <polygon class="st0" points="298 14.5 297.2 15.1 297.2 14.7 298 14.5"/>
      <path class="st0" d="M297.9,13.3l.4-.5-.4.5Z"/>
      <path class="st0" d="M296.6,15.1c-.4,0-.2-.3,0-.5v.5Z"/>
      <path class="st0" d="M325.5,15.1l-.5-1,.5,1Z"/>
      <path class="st0" d="M298,14.5l.4-.5-.4.5Z"/>
      <polygon class="st0" points="297.2 14.7 296.7 14.6 297.1 14.1 297.2 14.7"/>
      <path class="st0" d="M323.1,14.3l-.8-.9.8.9Z"/>
      <path class="st0" d="M298.5,14l.4-.5-.4.5Z"/>
      <path class="st0" d="M297.1,14.1l.4-.4-.4.4Z"/>
      <path class="st0" d="M325,14.1l-.4-1,.4,1Z"/>
      <path class="st0" d="M322.3,13.5l-.6-.5.6.5Z"/>
      <path class="st0" d="M298.9,13.6l.4-.6-.4.6Z"/>
      <path class="st0" d="M297.5,13.7l.4-.5-.4.5Z"/>
      <path class="st0" d="M307.8.1l-.9.7s.9-.8.9-.7Z"/>
      <path class="st0" d="M337.4,46.9c-.6-.8-.6-3-.4-4.1l.4,4.1Z"/>
      <path class="st0" d="M318,8.4l-.5-.4c0,0,.4.4.5.4Z"/>
      <polygon class="st0" points="257.8 47.4 256.5 47.4 256.5 46.5 257.8 47.4"/>
      <path class="st0" d="M255.2,45.3l-.4-.7c0-.2.4.5.4.7Z"/>
      <path class="st0" d="M245.1,47.4l.5-.4-.5.4Z"/>
      <path class="st0" d="M257.8,47.7v-.5c.4,0,.2.4,0,.5Z"/>
      <path class="st0" d="M240.7,50.6l.4-.5-.4.5Z"/>
      <path class="st0" d="M244.5,50.8l.5-.4-.5.4Z"/>
      <path class="st0" d="M240.2,51.2l.4-.5-.4.5Z"/>
      <path class="st0" d="M254.2,46.8l-.4-.5.4.5Z"/>
      <path class="st0" d="M245.7,49.7l-.8.7.8-.7Z"/>
      <path class="st0" d="M248.6,44.9c0,0,.4-.4.5-.5,0,0-.4.4-.5.5Z"/>
      <path class="st0" d="M244.5,50.8l-.8.6.8-.6Z"/>
      <path class="st0" d="M250.1,46.4l-.9.6.9-.6Z"/>
      <path class="st0" d="M239.8,51.6l.4-.5-.4.5Z"/>
      <path class="st0" d="M243.1,51.7l.5-.4-.5.4Z"/>
      <path class="st0" d="M237.5,54.7c-.4,0-.7.2-.9.2l-.6-.2h1.5Z"/>
      <path class="st0" d="M239.2,54.2l-1.7.5,1.7-.5Z"/>
      <path class="st0" d="M254.6,47.4l-.4-.5.4.5Z"/>
      <path class="st0" d="M236,54.7l-1.9-.6,1.9.6Z"/>
      <path class="st0" d="M239.2,54.2l.5-.5s-.4.5-.5.5Z"/>
      <path class="st0" d="M246.4,46.4l-.8.6.8-.6Z"/>
      <path class="st0" d="M256.5,46.5l-.8-.5.8.5Z"/>
      <path class="st0" d="M253.8,46.4c0-.2-.3-.4-.5-.4l.5.4Z"/>
      <path class="st0" d="M250.1,46.4l.5-.4-.5.4Z"/>
      <path class="st0" d="M234.1,54.1l.3-.7-.3.7Z"/>
      <path class="st0" d="M246.4,46.4l.5-.5-.5.5Z"/>
      <path class="st0" d="M248.6,44.9l-1,.6,1-.6Z"/>
      <path class="st0" d="M245.1,47.4l-1.2.6,1.2-.6Z"/>
      <path class="st0" d="M253.2,45.9l-.7-.5.7.5Z"/>
      <polygon class="st0" points="256.5 48.3 255.1 47.8 256.5 47.4 256.5 48.3"/>
      <path class="st0" d="M252.5,45.5h-.9s.4-.4.4-.4c0,0,.3.2.5.4h0Z"/>
      <path class="st0" d="M251.6,45.6l-.9.5.9-.5Z"/>
      <path class="st0" d="M247.7,45.5l-.8.5.8-.5Z"/>
      <path class="st0" d="M248,47.9l.5-.4-.5.4Z"/>
      <path class="st0" d="M243.3,48.3c0,0,.4-.5.5-.4l-.5.4Z"/>
      <path class="st0" d="M248,47.9l-.8.6.8-.6Z"/>
      <path class="st0" d="M257.4,48.3l.4-.6-.4.6Z"/>
      <path class="st0" d="M242.9,48.8l.4-.5-.4.5Z"/>
      <path class="st0" d="M255.7,46c-.2,0-.4-.7-.5-.8l.5.8Z"/>
      <path class="st0" d="M254.8,44.6l-3.9-.2,3.9.2Z"/>
      <path class="st0" d="M249.3,47l-.8.5.8-.5Z"/>
      <path class="st0" d="M246.8,48.9l.4-.4-.4.4Z"/>
      <path class="st0" d="M240.9,53.2l-1.2.5,1.2-.5Z"/>
      <path class="st0" d="M257.4,48.3c0,.2-.5.4-.4.5,0,0-.4-.2-.4-.4h.9s0,0,0,0Z"/>
      <path class="st0" d="M242.4,49.2l.4-.4-.4.4Z"/>
      <path class="st0" d="M235.5,53l-1.1.5,1.1-.5Z"/>
      <path class="st0" d="M246.2,49.4l.4-.5-.4.5Z"/>
      <path class="st0" d="M250.8,44.4l-1.4-.5c.2-.2.8-.5.9-.3l.4.8h0Z"/>
      <path class="st0" d="M242.4,49.2l-.8.6.8-.6Z"/>
      <path class="st0" d="M241.9,52.6l-1,.6,1-.6Z"/>
      <path class="st0" d="M237.9,52.4l-2.6.5,2.6-.5Z"/>
      <path class="st0" d="M241.9,52.6l.4-.4-.4.4Z"/>
      <path class="st0" d="M245.7,49.7l.5-.4-.5.4Z"/>
      <path class="st0" d="M241.1,50.2l.5-.5-.5.5Z"/>
      <path class="st0" d="M249.1,44.5l.4-.6-.4.6Z"/>
      <path class="st0" d="M239.4,52.1c-.2.2-.9.6-1.3.3l1.3-.3Z"/>
      <path class="st0" d="M243.1,51.7l-.8.6.8-.6Z"/>
      <path class="st0" d="M239.4,52.1l.4-.6-.4.6Z"/>
      <path class="st0" d="M255.1,47.8c0,0-.4-.4-.4-.5l.4.5Z"/>
      <path class="st0" d="M341.9,86.5l-1.1-.3c0,0,.5-.6.6-.4,0,0,.4.7.4.7Z"/>
      <path class="st0" d="M340.5,86.8l.4-.6-.4.6Z"/>
      <path class="st0" d="M341.7,89.9l.2-3.4c.4.7.4,2.6-.2,3.4Z"/>
      <path class="st0" d="M340,87.4l.4-.5-.4.5Z"/>
      <path class="st0" d="M339.5,88.1l.5-.9-.5.9Z"/>
      <path class="st0" d="M339.5,89.3c0,0-.4-.4-.4-.6l.4-.6v1.1h0Z"/>
      <path class="st0" d="M339.8,89.8l-.4-.5.4.5Z"/>
      <path class="st0" d="M341.7,89.9c-.3.4-1.6.3-1.9,0h1.9,0Z"/>
      <polygon class="st0" points="294.1 18 293.7 17.8 294.1 17.4 294.1 18"/>
      <polygon class="st0" points="294.9 16.8 295.4 17.5 294.5 18 294.1 17.4 294.9 16.8"/>
      <path class="st0" d="M296.3,16.7l.3-.6c0,0,0,0-.3.6Z"/>
      <polygon class="st0" points="293.4 18.4 293.2 18.3 293.7 17.8 293.4 18.4"/>
      <polygon class="st0" points="296.3 16.7 295.4 17.5 294.9 16.8 295.4 15.8 296.3 16.7"/>
      <path class="st0" d="M296.5,16.1l-1.1-.3c0-.2.5-.5.6-.4,0,0,.5.6.5.7h0Z"/>
      <path class="st0" d="M292.8,18.7l.5.5c.2.2,0,0-.5-.5Z"/>
      <path class="st0" d="M292.8,18.7l.3-.4-.3.4Z"/>
      <polygon class="st0" points="294 18.5 294.1 18 294.5 18 294 18.5"/>
      <polygon class="st0" points="293.4 19.2 293.4 18.4 294 18.5 293.4 19.2"/>
      <path class="st0" d="M340.4,95.5c.2.3-.5.6-.6.5l-.3-.5h.9Z"/>
      <path class="st0" d="M340.4,95.5v-2.4s0,2.4,0,2.4Z"/>
      <path class="st0" d="M339.5,95.5c-.4-.5-.4-1.6,0-1.9v1.9h0Z"/>
      <path class="st0" d="M339.5,93.6l.5-.4-.5.4Z"/>
      <path class="st0" d="M340.4,93.1h-.4q0-.4.4,0Z"/>
      <path class="st0" d="M273.4,37.8l-.9.5.9-.5Z"/>
      <path class="st0" d="M272.5,38.3l-.9.5.9-.5Z"/>
      <path class="st0" d="M276.3,38.4l.4-.4-.4.4Z"/>
      <path class="st0" d="M284.2,29.4l.5-1-.5,1Z"/>
      <path class="st0" d="M282.2,29.3l.4-.5-.4.5Z"/>
      <polygon class="st0" points="288.3 23.6 288.3 24.1 287.4 24.1 288.3 23.6"/>
      <path class="st0" d="M263.6,45.9l-.9.5.9-.5Z"/>
      <path class="st0" d="M259.6,47.4c-.4,0-.5-.9-.4-1l.4-.3v1.3s0,0,0,0Z"/>
      <path class="st0" d="M281.8,29.7l.4-.5-.4.5Z"/>
      <path class="st0" d="M283.8,29.9l.4-.5-.4.5Z"/>
      <path class="st0" d="M264.7,45.5l-1.1.6,1.1-.6Z"/>
      <path class="st0" d="M288.8,24.1v-.5s0,.5,0,.5Z"/>
      <path class="st0" d="M281.3,30.2l.4-.5-.4.5Z"/>
      <path class="st0" d="M260.6,45.5l-.9.7.9-.7Z"/>
      <path class="st0" d="M265.6,45.1l-1,.4,1-.4Z"/>
      <path class="st0" d="M260.6,45.5l.4-.4-.4.4Z"/>
      <path class="st0" d="M286.7,25.1c0-.5.5-1,.8-1l-.8,1Z"/>
      <path class="st0" d="M288.3,25.5v-1.3h.5c0,.7-.4,1.4-.5,1.4h0Z"/>
      <path class="st0" d="M266.5,44.6l-.9.5.9-.5Z"/>
      <path class="st0" d="M286.1,25.8l.6-.8-.6.8Z"/>
      <path class="st0" d="M261.9,44.4l-.9.7.9-.7Z"/>
      <path class="st0" d="M262.7,46.5l-1,.6c.2-.2.6-.5,1-.6Z"/>
      <path class="st0" d="M288.3,25.5l-1.4,1,.4-.7c0-.2.5-.3,1.1-.4h0Z"/>
      <path class="st0" d="M267.4,44l-.9.5.9-.5Z"/>
      <path class="st0" d="M263.2,44l-1.3.4,1.3-.4Z"/>
      <path class="st0" d="M267.4,44l.5-.3-.5.3Z"/>
      <path class="st0" d="M263.2,44l.5-.5c0,0-.4.6-.5.5Z"/>
      <path class="st0" d="M286.1,25.8l-.8.8.8-.8Z"/>
      <path class="st0" d="M268.9,43.2l-1,.6,1-.6Z"/>
      <path class="st0" d="M263.7,43.5l.4-.4s-.3.3-.4.4Z"/>
      <path class="st0" d="M269.8,42.7l-.9.5.9-.5Z"/>
      <path class="st0" d="M288.7,23.6h-.4c0-.5.3-.2.4,0Z"/>
      <path class="st0" d="M265,42.5l-1,.7,1-.7Z"/>
      <path class="st0" d="M270.6,42.2l-.9.5.9-.5Z"/>
      <path class="st0" d="M266.4,42.1l-1.4.4,1.4-.4Z"/>
      <path class="st0" d="M271.5,41.7l-.9.5.9-.5Z"/>
      <path class="st0" d="M267.2,41.6c-.2,0-.6.4-.8.5l.8-.5Z"/>
      <path class="st0" d="M272.3,41.4l-.8.4.8-.4Z"/>
      <path class="st0" d="M284.3,27.5l1-1-1,1Z"/>
      <path class="st0" d="M267.2,41.6s.4-.6.4-.6l-.4.6Z"/>
      <path class="st0" d="M283.4,30.4l.4-.5-.4.5Z"/>
      <path class="st0" d="M272.3,41.4l.5-.5-.5.5Z"/>
      <path class="st0" d="M268.9,40.6l-1.2.5,1.2-.5Z"/>
      <path class="st0" d="M285.5,27.9l-.7.5c0-.2.5-.5.7-.5Z"/>
      <path class="st0" d="M282.7,28.8l.4-.5-.4.5Z"/>
      <path class="st0" d="M280.9,30.7l.4-.5-.4.5Z"/>
      <path class="st0" d="M282.9,30.8l.4-.5-.4.5Z"/>
      <path class="st0" d="M280.4,31.2l.4-.5-.4.5Z"/>
      <path class="st0" d="M282.5,31.4l.4-.5s-.4.5-.4.5Z"/>
      <path class="st0" d="M273.6,40.3l-.8.5.8-.5Z"/>
      <path class="st0" d="M280,31.6l.4-.5-.4.5Z"/>
      <path class="st0" d="M282,32.1l.4-.8-.4.8Z"/>
      <path class="st0" d="M268.9,40.6l.4-.3-.4.3Z"/>
      <path class="st0" d="M283.9,27.8l-.8.5.8-.5Z"/>
      <path class="st0" d="M274.4,39.8l-.9.5.9-.5Z"/>
      <path class="st0" d="M279.6,32.1l.4-.5s-.4.4-.4.5Z"/>
      <path class="st0" d="M279,33l.5-.9-.5.9Z"/>
      <path class="st0" d="M281.7,32.8l.4-.7-.4.7Z"/>
      <path class="st0" d="M281.2,33.6l.5-.9-.5.9Z"/>
      <path class="st0" d="M278.6,33.9l.4-1-.4,1Z"/>
      <path class="st0" d="M270.2,39.6l-.9.7.9-.7Z"/>
      <path class="st0" d="M285.5,27.9l.5-.5-.5.5Z"/>
      <path class="st0" d="M261.4,47.4c-.4.6-1.5.5-1.8,0h1.8Z"/>
      <path class="st0" d="M280.7,34.1l.4-.5-.4.5Z"/>
      <path class="st0" d="M283.9,27.8l.4-.3-.4.3Z"/>
      <path class="st0" d="M278.2,34.9l.4-1-.4,1Z"/>
      <path class="st0" d="M280.3,34.7l.4-.5-.4.5Z"/>
      <path class="st0" d="M279.9,35.1l.4-.4-.4.4Z"/>
      <path class="st0" d="M278.2,34.9c0,.2-.5.6-.8.6l.8-.6Z"/>
      <path class="st0" d="M275.3,39.4l-.9.5.9-.5Z"/>
      <path class="st0" d="M286,27.6l.4-.5-.4.5Z"/>
      <path class="st0" d="M270.2,39.6l.5-.4-.5.4Z"/>
      <path class="st0" d="M279.4,35.6l.5-.6-.5.6Z"/>
      <path class="st0" d="M276.9,35.9l.5-.4-.5.4Z"/>
      <path class="st0" d="M278.9,36l.4-.5-.4.5Z"/>
      <path class="st0" d="M276.9,35.9l-.8.6.8-.6Z"/>
      <path class="st0" d="M278.5,36.6l.4-.5-.4.5Z"/>
      <path class="st0" d="M276.1,36.4l-.9.5.9-.5Z"/>
      <path class="st0" d="M278.1,37.1l.4-.5-.4.5Z"/>
      <path class="st0" d="M275.2,36.9l-.9.5.9-.5Z"/>
      <path class="st0" d="M277.6,37.5l.4-.5-.4.5Z"/>
      <path class="st0" d="M261.4,47.4l.4-.4-.4.4Z"/>
      <path class="st0" d="M286.5,27.1l.4-.5c0,0-.3.5-.4.5Z"/>
      <path class="st0" d="M275.3,39.4c0,0,.4-.4.5-.4,0,.2-.3.4-.5.4Z"/>
      <path class="st0" d="M274.3,37.4l-.9.5.9-.5Z"/>
      <path class="st0" d="M277.6,37.5l-.8.6.8-.6Z"/>
      <path class="st0" d="M271.6,38.8l-.9.5.9-.5Z"/>
      <path class="st0" d="M275.9,38.9l.4-.5-.4.5Z"/>
      <path class="st0" d="M229.6,54l-.4-.3c-.2-.2.2.2.4.3Z"/>
      <path class="st0" d="M229.2,55.5c0,0-.4.5-.4.5,0,0-.4-.2-.5-.3l.9-.2h0Z"/>
      <path class="st0" d="M228.3,55.6h-.5v-.6h.3c.2-.2,0,.2.3.6h0Z"/>
      <path class="st0" d="M229.2,55.5v-.4c0,0,.4,0,.4,0,0,0-.3.3-.4.4Z"/>
      <polygon class="st0" points="229.1 55 228 55.1 229.3 53.7 229.1 55"/>
      <polygon class="st0" points="230.4 54 230.4 54.7 229.5 55 229.6 54 230.4 54"/>
      <path class="st0" d="M227.3,55.5v-.5s0,.5,0,.5Z"/>
      <path class="st0" d="M231.2,54.6l-.4-.7.4.7Z"/>
      <path class="st0" d="M227.9,55.1h-.4s.4,0,.4,0Z"/>
      <path class="st0" d="M227.3,55.5h.4c-.2.2-.4.3-.4,0Z"/>
      <path class="st0" d="M230.4,54.7h.8s-.8,0-.8,0Z"/>
      <path class="st0" d="M231,53.9h-.4c0,0,.4,0,.4,0Z"/>
      <path class="st0" d="M224.7,55.5h-.4c0-.4.2-.2.4,0Z"/>
      <path class="st0" d="M223.2,55.3l-.3,1.1c-.2,0-.4,0-.3,0l-.6-.5,1.1-.7h0Z"/>
      <path class="st0" d="M222.1,56.5v-.6s0,.6,0,.6Z"/>
      <polygon class="st0" points="224.2 56.4 224.3 56 224.8 55.9 224.2 56.4"/>
      <path class="st0" d="M224.2,56.4c0,.2-.4.6-.6.5l-.7-.5h1.3Z"/>
      <path class="st0" d="M222.1,56.5l.5-.2c-.3.4-.4.3-.5.2Z"/>
      <polygon class="st0" points="224.2 55.6 224.3 56 223.5 55.6 224.2 55.6"/>
      <path class="st0" d="M223.5,55.6l-.3-.4.3.4Z"/>
      <path class="st0" d="M224.8,55.9v-.5s0,.5,0,.5Z"/>
      <path class="st0" d="M291.8,21.4l.4-.5-.4.5Z"/>
      <path class="st0" d="M289.6,21.6l.4-.5-.4.5Z"/>
      <path class="st0" d="M292.4,19.8l-.4-.3c-.2-.2,0,0,.4.3Z"/>
      <path class="st0" d="M290.5,22.7c0,.2-.5.6-.7.5l-1-.6h1.7,0Z"/>
      <path class="st0" d="M290.5,22.7l.4-.4-.4.4Z"/>
      <path class="st0" d="M288.8,22.6s.2-.3.4-.5l-.4.5Z"/>
      <path class="st0" d="M290.9,22.3l.4-.5-.4.5Z"/>
      <path class="st0" d="M291.4,20.1l.6-.7-.6.7Z"/>
      <path class="st0" d="M292.2,20.9l.2-1s.4.6.3.7l-.5.4h0Z"/>
      <path class="st0" d="M291.4,20.1l-.8.6.8-.6Z"/>
      <path class="st0" d="M290.2,21.2l.4-.5-.4.5Z"/>
      <path class="st0" d="M289.2,22.1l.5-.5-.5.5Z"/>
      <path class="st0" d="M291.3,21.8l.4-.5-.4.5Z"/>
      <g>
        <path class="st0" d="M256.1,237.3h-1.7c.2-.3.7-.6.9-.5l.8.5h0Z"/>
        <path class="st0" d="M272.5,246.9c0,0-.6.5-.7.4l-.4-.6,1,.2h0Z"/>
        <path class="st0" d="M222.3,180.8c0,.3,0,.2.3-.6l-.3.6Z"/>
        <path class="st0" d="M335.9,104.5l.4-1-.4,1Z"/>
        <path class="st0" d="M338.7,103.9l.4-1-.4,1Z"/>
        <path class="st0" d="M332.4,114.4c0,.2.4-.3.5-.5,0,0-.4.4-.5.5Z"/>
        <path class="st0" d="M336.4,103.6l.4-1-.4,1Z"/>
        <path class="st0" d="M332.4,114.4l-.9,3c-1.2,4.3-3.5,2.8-1.2,10.6l1.4,4.9,1.4,7.9,1.9,9.2,1.3,9,1.3,9,.9,5.6.9,6.3,1.1,8.3,2.4,15,.3,9c0,1.6-1,2.6-2,3.5-2.3,2.2-3.7,2.5-7.2.3l-3.4-2.2c-1-.7-1.9-1.3-3.1-1.2-2.4.3-3.9-.4-6-1.2l-6.5-.3-6.2-.4-13.3,1.7-11,1.3-10.5,1.6-7.3.3c-3.5,0-6.7,0-10.3,0-5-.4-10.3,0-14.7,2.2l-3.1,3.3c1.5,3.1,3.1,6.4,3.6,9.7-.3,0-.5,1.1-.5,1.6l-4.2-8.2-3.3.4c0-1,0-2.4.4-3l2-3.3-6.8,1.6-8.4,2.9-8.1,3.4-4.7,1.7-9.7,4.6-10.9,5.4-2.9,1.6c-2.7,1.5-5.7,2.6-8,4.8-1,1-1.9,1.3-2.8.7-.6-.4-.9-2.7-.3-3l5.4-2.9c2.6-1.3,4.8-3.6,7-5.6,1.4-1.3,3-2.6,3.9-4.5.5-1.2-.7-3.4-1.1-4.7l-1.4-5.3-1.8-8.6-.7-4.9-.5-4.3-1.1-6.5-1.2-9.3c-.4-3.4-2-6.9-2-10.4v-14.9c0,0-5.8-4.1-5.8-4.1-.5-.4-1.4-1.7-1.2-2.3.9,0,2.3,0,2.8,0l4.4,1.9.8-4.5c1.3-.6,2.6,1,2.6,2.2v5.3s3.7,2.7,3.7,2.7c1.8,1.3,3.2,3.2,4.6,5l8.7,10.1c3.9,4.5,4.9-1.5,10.7.3l6.9,2.2c.5.2,1.4,1.3,1.1,1.8-.8,1.2-3.7.4-3.2,1.2l.8,1.1,3.5.5c.7.4,1.9.5,2.4,0l-1.6-2.9c.4,0,.5-.2.3-.6l1.6.5,8.1,3,.6,2.1c2-.2,2.6.4,3.5,1.5l4.9,5.7c1.1,1.4,1.9,3,2.5,4.6h-.5s-.6,0-.6,0l-2.2-1.4c1.4,2.5,2.2,3.9,2.5,6.6l2.3,3.1c0-1,0-2,0-2.6h.4c.4,1,.4,1,.7,0l.9,4.9c.2.9-.4,2.4-.9,3.6,1,.5,2.6.6,4.1.3,2.7-.4,5.6,0,8.3,0h9.9s9.5-1,9.5-1l12.7-2,14.6-1.6,6.2-.3,7.5.3c2.6,0,5,0,7.2,1.3,7.2,0,10.9,6.6,13.6,4.4,1.2-3.9-.4-7.5-.9-11.3l-.7-5.8-1.3-7.7-1.3-7.7-2.3-14.6-1.1-7.2-1.6-9.3-.4-3c-1-3.2-1.5-6.3-1.8-9.5-.6-1-1.6-2.7-1.8-3.7l-.9-5c-.4-2.3-.5-5.1.6-7.1l2.6-4.5,1.8-2.8c0,.4,0,.9.4.8l1-.4h0l.8.3ZM185.4,165.5c.4-.2,1.2-1,1-1.1l-1.3-1.2.4,2.4h0ZM201.3,181.5c-1.7-2.9-2.8-4.5-4.8-6.1l2.5,7.2,2.3-1h0ZM190,182.6l.4-.3v-3.1c0,0-.5.3-.5.3v3.1s.2,0,.2,0ZM186.9,188.3l.4-.3v-2.7c0,0-.5.3-.5.3v2.7s.2,0,.2,0ZM204.7,197.2v-8.3c0-1.1-.8-2.5-1.7-3.3l-3.6,6.4c-1.8,2.3-2.3,6.1-.7,8.6,2.5,0,6.1-1.3,6-3.3h0ZM230.1,186.2l.3-.2-.3.2ZM230.7,186.2l-.2.6,1.5,2.1,2.8,4.6,1.2-2.5-2.4-2.9c-1-1.1-1.7-2-2.9-1.8h0ZM208.1,194.5c.9-.8,1.4-1.8,1.2-2.6-.2-.6-.9-1.2-1.8-1.8,0,1.9,0,3,.5,4.4h0ZM217.6,214.3l1.9,5.4c3.6-.3,8.7-2.3,8.7-3l-.3-1.9c-.5-3.4-1.9-6.3-3.2-9.3-.7-1.8-.6-3.8-1.9-5.8-.7-1-1.1-3.7-1.3-5-1.8-.5-2.8-1-3.9-2.6l-3.4-1.1c-.2,2.9,1.8,4.8,4.4,4.4l1.5,3.9c.8,2.2,1.4,3.8,2.8,5.6,1.4,1.8,1.9,3.9,2,6.2,0,1.4.6,3.9,0,5.1-.7,1.8-3.7,1.9-5.1,1.1l-1.9-3.3-.3.4h-.2ZM194.7,199l-.2-4.5c-1.1,1.6-1.1,3.7-.2,4.8l.4-.2h0ZM195,199.7v-.6s0,.6,0,.6ZM205.3,201.4l1.9.6c.3,0,.4-1,.3-1.2l-.7-1.1-1.5,1.8h0ZM215.1,204.1l-.7-4c-1.1,1.5-.4,3.4.3,4.2l.4-.2h0ZM197.1,201.6l-.2.2.2.2.2-.2-.2-.2ZM193.9,206.6l-2.1-4.1c-.4,1.5,0,3,.9,4.5l.4.8c0,0,.9-1,.8-1.1h0ZM215.2,204.4l-.3,1c-.3.2,1,.2.9,0l-.6-1h0ZM214.1,222.3l-2.2-5.1c-1.9-4.3-.9-8-3.3-8.4-.4,0-1.3,1.3-1.1,1.9l2.4,7.2c.6,1.9.7,3.4.8,5.6l3.4-1.2h0ZM241.9,212.8c1.3-.7,2.5-1.6,2.1-3.3l-3.5,1.5c-.4,0-.5,1.3-.3,1.5s1.2.4,1.6.2h0ZM192.8,214l-1.9-2.5.4,4.4,1.6-1.9h0ZM217.4,213.2v.8s0-.8,0-.8ZM204.1,220.5l.2-.3-.2.3ZM204.5,220.6l-.2.2v3.1c0,.7.6,2.4,1.1,2.1l2.1-1-3.1-4.5h0ZM199.1,227l-1.5-5.8c-1.4,1.3-.2,2.2,0,3.1l.6,5.6c1-.7,1.3-2,1.1-3h0Z"/>
        <path class="st0" d="M339,103l.4-1-.4,1Z"/>
        <path class="st0" d="M333,113.9l.4-.6-.4.6Z"/>
        <path class="st0" d="M331.1,114c0-.2.4-.6.4-.4l-.4.4Z"/>
        <path class="st0" d="M339.6,102l.4-.9-.4.9Z"/>
        <path class="st0" d="M336.8,102.6l.5-1.7-.5,1.7Z"/>
        <path class="st0" d="M331.5,113.7c.2-.3.5-.6.4-.6,0,0-.4.5-.4.6Z"/>
        <path class="st0" d="M333.4,113.5l.4-.9-.4.9Z"/>
        <path class="st0" d="M337.4,100.9c0-.6.3-1.1.3-1l-.3,1Z"/>
        <path class="st0" d="M339.9,101.2v-1.9c.5.4.4,1.5,0,1.9Z"/>
        <path class="st0" d="M244.7,199.4s-.5.5-.6.4l-.4-.6,1,.2h0Z"/>
        <path class="st0" d="M337.7,99.9l.4-.7-.4.7Z"/>
        <path class="st0" d="M339.9,99.3h-1.9c.4-.7,1.7-.5,1.9,0Z"/>
        <path class="st0" d="M333.9,112.6l.4-.7-.4.7Z"/>
        <path class="st0" d="M331.9,113.1l.5-1-.5,1Z"/>
        <path class="st0" d="M334.3,111.9l.4-.9-.4.9Z"/>
        <polygon class="st0" points="243.2 198.2 242.7 197.7 243.4 197.7 243.2 198.2"/>
        <path class="st0" d="M332.4,112.1l.4-1-.4,1Z"/>
        <polygon class="st0" points="244.8 199 243.6 199.1 243.2 198.2 243.9 197.7 244.8 199"/>
        <path class="st0" d="M334.7,111.1l.4-.6-.4.6Z"/>
        <path class="st0" d="M337.7,105.8l.4-1-.4,1Z"/>
        <path class="st0" d="M332.9,111.2l.4-1-.4,1Z"/>
        <path class="st0" d="M244.7,199.4l.3-.4-.3.4Z"/>
        <path class="st0" d="M335.1,110.6l.4-.9-.4.9Z"/>
        <path class="st0" d="M246.2,202l-.6-.3.6.3Z"/>
        <path class="st0" d="M245.4,203.5l-.3-1c0-.2,0-.3.4-.7l-.2,1.8h0Z"/>
        <path class="st0" d="M335.6,109.7l.4-1-.4,1Z"/>
        <path class="st0" d="M335,106.9l.5-1.3-.5,1.3Z"/>
        <polygon class="st0" points="246.5 203.6 245.8 203.5 246.2 202 246.5 203.6"/>
        <path class="st0" d="M252.6,237.4l-1.4-.2c.4-.3.8-.5.9-.4l.4.5h0Z"/>
        <path class="st0" d="M333.3,110.2l.5-1.2-.5,1.2Z"/>
        <path class="st0" d="M243.2,232.1l-.5-.4c-.2,0-.2-.6-.3-1l.8,1.4h0Z"/>
        <path class="st0" d="M243.6,233.7l-.4-1.5c.4.2.5,1,.4,1.5Z"/>
        <path class="st0" d="M242,238.5v-6.3c.5,1.9.4,4.6,0,6.3Z"/>
        <path class="st0" d="M337.3,106.7l.4-1-.4,1Z"/>
        <path class="st0" d="M244,235.1l-.4-1.4c.3.2.4,1,.4,1.4Z"/>
        <path class="st0" d="M245.5,236.8l-1-.2c-.4,0-.3-1.2-.4-1.6l1.4,1.7h0Z"/>
        <path class="st0" d="M249.5,236.6h-3.1c.7-.4,2.3-.4,3.1,0Z"/>
        <path class="st0" d="M334.6,107.4l.3-.5c.3,0,0,.4-.3.5Z"/>
        <path class="st0" d="M246.5,236.5c0,0-.5.7-.5.7,0,0-.4-.3-.5-.4l1.1-.3h0Z"/>
        <path class="st0" d="M251.1,237.4l-1.5-.8,1.5.8Z"/>
        <path class="st0" d="M335.5,105.6l.4-1-.4,1Z"/>
        <path class="st0" d="M338.2,104.9l.4-1-.4,1Z"/>
        <path class="st0" d="M336.9,107.3l.4-.6-.4.6Z"/>
        <path class="st0" d="M258.4,237.1h-1s1,0,1,0Z"/>
        <path class="st0" d="M251.1,237.4c-.2,0,0-.2,0,0,0,0-.4.5,0,0Z"/>
        <path class="st0" d="M253.6,237.8l-1-.4,1,.4Z"/>
        <path class="st0" d="M253.8,237.7l.5-.6-.5.6Z"/>
        <path class="st0" d="M257.5,237.1l-.5.5c-.2,0-.6-.2-.9-.4h1.4Z"/>
        <path class="st0" d="M260.1,237.7l-1.6-.7,1.6.7Z"/>
        <path class="st0" d="M253.6,237.8h.4c-.2.3-.4.7-.4,0Z"/>
        <path class="st0" d="M260.6,238.4l-.4-.7.4.7Z"/>
        <path class="st0" d="M261.6,238.6l-1.1-.3c.2,0,.7.4,1.1.3Z"/>
        <path class="st0" d="M334.1,108.3l.5-1-.5,1Z"/>
        <path class="st0" d="M336.5,107.7l.4-.6c-.3.3-.5.6-.4.6Z"/>
        <path class="st0" d="M242.7,239.1l-.7-.6.7.6Z"/>
        <path class="st0" d="M336,108.8l.5-1-.5,1Z"/>
        <path class="st0" d="M250.3,239.2h-4.4c1-.7,3.4-.8,4.4,0Z"/>
        <path class="st0" d="M333.8,109l.3-.7-.3.7Z"/>
        <path class="st0" d="M256.9,239.2h-4.4c1-.7,3.1-.6,4.4,0Z"/>
        <path class="st0" d="M263.2,239.1l-1.7-.5,1.7.5Z"/>
        <path class="st0" d="M243.2,239.6l-.4-.6.4.6Z"/>
        <path class="st0" d="M245.9,239.2l-.8.6.8-.6Z"/>
        <path class="st0" d="M252.5,239.2c-.9.6-1.6.5-2.2,0h2.2Z"/>
        <path class="st0" d="M257.3,239.8l-.4-.7.4.7Z"/>
        <path class="st0" d="M264.1,239.8l-.9-.6.9.6Z"/>
        <path class="st0" d="M245,239.8l-1.1.5c-.2,0-.6-.4-.8-.6h1.9,0Z"/>
        <path class="st0" d="M260.2,240.2l-2.9-.4,2.9.4Z"/>
        <path class="st0" d="M265.3,240.2l-1.2-.5c.4,0,1.1.2,1.2.5Z"/>
        <path class="st0" d="M261.2,240.6c-.2,0-.8-.4-1-.4.4-.3.9.2,1,.4Z"/>
        <path class="st0" d="M265.9,240.7l-.4-.5.4.5Z"/>
        <path class="st0" d="M261.8,240.9l-.5-.4.5.4Z"/>
        <path class="st0" d="M266.3,241.2c0,0-.4-.5-.5-.6l.5.6Z"/>
        <path class="st0" d="M262.7,241.6l-.9-.6.9.6Z"/>
        <path class="st0" d="M267.5,241.6l-1.2-.4,1.2.4Z"/>
        <path class="st0" d="M263.6,241.8l-.9-.4c.2,0,.7.4.9.4Z"/>
        <path class="st0" d="M268.1,242.1l-.5-.6.5.6Z"/>
        <path class="st0" d="M265.9,242.9l-2.3-1h1.6c.4.2.5.7.7,1h0Z"/>
        <path class="st0" d="M268.5,242.6c0,0-.4-.4-.4-.5l.4.5Z"/>
        <path class="st0" d="M269.8,243.1l-1.2-.5,1.2.5Z"/>
        <path class="st0" d="M266.2,243.3l-.4-.4.4.4Z"/>
        <path class="st0" d="M270.4,243.5l-.6-.3.6.3Z"/>
        <path class="st0" d="M271.3,243.9l-.9-.5.9.5Z"/>
        <path class="st0" d="M268.3,244.3l-.9-.5.9.5Z"/>
        <path class="st0" d="M272.1,244.5l-.8-.6c.2,0,.7.4.8.6Z"/>
        <path class="st0" d="M269.2,244.9l-.9-.6.9.6Z"/>
        <path class="st0" d="M272.5,245.3l-.4-.9.4.9Z"/>
        <path class="st0" d="M269.8,245.2l-.5-.4.5.4Z"/>
        <path class="st0" d="M270.6,245.8l-.8-.5.8.5Z"/>
        <path class="st0" d="M272.5,246.9v-1.6s.4.8.4.8c0,.2-.2.7-.4.9h0Z"/>
        <path class="st0" d="M271,246.2l-.4-.5.4.5Z"/>
        <path class="st0" d="M271.4,246.7l-.4-.5.4.5Z"/>
        <path class="st0" d="M267.5,243.8l-1.2-.6,1.2.6Z"/>
      </g>
    </g>
  </g>
  <text class="st1" transform="translate(78.4 222)"><tspan x="0" y="0">garden</tspan></text>
</svg>