<?xml version="1.0" encoding="UTF-8"?>
<svg id="Layer_2" xmlns="http://www.w3.org/2000/svg" version="1.1" viewBox="0 0 2036.2 822.6">
  <!-- Generator: Adobe Illustrator 30.3.0, SVG Export Plug-In . SVG Version: 2.1.3 Build 182)  -->
  <defs>
    <style>
      .st0 {
        fill: #5f7738;
        stroke: #5f7738;
        stroke-miterlimit: 10;
        stroke-width: 1px;
      }
    </style>
  </defs>
  <path class="st0" d="M994.8,351.4c0-3.5-1.4-7-4.1-9.6-3.6-3.6-10.7-7.5-35.5-9.8-13.4-1.3-28.1-1.6-35.7-1.3-12.7.5-22.2,2.9-28.3,7.2-.4.3-.7.6-1.1.9-20.8,19.4-30.9,50.7-28.6,88.1.9,14.9,3.1,29.9,5.2,44.4l.4,2.7c10.1,66.3,17.3,134.5,24.3,200.4l1.9,18.3c.2,2.7.9,10.1,2.1,20.5.6,5.6,1.1,9.9,1.5,13.1.3,2.9.6,5,.7,6.5.2,2.3.4,4.1.4,5.3-3-4.8-5.8-9.6-8.3-14.5-8.9-17.5-14.6-38.8-20.2-59.3l-1-3.5c-5.6-20.7-12.5-48-15.3-75.8-.8-7.6-2.1-13.4-4.1-17.7-4.7-10.1-12.5-10.7-15.6-10.5-2,.1-6.8,1.1-9.6,7-.7,1.5-1.2,3.2-1.7,5.5-.8,3.4-1.4,8.3-2,14.4-1.5,17-2.7,34.5-3.8,51.4-.6,9.5-1.3,19.4-2,29-1.5,20-2.9,37.5-4.4,53.4-.5,5.5-1,9.8-1.4,13.2-1.9-19.6-3.2-36.1-3.9-51.5-.4-22.8.3-46.1,2.1-69.3,2.2-28.7,5.7-58.1,9.1-86.6,1.4-12,2.9-24.5,4.3-36.7h0c3.3-30.7,6.6-62.3,8.5-93.7,1.2-20.9,1.2-39.4,0-56.6-.6-7.9-3.4-34.2-15.2-40.3-3.8-1.9-8.1-1.8-11.7.4-8.5,5.2-13.1,18.8-19.1,39-1.2,3.9-2.2,7.5-3.3,10.6,0,.2-.1.5-.2.7-9.7,29.2-20.5,63.8-27.3,99.3-4.5,23.8-5.5,47.5-2.9,68.4.7,5.1,2.1,12.6,4,20,1.5,6.1,4.3,17.4,14.3,16.4,3.1-.3,5.2-1.7,6.8-3.5-2.3,33.1-4,67.7-3.7,102.5.4,36.1,2.7,70.3,6.9,101.5,2,15,4.1,25.2,6.7,32.7,2.4,7,5.3,11.6,9,14.6,2.9,2.3,6.5,3.5,10.9,3.5,5.1,0,10-1.5,14.1-4.4,5.7-4,10-9.6,12.8-16.6,4.8-12.1,7.1-25.2,9.4-37.9l.6-3.6c1.7-9.3,3-18.7,4.1-28.2,11.4,31.3,30.1,79.5,61.5,80.8,4.7.2,16.3-1.3,21.4-19,3.8-13,3.2-27.5,2.7-40.3,0-2.1-.2-4.2-.2-6.3,0-.2,0-.4,0-.5-.3-3.4-.4-5.7-.7-9.4v-1.5c-2.6-34.4-6.1-69.1-9.4-102.8-1.7-16.8-3.4-34.1-5-51.1-.8-8.7-2-18.1-3.1-27.2-2.7-21.7-5.5-44.1-3.8-59.9,1.2-11.8,16.8-29.8,28.1-43,4.3-5,8.3-9.7,11.7-14,4.3-5.6,10-12.1,15.9-19,18.8-21.8,30.4-35.6,30.6-46.7Z"/>
  <path class="st0" d="M748.1,729.4c-.8-16.2-2.6-32.6-4.3-48.5-.6-6-1.3-12.3-1.9-18.4-8.3-85.1-12-172.2-15.4-261.4-2.9-76.4-5.1-140-6.1-205.4-.5-32.8,0-66.1,1.5-99,.2-4.4.4-8.9.7-13.4,1-18.6,2-37.9.6-56.4-.2-1.9-.6-6.9-4.9-10-2.5-1.8-5.7-2.3-8.6-1.6-7.3,1.9-10.1,9.4-14,26.7-11.2,49.6-11.9,102.6-12.5,153.8v6.7c-1.6,153,6,304.3,22.6,449.9.6,5.5,1.3,11.2,2,17.2-.5-1-.9-2.1-1.3-3.1-9.6-21.9-19-47.7-28.6-78.7-2-6.4-4-13-5.9-19.5-3.6-12.2-7.4-24.8-11.5-37-3.1-9.2-7.8-23.1-19.2-21.2-3.8.6-7.1,2.8-9.2,6-2.4,3.1-4.6,7.5-.4,44.1,5.4,47.5,12.5,94.9,21.2,141.1,1.5,7.7,2.9,14.8,4.2,21.1-4.2-6.2-8.2-12.2-11.8-18-12.7-21.5-25.2-44.6-38-70.7-8.6-17.4-11.3-22-15-24.1-9.3-48.3-16.2-97.5-22.9-147.8-1-7.7-2-15.6-2.9-23.2-2.6-21.4-5.3-43.4-9.5-64.5-.8-3.9-1.5-6.8-2.3-8.7-1.5-4.3-2.7-7.5-3.7-9.8-4-9.3-9.7-9.8-13.8-8.6-3.4,1-7.5,3.9-7.6,11.9,0,1.9,0,4.5.3,7.8.4,6.3,1.3,15.4,2.7,26.8,0,.3,0,.6.2.9.9,6.3,1.7,12.5,2.6,18.8,13,95.8,26.3,194.8,52.3,285.8,2.7,9.6,7.4,22.7,12.1,35.6-6.8-10.1-13.6-21.6-20.7-34.7-13.2-24.6-26.3-53-38.7-84.3,0,0,0,0,0-.1-2.9-6.9-6.6-15.9-10.5-25.5-4.7-11.4-9.5-23.2-13.3-32.2-2.1-4.9-3.6-8.6-4.8-11.2-2.2-5.1-3.6-8.1-7.8-9.7-2.6-1-5.5-.8-8,.4-3.8,1.9-6,6.1-5.4,10.4.2,1.3,4.7,32.9,7.7,48.7,4.8,25.6,9.6,47.8,14.9,67.9,0,0,0,0,0,.1,6.9,24.9,14.7,48.6,23.3,70.6-9.6-12.1-19-25.7-28.3-41.1-32.7-77-57.9-157.1-80.3-232.2-1.1-4.1-2.6-9-4.5-15.2-6.7-21.1-9.5-25.7-14.3-28-2.7-1.3-5.8-1.4-8.5-.3-5.6,2.2-7,7.5-7.3,12-4.8-10-9.6-15.9-16.9-16.6-3.3-.3-6.6,1-8.8,3.6-2.8,3.2-3.7,8.2-2.5,13.3.8,3.3,2.7,8.8,5.9,17.1,29.1,77.6,56,147,89.5,211.2,1.3,2.4,2.6,4.9,3.9,7.3l1,2.1c6.7,14.3,17.9,38.2,27.4,60.2,6.5,15,10.5,25.2,12.9,32.1-7.7-4-15.3-8.8-22.7-13.5-1.8-1.1-3.6-2.3-5.4-3.4-15.4-10.3-29-21.5-41.6-34-13-13-25.9-29.2-40.8-51.1-4.2-6.2-7.4-11.2-9.8-14.9-1.7-2.7-2.9-4.5-3.7-5.7-3.4-4.7-7.3-7.4-11.8-7.9-1.1-.1-2.2,0-3.2.1l-.9.2s0,0-.1,0c-1.8.4-10.8,3-9.6,15.9.4,4.4,1.8,8.7,4.3,12.9,5.3,9.1,10.3,18.6,15.5,28.8,6.1,11.7,12.3,23.7,19.2,34.9,8.1,13.2,17,25.8,25.6,37.9.2.3.5.7.7,1-.7-.5-1.3-.9-2-1.4-41.5-27.4-78-61.6-111.6-104.7-6.4-8.3-13.2-18.2-20.2-29.6-6.3-10.2-10.2-16.5-11.8-19.1-2.7-13.9-5.4-26-8.2-37-3.7-14.4-9.7-29.5-18.3-46.4-5.8-11.5-11.1-20.5-16.1-27.6-6.2-8.9-12.2-13.4-17.8-13.5-3.5,0-6.8,1.5-8.9,4.4-7.8,10.5-.1,28.9,10.6,51.8.5,1.1,1,2.2,1.5,3.1,0,0,0,0,0,.1,4.4,9.1,6.7,13.7,11,22.1,1.7,9.6,3.6,19.2,5.4,28.6,2.8,14.1,5.6,28.6,7.7,42.9,0,0,0,.1,0,.2,5.6,33.2,11.3,62.4,17.3,88.8-6.3-10.2-12.2-21.4-15.9-33.8-2.8-9.3-5-17.5-6.6-23.4-.9-3.4-1.7-6.1-2.2-8-1.9-6.3-4.4-11.4-7.6-15.1-2-2.3-4.9-4.7-8.9-7.2-3.7-2.3-8.7-4.8-14.1-2.8-8.5,3.2-8.2,13.7-8,18.2.2,5.6,1.1,13.1,2.6,21.7l.7,3.8c2.6,14.2,5.2,28.9,8.1,43.2,3.4,16.3,5.5,21.8,7.4,24.5.5,1.4,1.6,5,2.7,10-23.7-27-42.2-52.3-57.9-86.1-3.3-8-6.4-16.5-9.7-25.5-7.8-21.4-15.9-43.5-27.5-60.2-5.4-7.8-14.9-16.8-23.6-16.3-4,.2-7.6,2.4-9.4,5.9-4.2,7.7-3.4,20.7-1.7,41,.4,4.3.7,8.4.9,11.9.2,3.1.3,6.2.4,9.5-.8-4.1-1.5-8.4-2.2-12.8-3.7-25.6-8.2-52.5-18.3-76.1-4.7-11-9-19.3-13.2-25.5-3.5-5.3-9.7-13-19.2-19.8-12.6-9-22.9-4.9-27.9,1.3-4.4,5.5-7,13.6-7.7,24.8h0c-2.7,25.3,3.2,51.2,8.7,71,8.1,29.1,21.7,57.9,43,90.6,0,0,0,0,0,.1,7.4,10.9,11.3,16,17.1,22.8,1.7,9.4,2.8,14.1,4.7,21.4,2.5,10.4,4.1,15.3,4.9,17.5.2,1.1.6,2.3,1.2,3.3,2.5,4.3,7,5.9,11.6,7,3.8.9,7,1.1,9.9.6,1.6-.3,9.3-2.1,9.4-12.5,0-2.3-.3-5.4-1.1-10.3,6,1.2,10.8,1.2,14.8.2,4.3-1.1,7.3-3.2,8.9-6.2,2.7-4.5,3.4-10.7,2.8-23.6-.1-2.7-.3-5.8-.6-9,9.9,17.9,20.9,34.7,34.5,49.7,3.4,3.7,6.8,7.6,10.4,11.7,12,13.6,24.4,27.6,36.3,37,4.4,3.5,10.4,5.4,16.4,5.4,12.9-.1,22.1-9.7,23.4-24.6.4-3.2.2-7.7-.6-13.6,3.8,2.9,7.1,5.1,10.1,6.7,6.3,3.4,12.7,5,19.2,4.8,8.4-.3,14.7-4.3,16.9-10.7,1.4-3.9,1.8-7.7-5.3-38.8-4-17.8-7.4-36.1-10.6-54.3,28.4,35.3,54.2,61.4,78.8,79.9,18.7,14,38.3,26.8,56.6,38.4,4.6,3,9.4,5.7,14.4,8.1,7.4,3.5,11.4,5,15.7,4.1,4.8-1,8.6-4.1,10.4-8.5,2.4-6,2.3-14.9-12-38.1,12.1,8.4,24.6,16,37.6,22.7,1.6.8,3.2,1.7,4.8,2.5,9,4.8,19.2,10.3,29.8,11.2,0,0,.1,0,.2,0,1.4,0,2.5,0,3.5-.3.4,0,.7,0,1.1-.1,4.7-.9,8.7-3.4,11.2-7.2,1.3-2,2.7-5.1,2.8-9.4,2.7,2.8,5.6,6.2,8.6,9.8,7.7,9.1,14.9,17.7,22.5,20.8,1.3.5,2.6.8,4,.8,2.1,0,4.2-.6,6-1.9,3.6-2.5,5.5-7,5.3-12.6-.2-4.2-1.3-8.2-3.3-11.8-10-18.6-19.3-39.2-27.5-61.2-3.9-10.4-7.4-20.7-10.7-30.9,4,8.1,8.2,16.1,12.6,23.9,12.4,22.2,31.8,54.3,57.7,77.7,0,0,.2.2.3.3,2.5,2.1,5,3.5,7.5,4.1,4.1,1,8.2-.2,10.9-3.1,5.7-5.8,3.4-15,.8-23.2-2.9-9.2-6.1-18.6-9.1-27.6-1.5-4.4-3-8.8-4.4-13.2,3.3,4.8,6.7,9.5,10.2,14.2l1.5,2c12.7,16.9,27,36,42.9,48.3,3.3,2.5,7.2,3.9,11,3.9h0c6.2,0,11.3-4,13.6-10.6,1.6-4.7,1.1-10.4-1.7-19-6-19.1-10.1-38.7-13.3-57.9,6.4,11.8,13.2,23.6,21.6,33.8,7.3,8.8,14.3,13,21.4,12.9,4.2,0,8.3-1.8,12.1-5,4.7-4,6.3-10.6,5.7-22.8h0Z"/>
  <path class="st0" d="M1432,615.5s0,0,0,0c2-3.9,4.4-9.1,7.2-15.2,6-13.1,14.3-31.1,22.8-45.1,12.4-20.4,18.3-21,18.4-21,4.8.5,13.5-1.1,18.3-16.6,2.1-6.9,3.4-15.3,3.8-25.7.7-16.8-6.3-22.3-12.3-23.9-15-4.1-25.6,14.1-29.1,20.2-16.4,27.3-29.9,57.6-43.1,86.9-4.2,9.5-8.6,19.2-13,28.7-20.7,44.7-46.4,100.2-79.1,143,0-.3.1-.6.2-.8,5.2-21.3,9.6-42.4,13.1-63,1.7-9.8,2.3-18.8,1.8-26.3,0,0,0,0,0-.1-1.4-17.6-4-20.5-7.4-22.6-2.8-1.7-6.2-2-9.3-.7-13.9,5.9-24.2,26.5-39.8,59.6-7,14.9-14.3,30.4-21.5,41.6,0-.3.2-.6.2-.9,6.5-25.9,12.9-54.8,19.6-88.3,14.1-71.5,24-130.4,31-185.3,1.4-5.2,2.8-10.5,4.1-15.7l.5-1.9c1.1-4.3,2.2-8.6,3.4-12.9,6.7-25.6,13.7-52,18.1-78.5.4-2.8,1-6.6,1-9.3.2-5,.2-8.7.1-11.3-.1-3.3-.4-11.2-8.1-13.2-2.4-.6-4.9-.3-7.1.8.2-6.9.4-13.6.5-20.3.1-8.3-.7-14.3-5.1-18-2.5-2.2-5.8-3.1-9.1-2.5-8.1,1.3-11.3,9.8-13.7,17.6-.1.3-.2.7-.3,1-1.2,5.7-2.4,12.2-3.3,19.2-3.4,25.4-6.2,51.4-8.9,76.5-1.2,11.1-2.4,22.5-3.7,33.8-3.1,27.2-7.2,63-11.9,98.7-16.7,63.4-32.5,114.9-49.9,162-1.4,3.8-2.9,8-4.5,12.4-4.6,12.9-9.8,27.2-15.2,40.1,1-5.5,2-10.9,2.9-16.3,1.5-8.2,3.1-16.6,4.4-24.9,5.4-33.5,9.8-67.8,14.1-101l.2-1.2c0,0,0-.2,0-.2,1.7-15.8,3.7-39.6,5-56.5.8-9.9,1.4-18.4,1.8-24.7.2-3.3.3-5.9.4-7.7,0-1.1,0-1.9,0-2.5,0-8.6-7.3-10.3-8.1-10.4-5.1-1-10.2,2.1-11.6,7.1-.1.4-10.7,38.3-15.8,56.9-6.8,25-14.2,51.3-22.8,80.5l-1.9,6.6c-8.7,30.8-17.6,62.5-30,91.1,2-20.8,4.1-41.8,6.1-62.1,3.1-31,6.3-63,9.1-94.6,6.5-73.5,13-151.5,16.1-227,0-1.6.2-3.5.3-5.5,1.2-25.1,1.1-39-3.1-46.7l2.9-18.8c5.2-33.5,10.6-68.1,16.1-102,5.4-32.9,11.6-65.5,18.5-96.8.9-3.9,1.8-7.9,2.7-11.8,4.2-18.2,8.5-37,10.1-55.8,1-11.2-6.9-13.4-8.5-13.7-10.4-2.1-15.7,9.9-20.8,21.5-18.8,43.1-28.2,92.5-37.2,140.2-.8,4.3-1.6,8.5-2.4,12.8-15.6,82.4-28.5,166.9-41.1,248.6-10.9,71-22.2,144.5-35.1,216.1-1.3,6.9-2.7,14.2-4.1,21.7l-.2-2.3c-2.9-31.6-4.2-63.7-5.1-88.1-.1-3.8-.2-7.6-.4-11.4-.5-16.6-1.1-33.8-2.4-50.6-.8-9.6-2.1-25.6-14.1-25.9-4.1-.1-7.9,1.6-10.8,4.8-.8.9-1.4,1.8-1.8,2.9-4.6,11.3-6.1,23.6-7.6,35.4-.3,2.1-.5,4.3-.8,6.3-2.3,17.2-4.5,34.7-6.7,51.7-4.3,34.2-8.8,69.6-14.2,104-.3,2.1-.7,4.1-1,6.2-1.3,8.6-2.7,17.3-4.4,25.9-1.5-6.9-2.9-14.1-4.3-21.7-4.5-26.1-8.5-52.8-12.4-78.7l-1-6.3c-3.7-24.7-5.3-28.1-9.6-30.9-1.6-1-3.5-1.6-5.4-1.6h-1.2c-3.3,0-6.4,1.4-8.7,3.9-3.2,3.4-6.8,10.2-6,33.1,1.2,35.2,7.4,76.9,17.4,117.4.8,3.1,1.5,6.3,2.3,9.6,3.9,16.8,8,34.2,15.7,46.2,2.6,4.1,7.2,6.5,12.3,6.5,7.4,0,12.3-5.7,13.9-7.6,3.5-4,6-9.8,7.8-18.1,5.2-23.3,10.2-46.9,15.1-71.6,1.6,12.9,3.5,26,7.8,38.2,4.8,13.6,12.8,16.5,18.5,16.5,0,0,.1,0,.2,0,3.7,0,7.7-1.3,12.1-4,5-3,9.2-9.6,12.9-20.1,7-20.1,11.6-42.1,16-63.4.7-3.2,1.3-6.4,2-9.5,10.8-51.4,20.5-103.1,30.1-158.6-2.6,39.2-5.7,79.5-9.4,119.9-2.9,31.8-6.2,64.1-9.5,95.4-1.8,17.5-3.7,35.7-5.4,53.5-1.1,10.9-1.8,18.7-2,23.8-.4,6.2-.6,10.7,2.7,14.4,1.9,2.1,4.7,3.3,7.5,3.3,5.4,0,9.4-3.7,12.7-7.3,3.3-3.5,5.6-6.8,7.1-10.1,1.2-2.5,2.5-5.1,3.7-7.6,10.2-20.8,20.8-42.4,29.3-65,5.6-14.8,10.6-30.2,15.3-45.7-1.2,8.2-2.5,16.5-3.9,25-1.3,7.7-3,15.8-4.8,24.4-4.4,20.6-8.9,42-8.2,62.4,0,.4,0,.8.1,1.1.7,4.8,3.7,8.6,7.9,10.1,3.1,1.1,6.5.8,9.4-.8,3.2-1.6,7.9-5.1,16.1-17.1,15.5-22.8,26.8-49.5,34.9-70.1.1-.3.3-.7.4-1-2,8.7-4,17.4-6,25.9-2.3,9.6-4.6,19.6-6.8,29.4-2.8,12.3-3.1,19.2-1.1,24.6,0,.1.1.3.2.4,2.6,6.1,8,9.5,13.6,8.7,13.5-1.9,24.7-16.8,34.6-29.8,1.6-2.2,3.2-4.2,4.6-6,0,0,.1-.2.2-.2,7.2-9.7,14.4-20.1,22-32.1-1.6,7.4-3.4,14.8-5.5,22.1,0,0,0,0,0,.1-.6,2.3-1.3,4.7-2.1,7.2-3.4,11.7-7.3,24.9-6.1,38.8,0,.7.2,1.4.4,2.1.6,1.8.8,2.7,1.4,4.5,1,3,3.3,5.4,6.3,6.4,1.1.4,2.1.5,3.2.5,2,0,4-.6,5.7-1.8,2.3-1.6,3.4-2.3,5.7-3.9,4.8-3.2,9.1-6.7,13.2-10.9,4.2-4.4,11.1-12,22.4-27,31.4-42,56.2-90.9,80.3-138.3,2.2-4.4,4.5-8.9,6.7-13.3Z"/>
  <path class="st0" d="M2031.4,707.7c-3.6-3.3-8.3-5-13.3-4.8-18.1.5-36.9,4.7-55.2,8.7-6.5,1.4-13.2,2.9-19.6,4.1-38.3,7.4-75.5,16.1-110.5,25.8-5.4,1.5-10.9,3-16.4,4.5,10.3-3.9,20.7-7.7,31.3-11.4,11.1-3.6,15.8-5.4,18.3-6.5,8.2-3.9,8.2-10.7,8-12.6,0,0,0,0,0-.1-.6-5.6-4.7-9.9-10-10.5-9.8-1-20.1,3.2-30,7.3-2.8,1.1-5.4,2.2-7.9,3.1-6.8,2.5-13.6,5-20.5,7.5-9.1,3.3-18.2,6.7-27.5,10,36-19.6,66.7-38.2,94.2-57.2,2.6-1.8,5.3-3.7,8-5.5,19-13,38.6-26.5,55.4-41.9,2.4-2.1,3.7-5.2,3.6-8.4-.2-5.9-4.9-9.6-6.4-10.9-3.5-2.9-9.8-5.2-19.8.2-9.8,5.3-19.5,11.4-28.9,17.3-2.8,1.7-5.6,3.5-8.4,5.3-53.3,33.6-108.5,60.8-162,87-.4.2-.9.4-1.3.6,4.3-3,8.6-6.1,12.9-9.1,11.1-7.8,22.6-15.9,33.9-23.8,0,0,0,0,0,0,3.3-2.3,7.1-5.2,11.1-8.2,13.8-10.4,39.5-29.6,50.8-25.6,3.3,1.2,11.7,3,19.7-6,3.7-4.1,6.4-9.4,8.5-16.2,2.1-7.1,1.2-16.5-7.7-21.4-8-4.4-17.9-3.2-29.1,3.6-19.2,11.4-37.6,25.9-55.3,40-5.9,4.7-12,9.5-18,14.1l-.6.5c-34.3,26.3-69.7,53.4-106.2,76.2,6.5-8.2,13.3-17.7,20.7-28.8,4.6-7,7.7-13.4,9.2-19.1,0,0,0-.1,0-.2,2.8-11.6,1.5-16-1.3-19.2-2.3-2.5-5.6-3.8-8.9-3.3-18.4,2.3-37.2,20.2-57,39-7.1,6.7-14.3,13.6-21.4,19.6,12.1-16.2,23-33.3,32.6-48.8,24.5-39.2,46.7-82.1,64-124l1.2-2c2.1-3.6,6.9-12.1,8.5-15.4.2-.4.5-.8.7-1.1,2.7-.3,6-1.7,9.1-5.6,1.8-2.3,3.6-5.4,5.6-9.8,3.7-8.1,6-16,7-23.6.5-3.8,1.9-14.8-4.9-20.3,3.8-13.4,7-26.7,9.6-39.6,3-15.8-5.1-19.3-8.8-20.1-9.2-2-15.3,7-17.3,10-.2.3-.4.7-.6,1-2.1,4.1-4.1,8.6-6,13.5-4.9,13-9.7,26.4-14.3,39.3-4.4,12.5-9,25.4-13.7,37.7-7.9,20.8-15.3,39.3-22.6,56.5-5.5,9.6-10.6,17.9-15.4,25.3-30.7,47.5-57.6,82.5-84.6,110.1-13,13.2-26,24.1-40,33.2-6.2,4.1-12.9,8-20.5,12,1.5-1.8,3.1-3.6,4.6-5.3,6.2-7.1,12.6-14.4,18.6-21.9,15.1-18.9,30.2-39.1,44.7-58.5l2.3-3.1c4.1-5.5,11.5-15.5,14.1-20.8,2.3-4.5,2.9-9.2,1.9-13.4-2.5-9.9-9.7-11.1-13.6-10.2-10.1,2.3-18,14.5-26.5,27.4-2.2,3.4-4.3,6.6-6.2,9.2-22.6,31.3-47.6,57.9-74.4,79,44.1-56.3,77.1-127.4,107.1-195.3,18.5-41.8,37.6-85.1,51.8-128.9,2.3-7.1-1.3-14.2-8.9-17.2-2.5-1-8.8-2.5-15,4.9-2,2.3-4,5.7-6.2,10.1-6.5,13.1-12.9,26.6-19,39.8-4.2,8.9-8.5,18-12.8,26.9,0,0,0,.2-.1.2-32.8,67.5-73.5,145.1-126,209.6,0,0,0,0,0,0-2.7,3.4-5.8,6.9-8.8,10.3-5.5,6.2-11.2,12.7-15.5,19.5-2.1,3.3-2.3,7.3-.5,10.8,1.2,2.2,4.1,6,11.1,6.2,3.2.1,6.3-.8,9.6-3.1-2.1,2.7-4.3,5.4-6.4,8.1-11,14-22.4,28.5-33.3,43.7-1.3,1.8-5.3,7.4-2.9,13.8,1.1,2.9,3.3,5.1,6.1,6.3,1.8.9,4,1.2,6.1,1,16.9-1.4,34.2-13.5,49.8-24.9-.1,2.6.4,4.8,1,6.5,1.7,4.3,6.4,8.8,14.4,8.6,13.5-.4,26.2-7.1,37.4-13.1,1.3-.7,2.6-1.4,3.9-2.1,17.8-9.3,33.7-19.1,47.3-29.3-2,2.4-3.9,4.7-5.9,7.1-8.4,10.1-12.2,16.3-13,21.4,0,.2,0,.3,0,.5-.4,4,.9,7.8,3.5,10.4,2.5,2.4,5.9,3.5,9.4,3.1,13.6-1.8,27.2-11.3,40.3-20.5,4.3-3,8.3-5.8,12.1-8.2,6.9-4.4,13.2-8.5,19.1-12.4-.9.9-1.9,1.9-2.9,2.9-8.9,8.8-20,19.7-25,34-.2.4-.3.9-.4,1.4-.4,1.9-.6,2.9-.9,4.9-.6,3.7,1,7.5,4.1,9.7,1.7,1.2,3.8,1.8,5.8,1.8s3.2-.4,4.7-1.2c2.9-1.5,4.4-2.3,7.6-3.9,5.7-2.8,11.5-6,17.2-9.7,12.4-7.8,23.7-14.8,34.5-21.4,15.4-9.3,30.5-19.1,45.5-29.2,0,.8.1,1.7.4,2.5.4,1.6,1.5,4,4,5.7-17.4,9.5-34.5,20-50.3,32.4-2.7,2.1-9,7.1-7.5,14.4.7,3.1,2.7,5.7,5.5,7.2,1.7.9,3.6,1.5,5.7,1.5s.6,0,.9,0c18.2-1.4,37.3-10.1,55.7-18.5.2-.1.5-.2.7-.3.4,2.1,1.3,4,2.7,5.6,1.8,2,5.1,4.4,11,4.2,12.8-.3,25.3-4.4,37.4-8.5,3.4-1.1,6.6-2.2,9.8-3.2,22.6-6.9,45.9-13,68.4-19l6.4-1.7c40.2-10.6,81.6-19.7,123.2-26.9,3.8-.7,8.1-1.4,13-2.2,3.6-.6,7.6-1.2,11.9-2,10.5-1.8,18-2.8,22.4-3.4h.5c5-.8,7.1-1,8.4-1.3,0,0,.1,0,.2,0,3.9,2.8,9,3.6,15.1,2.3,6.2-1.3,10.7-4.1,13.4-8.4,3.7-6,2.6-13.2-2.6-17.9Z"/>
</svg>