<?xml version="1.0" encoding="UTF-8"?>
<svg id="Layer_2" data-name="Layer 2" xmlns="http://www.w3.org/2000/svg" viewBox="0 0 2036.24 822.62">
  <defs>
    <style>
      .cls-1 {
        fill: rgb(225, 220, 208);
        stroke: rgb(225, 220, 208);
        stroke-miterlimit: 10;
        stroke-width: 20px;
      }
    </style>
  </defs>
  <g id="Layer_1-2" data-name="Layer 1">
    <g>
      <path class="cls-1" d="M10.63,528.75c.54-8.96,2.38-15.67,5.53-19.59,3.14-3.91,8.19-3.85,14.29.53,7.08,5.09,12.75,11.33,16.69,17.21,3.95,5.89,8.05,14.02,12.29,23.89,9.62,22.4,14.02,48.83,17.62,73.65,1.98,12.43,4.17,23.2,6.57,32.7,2.4,9.51,4.79,19.3,7.13,28.84,5.21,22.09,7.74,26.72,11.65,28.58.72.34,1.24.45,1.6.33,1.08-.37,1.44-5.32,1.37-18.78-.07-13.45-1.58-25.12-2.48-28.02-3.67-11.89-3.35-28.36-4.16-42.43-.89-15.46-4.48-40.17-.46-47.6,1.23-2.27,9.3,1.63,16.05,11.38,15.48,22.37,24.85,56.58,36.27,84.13,19.26,41.41,42.57,70.26,70.88,101.26,2.19,2.38,3.25,3.57,5.28,6.01.76-.51,1.15-.77,1.91-1.28,1.28-1.27,2.05-2.68,2.32-4.18.29-1.64-.23-6.59-2.24-16.14-2-9.55-4.38-17.92-5.27-18.87-1.13-1.22-3.14-6.98-6.1-21.21-3.19-15.34-5.99-31.18-8.77-46.67-2.98-16.59-3.34-27.87-.91-28.79.94-.35,2.71.28,5.29,1.89,3.1,1.93,5.31,3.68,6.62,5.2,2.3,2.68,4.17,6.59,5.61,11.45,1.44,4.87,4.47,16.67,8.84,31.41,4.56,15.39,12.3,28.91,20.2,41.36,9,14.18,15.23,19.74,19.01,21.84.42.17.63.26,1.06.44.1,0,.15,0,.25-.01,1.99-.11,1.7-4.95-3.45-26.98-7.42-31.69-13.52-63.82-18.97-96.18-3.65-24.56-9.19-48.81-13.42-73.24-4.61-9.06-6.92-13.71-11.55-23.29-5.53-11.92-18.35-37.6-13.08-44.76.97-1.31,5.49,1.81,10.45,8.91,4.98,7.11,10.08,16.05,15.34,26.37,7.07,13.88,13.48,28.74,17.54,44.37,6.28,24.17,10.67,49.47,14.81,74.34,4.64,27.87,9.32,56.27,15.59,83.81,5.94,26.07,6.22,31.47,5.59,33.29-.76,2.22-3.24,3.85-7.76,4-4.69.15-9.32-1.05-14.07-3.62-4.22-2.28-9.97-6.47-17.69-13.31-4.64-4.1-7.59-7.46-12.89-13-.48-.18-.57.71-.36,2.5.23,2.01.61,4.14,1.19,6.23.59,2.1,1.01,3.29,1.27,3.68.87.76,2.01,5.6,3.2,13.39,1.19,7.79,1.41,12.61,1.11,15.16-.85,10.02-5.93,15.5-13.56,15.56-3.2.02-7.15-.89-10.14-3.25-14.67-11.58-30.87-31.46-45.56-47.62-23.8-26.18-39.6-59.24-56.16-92.92-.11.06-.17.09-.28.14-1.11.57-1.52,5.35-1.21,13.37.3,8.02,1.02,13.78,2.31,18.09,2.27,7.13,3.58,17.19,4.09,27.89.51,10.71.03,15.88-1.58,18.21-.18.53-1.07.98-2.65,1.38-3.69.93-9.28.28-16.88-1.91-2.86-.78-4.3-1.17-7.18-1.94.67,6.7,1.04,9.57,1.76,14.69,1.37,8.49,1.33,11.27-.04,11.5-1.54.26-3.52.1-5.95-.48-3.82-.9-5.6-1.81-5.29-2.81-.19-.58-1.9-4.31-5.06-17.68-2.1-7.82-3.14-12.34-5.08-23.39-6.82-7.83-10.45-12.5-18.17-23.93-17.37-26.71-32.86-55.69-41.76-87.84-5.78-20.86-10.86-44.43-8.41-67.27ZM39.43,541.02c-2.28-3.32-4.2-4.31-5.5-2.89-1.86,2.03-2.79,8.6-2.79,18.86,0,10.29.95,20.52,3.05,30.14,3.63,16.68,9.89,32.69,16.17,47.98,8.24,20.06,14.13,28.96,16.87,31.1.4.31.68.4.86.29.55-.34.02-4.23-1.59-12.66-1.61-8.42-2.95-14.38-4-16.9-1.47-3.52-3.85-13.65-6.4-33.48-2.6-20.23-5.72-46.56-16.66-62.46Z"/>
      <path class="cls-1" d="M403,434.89c-.24-4.49.05-6.97.89-7.3,1.67-.66,4.91,7,9.64,22.03,1.89,6.01,3.36,10.98,4.41,14.93,27.91,93.76,57.84,186.51,98.27,272.87,5.46,11.66,12.08,23.55,15.02,35.98,1.47,6.23-.59,10.03-5.27,10.88-.31,0-.66.04-1.05.13-.39.08-.76.15-1.05.13-10.2-.86-20.84-7.45-30.84-12.63-22.19-11.5-43.56-25.83-63.55-43.06-7.5-6.78-11.33-10.32-19.14-17.79,1.71,3.3,2.57,4.9,4.25,8.03,2.23,4.24,8.82,16.16,16.85,27.79,3.07,4.52,32.47,45.24,18.96,47.97-1.4.28-4.74-1.12-9.35-3.33-4.61-2.21-9-4.68-13.23-7.43-18.94-12.07-38.07-24.6-56.03-38.05-28.81-21.58-55.54-51.18-79.43-81.19-7.33-9.2-12.67-16.85-15.92-21.59-8.75-12.77-17.61-25.99-24.95-40.09-3.81-7.33-4.75-11.73-2.83-12.54,2.69-1.13,8.71,6.38,17.91,21.13,2.21,3.54,6.34,10.2,12.04,19.48,6.4,10.42,13.49,21.04,20.84,30.49,33.74,43.36,71.09,78.7,113.99,106.96,10.17,6.8,21.74,17.31,31.65,18.99,1.32.22,1.56-2.12-.2-6.42-1.76-4.29-4.95-9.89-9.93-17.01-10.73-15.33-21.83-30.48-31.79-46.76-12.39-20.24-22.77-43.39-34.61-63.55-1.58-2.7-2.67-5.61-2.96-8.74-.29-3.13.3-4.91,1.8-5.24.34-.07.5-.11.84-.18,1.59.2,3.22,1.5,4.89,3.83,1.68,2.34,6.18,9.79,13.35,20.39,12.69,18.76,26.59,37.24,42,52.62,13.64,13.61,27.73,24.96,43.21,35.35,14.2,8.9,28.55,18.63,43.91,24.05,1.27.35,2.26.62,2.61.52,9.01-2.71-47.21-118.14-50.1-125.35-26.3-65.37-54.37-143.12-65.11-216.31Z"/>
      <path class="cls-1" d="M542.35,392.49c-2.71-22.83-3.56-35.48-2.47-35.8.65-.19,2.43,3.98,5.29,12.21.47,1.17,1.13,3.61,1.85,7.2,5.65,28.19,8.48,58.05,12.3,87.03,11.15,83.46,23.23,169.08,47.07,247.69,6.36,20.98,13.99,41.85,20.57,62.64,2.52,7.96,2.8,12.09,1.45,13.27-.23.34-.66.39-1.22.25-.85-.21-2.05-.85-3.5-2.06-22.32-20.17-40.12-47.3-55.69-75.16-18.32-32.79-33.36-68.89-49.11-104.09-.87-1.87-1.61-3.11-2.21-3.69-.19.03-.23,1.07-.12,3.06.49,1.94.92,4.54,1.29,7.74,6,38.67,17.02,77.22,30.15,112.34,8.07,21.59,17.35,42.55,28.1,62.5,1.26,2.2,1.93,4.62,2.03,7.3.09,2.68-.79,4.31-1.48,4.02-7.89-3.22-18.75-18.99-27.97-28.53-31.95-33.05-57.17-72.98-79.67-116.13-34.24-65.65-62.09-138.53-89-210.17-3.05-7.78-4.9-13.1-5.52-15.76-.62-2.63-.03-4.72.63-4.66,6.16.57,13.15,21.28,17.38,32.2,21.28,55.01,41.6,112.83,66.34,165.81,22.96,49.16,48.96,98.8,83.86,136.43,8.31,8.96,16.75,17.77,25.44,26.16-.59-1.54-.89-2.32-1.5-3.89-1.17-2.79-2.88-6.63-5.3-11.94-2.42-5.31-5.26-11.43-8.59-18.99-11.9-28.08-21.86-57.54-30.23-87.59-5.8-22.09-10.57-44.69-14.75-67.16-2.94-15.79-7.59-48.26-7.59-48.26.74-.37,20.84,49.61,30.61,73.09,11.7,29.45,24.77,58.53,39.19,85.34,13.34,24.8,28.45,48.79,47.21,68.14,3.15,3.23,5.32,4.81,5.36,4.74,3.13-4.78-18.37-56.15-25.52-81.23-27.51-96.54-40.82-202.28-54.65-304.05Z"/>
      <path class="cls-1" d="M705.39,44.2c2.78-12.3,5.05-18.83,6.75-19.27.49-.13.85.83,1,2.68,1.76,22.22-.23,46-1.25,68.51-1.49,33.1-1.99,66.48-1.48,99.63,1.04,68.33,3.58,137.29,6.15,205.64,3.28,87.22,6.93,175.25,15.42,262.04,2.16,22.04,5,44.39,6.13,66.44.45,8.81-.46,13.24-2.19,14.71-1.87,1.6-3.82,2.59-5.79,2.63-3.63.08-8.12-2.68-13.53-9.24-10.31-12.49-18.2-27.86-26.22-42.84-7.48-14.75-14.49-29.88-21.15-45.25,1.68,15.42,2.48,22.33,3.99,34.96,4.23,29.49,8.98,58.61,17.77,86.55,2.06,6.4,2.55,10.38,1.73,12.81-.89,2.6-2.26,3.84-4.12,3.83-1.55,0-3.34-.56-4.96-1.81-15.36-11.92-29.58-31.2-42.5-48.39-20.61-27.42-41.22-61.99-53.42-96.55-4.88-13.83-5.5-22.55-1.92-22.96.45-.05.68-.08,1.13-.13,1.33.51,5.17,7.63,11.22,19.89,12.08,24.48,24.76,48.34,38.46,71.48,12.06,18.89,24.53,37.15,38.88,53.33.16,0-.13-1.85-1-5.83-.93-4.23-2.37-10.51-4.38-20.37-2.02-9.86-4.57-22.14-7.51-37.35-8.71-46.27-15.75-93.28-21.08-140.3-2.45-21.56-2.94-35.16-1.32-37.29.61-1.01,1.51-1.64,2.7-1.84,1.99-.32,4.76,4.77,8.06,14.55,6.19,18.39,11.54,37.59,17.29,56.2,8.43,27.25,17.87,54.5,28.95,79.79,6.37,14.56,13.24,29.52,21.86,42.56,2.04,2.97,3.05,4.41,5.04,7.22-3.09-22.96-5.81-45.99-8.44-69.04-16.87-147.9-24.15-299.3-22.66-448.68.69-52.3.92-107.59,12.39-158.32Z"/>
      <path class="cls-1" d="M788.94,349.02c4.85-14.58,10.52-39.59,18.13-44.25,3.7-2.27,10.12,10.46,11.72,32.15,1.35,18.34,1.14,36.9.07,55.28-1.82,31.17-5.14,62.22-8.45,93.19-4.62,41.18-10.32,82.59-13.47,123.61-1.79,23.33-2.52,46.77-2.08,70.43.98,20.59,2.78,41.15,4.89,61.6,2.43,23.6,3.62,31.16,4.44,33.74.13.4.43.59.9.59,1.57-.01,3.55-2.5,5.94-8.29,2.39-5.79,4.33-12.86,5.75-22.18.36-1.97,1.53-7.91,3.33-26.58,1.72-17.84,3.16-35.73,4.46-53.63,1.97-26.73,3.4-53.67,5.78-80.22,1.02-11.4,2.39-17.71,3.93-17.81,4.82-.3,7.86,6.6,9.16,19.31,2.67,26.21,8.84,52.58,15.6,77.38,5.95,21.81,12.06,45.21,21.9,64.7,4.84,9.58,10.1,17.8,15.32,24.99,5.22,7.19,8.1,10.18,8.9,10.18.96,0,1.82-2.25,2.58-7.38.76-5.13.62-10.88.5-16.18-.03-1.11-.15-3.71-.58-7.89-.33-3.21-1.04-9.09-2.21-19.73-1.17-10.62-1.89-17.93-2.08-20.34-7.79-73.26-15.26-146.64-26.29-219.26-2.2-15.29-4.52-30.84-5.47-46.21-1.87-30.49,5.25-61.27,25.49-80.19,4.21-2.97,11.93-4.94,22.92-5.39,15.18-.63,64.99,1.48,64.78,10.5-.26,11.44-29.55,40.46-44.47,59.8-13.04,16.91-39.73,42.42-41.79,62.05-2.49,23.81,4.15,59.45,6.9,89.02,4.76,51.14,10.56,102.34,14.31,153.69.34,4.75.51,7.21.83,11.05.41,13.95,1.82,30.11-2.08,43.54-2.42,8.33-6.47,12-11.43,11.8-26.77-1.08-45.52-55.04-54.75-80.31-7.19-20.9-11.54-34.48-12.25-34.45-.26,1.31-.39,1.96-.65,3.25-2.35,22.41-4.32,45.23-8.27,67.1-2.47,13.65-4.67,27.36-9.51,39.62-2.28,5.75-5.68,9.6-9.24,12.09-2.34,1.64-5.15,2.59-8.36,2.6-1.99,0-3.51-.41-4.57-1.26-2.12-1.7-4.03-4.9-5.84-10.1-2.14-6.12-4.15-14.84-6.28-30.78-4.42-32.98-6.45-66.82-6.81-100.3-.48-44.19,2.41-88.3,5.96-132.26,1.53-16.45,2.75-32.95,4.01-49.43-1.71.18-2.57.27-4.28.46-12.71,6.91-13.36,38-15.35,51.83-2.02,13.98-3.48,20.45-4.46,20.55-.79.08-2.12-2.9-3.61-8.89-2.1-8.45-3.29-15.13-3.76-18.81-2.73-21.33-1.25-44.22,2.76-65.25,6.42-33.7,16.6-67,27.15-98.71Z"/>
      <path class="cls-1" d="M1198.19,25.77c4.71-10.78,7.96-16.1,9.68-15.76.49.1.68,1.18.52,3.06-1.9,22.11-7.77,44.73-12.55,66.34-7.09,32.08-13.29,64.69-18.6,97.31-11.23,68.95-21.61,138.61-32.89,207.76-14.84,90.9-30.28,181.95-49.06,271.38-5.04,23.99-9.79,49.3-17.65,71.67-3.14,8.93-6.24,13.45-8.64,14.91-2.64,1.61-4.98,2.54-6.96,2.52-3.63-.03-6.75-3.02-9.2-9.87-5.39-15.05-6.75-32.67-8.94-48.92-2.12-17.17-4.05-34.38-5.85-51.61-2.34,13.07-4.8,26.12-7.42,39.11-6.2,32.23-12.77,64.17-19.89,96.09-1.51,6.85-3.36,11.11-5.6,13.71-2.4,2.79-4.5,4.11-6.35,4.11-1.54,0-3.11-.66-3.92-1.91-8.14-12.77-12.26-34.98-16.66-52.73-8.93-36.01-15.85-77.73-17.11-115.33-.56-16.59,1.27-26.58,4.87-26.61.46,0,.68,0,1.14,0,1.15.74,2.9,9.35,5.12,23.99,4.3,28.43,8.56,56.91,13.4,85.24,3.87,20.51,8.06,40.81,14.29,60.39.16,0,.87-1.96,2.05-6.27,1.24-4.53,2.97-11.33,5.41-21.84,3.25-14.01,5.37-28.56,7.66-42.89,8.13-51.74,13.97-104.32,20.88-155.95,1.75-13.08,2.86-27.32,7.74-39.33.83-.93,1.86-1.51,3.07-1.48,2.01.05,3.54,5.96,4.4,16.67,1.63,20.3,2.05,41,2.74,61.47,1,29.65,2.4,59.48,5.09,88.67,1.49,16.07,2.89,32.75,6.55,48.49.88,3.42,1.31,5.09,2.18,8.34,5.73-24.92,10.66-50.07,15.4-75.32,27.81-154.24,47.04-310.75,76.12-464.64,9.68-50.52,18.95-104.84,39-150.8Z"/>
      <path class="cls-1" d="M1320.03,362.86c5.82-23.65,9.41-36.37,10.5-36.09.65.17.8,5.17.48,14.64,0,1.38-.26,4.08-.88,7.92-4.97,30.43-13.48,60.72-21.25,90.49-23.66,89.63-46.56,181.67-79.45,265.61-9.39,23.96-19.93,47.67-33.82,68.14-5.8,8.55-9.82,12.64-12.41,13.85-.59.35-1.1.39-1.48.25-.65-.23-1.17-.88-1.36-2.14-.99-27.55,8.54-58.61,12.82-84.82,6.75-41.34,12.38-83.54,15.6-125.7.15-2.35.09-3.94-.18-4.77-.19-.02-.75,1.14-1.67,3.43-.53,2.32-1.46,5.38-2.78,9.1-14.36,44.29-25.66,90.98-41.61,133.53-9.3,24.82-21.09,48.13-32.67,71.82-1.04,2.31-2.85,4.81-5.39,7.54-2.55,2.73-4.31,4.08-5.37,4.08-.76,0-.58-6.96,1.77-30.59,4.93-49.64,10.33-99.28,14.9-148.99,8.87-96.48,14.26-193.57,18.71-290.58.36-11.05.78-18.51,1.26-22.04.47-3.5,1.83-5.5,2.36-5.09,5.67,4.27,3.36,35,2.82,48.39-3.03,74.99-9.42,151.25-16.03,226.48-5.21,59.23-11.78,118.37-17.15,177.54-2.09,23.07-2.58,29.36-2.36,29.72,1.04-1.64,1.57-2.47,2.64-4.17,1.82-3.02,4.26-7.22,7.44-13.24,3.18-6.02,6.69-13.12,10.62-22.13,15.07-32.78,25-69.4,35.05-105,7.81-26.76,15.46-53.65,22.79-80.55,5.13-18.8,15.75-56.83,15.75-56.83.74.15-4.03,62.16-7.07,90.98-4.39,34.03-8.78,68.15-14.17,101.86-4.07,25.46-10.16,51.5-12.2,77.49-.21,3.48.14,5.2.42,5.07,16.09-7.61,32.66-59.45,43.44-88.74,38.15-103.64,64.11-216.13,89.9-326.46Z"/>
      <path class="cls-1" d="M1308.19,297.53c2.06-6.76,3.98-10.37,5.73-10.66,1.74-.29,2.58,3.3,2.48,10.55-1.88,115.05-21.36,234.92-43.3,345.92-5.82,29.47-12.16,58.97-19.45,87.83-2.05,8.11-3.98,17.12-5.75,25.99-1.77,8.87-2.48,13.18-2.39,14.83.14.42.34.66.45.62,7.22-2.86,16.17-19.13,23.43-29.44,20.69-30.18,40.45-92.78,58.93-100.64.67-.28,2.04,5.39,2.77,14.83.44,6.66-.13,14.9-1.67,23.93-3.57,20.91-7.99,41.96-12.94,62.29-3.39,13.91-10.69,41.92-10.69,41.92.54.49,18.85-20.6,27.23-31.45,32.53-42.15,57.47-94.89,81.18-146.08,17.8-38.44,34.24-79.06,55.57-114.69,6.74-11.59,12.77-17.01,17.88-15.62,3.68,1,5.23,5.83,4.89,13.83-.39,9.05-1.45,16.82-3.4,23.13-2.24,7.25-5.13,9.89-7.82,9.63-21.1-2.06-47.62,65.89-58.23,86.74-26.46,51.97-52.38,105.05-86.11,150.15-11.45,15.19-18.07,22.32-21.62,26.03-3.56,3.72-7.36,6.83-11.45,9.49-2.36,1.59-3.53,2.39-5.84,3.98-.57-1.79-.85-2.67-1.41-4.46-1.34-14.62,4.1-28.91,7.81-42.42,4.12-14.2,7.07-28.97,9.74-43.53,3.13-17.09,4.31-28.71,3.42-28.75-.9-.04-7.01,11.35-17.23,28.29-9.41,15.6-19.3,30.89-30.03,45.23-8.59,10.76-21.47,30.48-32.83,32.12-1.08.16-2.24-.88-3-2.67-1.14-3.05-.83-8.62,1.48-18.88,5.82-25.82,12.38-51.71,17.78-77.73,17.73-85.44,28.75-174.07,38.61-261.62,4.12-36.6,7.61-73.61,12.56-110.05.93-6.84,2.01-13.08,3.22-18.62Z"/>
      <path class="cls-1" d="M1535.16,486.68c10.66-22.13,20.91-44.76,31.73-66.58,3.69-7.44,6.59-10.9,8.48-10.14,2.73,1.1,3.79,2.81,3.12,4.87-14.01,43.16-33.11,86.48-51.44,128-30.16,68.33-63.38,139.5-106.97,194.61-13.41,16.95-29.49,32.24-42.52,49.46-.63.83-.92,1.37-.89,1.54.09,0,.14,0,.23,0,1.08,0,7.64-3.79,21.04-12.33,12.66-8.06,25.17-16.6,37.25-26.01,28.13-22.2,54.02-50.08,76.38-81.03,8.06-11.16,18.55-30.86,26.75-32.72.51-.12,1.24,1.22,1.65,2.85.43,1.72.17,3.97-1.1,6.5-1.52,3.04-5.99,9.73-13.17,19.24-15.45,20.69-31.02,41.62-46.86,61.43-10.15,12.69-21.25,24.66-31.68,37.17-5.67,6.81-8.51,11.3-9.14,13.65-.61,2.26-.6,3.64.35,3.99.19,0,.28,0,.47,0,2.5,0,9.03-2.62,20.21-7.97,10.26-4.91,20.7-10.53,30.45-17.02,14.98-9.81,28.59-21.3,41.56-34.54,31.72-32.41,59.98-71.59,85.9-111.67,24.09-37.25,44.32-80.57,67.2-117.09,2.41-3.85,4.83-5.41,6.64-4.53,2.01.98,2.59,4.94,1.75,11.57-.85,6.65-2.91,13.56-6.18,20.73-3.26,7.17-5.77,10.25-7.55,9.49-2.18-.93-4.73,1.32-7.62,6.57-.72,1.56-3.49,6.68-8.25,15.02-7.03,12.32-14.11,24.73-21.36,36.71-6.65,11-13.54,21.99-20.55,32.75-29.27,43.03-61.25,86.63-97.12,116.86-17,14.33-36.98,26.68-56.48,36.85-11.62,6.06-24.38,13.64-37.02,14.01-2.56.07-4.22-.79-4.82-2.3-.74-1.87-.38-4.29,1.28-7.31,1.65-3.02,5.53-8.19,12.28-16.8,5.04-6.52,7.68-9.99,13.18-17.79-10.84,8.22-16.04,11.92-26.05,18.86-18.38,12.35-41.73,33.54-61.65,35.25-.57.05-1.01-.08-1.2-.25-1.45-.33-1.2-2.14.88-5.04,31.08-43.35,65.66-80.17,93.86-129.73,13.24-24.01,26.16-48.8,36.59-74.98-1.83,2.63-2.74,3.93-4.55,6.52-3.46,4.93-7.99,11.63-13.51,19.78-5.53,8.16-11.56,17.01-18.03,26.28-6.48,9.28-12.97,18.17-19.45,26.68-6.49,8.5-12.4,16.04-17.77,22.78-5.38,6.75-9.84,12.19-13.47,16.59-3.64,4.41-5.96,7.22-7.03,8.67-6.8,9.1-11.46,12.98-14.35,12.86-2.21-.09-3.08-.81-2.54-1.66,6.1-9.66,15.88-19.12,23.67-28.87,50.69-62.15,90.58-136.04,127.42-211.77Z"/>
      <path class="cls-1" d="M1689.41,436.79c2.84-4.23,5.13-6.19,6.85-5.82,1.72.37,2.08,3.23,1.08,8.41-17.05,84.42-57.26,170.79-99.38,238.08-14.04,22.43-28.79,45.19-45.43,64.84-4.8,5.67-10.12,12.12-15.68,18.98-5.56,6.86-8.45,10.61-9.16,12.01-.06.35.02.56.15.53,10.66-2.52,24.4-14.84,36.28-22.62,30.51-19.04,63.75-65.12,89.34-68.36.83-.11.84,3.83-.71,10.25-1.17,4.52-3.82,10.03-7.84,16.1-10.19,15.4-21.41,30.88-33.61,43.66-10.16,10.63-30.26,32.93-30.26,32.93.14.26,28.39-16.83,42.58-25.14,42.25-24.73,82.11-55.33,121.88-85.82,23.64-18.12,47.27-38.49,72.33-53.39,8.09-4.89,14.53-6.04,19.23-3.47,3.39,1.85,4.24,5.24,2.89,9.75-1.53,5.09-3.6,9.29-6.34,12.35-3.14,3.52-6.24,4.24-8.9,3.28-19.91-7.16-53.18,22.59-71,34.92-43,29.73-85,60.99-129.27,87.65-11.62,7.04-23.21,14.24-34.71,21.5-5.48,3.46-10.91,6.51-16.32,9.17-3.16,1.6-4.71,2.4-7.78,4.03.28-1.84.44-2.74.79-4.54,5.23-15.17,19.15-26.33,28.71-36.35,9.54-9.4,17.87-19.79,25.84-31.02,8.81-12.41,13.03-20.37,12.15-20.48-.88-.11-9.87,6.96-25.84,19.31-15.25,11.79-30.84,22.2-46.84,32.31-15.09,9.41-33.23,25.11-48.43,27.15-1.1.15-1.8-.84-1.63-2.52.43-2.85,3.73-8.1,10.76-16.54,16-19.19,31.6-38.28,45.89-59.41,36.6-54.13,64.58-118.09,88.85-182.22,9.59-25.33,18.4-51.71,28.03-77.05,1.77-4.67,3.63-8.85,5.5-12.47Z"/>
      <path class="cls-1" d="M1881.16,640.14c12.17-7.55,24.35-15.53,36.7-22.18,4.12-2.22,7.1-2.6,8.75-1.26,2.39,1.93,3.18,3.39,2.39,4.11-18.66,17.18-41.51,32.2-62.34,46.57-46.86,32.31-98.82,60.51-148.44,85.24-21.82,10.87-45.58,20.47-66.26,35.04-1.07.76-1.64,1.24-1.69,1.4.09,0,.14,0,.23,0,1.08,0,9.65-3.76,27.5-10.44,16.61-6.21,33.39-12.09,50.18-17.72,33.92-11.36,67.73-23.99,101.33-36.21,10.9-3.96,23.85-10.88,33.43-9.86.62.07,1.01.89,1.09,1.64.08.83-.61,1.8-2.38,2.65-2.12,1.03-7.89,3.03-17.14,6.08-21.21,7.33-42.23,15.36-63.05,24.17-15.89,6.72-32.04,12.89-47.63,20.68-9.15,4.57-14.4,8.1-16.3,9.97-1.89,1.87-2.55,2.95-1.78,3.25.19,0,.28,0,.47,0,2.5.03,10.37-2.12,24.5-6.03,13.14-3.63,26.29-7.21,39.43-10.86,18.46-5.1,36.95-10.09,55.39-15.22,36.32-10.1,73.09-18.57,109.75-25.66,24.18-4.68,49.6-11.9,73.18-12.61,2.49-.07,4.68.81,6.24,2.23,1.73,1.57,2,3.4.83,5.3-1.17,1.9-3.46,3.15-6.87,3.85-3.41.71-5.9.45-7.48-.76-1.93-1.48-4.41-2.02-7.42-1.62-.77.19-3.65.58-8.64,1.26-5.01.67-12.57,1.78-22.66,3.48-10.11,1.7-18.35,2.96-25.01,4.15-41.59,7.27-83.2,16.34-124.01,27.11-24.95,6.59-50.29,13.18-75.23,20.77-14.49,4.41-29.84,10.84-44.5,11.19-2.56.06-3.81-.73-3.61-2.07.24-1.62,1.89-3.73,5.16-6.19,3.26-2.45,9.97-6.65,21.05-12.44,8.31-4.38,12.64-6.54,21.57-10.92-11.71,3.65-23.41,7.33-35.04,11.39-25.73,9.13-54.72,27.3-79.8,29.28-.57.04-.97-.08-1.08-.25-1.29-.33-.23-2.07,3.36-4.89,43.08-33.79,95.94-52.95,142.25-80.09,17.05-10.12,34.45-19.94,50.79-31.86-2.23.88-3.34,1.32-5.56,2.21-4.24,1.69-9.86,4.08-16.82,7.16-6.96,3.09-14.65,6.59-23,10.46-8.36,3.88-16.79,7.78-25.28,11.69-8.49,3.92-16.33,7.6-23.53,11.05-7.21,3.45-13.27,6.4-18.23,8.85-4.98,2.46-8.21,4.11-9.74,4.97-9.73,5.38-15.85,7.88-18.73,7.67-2.2-.16-2.84-.67-2-1.24,9.82-6.56,21.86-11.52,32.85-16.98,55.11-27.08,109.9-54.12,162.84-87.51Z"/>
    </g>
  </g>
</svg>